<svg id="Capa_1" xmlns="http://www.w3.org/2000/svg" viewBox="0 0 128.9421746 62.4084">
  <defs>
    <style>
      .cls-1 {
        fill: #e50695;
      }

      .cls-2 {
        fill: #ff9e18;
      }

      .cls-3 {
        fill: #5ac3b5;
      }

      .cls-4 {
        fill: #405464;
      }
    </style>
  </defs>
  <g id="g14">
    <polygon id="polygon6" class="cls-4"
      points="34.5457458 37.6864461 44.5736466 37.6864461 44.5736466 30.8949859 34.5457458 30.8949859 34.5457458 28.6705211 45.1620898 28.6705211 45.1620898 21.6410591 27.1246151 21.6410591 27.1246151 47.0940442 45.7505331 47.0940442 45.7505331 40.0645836 34.5457458 40.0645836 34.5457458 37.6864461" />
    <path id="path8" class="cls-4"
      d="M22.7506438,37.0043017c-.2904742-.7927125-.7140024-1.4973443-1.2612183-2.0970326-.4760021-.5228527-1.0400835-.9669953-1.6772503-1.3249345.3354504-.2698598.6446645-.5697033.9201462-.8957829.908901-1.0719416,1.3699106-2.4193648,1.3699106-4.002914,0-1.487975-.3167104-2.7248301-.9426335-3.6768343-.6090576-.9238936-1.4130138-1.654763-2.3893798-2.1701194-.9201462-.4853721-1.9658501-.8114525-3.1090041-.9726179-1.0644453-.148048-2.1345125-.2230085-3.1820909-.2230085H0v25.4529866h13.3299276c1.0981778,0,2.2188444-.1180644,3.3263915-.3523173,1.1581465-.2436236,2.2188444-.6540352,3.1558561-1.221864.976366-.5921921,1.785944-1.3792813,2.4024979-2.3444022.6409156-1.0026036.9669953-2.2413332.9669953-3.6805818,0-.8732956-.1442992-1.7109828-.4310245-2.4905772ZM7.1831319,28.2788494h5.4477858c.3204578,0,.6559082.0318581.9969804.0974486.296096.0562213.5565852.1442992.7739711.264238.1536699.0843305.2773561.2005204.3748047.3541903.0787086.1236862.1199374.3204578.1199374.5697033s-.0431032.4666314-.1274336.6184283c-.0918267.1649135-.2061423.2923472-.3504429.3879228-.1911498.1255592-.414159.2192604-.66153.2773561-.2942216.0693394-.5959395.1030719-.8995318.1030719h-5.6764169v-2.6704833l.0018759-.0018759ZM15.8298755,39.6054456c-.118063.196773-.264238.3485685-.446017.4666328-.2061423.1349299-.4347734.2267581-.6952625.2829765-.3167104.067465-.6352938.1030719-.9445079.1030719h-6.5609562v-3.0377917h6.5590817c.3092141,0,.6277975.0337325.9445079.1030719.2623636.0543468.4891202.148048.6952625.2829779.1817805.118063.3279541.2717328.446017.4666314.0974486.1611661.1461736.3860484.1461736.6671533,0,.2811064-.048725.5059857-.1461736.6671519l.0018744-.0018759Z" />
    <path id="path10" class="cls-4"
      d="M71.7170002,24.6563627c-1.219991-1.1600202-2.6836028-2.0614257-4.3477365-2.6817277-1.6472681-.6109313-3.4650674-.9220191-5.4028068-.9220191s-3.7555444.3092141-5.4028068.9220191c-1.6660095.6184276-3.1277454,1.5198331-4.3477365,2.6817277-1.223737,1.1637683-2.1907338,2.5898995-2.8710052,4.2371676-.6765197,1.637896-1.0194692,3.4781869-1.0194692,5.474022s.3429438,3.836126,1.0194692,5.474022c.6802714,1.6472653,1.6453923,3.0733972,2.8691293,4.2371669,1.219991,1.1600209,2.6836028,2.0632987,4.3496066,2.681727,1.6472681.6109306,3.4650674.9220191,5.4028068.9220191s3.7555444-.3110886,5.4028068-.9220191c1.6660095-.6184283,3.1296213-1.521706,4.3477365-2.681727,1.223737-1.1637698,2.1907338-2.5899016,2.8710052-4.2371669.6765197-1.637896,1.0194692-3.4800613,1.0194692-5.474022s-.3429438-3.836126-1.0194692-5.474022c-.6802714-1.6453923-1.6453923-3.0715242-2.8710052-4.2371669l.0000057-.0000007ZM64.4720252,40.188267c-.7327438.3073397-1.5760543.464757-2.5055683.464757s-1.7728245-.1555443-2.5074442-.464757c-.7289978-.3054667-1.3605428-.7364898-1.8777693-1.2818313-.5191024-.5453415-.925768-1.2049971-1.2068715-1.9583538-.2867253-.7664749-.4328989-1.6360216-.4328989-2.580531s.1461736-1.7896929.4347748-2.5692858c.2811035-.760853.6858932-1.4223845,1.2049956-1.9695989.5172323-.5453415,1.1506531-.976366,1.8777693-1.2818313.7346197-.3073397,1.5779302-.4647584,2.5055683-.4647584s1.7709544.1555443,2.5055683.4647584c.7289978.3054653,1.3605428.7364912,1.8777693,1.2799583.5191024.5453415.9238921,1.2087445,1.2049956,1.9695989.2886012.7814674.4347748,1.6453923.4347748,2.5692858s-.1461736,1.8121802-.4328989,2.582404c-.2811035.7514838-.6877691,1.4111394-1.2068715,1.9583538-.5172323.5434656-1.1487772.9744916-1.8777693,1.2799583l.0018759.001873Z" />
    <polygon id="polygon12" class="cls-4"
      points="95.6220416 21.6410591 95.6220416 34.8547981 87.539378 21.6410591 78.8008062 21.6410591 78.8008062 47.0940442 86.2219398 47.0940442 86.2219398 33.4811387 94.5669656 47.0940442 103.0431695 47.0940442 103.0431695 21.6410591 95.6220416 21.6410591" />
  </g>
  <polyline id="polyline16" class="cls-3"
    points="95.4383853 40.6361585 103.0431695 40.6361585 103.0431695 33.0313728 95.4383853 40.6361585" />
  <polyline id="polyline18" class="cls-3"
    points="106.1240644 29.9373598 113.7307302 29.9373598 113.7307302 22.3325734 106.1240644 29.9373598" />
  <polygon id="polygon20" class="cls-3"
    points="128.9421746 14.7259126 121.3355202 22.3325734 121.3355202 14.7259126 128.9421746 14.7259126" />
  <polygon id="polygon22" class="cls-3"
    points="113.7307302 22.3325734 121.3355202 29.9373598 121.3355202 22.3325734 113.7307302 22.3325734" />
  <polyline id="polyline24" class="cls-2"
    points="106.1240644 14.7259126 113.7307302 22.3325734 113.7307302 14.7259126 106.1240644 14.7259126" />
  <polygon id="polygon26" class="cls-1"
    points="121.3355202 22.3325734 113.7307302 22.3325734 113.7307302 14.7259126 121.3355202 22.3325734" />
  <polygon id="polygon28" class="cls-1"
    points="128.9421746 29.9373598 121.3355202 29.9373598 121.3355202 22.3325734 128.9421746 29.9373598" />
  <polygon id="polygon30" class="cls-2"
    points="117.5331195 18.5283061 121.3355202 22.3306997 121.3355202 14.7259126 117.5331195 18.5283061" />
  <polygon id="polygon32" class="cls-1"
    points="113.7307302 29.9373598 117.5331195 26.134967 113.7307302 22.3306997 113.7307302 29.9373598" />
</svg>