<svg id="Capa_1" xmlns="http://www.w3.org/2000/svg" viewBox="0 0 163.2 62.41">
  <defs>
    <style>
      .cls-1 {
        fill: #ffd23b;
      }

      .cls-2 {
        fill: #3f84fb;
      }

      .cls-3 {
        fill: #2e3033;
      }
    </style>
  </defs>
  <path id="Union_16" class="cls-2"
    d="m-.1,45.6v-10h30.8v10H-.1ZM-.1,16.8h8.6c0,3.8,3.1,6.9,6.9,6.9h0c3.8,0,6.9-3.1,6.9-6.9h8.5c0,8.5-6.9,15.4-15.4,15.4S-.1,25.3-.1,16.8Z" />
  <path id="Intersection_2" class="cls-1" d="m18.2,17h0c0,1.6-1.3,2.9-2.9,2.9-1.5,0-2.8-1.3-2.8-2.8v-.1h5.7Z" />
  <path id="Union_17" class="cls-3"
    d="m128.8,34.5c0-5,3.2-8.4,8-8.4s8,3.2,8,8.1c0,.6,0,1.1-.1,1.7h-11.6c.3,2.2,1.5,3.7,3.8,3.7,1.5,0,3-.7,3.9-1.9l3.1,1.6c-1.6,2.3-4.2,3.6-7,3.5-4.9-.1-8.1-3.4-8.1-8.3Zm4.3-1.4h7.4c-.3-2.4-1.6-3.8-3.7-3.8s-3.4,1.4-3.7,3.8h0Zm-14.7,4.6v-16h4v4.7h4.7v3.3h-4.7v7.1c-.1,1.2.8,2.3,2,2.4h.2c.9,0,1.9-.2,2.8-.5v3.3c-1.3.5-2.7.8-4.1.7-2.6.1-4.8-1.9-4.9-4.5v-.5h0Zm-19-1.3v-10h4v9.4c0,1.9,1.6,3.4,3.5,3.4,1.7,0,3.1-1.3,3.4-3v-9.8h4v16h-3.9l-.1-2c-1.2,1.5-3,2.3-4.9,2.3-3.6,0-6-2.5-6-6.3h0Zm-16.7-2c0-5,3.4-8.3,8.6-8.3,2,0,3.9.6,5.5,1.8l-2.3,2.7c-.9-.8-2-1.2-3.2-1.1-2.7,0-4.5,1.9-4.5,4.8s1.8,4.8,4.5,4.8c1.4.1,2.7-.4,3.6-1.4l2.3,2.7c-1.6,1.5-3.8,2.3-6.1,2.2-5,.1-8.4-3.2-8.4-8.2Zm-19.1,0c0-5,3.5-8.3,8.6-8.3s8.6,3.3,8.6,8.3-3.4,8.3-8.6,8.3-8.6-3.3-8.6-8.3Zm4.2,0c0,2.9,1.8,4.8,4.4,4.8s4.4-1.9,4.4-4.8-1.8-4.8-4.4-4.8-4.4,1.9-4.4,4.8Zm91.3,8v-9.4c0-2.1-1.5-3.4-3.7-3.4s-3.7,1.4-3.7,3.4v9.4h-4v-16h3.9l.1,2c1.3-1.5,3.2-2.4,5.2-2.3,3.8,0,6.4,2.5,6.4,6.2v10.1h-4.2Zm-117,0v-22h8.6c6.5,0,10.8,4.4,10.8,11s-4.3,11-10.8,11h-8.6Zm4.2-3.5h4.5c3.9,0,6.5-3,6.5-7.5s-2.6-7.5-6.5-7.5h-4.5v15Z" />
</svg>