<svg id="Capa_1" xmlns="http://www.w3.org/2000/svg" viewBox="0 0 161.3915792 62.4083826">
  <defs>
    <style>
      .cls-1 {
        stroke-width: 0px;
      }

      .cls-2 {
        isolation: isolate;
      }
    </style>
  </defs>
  <g class="cls-2">
    <g id="Layer-1">
      <path class="cls-1"
        d="m63.3516015,34.8280237c-.698573,2.4013356-2.6633021,3.9731199-5.1956143,4.1695915-1.7027626.1528116-3.2308852-.3274549-4.5843679-1.3316494-.3274549-.2401332-.5020981-.5020981-.4802665-.9387046.0218317-1.3316494,0-2.6632988,0-3.9949482v-3.9949499c0-.4147765.1091516-.6767397.4366065-.9168729,2.0302208-1.5062927,5.173786-1.6809351,7.3349867-.4147765,1.1351795.6767397,1.9428975,1.6372743,2.3576723,2.9034337.5239264,1.484461.5675897,3.0125836.1309833,4.5188763m-10.2165954-10.0856088c-.08732.0873216-.1964716.1091516-.4147748.1964732v-1.2879894c-.9387046-.1091516-3.0780769-.0654908-3.4928518.0654908v24.3408099h3.8857983v-7.2913301c.2837949.1746433.4366065.2837949.6112497.3711148.7640613.4366065,1.5281226.8732129,2.3795039,1.0915162,4.0604415.9387046,8.2518596-.7640613,10.2820837-4.6280279,1.1788361-2.270354,1.4408027-4.6716896.9387012-7.1385151-1.5717793-7.4223083-9.7799823-9.1250734-14.1897103-5.7195424" />
      <path class="cls-1"
        d="m120.9836557,37.862439c-1.7027626,1.418971-3.6020034,1.7682559-5.6977091,1.0041945-1.0041896-.3711148-1.593611-1.0915162-1.6809376-2.1830324-.0873266-1.1351762.3711182-1.9865591,1.3753077-2.5759788,1.0260279-.5894181,2.1830324-.7640613,3.3182118-.7640613.8295496,0,1.6154493.0654916,2.4013356.3274549.5020948.1746433.5239331.1746433.5239331.6985697v2.859772c.065475.2837965-.0655016.4584381-.2401416.6330814m.0436633-14.2552011c-1.5499476-.5239281-3.1435719-.6549097-4.7808462-.4802673-1.4626343.1746424-2.8816054.5675881-4.1914248,1.2661586-.2837915.1528124-.4366065.3492848-.4147815.6985705.021825.7640613,0,1.5281226,0,2.270354v.7422313c.1091516.02183.1746399.0654916.1964782.02183.1091516-.0654916.1964782-.0873216.3274549-.1528116,1.2879944-.8732129,2.7069654-1.3534794,4.2350881-1.5062927,1.1788428-.0873216,2.314009,0,3.3837001.5675881.8295496.4366065,1.2879944,1.1351762,1.440796,2.0738807.0654883.4366065.0654883.9168729.0873266,1.375311,0,.1091516-.021825.2619632-.0654883.4147765-.1528149-.02183-.2401282-.02183-.3274549-.0654916-1.4626343-.4802665-2.9689187-.5894181-4.4970413-.4366065-1.5062977.1528116-2.9252687.5675881-4.1914248,1.440801-1.8555775,1.2879894-2.6414705,3.0780753-2.4449989,5.3047676.1964716,2.1830324,1.2879944,3.8203066,3.3182118,4.6716879,2.8816054,1.2006678,5.6322208.9168729,8.1863713-.9605329.0873266-.0654916.1964782-.1091516.3492798-.1964716.021825.4802665.021825.8732129.0654883,1.2879878h3.4273635c.021825-.1746433.021825-.2837949.021825-.4147748,0-4.1041015.021825-8.1863713,0-12.2904728-.0654883-2.6414688-1.6154359-4.7590104-4.1259232-5.6322233" />
      <path class="cls-1"
        d="m157.1565044,37.862439c-1.5062977,1.375311-3.9949465,1.7900859-5.850524.9387046-.8732129-.4147765-1.418971-1.0478562-1.5062977-2.0520507-.0873266-1.0478562.2619665-1.8992375,1.1351795-2.5323172.6112464-.4147765,1.2661561-.6549097,1.9865541-.7640613,1.2879944-.1964732,2.5759755-.1964732,3.8421316.1746433q.6549097.1964732.6549097.851383v2.7506204c.0218383.2619632-.0654883.4584348-.2619532.633078m4.1477615-8.5574862c0-2.3795056-1.3753077-4.9336528-4.5188796-5.8068657-1.9647291-.5675881-3.9294582-.5239281-5.8941874-.0654908-.9387012.2401332-1.8119142.5239281-2.6633021,1.0041945-.1746399.1091516-.3711182.1746424-.3711182.4802673v3.2090569c.0654883.02183.0873266.0654916.1528149.0873216.1528149-.0873216.3274549-.1964732.4802698-.2837949,1.8774025-1.1788378,3.9076332-1.6809342,6.1124906-1.3316494s3.3400368,2.1393724,2.7942787,4.3224031c-.0873266-.02183-.1746399-.02183-.2619665-.0654916-1.440796-.4802665-2.9034304-.5894181-4.431553-.4366065-1.593611.1528116-3.0780703.5894181-4.409728,1.5281226-3.4928518,2.4449956-3.0562453,8.0335597.8295496,9.8018139,2.9034304,1.3316511,5.7195474,1.0260245,8.3391863-.8513813.1091516-.08732.1964782-.1528116.4147815-.2619632v1.2879878c.7422363.1091516,3.0780703.08732,3.4928518-.0218317,0-.0654916.021825-.1528116.021825-.2401349-.0654883-4.1477565-.0873133-8.251858-.0873133-12.3559578" />
      <path class="cls-1"
        d="m99.6117636,37.6441357c-.9605329-2.314014-1.8119142-4.6280279-2.6414705-6.9638735-.8513813-2.3576756-1.6809376-4.6935196-2.5323189-7.0511943h-4.1477615c.08732.2401332.1528149.4147765.1964716.5894189l5.5449008,14.1023887c.4366065,1.0915162.8513813,2.183034,1.2879878,3.2963785.08732.1964716.1528149.3711148.4366065.3711148h3.7329867c.4147748-.6985697,7.0730235-17.9445253,7.0948551-18.3593018h-3.9949465c-1.6372676,4.6716896-3.2963735,9.3433791-4.9773111,14.0150687" />
      <path class="cls-1"
        d="m129.8249367,17.4729169v24.1661687c0,.08732.021825.1528116.021825.2401349,0,.0218317.021825.0218317.021825.0654916l.021825.0218317h3.7548183v-24.755591h-3.8203066c.0218383.1091516.0000133.1746428.0000133.261964" />
      <path class="cls-1"
        d="m70.6429283,41.9228805h3.8857949v-14.9537733h5.8941874v-3.3400393h-9.7799823v18.2938126Z" />
      <path class="cls-1"
        d="m20.3240309,12.495603c-.6767397.6549098-1.2661594,1.3316497-1.7682559,2.0520504-2.3795056,3.6238336-2.6414688,7.3786494-.7640613,11.2644468.6985697,1.5062918,1.5499526,2.9034329,2.3576756,4.3442339.02183.0873216.1091516.1528116.2401332.2837949.9605346-1.8555775,2.0520507-3.5801734,2.8161121-5.4575809,1.8119159-4.3224039.7422297-9.0377539-2.8816037-12.4869451" />
      <path class="cls-1"
        d="m25.934425,39.0194468c-1.2879894-1.0260245-2.6632988-1.9428991-3.9949499-2.9034337-.0873216-.0654916-.1964732-.1091516-.3492848-.1964732-.02183.1746433-.0654916.2837949-.0654916.4366065-.0873216,1.5281226-.1528116,3.0562453-.2401332,4.5843696-.0654916,1.2879878.1091516,2.5323189.5020981,3.754815,1.1351762,3.6020034,3.6456634,5.8941874,7.0948551,7.1821784.1528116.0654916.2837949.08732.4366065.1091516.4366065-.829553.829553-2.6632988.8513813-3.8421383.1091516-3.7329867-1.3098194-6.8110636-4.2350814-9.1250759" />
      <path class="cls-1"
        d="m4.4097255,22.4502309c1.2006678,4.3660647,4.016779,7.0948551,8.4483354,8.1645413,1.375311.3274549,2.8161121.5239281,4.2350831.7640613.2837949.0654916.6112497.0873216,1.0041945.1528116-.0873216-.2619632-.1528116-.4147765-.1964732-.5894181-.5020981-1.2224978-1.0260245-2.4668272-1.5499526-3.667495-.1964732-.5020981-.4366065-1.0260245-.7422313-1.5062927-2.335844-3.7766458-5.7195449-5.6103925-10.1511004-5.5449017-.4366065,0-.9168738.0654908-1.3753102.0873216,0,.1964732-.0218304.3711157,0,.5239281.1091516.5457573.1746424,1.0915153.3274549,1.6154434" />
      <path class="cls-1"
        d="m22.5725549,31.5098151c.1964732-.02183.3492848-.02183.4802665-.02183,1.5062927-.2619632,2.9689237-.5020981,4.4533863-.7858913,4.3660647-.9168729,7.2476667-3.5146818,8.5793178-7.7715948.2619632-.8295521.4366065-1.6372743.4802665-2.5323172-.1528116-.02183-.2619632-.0654908-.3492865-.0654908-.6985697-.02183-1.4408027-.0873216-2.1393724-.02183-4.4097247.283794-7.5532916,2.4668264-9.4525308,6.4399446-.6985697,1.440801-1.2661594,2.9689237-1.8992375,4.4315563-.0654883.0218283-.08732.1746399-.1528099.3274532" />
      <path class="cls-1"
        d="m17.2241256,34.2604356c.0873216-.0873216.1746433-.1964732.2837949-.3492848-1.6809342-.4802665-3.3182085-.9168729-4.9336528-1.3534794-1.7682559-.4802665-3.5146818-.5020981-5.3047685-.0873216-3.1872286.6985697-5.5012429,2.6632988-7.2694992,5.4794109.5020975.2619632.8732129.5239281,1.3316498.7422313,4.2350827,2.1830324,8.8412806,1.6372743,12.4869456-1.418971,1.1351762-.9823646,2.2703523-2.0083908,3.4055301-3.0125853" />
      <path class="cls-1"
        d="m19.0797031,35.8758799c-.1746433.1091516-.2837949.1746433-.4147765.2619632-1.2224978.8732129-2.4668272,1.7682559-3.667495,2.6414688-.4147765.2837949-.7858913.6112497-1.1351762.9387046-3.4055301,3.3182085-4.1695915,7.7715965-2.6414688,12.0939979.02183.0654916.0873216.1091516.1528124.2401349.5675881-.2401349,1.0915162-.4147748,1.6154434-.6767414,4.2569131-2.1393724,6.4399454-5.6103925,6.3744538-10.3912353,0-1.2879894-.0873216-2.5759788-.1528116-3.8857983-.04366-.3711115-.0873216-.742228-.1309816-1.2224945" />
      <path class="cls-1"
        d="m30.8244162,32.1865548c-.9387046,0-1.8555775.1091516-2.7506221.3492848-1.6154443.4366065-3.2527185.8732129-4.9118228,1.3534794.0873216.1528116.0873216.1746433.1091516.1964732,1.418971,1.2224978,2.7942821,2.5541472,4.2787447,3.689325,1.7027659,1.3534794,3.6893233,2.0302208,5.8941874,2.1830324,2.4886555.1528116,4.7808395-.5675881,6.8983836-1.8555775.08732-.0654916.1746433-.1528116.3274549-.2619632-.5239264-.6985697-1.0260245-1.418971-1.5936143-2.0302208-2.2266923-2.4013356-4.9554828-3.6238334-8.251863-3.6238334" />
      <path class="cls-1"
        d="m138.5134028,24.2184868c0,5.8723574.021825,11.7665447.021825,17.6389021,0,.0218317.021825.0218317.021825.0654916s.021825.0218317.021825.0218317h3.7548183v-18.3156443h-3.8857949c.0655016.2401341.0655016.4147765.0655016.5894189" />
      <path class="cls-1"
        d="m83.6974591,41.9010488c.698573.1091516,3.3837001.08732,3.8421383-.0218317v-18.2501493h-3.8421383v18.271981Z" />
      <path class="cls-1"
        d="m140.5436202,16.4687219c-1.3316444-.0218304-2.3795106.9605342-2.4013356,2.292184-.021825,1.3534802.9387012,2.3576748,2.292184,2.3795056,1.3753077.02183,2.3795106-.9168738,2.4013356-2.2703536,0-1.3534806-.9823646-2.3795056-2.292184-2.401336" />
      <path class="cls-1"
        d="m85.6621882,16.4687219c-1.3316511-.0218304-2.3576723,1.004195-2.3576723,2.3140144,0,1.3534798.9605329,2.3576752,2.3140156,2.3576752s2.3576723-.9605346,2.3576723-2.3140144c.0218317-1.3316498-.9605329-2.3358448-2.3140156-2.3576752" />
    </g>
  </g>
</svg>