<svg id="Capa_1" xmlns="http://www.w3.org/2000/svg" viewBox="0 0 139.86 62.41">
  <defs>
    <style>
      .cls-1 {
        fill: #2e3033;
      }
    </style>
  </defs>
  <g id="Layer_2">
    <g id="Layer_1-2">
      <g>
        <g>
          <path class="cls-1"
            d="m6.43,21.54l-2.33-.98c-.76-.31-1.58-.74-1.58-1.84,0-1.23,1.09-1.66,2.11-1.66s1.88.44,2.73,1.34c.02.02.05.03.08.03s.06-.02.07-.04l.89-1.15c.06-.08.06-.18,0-.25-1.04-1.06-2.26-1.61-3.65-1.61-1.08,0-2.1.31-2.86.86-.85.6-1.35,1.58-1.33,2.62,0,1.45.73,2.54,2.15,3.19.47.24,1.34.58,2.03.85l.07.03c.68.27,1.93.76,1.93,1.97s-.96,2.03-2.39,2.03c-1.34,0-2.5-.92-3.14-1.78-.02-.02-.05-.04-.08-.04s-.06,0-.08.04l-1,1.12c-.07.08-.07.18,0,.25.59.68,1.9,2.1,4.11,2.1s4.53-1.33,4.53-3.85c0-1.4-.8-2.56-2.26-3.24Z" />
          <path class="cls-1"
            d="m22.56,17.13c-1.21-1.14-2.86-1.78-4.67-1.78s-3.46.63-4.67,1.78c-1.29,1.22-1.96,2.9-1.96,4.87s.68,3.65,1.96,4.87c1.21,1.14,2.86,1.78,4.67,1.78s3.46-.63,4.67-1.78c1.29-1.22,1.96-2.9,1.96-4.87s-.68-3.65-1.96-4.87Zm-.05,4.83c0,2.86-1.91,4.87-4.63,4.87-1.26,0-2.42-.46-3.26-1.3-.89-.89-1.36-2.13-1.36-3.57,0-2.86,1.91-4.87,4.63-4.87s4.63,2,4.63,4.87h0Z" />
          <path class="cls-1"
            d="m34.06,26.71h-4.07c-.11,0-.19-.09-.19-.19v-10.79c0-.11-.09-.19-.19-.19h-1.59c-.11,0-.19.09-.19.19v12.5c0,.11.09.19.19.19h6.06c.11,0,.19-.09.19-.19v-1.32c0-.11-.1-.19-.2-.19h0Z" />
          <path class="cls-1"
            d="m37.24,15.53h1.59c.11,0,.19.09.19.19v12.5c0,.11-.09.19-.19.19h-1.59c-.11,0-.19-.09-.19-.19v-12.5c0-.11.09-.19.19-.19Z" />
          <path class="cls-1"
            d="m51.78,17.26c-1.22-1.11-2.94-1.72-4.85-1.72h-3.73c-.11,0-.19.09-.19.19v12.5c0,.11.09.19.19.19h3.73c1.91,0,3.63-.61,4.85-1.72,1.28-1.17,1.96-2.8,1.96-4.72s-.68-3.54-1.96-4.71Zm-4.85,9.42h-1.74c-.11,0-.19-.09-.19-.19v-9.03c0-.11.09-.19.19-.19h1.75c2.86,0,4.79,1.9,4.79,4.72s-1.93,4.69-4.8,4.69h0Z" />
          <path class="cls-1"
            d="m66.59,15.53h-1.59c-.11,0-.19.09-.19.19v7.24c0,.96,0,2.04-.57,2.79-.55.72-1.35,1.08-2.37,1.08s-1.85-.38-2.37-1.08c-.57-.75-.57-1.84-.57-2.79v-7.24c0-.11-.09-.19-.19-.19h-1.61c-.11,0-.19.09-.19.19v7.4c0,1.66.17,2.9,1.05,3.92.89,1.05,2.2,1.58,3.88,1.58s2.97-.53,3.88-1.58h0c.86-1.02,1.04-2.26,1.04-3.92v-7.4c0-.11-.09-.19-.19-.19h0Z" />
          <path class="cls-1"
            d="m76.29,21.54l-2.34-.97c-.76-.31-1.58-.74-1.58-1.84,0-1.23,1.09-1.66,2.11-1.66s1.88.44,2.73,1.33c.02.02.05.03.08.03s.06-.02.07-.04l.89-1.15c.06-.08.06-.18,0-.25-1.04-1.06-2.26-1.61-3.65-1.61-1.08,0-2.1.31-2.86.86-.85.6-1.35,1.58-1.33,2.62,0,1.45.73,2.54,2.15,3.19.47.24,1.34.58,2.03.85l.07.03c.68.27,1.93.76,1.93,1.97s-.96,2.03-2.39,2.03c-1.34,0-2.5-.92-3.14-1.78-.02-.02-.05-.04-.08-.04s-.06,0-.08.04l-.99,1.13c-.07.08-.07.18,0,.25.59.68,1.9,2.1,4.11,2.1s4.53-1.33,4.53-3.85c0-1.41-.8-2.56-2.26-3.25Z" />
          <path class="cls-1"
            d="m6.99,45.1H2.92c-.11,0-.19-.09-.19-.19v-10.79c0-.11-.09-.19-.19-.19H.94c-.11,0-.19.09-.19.19v12.5c0,.11.09.19.19.19h6.06c.11,0,.19-.09.19-.19v-1.32c0-.11-.1-.19-.2-.19Z" />
          <path class="cls-1"
            d="m15.69,33.95s-.05-.06-.09-.06h-1.57s-.08.02-.09.06l-5.17,12.72s0,.07,0,.09c.02.03.05.04.08.04h1.81c.08,0,.15-.05.18-.13l1.21-3.06c.03-.08.1-.13.18-.13h5.04c.08,0,.15.05.18.13l1.21,3.06c.03.08.11.13.18.13h1.92s.06-.02.08-.04c.02-.03.02-.06,0-.09l-5.19-12.72Zm.88,7.86h-3.59c-.11,0-.19-.09-.19-.19,0-.03,0-.05,0-.08l1.8-4.61c.04-.1.15-.15.25-.12.06.02.1.06.12.12l1.8,4.61c.04.1,0,.21-.11.25-.03.02-.06.02-.09.02Z" />
          <path class="cls-1"
            d="m30.21,40.12c-.11-.03-.15-.15-.13-.24,0-.05.05-.08.09-.11.85-.57,1.36-1.54,1.35-2.56,0-1.18-.46-2.05-1.4-2.65-.79-.51-1.8-.62-3.07-.62h-3.32c-.11,0-.19.09-.19.19v12.5c0,.11.09.19.19.19h4.03c1.53,0,2.51-.25,3.26-.85.96-.75,1.4-1.66,1.4-2.86-.02-1.43-.8-2.49-2.21-2.99Zm-4.7,1c0-.11.09-.19.19-.19h1.63c.79,0,1.57.04,2.17.45s.88.92.88,1.66-.27,1.3-.88,1.7c-.58.4-1.3.43-2.17.43h-1.62c-.11,0-.19-.09-.19-.19v-3.85Zm3.21-2.11c-.42.31-1.01.37-1.84.37h-1.19c-.11,0-.19-.09-.19-.19v-3.45c0-.11.09-.19.19-.19h1.35c1.7,0,2.5.59,2.5,1.87,0,.88-.41,1.3-.81,1.6Z" />
          <path class="cls-1"
            d="m41.04,39.92l-2.33-.98c-.76-.31-1.58-.73-1.58-1.84,0-1.23,1.09-1.66,2.11-1.66s1.88.44,2.72,1.33c.02.02.05.03.08.03s.06-.02.08-.04l.88-1.15c.06-.08.06-.18,0-.25-1.04-1.06-2.26-1.61-3.65-1.61-1.08,0-2.1.31-2.86.86-.85.6-1.35,1.58-1.33,2.61,0,1.45.73,2.54,2.15,3.19.47.24,1.34.58,2.03.85l.07.03c.68.27,1.93.76,1.93,1.97s-.96,2.03-2.38,2.03c-1.34,0-2.5-.92-3.15-1.78-.02-.02-.05-.04-.08-.04s-.06,0-.08.03l-.99,1.13c-.07.08-.07.18,0,.25.59.68,1.9,2.1,4.11,2.1s4.53-1.33,4.53-3.85c0-1.38-.8-2.55-2.26-3.22Z" />
        </g>
        <g>
          <path class="cls-1"
            d="m122.4,29.38l-4.81-3.32,4.81-3.32c1.01-.71,1.25-2.1.54-3.11-.15-.21-.33-.4-.54-.54l-11.81-8.14c-1.17-.81-2.72-.81-3.89,0l-11.81,8.13c-.6.42-.95,1.09-.94,1.82,0,.06,0,.13,0,.2,0,.03,0,.06,0,.1v9.99c0,.73.35,1.41.95,1.83l4.81,3.32-4.81,3.31c-1.01.71-1.25,2.1-.54,3.11.15.21.33.4.54.54l11.81,8.14c.57.4,1.25.61,1.95.61h0c.7,0,1.37-.21,1.95-.61l11.81-8.13c.6-.42.95-1.09.95-1.83,0-.05,0-.1,0-.14v-9.86s0-.08,0-.12c0-.07,0-.13,0-.18,0-.71-.36-1.38-.96-1.8Zm-26.72-.55v-5.56l4.04,2.78-4.04,2.78Zm11.98.58l-4.86-3.35,4.87-3.35c.29-.2.63-.31.99-.31h0c.35,0,.7.11.99.31l4.86,3.35-4.87,3.35c-.6.42-1.38.41-1.97,0h0Zm0,3.58c.29-.2.63-.31.99-.31h0c.35,0,.7.11.99.31l4.87,3.35-4.87,3.35c-.59.42-1.37.42-1.96,0l-4.86-3.35,4.85-3.35Zm-11.99-1.83c0-.14.08-.25.18-.33l5.39-3.72,5.44,3.76c.18.13.38.23.58.33-.2.09-.4.19-.57.32l-5.45,3.76-5.39-3.73h0c-.12-.08-.18-.2-.18-.34v-.05Zm12.98-10.54c-.7,0-1.37.21-1.95.61l-5.45,3.76-5.4-3.73c-.19-.14-.24-.42-.11-.61.03-.04.07-.08.11-.11l11.81-8.13c.29-.2.63-.31.99-.31h0c.35,0,.7.11.99.31l11.8,8.14c.19.14.24.42.11.61-.03.04-.07.08-.11.11l-5.39,3.72-5.44-3.76c-.59-.4-1.27-.61-1.96-.61h0Zm-12.8,20.5l5.39-3.72,5.44,3.76c.57.4,1.25.61,1.95.61h0c.7,0,1.37-.21,1.95-.61l5.45-3.76,5.4,3.72c.1.07.16.17.18.3v.1h0c0,.13-.08.24-.18.31l-11.81,8.13c-.59.41-1.37.41-1.96,0l-11.81-8.13c-.19-.14-.24-.42-.11-.61.04-.03.08-.07.12-.1h0Zm25.58-9.56l-5.4,3.72-5.44-3.76c-.18-.13-.38-.23-.58-.33.2-.09.4-.19.57-.32l5.45-3.76,5.4,3.73h0c.12.08.18.21.18.36,0,.15-.07.28-.18.36Zm-3.85,4.79l4.04-2.78v5.57l-4.04-2.79Z" />
          <path class="cls-1"
            d="m108.66,0v.04c16.51.81,29.65,14.45,29.65,31.17s-13.13,30.35-29.65,31.17v.04c17.23,0,31.2-13.97,31.2-31.2S125.88,0,108.66,0Z" />
        </g>
      </g>
    </g>
  </g>
</svg>