<svg id="Capa_1" xmlns="http://www.w3.org/2000/svg" viewBox="0 0 110.97 62.41">
  <defs>
    <style>
      .cls-1 {
        fill: #e7313a;
      }
    </style>
  </defs>
  <path id="logotype-teimas" class="cls-1"
    d="m106.69,29.62c-5.02-1.86-8.23-1.24-8.23-3.31,0-2.97,7.15-.98,9.19.24l2.11-3.66c.29-.55.07-1.27-.49-1.55-6.15-2.93-16.89-2.37-16.89,5.62,0,3.06,1.58,4.57,3.88,5.62,3.15,1.42,8.7,1.29,8.7,3.48,0,3.06-7.75,1.22-10.08-.29l-2.49,4.71c6.37,3.46,18.58,3.57,18.58-4.88,0-3.4-1.73-4.95-4.28-5.97h0Zm-33.34-6.68c-.29-.55-.09-1.27.49-1.55h0c6.15-2.93,16.89-2.49,16.89,6.1v14.65h-.84c-2.44,0-2.15-2.02-4.31-.95-4.31,2.04-8.12,1.86-10.56.31.2-2.06,1.49-3.86,3.4-4.68.29.49.93.87,1.98.95,2.86.22,4.84-1.64,4.84-5.46-2.2,1.84-4.02,1.46-5.33,1.84-1.18.29-1.71,1.38-1.69,2-2.04.84-3.48,2.69-3.82,4.88-1.44-1.18-2.26-2.91-2.26-4.99,0-2.91,1.8-5.39,4.35-6.39,5.02-1.86,8.17-1.24,8.17-3.31,0-2.97-7.15-.98-9.19.24l-2.11-3.64Zm-60.79,2.82v16.38h-6.01v-16.38H0v-5.46h19.13v4.35c-.02.62-.51,1.11-1.13,1.11h-5.44Zm26.23-5.46v5.46h-12.03v2.77h9.3v5.46h-9.28v2.71h12.03v5.46h-17.51v-21.86h17.49Zm20.75,18.53c-.33,0-.53-.18-.69-.44l-4.77-7.92c.09,2.33.13,4.79.13,7.15,0,1.51-.09,3.02-.13,4.53h-5.46v-21.84h4.95c.38,0,.71.2.91.53,2.04,3.42,5.08,8.43,5.08,8.43,0,0,3.04-5.02,5.08-8.43.18-.33.53-.53.91-.53h4.95v21.86h-5.48c-.04-1.51-.11-3.02-.11-4.53,0-2.35.04-4.82.13-7.15l-4.79,7.9c-.18.27-.36.44-.71.44h0Zm-18.58-18.53h5.46v21.86h-5.46v-21.86Z" />
</svg>