<svg id="Capa_1" xmlns="http://www.w3.org/2000/svg" viewBox="0 0 162.6838297 62.4083826">
  <defs>
    <style>
      .cls-1 {
        isolation: isolate;
        opacity: .6;
      }

      .cls-1,
      .cls-2 {
        fill: #25283d;
        stroke-width: 0px;
      }
    </style>
  </defs>
  <path class="cls-2"
    d="m60.2824606,25.1256977h-3.3462322v-4.064039h-3.9977502v4.064039h-2.4075167v3.0921539h2.4075167v9.4313335c-.0222377,3.1915146,2.2969571,4.7598277,5.3007861,4.6713516,1.137597-.0331192,1.9215978-.2539211,2.352317-.3974427l-.6736014-3.1254303c-.220959.0552027-.6736014.1547176-1.1707133.1547176-1.0049599,0-1.8110383-.3534389-1.8110383-1.9657558v-8.7687738h3.3462322v-3.0921539Zm3.3434324,16.9629985h3.9977502v-16.9629985h-3.9977502v16.9629985Zm2.0099138-19.3705137c1.2700739,0,2.308156-.9718214,2.308156-2.1645232,0-1.2037569-1.0380821-2.1755945-2.308156-2.1755945-1.2811127,0-2.3191948.9718377-2.3191948,2.1755945,0,1.1927018,1.0380821,2.1645232,2.3191948,2.1645232Zm10.0965358,9.431335c0-2.4518289,1.47984-3.8652702,3.5892687-3.8652702,2.0651195,0,3.3020712,1.3582401,3.3020712,3.6222337v10.1822152h3.9977561v-10.8006139c.0110388-4.0641488-2.308156-6.3831864-5.8089486-6.3831864-2.5399936,0-4.2849476,1.2147185-5.0579098,3.1031942h-.1988756v-2.8823923h-3.8211123v16.9629985h3.9977502v-9.9391786Zm16.8305215,16.2671623c3.1142344,0,4.9143881-1.6123169,5.875187-4.2739089l6.8139085-18.9949943-4.2739148-.022079-3.9204729,12.8105307h-.1766379l-3.9094342-12.8105307h-4.2407867l6.1513458,17.3164374-.3423972.916635c-.7619234,1.8772797-1.9105591,2.0209585-3.6553589,1.523998l-.9276767,3.1031956c.5411186.2319948,1.5129562.4307162,2.606238.4307162Zm15.6405186-6.3279837h3.9315176v-2.6726307h.2319978c.6294405,1.2369547,1.9436754,2.970867,4.8591884,2.970867,3.9977502,0,6.9905404-3.1695883,6.9905404-8.7575779,0-5.6543852-3.0811122-8.7244587-7.0015851-8.7244587-2.9929445,0-4.2407926,1.799998-4.8481437,3.025914h-.1657652v-8.4594202h-3.9977502v22.6173066Zm3.9204729-8.4814221c0-3.291031,1.4136015-5.4225431,3.9867173-5.4225431,2.661592,0,4.0310266,2.2639936,4.0310266,5.4225431,0,3.1804758-1.391524,5.4996676-4.0310266,5.4996676-2.5510383,0-3.9867173-2.2087924-3.9867173-5.4996676Zm15.4914035,8.4814221h3.9977502v-16.9629985h-3.9977502v16.9629985Zm2.0099198-19.3705137c1.270068,0,2.3081501-.9718214,2.3081501-2.1645232,0-1.2037569-1.0380821-2.1755945-2.3081501-2.1755945-1.2809585,0-2.3190405.9718377-2.3190405,2.1755945,0,1.1927018,1.0380821,2.1645232,2.3190405,2.1645232Zm6.0989339,19.3705137h3.997762v-9.9724551c0-2.1534355,1.6233557-3.6774334,3.8211063-3.6774334.6735955,0,1.5129562.1214412,1.8553534.2318421v-3.6774334c-.3644747-.06624-.9939152-.1104009-1.435679-.1104009-1.9436754,0-3.5671853,1.1043191-4.185581,3.0700734h-.1766438v-2.8271911h-3.8763179v16.9629985Zm17.9264429.2982362c2.9161418,0,4.2300682-1.7339123,4.8598172-2.970867h.2425679v2.6726307h3.9308889v-22.6173066h-4.0086406v8.4594202h-.1648162c-.6079799-1.2259159-1.8565991-3.025914-4.8487725-3.025914-3.9204729,0-7.0015851,3.0700734-7.0015851,8.7244587,0,5.5879896,2.9927903,8.7575779,6.9905404,8.7575779Zm1.1155135-3.2799907c-2.6395026,0-4.0310266-2.3191918-4.0310266-5.4996676,0-3.1585496,1.3694346-5.4225431,4.0310266-5.4225431,2.5734243,0,3.9868716,2.1315122,3.9868716,5.4225431,0,3.2908753-1.4352163,5.4996676-3.9868716,5.4996676Z" />
  <path class="cls-1" d="m37.3183229,15.7401704l-11.6500792-3.1953397-4.0989778,9.1599824,15.749057-5.9646426Z" />
  <path class="cls-1" d="m26.3622144,38.227934l-10.6179109-4.3095164-6.5007075,15.9451343,17.1186184-11.6356179Z" />
  <path class="cls-2" d="m0,28.9590914l26.1777972,9.3689803,4.2931896-20.0162009L0,28.9590914Z" />
</svg>