<svg id="Capa_1" xmlns="http://www.w3.org/2000/svg" xmlns:xlink="http://www.w3.org/1999/xlink"
  viewBox="0 0 119.57 62.41">
  <defs>
    <style>
      .cls-1 {
        fill: url(#linear-gradient);
      }

      .cls-2 {
        fill: url(#linear-gradient-2);
      }
    </style>
    <linearGradient id="linear-gradient" x1=".58" y1="33.89" x2="33" y2="33.89"
      gradientTransform="translate(0 62.88) scale(1 -1)" gradientUnits="userSpaceOnUse">
      <stop offset="0" stop-color="#049548" />
      <stop offset="1" stop-color="#93c03d" />
    </linearGradient>
    <linearGradient id="linear-gradient-2" x1="35.29" y1="41.81" x2="55.33" y2="41.81"
      gradientTransform="translate(0 62.88) scale(1 -1)" gradientUnits="userSpaceOnUse">
      <stop offset="0" stop-color="#e11f26" />
      <stop offset="1" stop-color="#f19120" />
    </linearGradient>
  </defs>
  <g id="Layer_1-2">
    <path
      d="m63.36,43.75c-.58,0-.98-.12-1.19-.37s-.3-.63-.3-1.14v-5.66h-.61v-1.66h.61v-1.93h2.11v1.93h.61v1.66h-.61v5.16c0,.15.02.25.07.32s.14.09.28.09c.1,0,.19,0,.26-.02v1.48s-.2.05-.45.09-.51.07-.78.07h0Z" />
    <path
      d="m65.4,43.65v-10.67h2.23v2.48c.12-.34.3-.59.54-.76s.53-.25.85-.25c.63,0,1.09.2,1.38.6s.43.92.43,1.59v7h-2.2v-6.86c0-.2-.04-.36-.12-.48s-.21-.19-.39-.19c-.15,0-.27.06-.35.19s-.13.29-.13.46v6.87h-2.23Z" />
    <path
      d="m74.13,43.75c-.65,0-1.16-.12-1.54-.37s-.66-.59-.83-1.05-.25-1.01-.25-1.65v-3.65c0-.84.24-1.48.73-1.92s1.15-.65,2-.65c1.74,0,2.62.86,2.62,2.57v.66c0,.8,0,1.34-.02,1.61h-3.15v1.76c0,.16.01.32.03.48s.07.29.14.38.19.15.34.15c.22,0,.37-.1.42-.29s.09-.45.09-.77v-.87h2.16v.51c0,.68-.08,1.25-.25,1.71s-.45.81-.85,1.04-.94.35-1.63.35h0Zm-.46-5.52h1.03v-1.22c0-.33-.04-.56-.12-.71s-.2-.22-.37-.22c-.17,0-.31.07-.4.2s-.14.38-.14.71v1.22h0Z" />
    <path
      d="m5.95,56.2l-.63-3.64,1.82-.32c.21-.04,21.28-3.75,40.43-9.83.61-.2,1.14-.37,1.59-.53-3.11-.35-7.92-.56-12.04-.75-8.13-.37-17.33-.79-23.55-2.1-2.46-.52-5.53-1.17-5.31-3.49.17-1.72.36-3.67,28.69-4.05l1.84-.02.05,3.69-1.85.02c-6.82.09-14.18.39-19.3.82,5.68.81,13,1.14,19.58,1.44,14.07.64,17.76.92,18.13,3.69.29,2.16-2.04,3.31-6.73,4.8-19.38,6.16-40.69,9.92-40.9,9.95,0,0-1.82.32-1.82.32Z" />
    <path class="cls-1"
      d="m11.01,7.17C2.78,10.16-1.46,19.26,1.54,27.48c5.42,14.9,25.72,24.3,25.72,24.3,0,0,9.5-20.25,4.08-35.15-3-8.23-12.09-12.47-20.32-9.47Zm8.12,22.29c-3.56,1.3-7.49-.54-8.79-4.09-1.3-3.56.54-7.49,4.09-8.79s7.49.54,8.79,4.09c1.3,3.56-.54,7.49-4.09,8.79Z" />
    <path class="cls-2"
      d="m36.32,13.44c-3.35,9.21,2.52,21.72,2.52,21.72,0,0,12.55-5.81,15.9-15.02,1.85-5.09-.77-10.71-5.86-12.56-5.09-1.85-10.71.77-12.56,5.86Zm5.01,2.49c.8-2.2,3.23-3.33,5.43-2.53s3.33,3.23,2.53,5.43-3.23,3.33-5.43,2.53-3.33-3.23-2.53-5.43Z" />
    <path d="m61.88,29.29V11.2h-2.66v-4.3h9.8v4.3h-2.66v18.09h-4.48,0Z" />
    <path
      d="m70.23,29.29V6.9h6.87c1.15,0,2.01.26,2.59.78.58.52.98,1.25,1.18,2.19s.3,2.04.3,3.3-.16,2.2-.47,2.93c-.31.73-.89,1.23-1.75,1.51.7.14,1.2.5,1.48,1.05.29.56.43,1.27.43,2.16v8.48h-4.42v-8.77c0-.65-.14-1.06-.4-1.22s-.69-.24-1.29-.24v10.22h-4.53,0Zm4.55-14.1h1.08c.62,0,.93-.68.93-2.02,0-.87-.07-1.45-.2-1.72s-.39-.41-.76-.41h-1.04s0,4.15,0,4.15Z" />
    <path
      d="m82.06,29.29l2.17-22.39h7.59l2.12,22.39h-4.24l-.32-3.61h-2.7l-.28,3.61h-4.35Zm4.95-7.19h2.04l-.98-11.38h-.2l-.85,11.38Z" />
    <path
      d="m100.32,29.49c-1.62,0-2.92-.5-3.91-1.51s-1.48-2.42-1.48-4.24v-10.33c0-2.17.43-3.83,1.29-4.99.86-1.15,2.26-1.73,4.21-1.73,1.06,0,2,.19,2.83.58s1.48.97,1.95,1.75c.48.78.71,1.76.71,2.93v3.87h-4.45v-3.31c0-.67-.09-1.12-.25-1.35s-.43-.35-.79-.35c-.42,0-.69.15-.84.45-.14.3-.22.7-.22,1.2v11.21c0,.62.09,1.05.27,1.31s.44.38.78.38c.38,0,.65-.16.81-.47s.24-.72.24-1.22v-4.03h4.5v4.24c0,1.97-.5,3.39-1.49,4.28s-2.38,1.33-4.16,1.33h0Z" />
    <path d="m107.48,29.29V6.9h4.43v8.97l2.08-8.97h4.5l-2.51,10.26,3.03,12.14h-4.65l-2.44-10.84v10.84h-4.45,0Z" />
    <path
      d="m79.15,52.18v-19.2h5.89c.98,0,1.72.22,2.23.67s.84,1.07,1.01,1.87.25,1.75.25,2.83-.13,1.89-.4,2.51-.76,1.06-1.5,1.3c.6.12,1.03.42,1.27.9s.37,1.09.37,1.85v7.27h-3.78v-7.51c0-.56-.11-.91-.34-1.04s-.6-.2-1.1-.2v8.76h-3.89Zm3.9-12.09h.92c.53,0,.79-.58.79-1.73,0-.75-.06-1.24-.17-1.47s-.34-.35-.65-.35h-.89v3.56h0Z" />
    <path
      d="m89.33,52.18l1.86-19.2h6.51l1.82,19.2h-3.63l-.27-3.1h-2.31l-.24,3.1h-3.73Zm4.24-6.16h1.74l-.84-9.76h-.17l-.73,9.76Z" />
    <path
      d="m105.01,52.35c-1.39,0-2.51-.43-3.36-1.3s-1.27-2.08-1.27-3.63v-8.85c0-1.86.37-3.29,1.1-4.27s1.94-1.48,3.6-1.48c.91,0,1.72.17,2.43.5s1.27.83,1.68,1.5.61,1.5.61,2.51v3.31h-3.82v-2.84c0-.58-.07-.96-.22-1.16s-.37-.3-.68-.3c-.35,0-.6.13-.72.38s-.19.6-.19,1.03v9.61c0,.53.08.91.24,1.12s.38.33.67.33c.33,0,.56-.14.69-.4s.2-.62.2-1.05v-3.46h3.86v3.63c0,1.69-.43,2.91-1.28,3.67s-2.04,1.14-3.57,1.14h0Z" />
    <path d="m111.1,52.18v-19.2h7.68v3.71h-3.77v3.74h3.62v3.61h-3.62v4.39h4.03v3.74h-7.94Z" />
  </g>
</svg>