<svg id="Capa_1" xmlns="http://www.w3.org/2000/svg" viewBox="0 0 191.14 62.41">
  <defs>
    <style>
      .cls-1 {
        fill: #43c794;
      }
    </style>
  </defs>
  <path class="cls-1"
    d="m12.63,26.51s.01.05.02.07l3.24,12.07c.74,2.75,3.57,4.39,6.32,3.65,2.75-.74,4.39-3.57,3.65-6.32l-1.92-7.16,2.72-.73c2.75-.74,4.39-3.57,3.65-6.32-.74-2.75-3.57-4.39-6.32-3.65l-7.71,2.07c-2.75.74-4.39,3.57-3.65,6.32Z" />
  <path class="cls-1"
    d="m7.07,33.34c-2.75.74-5.58-.9-6.32-3.65-.74-2.75.9-5.59,3.65-6.32,2.75-.74,5.58.9,6.32,3.65.74,2.75-.9,5.59-3.65,6.32Z" />
  <path
    d="m50.65,25.66h-3.78v-4.66h-.06l-3.67,2.32v2.34h-2.26v2.99h2.26v6.44c0,.76,0,4.32,4.01,4.32,1.47,0,2.82-.48,3.25-.85v-2.74h-.06c-.37.17-1.16.42-1.84.42-1.52,0-1.64-1.24-1.64-2.88v-4.72h3.78v-2.99Z" />
  <path
    d="m59.54,25.35c-1.95,0-3.16,1.04-3.92,2.65l-.37-2.34h-2.88v13.41h3.73v-6.27c0-3.61,1.86-4.29,3.08-4.29.76,0,1.58.2,2.03.34v-3.16c-.34-.14-1.04-.34-1.67-.34Z" />
  <path
    d="m68.16,25.21c-2.09,0-4.32.99-5.48,1.81l-.11,3.08h.06c.9-.76,2.85-1.69,5.14-1.69,1.81,0,2.65.65,2.65,1.55,0,1.07-.79,1.24-2.68,1.24-3.11,0-6.1.93-6.1,4.01,0,2.88,2.57,4.29,4.97,4.29,2.26,0,3.59-1.13,4.32-2.15l.31,1.72h2.88v-9.01c0-3.64-3.13-4.86-5.96-4.86Zm-.65,11.61c-1.19,0-2.23-.56-2.23-1.67,0-1.19.93-1.55,2.29-1.55,1.19,0,2.46-.17,3.13-.88v1.24c0,1.67-1.44,2.85-3.19,2.85Z" />
  <path
    d="m82.91,39.56c2.65,0,3.98-.79,4.8-1.38v-3.16h-.06c-.88.59-2.37,1.3-4.21,1.3-2.17,0-3.87-1.33-3.87-3.95s1.69-3.9,3.87-3.9c1.75,0,3.22.65,4.12,1.27h.06v-3.19c-.82-.54-2.29-1.33-4.69-1.33-4.18,0-7.12,3.25-7.12,7.14,0,4.12,2.96,7.2,7.09,7.2Z" />
  <path
    d="m90.08,39.08h3.73v-18.07h-3.73v18.07Zm12.71-13.36v-.06h-4.09l-4.88,5.84,5.03,7.57h4.49v-.06l-5.22-7.51,4.69-5.79Z" />
  <path
    d="m106.35,23.66c1.33,0,2.29-.88,2.29-2.06s-.96-2.06-2.29-2.06-2.32.9-2.32,2.06.96,2.06,2.32,2.06Zm1.84,15.42v-13.41h-3.73v13.41h3.73Z" />
  <path
    d="m118.1,25.32c-2.09,0-3.47,1.13-4.21,2.34l-.31-2h-2.88v13.41h3.73v-7c0-2.57,1.27-3.59,2.65-3.59s2.49.88,2.49,3.47v7.12h3.73v-7.88c0-3.42-1.72-5.87-5.2-5.87Z" />
  <path
    d="m135.75,27.67c-.71-1.33-2.17-2.4-4.32-2.4-3.61,0-6.41,2.82-6.41,6.8,0,4.18,2.71,6.78,6.18,6.78,1.92,0,3.25-.82,4.07-1.86v.73c0,2.23-1.38,3.5-3.61,3.5s-4.49-.76-5.73-1.55h-.06v3.19c1.21.82,3.59,1.61,6.13,1.61,3.9,0,6.97-2,6.97-7.6v-11.21h-2.88l-.34,2Zm-3.59,8.08c-2.34,0-3.36-1.92-3.36-3.67s.96-3.61,3.36-3.61,3.25,1.86,3.25,3.59-.96,3.7-3.25,3.7Z" />
  <path
    d="m149.22,25.27c-2.23,0-3.78,1.16-4.57,2.43l-.31-2.03h-2.88v18.49h3.73v-6.38c.82.99,2.12,1.67,3.84,1.67,3.64,0,6.35-3.11,6.35-7.29,0-3.95-2.63-6.89-6.16-6.89Zm-.93,11.01c-2.29,0-3.28-2-3.28-3.92s.99-3.92,3.25-3.92,3.36,2,3.36,3.95-1.02,3.9-3.33,3.9Z" />
  <path d="m161.08,39.08v-18.07h-3.73v18.07h3.73Z" />
  <path
    d="m169.69,25.21c-2.09,0-4.32.99-5.48,1.81l-.11,3.08h.06c.9-.76,2.85-1.69,5.14-1.69,1.81,0,2.65.65,2.65,1.55,0,1.07-.79,1.24-2.68,1.24-3.11,0-6.1.93-6.1,4.01,0,2.88,2.57,4.29,4.97,4.29,2.26,0,3.59-1.13,4.32-2.15l.31,1.72h2.88v-9.01c0-3.64-3.13-4.86-5.96-4.86Zm-.65,11.61c-1.19,0-2.23-.56-2.23-1.67,0-1.19.93-1.55,2.29-1.55,1.19,0,2.46-.17,3.13-.88v1.24c0,1.67-1.44,2.85-3.19,2.85Z" />
  <path
    d="m185.37,25.32c-2.09,0-3.47,1.13-4.21,2.34l-.31-2h-2.88v13.41h3.73v-7c0-2.57,1.27-3.59,2.65-3.59s2.49.88,2.49,3.47v7.12h3.73v-7.88c0-3.42-1.72-5.87-5.2-5.87Z" />
</svg>