<svg id="Capa_1" xmlns="http://www.w3.org/2000/svg" viewBox="0 0 191.14 62.41">
  <defs>
    <style>
      .cls-1 {
        fill: #2e3033;
      }
    </style>
  </defs>
  <path class="cls-1"
    d="m17.92,24.32c.08,0,.17.02.25.02h3.99c0,.09.01.16.01.23,0,3.84,0,7.69,0,11.54,0,2.98-2.17,5.55-5.11,6.08-.37.07-.76.1-1.14.1-3.23,0-6.46,0-9.68,0-3,0-5.56-2.11-6.13-5.06-.07-.36-.1-.74-.1-1.12,0-3.28,0-6.55,0-9.83,0-2.82,1.98-5.33,4.72-5.99.48-.12.97-.18,1.47-.18h11.71s.02.09.02.13v4.02s0,.04,0,.06c-.08,0-.17.01-.25.01H6.22c-.63.02-1.15.27-1.55.76-.32.39-.44.85-.44,1.35v9.6c.02,1.14.9,2,2.04,2h9.64c.11,0,.23,0,.34-.02,1.02-.16,1.7-1.05,1.69-2.02,0-3.81,0-7.62,0-11.43,0-.08,0-.17-.01-.25Z" />
  <path class="cls-1"
    d="m127.82,28.29v-4.51c.16-.05,2.45-.06,2.85-.02.04.15.07,13.7.02,14.16-.15.04-2.24.05-2.49,0-.06-.4-.12-.81-.19-1.24-.04.03-.09.05-.12.08-.9.93-2.02,1.34-3.28,1.4-.76.04-1.51-.05-2.24-.32-1.3-.49-2.23-1.38-2.76-2.65-.73-1.72-.74-3.49,0-5.21.71-1.67,2.01-2.66,3.81-2.94,1.14-.18,2.25-.04,3.29.47.34.17.65.37.94.62.05.04.09.07.17.14Zm.02,4.3c0-.13,0-.26-.02-.38-.11-1-.54-1.8-1.42-2.32-.56-.33-1.16-.43-1.8-.37-1.15.11-1.95.7-2.4,1.77-.25.6-.3,1.24-.2,1.88.11.68.38,1.27.9,1.74.63.58,1.38.8,2.21.74,1.15-.09,1.99-.65,2.46-1.72.19-.43.27-.88.27-1.35Z" />
  <path class="cls-1"
    d="m84.24,28.48c.07-.44.13-.83.19-1.24h2.48v10.68c-.15.04-2.05.06-2.48.02-.06-.4-.13-.81-.19-1.25-.04.03-.09.05-.12.08-.78.8-1.74,1.23-2.84,1.36-.91.11-1.8.04-2.66-.28-1.27-.47-2.2-1.33-2.74-2.56-.8-1.81-.8-3.66.02-5.47.73-1.58,2-2.5,3.73-2.77,1.01-.16,2-.06,2.95.31.57.22,1.07.55,1.51.98.04.04.08.08.15.14Zm-.17,4.11c0-.13,0-.26-.02-.38-.11-1-.54-1.8-1.42-2.32-.56-.33-1.16-.43-1.8-.37-1.15.12-1.95.7-2.4,1.77-.25.61-.3,1.24-.19,1.88.11.68.39,1.27.9,1.74.63.58,1.38.8,2.21.73,1.15-.09,1.99-.65,2.46-1.72.19-.41.27-.87.27-1.34Z" />
  <path class="cls-1"
    d="m63.22,37.94v-14.18h2.83s.01,0,.02.01,0,0,0,.02c0,.01,0,.03,0,.04v4.56c.06-.04.1-.06.13-.09.81-.83,1.8-1.23,2.95-1.29.71-.03,1.4.04,2.06.31,1.09.44,1.83,1.24,2.26,2.33.28.71.4,1.45.4,2.2,0,1.95,0,3.9,0,5.85v.24h-2.88v-5.68c0-.41-.03-.82-.16-1.22-.29-.94-1.01-1.48-1.99-1.51-.32,0-.64.01-.95.11-.98.3-1.54.97-1.75,1.95-.06.28-.08.58-.08.87,0,1.74,0,3.47,0,5.21v.27h-2.87Z" />
  <path class="cls-1"
    d="m117.05,36.41c-.09.08-.17.15-.25.22-.84.74-1.81,1.21-2.91,1.43-1.36.28-2.7.24-4.01-.23-1.85-.66-2.97-1.98-3.36-3.9-.23-1.12-.19-2.25.18-3.34.57-1.69,1.72-2.8,3.42-3.31,1.37-.42,2.76-.39,4.13.05,1.77.58,2.83,1.81,3.25,3.61.18.79.21,1.89.08,2.58h-8.24c0,.07,0,.12.01.16.17.8.65,1.36,1.37,1.72.53.27,1.1.36,1.69.36.68,0,1.34-.12,1.97-.38.37-.15.71-.35,1.03-.64.54.55,1.07,1.1,1.62,1.66Zm-2.19-4.8s.02-.04.02-.05c0-.03,0-.07,0-.1-.14-.92-.65-1.56-1.52-1.88-.66-.24-1.33-.27-2.01-.12-.93.21-1.56.78-1.85,1.7-.04.14-.07.3-.11.46,1.84,0,3.66,0,5.48,0Z" />
  <path class="cls-1"
    d="m97.17,37.95h-2.87v-10.7h2.48c.06.38.12.77.19,1.17.05-.03.09-.05.12-.08.91-.89,2.02-1.29,3.27-1.32.69-.02,1.37.08,2.02.35,1.19.51,1.93,1.43,2.32,2.65.19.6.28,1.22.28,1.84,0,1.95,0,3.9,0,5.85v.23h-2.88v-5.66c0-.41-.03-.82-.16-1.22-.29-.92-1.02-1.48-1.99-1.53-.37-.01-.74.02-1.09.15-.9.33-1.41,1-1.6,1.91-.06.29-.08.59-.08.89,0,1.73,0,3.46,0,5.19,0,.09,0,.17,0,.28Z" />
  <path class="cls-1"
    d="m50.45,37.95h-2.87c0-.08,0-.16,0-.25v-5.45c0-.39-.03-.78-.14-1.16-.29-.95-1.03-1.53-2.03-1.56-.36-.01-.72.02-1.07.15-.86.32-1.36.95-1.58,1.81-.08.31-.1.63-.1.95v5.5h-2.87v-10.7h2.48c.06.38.13.77.19,1.19.06-.05.1-.08.14-.12.71-.7,1.58-1.1,2.56-1.24.85-.12,1.69-.08,2.5.22,1.27.47,2.07,1.39,2.5,2.66.19.58.3,1.17.3,1.77,0,2.02,0,4.05,0,6.07,0,.04,0,.08,0,.15Z" />
  <path class="cls-1"
    d="m34.63,27.24h2.87v10.68c-.15.04-2.18.05-2.48,0-.06-.38-.13-.77-.19-1.19-.06.05-.1.08-.14.12-.77.76-1.72,1.16-2.79,1.28-.74.08-1.47.02-2.18-.24-1.22-.44-2.02-1.31-2.46-2.51-.24-.63-.35-1.29-.35-1.96,0-2.02,0-4.03,0-6.05,0-.04,0-.08,0-.12.15-.04,2.53-.06,2.87-.01v5.63c0,.36.01.72.11,1.07.22.82.69,1.41,1.53,1.61,1.35.33,2.73-.31,3.11-1.89.07-.31.09-.63.09-.95v-5.21c0-.08,0-.17,0-.27Z" />
  <path class="cls-1"
    d="m143.85,37.95h-1.59c0-.09,0-.17,0-.25v-5.79c0-.51-.04-1.02-.2-1.51-.34-1.12-1.15-1.76-2.31-1.85-.59-.04-1.16.02-1.7.28-.91.44-1.45,1.18-1.7,2.14-.09.36-.12.72-.12,1.1v5.88h-1.57c-.04-.16-.05-10.48,0-10.71h1.42c0,.5.01,1,.02,1.55.07-.08.11-.13.15-.17.77-1,1.79-1.5,3.04-1.55.68-.03,1.35.06,1.98.33.82.34,1.43.91,1.83,1.7.02.04.04.07.06.11,0,0,.01.02.03.05.03-.04.07-.09.1-.13.69-1.08,1.66-1.76,2.92-1.98.9-.16,1.78-.11,2.64.2,1.25.45,2.01,1.36,2.4,2.61.17.55.24,1.11.24,1.68,0,2.04,0,4.07,0,6.11,0,.07,0,.14,0,.22h-1.59v-6.05c0-.43-.03-.85-.13-1.27-.31-1.33-1.22-2.07-2.6-2.1-1.67-.03-2.97,1.05-3.22,2.7-.04.29-.06.58-.06.87,0,1.86,0,3.72,0,5.58,0,.07,0,.16,0,.26Z" />
  <path class="cls-1"
    d="m61.78,28.67c-.56.6-1.11,1.19-1.67,1.79-.07-.06-.12-.11-.17-.15-.97-.79-2.07-1.01-3.25-.62-1.08.36-1.68,1.16-1.88,2.27-.11.64-.07,1.28.17,1.88.39,1,1.14,1.6,2.19,1.77,1.14.19,2.15-.11,3-.92.01-.01.03-.03.05-.04,0,0,.01,0,.04-.02.55.6,1.11,1.2,1.68,1.8-.05.05-.09.1-.14.14-.88.81-1.9,1.36-3.1,1.53-1.29.18-2.55.06-3.75-.47-1.37-.6-2.29-1.62-2.75-3.05-.41-1.28-.43-2.58-.03-3.87.49-1.62,1.55-2.74,3.13-3.33,1.52-.56,3.05-.59,4.57,0,.69.26,1.28.67,1.82,1.16.03.04.06.07.1.12Z" />
  <path class="cls-1"
    d="m162.18,27.24h1.58c.04.16.05,10.46,0,10.71h-1.41v-1.69c-.07.07-.11.09-.14.13-1.1,1.32-2.53,1.83-4.21,1.72-.61-.04-1.19-.18-1.74-.45-1.06-.53-1.72-1.4-2.07-2.52-.17-.54-.26-1.1-.26-1.68,0-2.02,0-4.04,0-6.07,0-.04,0-.08,0-.15.53-.02,1.05,0,1.6,0v5.87c0,.53.04,1.05.21,1.55.38,1.14,1.16,1.8,2.36,1.96.64.08,1.27.03,1.86-.2,1.28-.5,1.97-1.48,2.17-2.81.03-.25.04-.49.04-.74,0-1.78,0-3.56,0-5.34,0-.08,0-.17,0-.28Z" />
  <path class="cls-1"
    d="m166.09,36.39c.28-.37.55-.75.83-1.13.04.03.08.06.11.08.75.68,1.65,1.06,2.64,1.25.77.15,1.55.16,2.33,0,.43-.09.85-.24,1.19-.53.45-.37.61-.85.49-1.43-.05-.26-.19-.47-.4-.64-.25-.2-.53-.33-.83-.42-.64-.21-1.29-.33-1.95-.43-.74-.11-1.48-.26-2.18-.55-.34-.13-.66-.3-.95-.52-.61-.46-.92-1.08-.95-1.85-.04-1.07.42-1.87,1.3-2.45.54-.35,1.13-.55,1.76-.66,1.27-.21,2.53-.17,3.76.23.66.21,1.26.54,1.83.97-.26.39-.52.78-.78,1.17-.06-.04-.1-.06-.14-.09-.97-.69-2.06-1-3.24-.99-.51,0-1.02.04-1.52.18-.31.08-.59.19-.85.38-.47.36-.64.84-.51,1.41.06.28.22.49.45.65.23.17.49.28.76.36.57.18,1.15.29,1.74.38.81.13,1.62.29,2.39.6.35.14.68.32.98.55.56.43.85,1.02.91,1.72.11,1.25-.4,2.17-1.46,2.81-.56.34-1.18.53-1.82.63-1.45.22-2.85.05-4.2-.54-.56-.25-1.08-.57-1.55-.97-.04-.03-.08-.07-.13-.11,0,0-.01-.01-.03-.05Z" />
  <path class="cls-1"
    d="m190.75,28.64c-.34.36-.67.7-1,1.06-.05-.04-.1-.08-.14-.12-.71-.66-1.56-1-2.52-1.06-.61-.04-1.2.03-1.78.25-1.07.39-1.83,1.12-2.23,2.19-.39,1.04-.4,2.1-.03,3.15.4,1.17,1.21,1.97,2.39,2.34,1.29.41,2.54.28,3.7-.44.25-.16.47-.35.73-.56.32.35.64.71.97,1.07-.03.04-.06.08-.1.12-.95.89-2.07,1.39-3.37,1.5-.93.08-1.84-.01-2.72-.34-1.8-.67-2.89-1.97-3.31-3.82-.25-1.1-.22-2.2.14-3.28.61-1.85,1.89-3.02,3.77-3.49,1.2-.31,2.4-.28,3.58.17.73.27,1.36.69,1.93,1.26Z" />
  <path class="cls-1" d="m89.2,37.94v-10.7h2.83c.04.15.06,10.37.01,10.7h-2.85Z" />
  <path class="cls-1" d="m178.86,37.95h-1.56c-.04-.15-.05-10.42,0-10.7h1.57v10.7Z" />
  <path class="cls-1" d="m92.05,23.76v1.91c-.15.04-2.5.06-2.88.02-.04-.16-.05-1.72,0-1.93.96,0,1.91,0,2.89,0Z" />
  <path class="cls-1" d="m22.16,22.79h-2.59v-2.59c1.3-.08,2.64,1.11,2.59,2.59Z" />
  <path class="cls-1" d="m177.27,24.85v-1.08h1.58v1.08c-.15.05-1.37.05-1.58,0Z" />
</svg>