<svg version="1.1" id="Layer_1" xmlns="http://www.w3.org/2000/svg" xmlns:xlink="http://www.w3.org/1999/xlink" x="0px" y="0px" viewBox="0 0 364.8172913 364.8172913" width="364.8172913" height="364.8172913" style="enable-background:new 0 0 364.8172913 364.8172913;" xml:space="preserve">
  <style type="text/css">
    svg {
      width: 60%;
    }
    svg * { 
      transform-box: fill-box;
    }
    .st0{
      fill: none; 
      stroke-width: 2px;
      stroke-miterlimit: 10;
    }
    .rect {
      stroke: #b84ef4; 
    }
    .chevron {
      stroke: #11c0eb; 
    }
    @keyframes fallingSpin {
      100% {
        transform: translateY(246px) rotate(225deg);
      }
    }
    @keyframes blink  {
      0% {
        opacity: 1;
      }
      50% {
        opacity: 1;
      }
      75% {
        opacity: 0;
      }
      100% {
        opacity: 1;
      }
    }
    .rect {
      opacity: 1;
      animation: fallingSpin 1s ease 1s forwards, blink 1.5s linear 2s infinite;
    }
  </style>
  <path class="st0 rect" transform-origin="center" d="M291.5102539,134.692688c-8.3500061,8.3399963-22.9400024,8.3399963-31.2900085,0l-31.2799835-31.2800064
    c-4.1700134-4.1699982-6.2600098-9.6500015-6.2600098-15.25s2.0899963-11.3399963,6.2600098-16.0299988l62.5699921-62.5699997
    c4.1700134-4.1700001,9.9100037-6.2600002,15.6400146-6.2600002c5.7299805,0,11.4700012,2.0900002,15.6399841,6.2600002
    L355.11026,41.8926849c8.3399963,7.2999992,8.3399963,20.8499985,0,29.1999969L291.5102539,134.692688z"></path>
  <path class="st0 chevron" d="M228.9436188,197.2561951l-46.9221649,46.9221802L72.536377,354.7061157
    c-8.3417206,8.3417358-22.9397278,8.3417358-31.2814445,0L9.9734821,323.4247131
    c-8.3417196-8.3417358-8.3417196-22.9397583,0-31.2814636l0,0l0,0l93.8443451-93.8443604
    c8.3417206-8.3417053,8.3417206-22.9397278,0-31.2814331L9.9734802,73.173111l0,0l0,0
    c-8.3417196-8.3417206-8.3417196-21.8970146,0-31.2814484l1.0427141-1.0427132L42.2976418,9.5674982
    c8.3417206-8.3417196,22.9397316-8.3417196,31.2814445,0l109.4850616,109.4850693l46.9221649,46.9221649
    C238.328064,174.3164673,238.328064,188.9144745,228.9436188,197.2561951z"></path>
  </svg>