<?xml version="1.0" encoding="UTF-8"?><svg id="Layer_1" xmlns="http://www.w3.org/2000/svg" viewBox="0 0 171.13 37.18"><defs><style>.cls-1{fill:#f72b60;}.cls-2{fill:#fbb300;}.cls-3{fill:#333;}.cls-4{fill:#af2437;}.cls-5{fill:#18beff;}</style></defs><path class="cls-3" d="m68.54,21.4l-2.97-8.01c-.12-.33-.59-.33-.71,0l-2.97,8.02c-.07.2.03.41.22.48.04.02.09.02.13.02h5.95c.21,0,.38-.17.38-.38,0-.04,0-.09-.02-.13m1.37,4.5h-9.4c-.16,0-.3.1-.35.25l-1.85,4.99c-.05.15-.2.25-.35.25h-4.07c-.21,0-.38-.17-.38-.38,0-.05,0-.1.03-.14l9.38-23.37c.06-.14.2-.24.35-.24h3.9c.15,0,.29.09.35.24l9.38,23.37c.08.19-.02.41-.21.49-.04.02-.09.03-.14.03h-4.07c-.16,0-.3-.1-.35-.25l-1.85-4.99c-.05-.15-.2-.25-.35-.25m8.89-10.44h3.48c.21,0,.38.17.38.38v15.17c0,.21-.17.38-.38.38h-3.48c-.21,0-.38-.17-.38-.38v-15.17c0-.21.17-.38.38-.38h0m16.57,3.69c0,.21-.17.38-.38.38h-.11c-1.72,0-2.99.41-3.79,1.24-.8.83-1.21,2.19-1.21,4.1v6.14c0,.21-.17.38-.38.38h-3.45c-.21,0-.38-.17-.38-.38v-15.17c0-.21.17-.38.38-.38h3.42c.21,0,.38.17.38.38h0v3h.07c.41-1.24,1.07-2.19,1.96-2.86.9-.67,2-1,3.31-1h.17v4.17h0Zm9.53-.14c-.21,0-.38.17-.38.38v6.31c0,.64.13,1.1.38,1.38.25.28.69.41,1.31.41h.35c.21,0,.38.17.38.38v3.17c0,.21-.17.38-.38.38h-1.48c-1.54,0-2.72-.4-3.55-1.19-.83-.79-1.24-1.97-1.24-3.53v-7.31c0-.21-.17-.38-.38-.38h-2.18c-.21,0-.38-.17-.38-.38v-2.8c0-.21.17-.38.38-.38h2.18c.21,0,.38-.17.38-.38h0v-5.62c0-.21.17-.38.38-.38h3.48c.21,0,.38.17.38.38v5.62c0,.21.17.38.38.38h2.52c.21,0,.38.17.38.38h0v2.8c0,.21-.17.38-.38.38h-2.52Zm15.96,7.65c.79-.83,1.19-1.91,1.19-3.24s-.4-2.41-1.19-3.24-1.83-1.24-3.12-1.24-2.33.41-3.12,1.24c-.79.83-1.19,1.91-1.19,3.24s.4,2.41,1.19,3.24c.79.83,1.83,1.24,3.12,1.24s2.33-.41,3.12-1.24m-8.05,4.24c-1.17-.67-2.1-1.64-2.77-2.91-.68-1.27-1.02-2.8-1.02-4.57s.34-3.29,1.02-4.57c.68-1.27,1.6-2.24,2.77-2.91,1.17-.67,2.46-1,3.86-1,1.24,0,2.3.24,3.19.72.88.48,1.59,1.16,2.12,2.03h.07v-1.86c0-.21.17-.38.38-.38h3.45c.21,0,.38.17.38.38v15.17c0,.21-.17.38-.38.38h-3.45c-.21,0-.38-.17-.38-.38v-1.86h-.07c-.53.87-1.24,1.55-2.12,2.03-.88.48-1.95.72-3.19.72-1.4,0-2.69-.33-3.86-1m27.79-4.24c.79-.83,1.19-1.91,1.19-3.24s-.4-2.41-1.19-3.24c-.79-.83-1.83-1.24-3.12-1.24s-2.33.41-3.12,1.24c-.79.83-1.19,1.91-1.19,3.24s.4,2.41,1.19,3.24c.79.83,1.83,1.24,3.12,1.24s2.33-.41,3.12-1.24m-5.24,4.51c-.88-.48-1.59-1.16-2.12-2.03h-.07v1.86c0,.21-.17.38-.38.38h-3.48c-.21,0-.38-.17-.38-.38V7.64c0-.21.17-.38.38-.38h3.48c.21,0,.38.17.38.38v10.06h.07c.53-.87,1.23-1.55,2.12-2.03.88-.48,1.95-.72,3.19-.72,1.4,0,2.69.33,3.86,1,1.17.67,2.1,1.64,2.77,2.91.68,1.28,1.02,2.8,1.02,4.57s-.34,3.29-1.02,4.57c-.68,1.27-1.6,2.25-2.77,2.91-1.17.67-2.46,1-3.86,1-1.24,0-2.3-.24-3.19-.72m16.71.21h-3.48c-.21,0-.38-.17-.38-.38V7.64c0-.21.17-.38.38-.38h3.48c.21,0,.38.17.38.38v23.37c0,.21-.17.38-.38.38m8.22-12.23c-.58.45-.97,1.1-1.17,1.95-.06.23.13.46.37.46h6.63c.23,0,.41-.21.37-.43-.13-.81-.48-1.45-1.04-1.93-.65-.56-1.51-.84-2.57-.84s-1.92.26-2.6.79m8.49-1.98c1.36,1.48,2.03,3.58,2.03,6.29v.45c0,.21-.17.38-.38.38h-11.08c-.21,0-.38.17-.38.38,0,.02,0,.04,0,.06.18,1.01.62,1.81,1.34,2.4.82.68,1.84,1.02,3.08,1.02,1.6,0,3.08-.62,4.45-1.88.17-.15.43-.12.56.07l1.69,2.43c.11.16.09.37-.06.5-.83.73-1.76,1.34-2.75,1.83-1.1.54-2.4.81-3.89.81-1.72,0-3.23-.35-4.51-1.05-1.29-.7-2.29-1.69-3-2.96-.71-1.27-1.07-2.75-1.07-4.43s.34-3.16,1.03-4.44c.69-1.29,1.65-2.29,2.89-3,1.24-.71,2.69-1.07,4.34-1.07,2.43,0,4.33.74,5.69,2.22m-85.66-7.31c0,1.42-1.15,2.57-2.57,2.57s-2.57-1.15-2.57-2.57,1.15-2.57,2.57-2.57,2.57,1.15,2.57,2.57"/><path class="cls-2" d="m19.84.47L3.28,7.33c-.92.38-.91,1.69.02,2.06l16.64,6.6c1.46.58,3.09.58,4.55,0l16.64-6.6c.93-.37.94-1.68.02-2.06L24.56.47c-1.51-.63-3.21-.63-4.72,0"/><path class="cls-5" d="m23.68,19.58v16.48c0,.78.79,1.32,1.52,1.03l18.54-7.2c.42-.17.7-.58.7-1.03V12.39c0-.78-.79-1.32-1.52-1.03l-18.54,7.2c-.42.17-.7.58-.7,1.03"/><path class="cls-1" d="m19.35,20.43l-5.5,2.66-.56.27L1.68,28.93c-.74.36-1.68-.18-1.68-1v-15.47c0-.3.15-.55.36-.74.08-.08.18-.15.28-.21.28-.17.67-.21,1.01-.08l17.61,6.98c.9.36.97,1.61.09,2.03"/><path class="cls-4" d="m19.35,20.43l-5.5,2.66L.36,11.71c.08-.08.18-.15.28-.21.28-.17.67-.21,1.01-.08l17.61,6.98c.9.36.97,1.61.09,2.03"/></svg>