<?xml version="1.0" encoding="UTF-8"?><svg id="Layer_1" xmlns="http://www.w3.org/2000/svg" viewBox="0 0 184.59 42.03"><defs><style>.cls-1,.cls-2{fill:#003dff;}.cls-2{fill-rule:evenodd;}</style></defs><path class="cls-2" d="m89.97,23.14V.5c0-.31-.27-.54-.57-.49l-4.24.67c-.24.04-.42.25-.42.49v22.96c.01,1.09.01,7.79,8.08,8.03.28,0,.51-.22.51-.5v-3.43c0-.25-.18-.46-.43-.49-2.93-.34-2.93-4-2.93-4.6h0Z"/><path class="cls-1" d="m159.91,8.8h-4.27c-.27,0-.5.22-.5.5v22.37c0,.27.22.5.5.5h4.27c.27,0,.5-.22.5-.5V9.3c0-.27-.22-.5-.5-.5Z"/><path class="cls-2" d="m155.65,6h4.27c.27,0,.5-.22.5-.5V.5c0-.3-.27-.54-.57-.49l-4.27.67c-.24.04-.42.25-.42.49v4.34c0,.27.22.5.5.5h0Z"/><path class="cls-2" d="m148.27,23.14V.5c0-.31-.27-.54-.57-.49l-4.24.67c-.24.04-.42.25-.42.49v22.96c.01,1.09.01,7.79,8.08,8.03.28,0,.51-.22.51-.5v-3.43c0-.25-.18-.46-.43-.49-2.93-.34-2.93-4-2.93-4.6h0Z"/><path class="cls-2" d="m137.17,12c-.94-1.03-2.09-1.82-3.43-2.38-1.34-.55-2.8-.83-4.38-.83s-3.04.27-4.36.83c-1.31.56-2.46,1.35-3.43,2.38-.96,1.03-1.71,2.26-2.25,3.7-.54,1.44-.78,3.14-.78,4.91s.27,3.1.8,4.56c.54,1.46,1.27,2.7,2.22,3.73.95,1.03,2.09,1.82,3.41,2.39,1.33.57,3.37.87,4.4.88,1.03,0,3.09-.32,4.43-.88,1.34-.56,2.48-1.36,3.43-2.39.95-1.03,1.69-2.27,2.21-3.73.52-1.46.78-2.79.78-4.56s-.28-3.46-.84-4.91c-.54-1.44-1.27-2.67-2.22-3.7h0Zm-3.73,13.76c-.96,1.32-2.32,1.99-4.04,1.99s-3.08-.66-4.04-1.99c-.96-1.32-1.45-2.86-1.45-5.14s.47-4.13,1.43-5.45c.96-1.32,2.31-1.98,4.04-1.98s3.08.65,4.04,1.98c.96,1.31,1.46,3.19,1.46,5.45s-.48,3.81-1.44,5.14h0Z"/><path class="cls-2" d="m75.18,8.8h-4.15c-4.06,0-7.64,2.14-9.73,5.39-1.22,1.9-1.93,4.17-1.93,6.62,0,3.77,1.69,7.14,4.34,9.34.25.22.51.42.78.6,1.08.71,2.36,1.13,3.74,1.13.1,0,.21,0,.31,0,.03,0,.06,0,.09,0,.07,0,.15,0,.22-.02.03,0,.06,0,.09-.01.08,0,.15-.02.23-.03.02,0,.04,0,.05,0,2.76-.43,5.17-2.59,5.96-5.28v4.86c0,.27.22.5.5.5h4.24c.27,0,.5-.22.5-.5V9.3c0-.27-.22-.5-.5-.5h-4.73Zm0,17.39c-1.03.85-2.35,1.18-3.77,1.27-.01,0-.03,0-.04,0-.09,0-.19,0-.28,0-3.55,0-6.48-3.02-6.48-6.67,0-.86.16-1.68.46-2.44.94-2.45,3.26-4.18,5.97-4.18h4.15v12.01Z"/><path class="cls-2" d="m179.36,8.8h-4.15c-4.06,0-7.64,2.14-9.73,5.39-1.22,1.9-1.93,4.17-1.93,6.62,0,3.77,1.69,7.14,4.34,9.34.25.22.51.42.78.6,1.08.71,2.36,1.13,3.74,1.13.1,0,.21,0,.31,0,.03,0,.06,0,.09,0,.07,0,.15,0,.22-.02.03,0,.06,0,.09-.01.08,0,.15-.02.23-.03.02,0,.04,0,.05,0,2.76-.43,5.17-2.59,5.96-5.28v4.86c0,.27.22.5.5.5h4.24c.27,0,.5-.22.5-.5V9.3c0-.27-.22-.5-.5-.5h-4.73Zm0,17.39c-1.03.85-2.35,1.18-3.77,1.27-.01,0-.03,0-.04,0-.09,0-.19,0-.28,0-3.55,0-6.48-3.02-6.48-6.67,0-.86.16-1.68.46-2.44.94-2.45,3.26-4.18,5.97-4.18h4.15v12.01Z"/><path class="cls-2" d="m110.45,8.8h-4.15c-4.06,0-7.64,2.14-9.73,5.39-.99,1.54-1.65,3.33-1.86,5.26-.05.45-.07.9-.07,1.36s.03.94.08,1.39c.36,3.2,1.94,6.02,4.26,7.94.25.22.51.42.78.6,1.08.71,2.36,1.13,3.74,1.13,1.51,0,2.91-.5,4.05-1.34,1.37-.97,2.43-2.4,2.9-4.01v4.22h0v.93c0,1.84-.48,3.22-1.46,4.15-.98.93-2.61,1.4-4.9,1.4-.93,0-2.42-.05-3.92-.2-.24-.02-.46.13-.53.35l-1.07,3.62c-.09.29.11.59.41.63,1.81.26,3.57.39,4.59.39,4.11,0,7.16-.9,9.15-2.71,1.81-1.63,2.79-4.11,2.96-7.44V9.3c0-.27-.22-.5-.5-.5h-4.73,0Zm0,5.39s.05,11.69,0,12.05c-1.02.82-2.28,1.14-3.66,1.24-.01,0-.03,0-.04,0-.09,0-.19,0-.28,0-.11,0-.22,0-.33,0-3.4-.18-6.26-3.13-6.26-6.67,0-.86.16-1.68.46-2.44.94-2.45,3.26-4.18,5.97-4.18h4.15,0Z"/><path class="cls-1" d="m21,0C9.52,0,.17,9.25,0,20.69c-.17,11.62,9.26,21.24,20.87,21.31,3.59.02,7.04-.86,10.11-2.52.3-.16.35-.57.09-.8l-1.97-1.74c-.4-.35-.97-.45-1.46-.25-2.14.91-4.47,1.38-6.87,1.35-9.39-.12-16.97-7.93-16.82-17.31.15-9.27,7.73-16.76,17.03-16.76h17.04v30.28l-9.67-8.59c-.31-.28-.79-.22-1.04.11-1.55,2.05-4.08,3.33-6.89,3.14-3.89-.27-7.05-3.4-7.34-7.3-.35-4.64,3.33-8.53,7.9-8.53,4.13,0,7.54,3.18,7.89,7.22.03.36.19.7.46.93l2.52,2.23c.29.25.74.1.81-.28.18-.97.25-1.98.17-3.02-.41-5.91-5.19-10.67-11.11-11.03-6.78-.42-12.45,4.89-12.63,11.54-.18,6.48,5.13,12.07,11.62,12.21,2.71.06,5.21-.79,7.24-2.27l12.63,11.2c.54.48,1.4.1,1.4-.63V.8c0-.44-.36-.8-.8-.8h-20.2Z"/></svg>