<?xml version="1.0" encoding="UTF-8"?><svg id="Layer_1" xmlns="http://www.w3.org/2000/svg" viewBox="0 0 154.1 67.45"><defs><style>.cls-1{fill:#b77e9d;}.cls-2{fill:#c17b9e;}.cls-3{fill:#cab3c0;}.cls-4{fill:#724263;}.cls-5{fill:#512843;}</style></defs><path d="m81.94,27.71h-6.16l-1.17,3.52h-3.74l6.35-17.06h3.26l6.39,17.06h-3.74l-1.18-3.52Zm-5.21-2.85h4.27l-2.14-6.39-2.12,6.39Z"/><path d="m101.28,26.31l2.3-12.14h3.5l-3.79,17.06h-3.54l-2.78-11.41-2.78,11.41h-3.54l-3.79-17.06h3.5l2.31,12.12,2.81-12.12h2.98l2.8,12.14Z"/><path d="m117.83,26.75c0-.66-.23-1.17-.7-1.53s-1.31-.73-2.53-1.12-2.18-.78-2.89-1.17c-1.94-1.05-2.91-2.46-2.91-4.23,0-.92.26-1.74.78-2.47s1.27-1.29,2.24-1.69,2.06-.61,3.28-.61,2.3.22,3.26.66,1.69,1.06,2.22,1.87.79,1.72.79,2.74h-3.52c0-.78-.25-1.39-.74-1.82s-1.18-.65-2.07-.65-1.53.18-2,.54-.71.84-.71,1.44c0,.55.28,1.02.84,1.39s1.38.73,2.47,1.05c2,.6,3.46,1.35,4.37,2.24s1.37,2,1.37,3.33c0,1.48-.56,2.63-1.68,3.47s-2.62,1.26-4.51,1.26c-1.31,0-2.51-.24-3.59-.72s-1.9-1.14-2.47-1.97-.85-1.8-.85-2.91h3.53c0,1.88,1.12,2.82,3.38,2.82.84,0,1.49-.17,1.96-.51s.7-.81.7-1.42Z"/><path d="m85.7,49.55c-.13,1.84-.81,3.28-2.03,4.34s-2.83,1.58-4.83,1.58c-2.19,0-3.91-.74-5.16-2.21s-1.88-3.49-1.88-6.06v-1.04c0-1.64.29-3.09.87-4.34s1.4-2.21,2.48-2.88,2.32-1,3.74-1c1.97,0,3.55.53,4.76,1.58s1.9,2.54,2.09,4.44h-3.52c-.09-1.1-.39-1.9-.92-2.4s-1.33-.74-2.41-.74c-1.17,0-2.05.42-2.63,1.26s-.88,2.14-.9,3.91v1.29c0,1.84.28,3.19.84,4.04s1.44,1.28,2.64,1.28c1.09,0,1.9-.25,2.43-.74s.84-1.26.92-2.3h3.52Z"/><path d="m87.26,48.77c0-1.26.24-2.38.73-3.36s1.18-1.75,2.09-2.29,1.97-.81,3.17-.81c1.71,0,3.11.52,4.19,1.57s1.69,2.47,1.81,4.27l.02.87c0,1.95-.54,3.51-1.63,4.68s-2.54,1.76-4.37,1.76-3.29-.59-4.38-1.76-1.63-2.77-1.63-4.78v-.15Zm3.39.24c0,1.21.23,2.13.68,2.76.45.64,1.1.96,1.95.96s1.46-.31,1.92-.95c.46-.63.69-1.64.69-3.02,0-1.18-.23-2.1-.69-2.75s-1.11-.97-1.95-.97-1.47.32-1.92.97-.68,1.64-.68,3Z"/><path d="m100.86,48.8c0-1.95.46-3.51,1.39-4.7s2.17-1.78,3.74-1.78c1.39,0,2.47.48,3.25,1.43l.14-1.2h3.07v12.26c0,1.11-.25,2.07-.76,2.89s-1.21,1.45-2.13,1.88-1.98.64-3.21.64c-.93,0-1.84-.19-2.72-.56s-1.55-.85-2-1.44l1.5-2.06c.84.95,1.87,1.42,3.07,1.42.9,0,1.6-.24,2.1-.72s.75-1.16.75-2.04v-.68c-.78.88-1.81,1.32-3.08,1.32-1.52,0-2.76-.6-3.7-1.79s-1.41-2.77-1.41-4.74v-.14Zm3.39.25c0,1.15.23,2.05.69,2.71.46.65,1.09.98,1.9.98,1.03,0,1.77-.39,2.21-1.16v-5.34c-.45-.77-1.18-1.16-2.19-1.16-.81,0-1.45.33-1.92,1s-.7,1.66-.7,2.98Z"/><path d="m118.17,42.55l.11,1.46c.91-1.13,2.12-1.7,3.64-1.7,1.34,0,2.34.39,3,1.18s.99,1.97,1.01,3.54v8.19h-3.39v-8.11c0-.72-.16-1.24-.47-1.56s-.83-.49-1.56-.49c-.95,0-1.67.41-2.14,1.22v8.94h-3.39v-12.68h3.19Z"/><path d="m128.47,39.27c0-.51.17-.93.51-1.25s.8-.49,1.39-.49,1.04.16,1.38.49.52.75.52,1.25-.17.94-.52,1.27-.81.49-1.38.49-1.03-.16-1.38-.49-.52-.75-.52-1.27Zm3.6,15.96h-3.4v-12.68h3.4v12.68Z"/><path d="m138.91,39.43v3.12h2.17v2.48h-2.17v6.33c0,.47.09.8.27,1.01s.52.3,1.03.3c.38,0,.71-.03,1-.08v2.57c-.66.2-1.35.3-2.05.3-2.38,0-3.59-1.2-3.63-3.6v-6.83h-1.85v-2.48h1.85v-3.12h3.39Z"/><path d="m142.09,48.77c0-1.26.24-2.38.73-3.36s1.18-1.75,2.09-2.29,1.97-.81,3.17-.81c1.71,0,3.11.52,4.19,1.57s1.69,2.47,1.81,4.27l.02.87c0,1.95-.54,3.51-1.63,4.68s-2.54,1.76-4.37,1.76-3.29-.59-4.38-1.76-1.63-2.77-1.63-4.78v-.15Zm3.39.24c0,1.21.23,2.13.68,2.76.45.64,1.1.96,1.95.96s1.46-.31,1.92-.95c.46-.63.69-1.64.69-3.02,0-1.18-.23-2.1-.69-2.75s-1.11-.97-1.95-.97-1.47.32-1.92.97-.68,1.64-.68,3Z"/><path class="cls-4" d="m47.15,13.11l5.82-1.5.04.06.15,35.15-.19.19-1.2.05-4.55-.71-.07-.18V13.11M13.49,49.46h.02s15.37,4.47,15.37,4.47l.04.03.07.05-.02,13.38-.05.06-15.43-7.49v-10.49"/><path class="cls-3" d="m47.15,46.18l-18.21,4.36-9.15-2.21-6.31,1.12,15.43,4.5,23.81-6.45.25-.49-5.82-.84"/><path class="cls-5" d="m44.34,17.99l-.15-.17-15.11-4.39-.17.06-.15-.08-23.78,6.86-.13.16.19.1,5.44.8.19-.07,18.21-4.36,9.15,2.21,6.31-1.12"/><path class="cls-1" d="m10.67,54.33l-5.82,1.41v-.03s-.24-35.02-.24-35.02l.24-.26,5.82.84v33.07"/><path class="cls-4" d="m18.53,40.75l10.38,1.22.08-.12.04-16.24-.12-.13-10.38,1.22v14.05"/><path class="cls-2" d="m39.29,40.75l-10.38,1.22v-16.49l10.38,1.22v14.05m5.04-22.76l-15.43-4.5V0l15.43,7.49v10.49"/><path class="cls-4" d="m28.91,0L0,13.96v39.53l4.85,2.25V20.43l24.06-6.94V0"/><path class="cls-1" d="m52.97,11.62v35.4l-24.06,6.94v13.49l28.91-13.96V13.96l-4.85-2.34"/></svg>