<?xml version="1.0" encoding="UTF-8"?><svg id="Layer_1" xmlns="http://www.w3.org/2000/svg" viewBox="0 0 170.81 24.77"><defs><style>.cls-1,.cls-2{fill:#5a29e3;}.cls-2{fill-rule:evenodd;}</style></defs><path class="cls-1" d="m84.78,3l-6.31,5.14h4.12v16.7l2.19-1.76V3Z"/><path class="cls-1" d="m86.59,21.58l6.42-5.27h-4.23V0l-2.18,1.52v20.06Z"/><path class="cls-1" d="m166.01,6c.73.38,1.25.7,1.57.96l2.27-4.32c-1.13-.7-2.5-1.32-4.1-1.88-1.57-.55-3.27-.83-5.1-.83s-3.36.29-4.84.87c-1.45.58-2.62,1.44-3.49,2.57-.84,1.13-1.26,2.54-1.26,4.23,0,1.89.6,3.34,1.79,4.36,1.22.99,3.08,1.8,5.58,2.44,2.01.52,3.62,1,4.84,1.44,1.25.41,1.88,1.09,1.88,2.05,0,1.42-1.34,2.14-4.01,2.14-1.34,0-2.6-.16-3.79-.48-1.19-.32-2.24-.71-3.14-1.18-.87-.47-1.5-.89-1.88-1.26l-2.36,4.58c1.51.96,3.24,1.72,5.19,2.27s3.91.83,5.89.83c1.72,0,3.31-.23,4.8-.7,1.48-.49,2.68-1.28,3.58-2.36.93-1.1,1.4-2.56,1.4-4.36,0-1.48-.35-2.68-1.05-3.58-.67-.93-1.64-1.67-2.92-2.22-1.25-.55-2.73-1.05-4.45-1.48-1.95-.47-3.43-.89-4.45-1.26-.99-.38-1.48-1.02-1.48-1.92,0-1.54,1.37-2.31,4.1-2.31,1.02,0,2.01.15,2.97.44.96.26,1.79.58,2.49.96Z"/><path class="cls-2" d="m120.11,24.67c-1.92,0-3.66-.33-5.23-1-1.57-.7-2.92-1.63-4.06-2.79-1.13-1.19-2.01-2.53-2.62-4.01-.61-1.48-.92-3.01-.92-4.58s.32-3.14.96-4.62c.64-1.48,1.54-2.79,2.71-3.93,1.16-1.16,2.53-2.08,4.1-2.75,1.57-.67,3.29-1,5.15-1s3.66.36,5.23,1.09c1.57.7,2.91,1.64,4.01,2.84,1.13,1.16,2.01,2.49,2.62,3.97.61,1.48.92,2.99.92,4.54s-.32,3.14-.96,4.62c-.64,1.45-1.54,2.76-2.71,3.93-1.13,1.13-2.49,2.04-4.06,2.7-1.57.67-3.29,1-5.15,1Zm-7.5-12.34c0,1.31.31,2.56.92,3.75.61,1.16,1.47,2.11,2.57,2.84,1.13.73,2.49,1.09,4.06,1.09s2.95-.38,4.06-1.13c1.11-.79,1.95-1.76,2.53-2.92.58-1.19.87-2.41.87-3.66s-.31-2.54-.92-3.71c-.61-1.16-1.48-2.09-2.62-2.79-1.1-.73-2.43-1.09-3.97-1.09s-2.97.38-4.1,1.13c-1.1.76-1.95,1.72-2.53,2.88-.58,1.16-.87,2.37-.87,3.62Z"/><path class="cls-2" d="m0,24.49L10.64.11h4.32l10.6,24.38h-5.58l-2.44-5.71h-9.46l-2.44,5.71H0ZM12.82,6.52l-3.58,7.68h7.02l-3.45-7.68Z"/><path class="cls-1" d="m46.18.11l6.72,8.64L59.61.11h5.71l-9.64,12.34,9.33,12.04h-5.71l-6.41-8.29-6.37,8.29h-5.8l9.38-12.04L40.42.11h5.76Z"/></svg>