<?xml version="1.0" encoding="UTF-8"?><svg id="Layer_1" xmlns="http://www.w3.org/2000/svg" viewBox="0 0 192.42 44.27"><defs><style>.cls-1{fill:#ed2226;}</style></defs><path d="m66.43,32.36c-6.79,0-10.2-4.88-10.2-10.3s3.54-10.23,10.26-10.23c2.57,0,4.41.57,5.98,1.57l-1.94,3.18c-1.1-.7-2.31-1.14-4.11-1.14-3.64,0-5.58,2.91-5.58,6.52s1.87,6.79,5.65,6.79c2.14,0,3.41-.74,4.45-1.5l1.77,3.04c-1,.9-3.38,2.07-6.29,2.07h0Zm14.41-12.17c-2.17,0-2.88,1.84-2.88,4.51s.87,4.58,3.04,4.58,2.94-1.81,2.94-4.48c-.03-2.67-.9-4.61-3.11-4.61h0Zm.07,12.17c-5.08,0-7.29-3.81-7.29-7.56s2.21-7.66,7.29-7.66,7.39,3.78,7.39,7.52c-.03,3.71-2.27,7.69-7.39,7.69h0Zm13.78-14.84v9.29c0,1.44.5,2.14,1.87,2.14,1.47,0,2.57-1.4,2.88-1.74v-9.7h4.08v10.23c0,1.91.2,3.38.4,4.25h-4.05c-.13-.4-.27-1.34-.3-1.94-.77,1-2.27,2.27-4.68,2.27-3.21,0-4.35-2.04-4.35-4.71v-10.13h4.15v.03h0Zm18.89,14.84c-4.68,0-7.56-3.04-7.56-7.59,0-4.88,3.24-7.62,7.69-7.62,2.34,0,3.74.7,4.45,1.14l-1.3,2.81c-.63-.4-1.57-.84-3.01-.84-2.27,0-3.48,1.77-3.48,4.41s1.14,4.55,3.58,4.55c1.67,0,2.64-.6,3.08-.87l1.24,2.74c-.67.43-2.01,1.27-4.68,1.27h0Zm15.65-.33v-9.33c0-1.44-.5-2.14-1.87-2.14-1.47,0-2.61,1.37-2.91,1.74v9.7h-4.08V10.6h4.08v8.63c.74-.8,2.14-2.07,4.51-2.07,3.21,0,4.35,2.04,4.35,4.71v10.13h-4.08v.03h0Zm11.5-3.18c.27.1.87.3,1.94.3,2.11,0,3.41-1.54,3.41-4.51,0-2.67-.9-4.28-2.98-4.28-1.2,0-2.14.77-2.37,1.07v7.42Zm0-18.22v8.02c.67-.67,1.94-1.5,3.54-1.5,3.61,0,6.15,2.47,6.15,7.49s-3.34,7.72-7.76,7.72c-3.31,0-5.32-.84-6.05-1.17V10.6h4.11v.03h0Zm19.43,15.01h-.5c-2.24,0-3.81.67-3.81,2.31,0,1.04.84,1.47,1.74,1.47,1.37,0,2.17-.8,2.57-1.2v-2.57h0Zm.43,6.39c-.13-.37-.2-1.1-.23-1.54-.64.77-2.01,1.91-4.05,1.91-2.47,0-4.38-1.47-4.38-4.08,0-3.78,3.88-5.15,7.72-5.15h.5v-.8c0-1.2-.5-1.94-2.31-1.94s-3.14.97-3.68,1.34l-1.77-2.47c.87-.8,2.81-2.11,5.92-2.11,4.01,0,5.92,1.54,5.92,5.42v5.08c0,2.01.2,3.41.4,4.35h-4.05Zm11,.33c-2.61,0-4.28-.77-5.18-1.37l1.37-2.84c.57.4,1.97,1.2,3.58,1.2,1.5,0,2.34-.43,2.34-1.24,0-.94-1.64-1.2-3.71-2.21-2.01-.97-3.18-2.07-3.18-4.28,0-2.74,2.17-4.48,5.48-4.48,2.47,0,4.01.77,4.68,1.14l-1.4,2.78c-.57-.33-1.71-.9-3.08-.9s-1.97.47-1.97,1.24c0,.94,1.34,1.17,3.01,1.84,2.27.94,3.91,2.01,3.91,4.41-.07,3.11-2.27,4.71-5.85,4.71h0Zm16.82-9.36c-.03-1.6-.67-2.91-2.41-2.91-1.61,0-2.54,1.04-2.81,2.91h5.22Zm-1.54,6.35c1.97,0,3.04-.64,3.78-1l1.3,2.61c-.97.53-2.44,1.4-5.45,1.4-4.88,0-7.66-3.04-7.66-7.69s3.18-7.52,7.22-7.52c4.58,0,6.79,3.18,6.29,8.59h-9.13c.17,2.17,1.3,3.61,3.64,3.61h0Z"/><path class="cls-1" d="m22.13,0C9.93,0,0,9.9,0,22.13s9.9,22.13,22.13,22.13,22.13-9.9,22.13-22.13S34.34,0,22.13,0Zm14.95,26.01c0,1.34-.77,2.51-2.27,2.78-2.61.47-8.09.74-12.67.74s-10.06-.27-12.67-.74c-1.5-.27-2.27-1.44-2.27-2.78v-8.63c0-1.34,1.04-2.57,2.27-2.78.77-.13,2.57-.27,3.98-.27.53,0,.97.4.97,1.04v6.05l7.76-.17,7.76.17v-6.05c0-.64.43-1.04.97-1.04,1.4,0,3.21.13,3.98.27,1.27.2,2.27,1.44,2.27,2.78-.07,2.84-.07,5.75-.07,8.63h0Z"/></svg>