<?xml version="1.0" encoding="UTF-8"?><svg id="Layer_1" xmlns="http://www.w3.org/2000/svg" viewBox="0 0 222.93 44.12"><defs><style>.cls-1{fill:none;}.cls-2{fill:#f9b110;}.cls-3{fill:#019b8f;}.cls-4{fill:#00bfb3;}.cls-5{fill:#00a9e5;}.cls-6{fill:#fed10a;}.cls-7{fill:#353535;}.cls-8{isolation:isolate;}</style></defs><path class="cls-1" d="m50.3,8.27h172.63v22.61H50.3V8.27Z"/><g class="cls-8"><path d="m58.74,28.62c-2.21,0-3.97-.66-5.24-1.93s-1.88-3.09-1.88-5.35.61-4.19,1.76-5.52,2.76-1.99,4.8-1.99c1.88,0,3.36.55,4.47,1.71s1.65,2.7,1.65,4.74v1.65h-9.54c.06,1.38.44,2.43,1.1,3.2s1.71,1.1,2.98,1.1c.83,0,1.65-.06,2.37-.22s1.49-.44,2.37-.77v2.48c-.72.33-1.49.61-2.26.77s-1.65.11-2.59.11Zm-.61-12.46c-.99,0-1.76.33-2.32.94s-.94,1.49-1.05,2.7h6.51c0-1.16-.28-2.1-.83-2.7s-1.32-.94-2.32-.94h0Z"/><path d="m70.76,28.4h-3.03V8.27h3.03v20.13Z"/><path d="m84.05,28.4l-.61-1.99h-.11c-.66.88-1.38,1.49-2.1,1.76s-1.6.5-2.7.5c-1.38,0-2.48-.39-3.31-1.16s-1.16-1.82-1.16-3.2c0-1.49.55-2.59,1.65-3.31s2.76-1.16,5.02-1.21l2.48-.06v-.77c0-.94-.22-1.6-.66-2.04s-1.1-.66-1.99-.66c-.72,0-1.43.11-2.1.33s-1.32.5-1.93.77l-.99-2.15c.77-.39,1.6-.72,2.54-.94s1.76-.33,2.59-.33c1.82,0,3.2.39,4.14,1.21s1.38,2.04,1.38,3.75v9.49h-2.15Zm-4.52-2.1c1.1,0,1.99-.33,2.65-.94s.99-1.49.99-2.59v-1.21l-1.82.06c-1.43.06-2.48.28-3.14.72-.66.44-.99,1.1-.99,1.99,0,.66.17,1.16.55,1.49s.99.5,1.76.5Z"/><path d="m100.05,24.32c0,1.38-.5,2.48-1.54,3.2s-2.48,1.1-4.36,1.1-3.42-.28-4.58-.88v-2.65c1.65.77,3.25,1.16,4.69,1.16,1.88,0,2.81-.55,2.81-1.71,0-.39-.11-.66-.33-.88s-.55-.5-1.05-.77-1.16-.55-1.99-.88c-1.65-.66-2.76-1.27-3.36-1.93s-.88-1.49-.88-2.48c0-1.21.5-2.15,1.49-2.87s2.32-.99,4.03-.99,3.25.33,4.74,1.05l-.99,2.26c-1.54-.66-2.81-.94-3.92-.94-1.6,0-2.43.44-2.43,1.38,0,.44.22.83.61,1.16s1.32.72,2.76,1.27c1.16.44,2.04.88,2.59,1.27s.94.83,1.21,1.32c.39.55.5,1.1.5,1.82h0Z"/><path d="m108.65,26.2c.72,0,1.49-.11,2.21-.33v2.26c-.33.17-.77.28-1.32.39s-1.1.17-1.65.17c-2.87,0-4.3-1.54-4.3-4.52v-7.72h-1.93v-1.32l2.1-1.1,1.05-3.03h1.88v3.2h4.08v2.32h-4.08v7.67c0,.72.17,1.27.55,1.6s.88.44,1.43.44Z"/><path d="m113.56,10.31c0-.55.17-.94.44-1.27s.72-.44,1.27-.44.94.17,1.27.44.44.72.44,1.27c0,.5-.17.94-.44,1.21s-.72.44-1.27.44-.99-.17-1.27-.44-.44-.72-.44-1.21Zm3.25,18.09h-3.03v-14.28h3.03v14.28Z"/><path d="m126.91,28.62c-2.15,0-3.81-.61-4.91-1.88s-1.71-3.09-1.71-5.46.61-4.25,1.76-5.57,2.87-1.93,5.07-1.93c1.49,0,2.87.28,4.08.83l-.94,2.43c-1.27-.5-2.32-.77-3.2-.77-2.48,0-3.7,1.65-3.7,4.91,0,1.6.33,2.81.94,3.64s1.54,1.21,2.7,1.21c1.38,0,2.65-.33,3.86-.99v2.65c-.55.33-1.1.55-1.76.66s-1.32.28-2.21.28Z"/><path d="m143.84,24.32c0,1.38-.5,2.48-1.54,3.2s-2.48,1.1-4.36,1.1-3.42-.28-4.58-.88v-2.65c1.65.77,3.25,1.16,4.69,1.16,1.88,0,2.81-.55,2.81-1.71,0-.39-.11-.66-.33-.88s-.55-.5-1.05-.77-1.16-.55-1.99-.88c-1.65-.66-2.76-1.27-3.36-1.93s-.88-1.49-.88-2.48c0-1.21.5-2.15,1.49-2.87s2.32-.99,4.03-.99,3.25.33,4.74,1.05l-.99,2.26c-1.54-.66-2.81-.94-3.92-.94-1.6,0-2.43.44-2.43,1.38,0,.44.22.83.61,1.16s1.32.72,2.76,1.27c1.16.44,2.04.88,2.59,1.27s.94.83,1.21,1.32c.39.55.5,1.1.5,1.82h0Z"/><path d="m153.38,28.62c-2.21,0-3.97-.66-5.24-1.93s-1.88-3.09-1.88-5.35.61-4.19,1.76-5.52,2.76-1.99,4.8-1.99c1.88,0,3.36.55,4.47,1.71s1.65,2.7,1.65,4.74v1.65h-9.54c.06,1.38.44,2.43,1.1,3.2s1.71,1.1,2.98,1.1c.83,0,1.65-.06,2.37-.22s1.49-.44,2.37-.77v2.48c-.72.33-1.49.61-2.26.77s-1.6.11-2.59.11Zm-.55-12.46c-.99,0-1.76.33-2.32.94s-.94,1.49-1.05,2.7h6.51c0-1.16-.28-2.1-.83-2.7s-1.38-.94-2.32-.94h0Z"/><path d="m171.31,28.4l-.61-1.99h-.11c-.66.88-1.38,1.49-2.1,1.76s-1.6.5-2.7.5c-1.38,0-2.48-.39-3.31-1.16s-1.16-1.82-1.16-3.2c0-1.49.55-2.59,1.65-3.31s2.76-1.16,5.02-1.21l2.48-.06v-.77c0-.94-.22-1.6-.66-2.04s-1.1-.66-1.99-.66c-.72,0-1.43.11-2.1.33s-1.32.5-1.93.77l-.99-2.15c.77-.39,1.6-.72,2.54-.94s1.76-.33,2.59-.33c1.82,0,3.2.39,4.14,1.21s1.38,2.04,1.38,3.75v9.49h-2.15Zm-4.52-2.1c1.1,0,1.99-.33,2.65-.94s.99-1.49.99-2.59v-1.21l-1.82.06c-1.43.06-2.48.28-3.14.72-.66.44-.99,1.1-.99,1.99,0,.66.17,1.16.55,1.49s1.05.5,1.76.5Z"/><path d="m184.99,13.84c.61,0,1.1.06,1.49.11l-.28,2.81c-.44-.11-.88-.17-1.32-.17-1.21,0-2.21.39-2.98,1.21s-1.16,1.82-1.16,3.09v7.5h-3.03v-14.28h2.37l.39,2.54h.17c.5-.83,1.1-1.54,1.88-2.04s1.6-.77,2.48-.77h0Z"/><path d="m194.91,28.62c-2.15,0-3.81-.61-4.91-1.88s-1.71-3.09-1.71-5.46.61-4.25,1.76-5.57,2.87-1.93,5.07-1.93c1.49,0,2.87.28,4.08.83l-.94,2.43c-1.27-.5-2.32-.77-3.2-.77-2.48,0-3.7,1.65-3.7,4.91,0,1.6.33,2.81.94,3.64s1.54,1.21,2.7,1.21c1.38,0,2.65-.33,3.86-.99v2.65c-.55.33-1.1.55-1.76.66s-1.32.28-2.21.28Z"/><path d="m214.82,28.4h-3.03v-8.82c0-1.1-.22-1.93-.66-2.48s-1.16-.83-2.1-.83c-1.27,0-2.21.39-2.81,1.16s-.88,2.04-.88,3.81v7.17h-3.03V8.27h3.03v5.13c0,.83-.06,1.71-.17,2.65h.22c.44-.66.99-1.21,1.71-1.6s1.6-.55,2.59-.55c3.47,0,5.18,1.76,5.18,5.24v9.27h-.06Z"/></g><path class="cls-5" d="m30.33,15.44h-11.53c.06.28.17.55.22.77.39,1.32.61,2.7.72,4.14.06.55.06,1.16.06,1.71s0,1.16-.06,1.71c-.11,1.43-.33,2.81-.72,4.14-.06.28-.17.55-.22.77h11.53c3.64,0,6.56-2.98,6.56-6.62s-2.92-6.62-6.56-6.62Z"/><path class="cls-7" d="m19.75,23.77c.06-.55.06-1.16.06-1.71s0-1.16-.06-1.71c-.11-1.43-.33-2.81-.72-4.14-.06-.28-.17-.55-.22-.77H.99c-.66,2.1-.99,4.3-.99,6.62s.33,4.52.99,6.62h17.81c.06-.28.17-.55.22-.77.39-1.32.61-2.7.72-4.14Z"/><path class="cls-4" d="m32.32,30.89h-14.34c-.44.99-.94,1.93-1.49,2.81-.83,1.38-1.82,2.59-2.92,3.75-.39.39-.77.72-1.16,1.1-.77.72-1.65,1.32-2.54,1.93,3.47,2.32,7.67,3.64,12.13,3.64,7.67,0,14.4-3.92,18.37-9.82-2.04-2.1-4.91-3.42-8.05-3.42h0Z"/><path class="cls-3" d="m16.49,33.7c.55-.88,1.05-1.82,1.49-2.81H1.82c1.71,3.92,4.52,7.28,8.11,9.6.88-.61,1.71-1.21,2.54-1.93.39-.33.77-.72,1.16-1.1,1.05-1.1,2.04-2.37,2.87-3.75h0Z"/><path class="cls-2" d="m13.57,6.67c-.39-.39-.77-.72-1.16-1.1-.77-.72-1.65-1.32-2.54-1.93C6.34,5.96,3.53,9.32,1.76,13.24h16.16c-.44-.99-.94-1.93-1.49-2.81-.77-1.38-1.76-2.65-2.87-3.75Z"/><path class="cls-6" d="m22.01,0c-4.47,0-8.66,1.32-12.13,3.64.88.61,1.71,1.21,2.54,1.93.39.33.77.72,1.16,1.1,1.1,1.16,2.1,2.37,2.92,3.75.55.88,1.05,1.82,1.49,2.81h14.34c3.14,0,6.01-1.32,8.05-3.42C36.4,3.92,29.67,0,22.01,0Z"/></svg>