<?xml version="1.0" encoding="UTF-8"?><svg id="Layer_1" xmlns="http://www.w3.org/2000/svg" xmlns:xlink="http://www.w3.org/1999/xlink" viewBox="0 0 189.32 53"><defs><style>.cls-1{fill:url(#linear-gradient);}.cls-2{fill:#f47c00;}.cls-3{fill:#ff9f00;}.cls-4{fill:#ffc928;}.cls-5{fill:rgba(255,255,255,.2);}.cls-6{fill:#a42714;opacity:.2;}.cls-6,.cls-7{isolation:isolate;}.cls-7{opacity:.54;}</style><linearGradient id="linear-gradient" x1="-985.21" y1="933.87" x2="-984.79" y2="933.56" gradientTransform="translate(93593.77 122345.84) scale(95 -131)" gradientUnits="userSpaceOnUse"><stop offset="0" stop-color="#fff" stop-opacity=".1"/><stop offset=".14" stop-color="#fff" stop-opacity=".08"/><stop offset=".61" stop-color="#fff" stop-opacity=".02"/><stop offset="1" stop-color="#fff" stop-opacity="0"/></linearGradient></defs><path class="cls-7" d="m56.61,40.66h-3.55V13.26h16.11v3.37h-12.56v8.99h11.33v3.29h-11.33v11.75h0Zm19.23-23.45c-.85.84-2.17.98-3.17.32s-1.39-1.93-.93-3.03,1.63-1.73,2.81-1.49,2.02,1.25,2.02,2.44c.01.66-.25,1.3-.73,1.76h0,0Zm0,23.45h-3.55v-18.75h3.55v18.75h0Zm7.78,0h-3.55v-18.75h3.39v3.06h.15c.41-1.08,1.2-1.98,2.22-2.53.97-.62,2.1-.97,3.26-1,.91-.03,1.81.13,2.66.46l-1.35,3.29c-.61-.2-1.25-.29-1.89-.27-1.3,0-2.54.56-3.41,1.51-.99,1.01-1.48,2.33-1.48,3.96v10.26s0,0,0,0Zm17.85.6c-2.85,0-5.17-.94-6.96-2.83s-2.68-4.27-2.68-7.14c-.05-2.59.88-5.1,2.6-7.04,1.65-1.93,4.1-3.01,6.65-2.95,2.8,0,5.04.91,6.73,2.72,1.68,1.81,2.53,4.23,2.52,7.27l-.04.65h-14.92c.1,1.89.74,3.38,1.91,4.48,1.09,1.07,2.57,1.66,4.1,1.64,2.54,0,4.27-1.07,5.16-3.21l3.16,1.3c-.64,1.48-1.7,2.75-3.04,3.65-1.42.97-3.15,1.45-5.2,1.45h0Zm5.09-12.26c-.08-1.07-.57-2.09-1.48-3.06s-2.27-1.44-4.07-1.42c-1.25-.02-2.47.41-3.41,1.23-.99.86-1.69,2.01-1.98,3.29l10.96-.03h0Zm16.59,12.26c-1.34.03-2.67-.28-3.86-.9-1.05-.52-1.93-1.32-2.56-2.3h-.15v2.59h-3.39V13.26h3.55v8.65l-.15,2.6h.15c.63-.98,1.52-1.77,2.56-2.3,1.19-.62,2.52-.94,3.86-.92,2.44,0,4.55.96,6.32,2.87,1.77,1.91,2.66,4.29,2.66,7.12,0,2.83-.89,5.2-2.66,7.12-1.77,1.91-3.88,2.86-6.32,2.85h0Zm-.58-3.21c1.62.01,3.16-.66,4.24-1.86,1.18-1.24,1.77-2.88,1.77-4.92s-.59-3.68-1.77-4.92c-1.09-1.18-2.63-1.85-4.25-1.85s-3.16.66-4.25,1.84c-1.17,1.22-1.75,2.87-1.75,4.94s.59,3.72,1.77,4.95c1.09,1.19,2.63,1.86,4.25,1.84h-.01s0-.01,0-.01Zm18.59,3.21c-2.01,0-3.68-.57-5.03-1.72-1.35-1.15-2.02-2.67-2.02-4.55,0-2.04.8-3.64,2.39-4.8,1.59-1.16,3.56-1.74,5.9-1.74,2.08,0,3.79.38,5.12,1.15v-.54c.05-1.26-.47-2.48-1.43-3.31-.97-.83-2.22-1.27-3.5-1.23-.98-.01-1.95.24-2.79.73-.79.44-1.4,1.14-1.72,1.99l-3.24-1.38c.44-1.13,1.3-2.17,2.59-3.13s2.98-1.44,5.09-1.43c2.41,0,4.42.7,6.02,2.09s2.4,3.37,2.39,5.93v11.35h-3.4v-2.6h-.15c-1.42,2.13-3.48,3.19-6.21,3.19h0Zm.58-3.21c1.49,0,2.92-.58,3.99-1.61,1.14-.96,1.8-2.36,1.81-3.84-1-.82-2.51-1.23-4.52-1.23-1.72,0-3.02.37-3.89,1.11-.81.62-1.3,1.58-1.31,2.6-.02.89.44,1.72,1.2,2.18.8.54,1.75.82,2.72.8h0s0-.01,0-.01Zm19.62,3.21c-2.11,0-3.85-.51-5.22-1.53-1.34-.98-2.38-2.3-3.01-3.83l3.16-1.3c1,2.35,2.71,3.52,5.12,3.52.96.04,1.9-.21,2.71-.73.67-.41,1.07-1.14,1.06-1.91,0-1.22-.86-2.05-2.59-2.49l-3.82-.92c-1.26-.33-2.43-.92-3.43-1.74-1.07-.83-1.67-2.12-1.62-3.46,0-1.66.74-3,2.22-4.04,1.55-1.05,3.39-1.6,5.26-1.55,1.56-.02,3.11.37,4.47,1.13,1.29.72,2.28,1.87,2.81,3.23l-3.08,1.25c-.69-1.66-2.13-2.49-4.32-2.49-.93-.03-1.85.19-2.66.65-.66.34-1.08,1.02-1.08,1.76,0,1.07.84,1.8,2.51,2.18l3.74.88c1.77.4,3.08,1.1,3.93,2.09.82.93,1.27,2.13,1.27,3.37.02,1.65-.76,3.21-2.08,4.21-1.39,1.13-3.17,1.69-5.36,1.69h0Zm19.08,0c-2.85,0-5.17-.94-6.96-2.83s-2.68-4.27-2.68-7.16c-.05-2.59.88-5.1,2.6-7.04,1.66-1.93,4.11-3,6.66-2.93,2.81,0,5.05.91,6.73,2.72,1.67,1.81,2.52,4.23,2.52,7.27l-.04.65h-14.93c.1,1.89.74,3.38,1.91,4.48,1.1,1.07,2.58,1.66,4.11,1.64,2.54,0,4.27-1.07,5.16-3.21l3.16,1.3c-.64,1.48-1.7,2.75-3.04,3.65-1.42.97-3.15,1.46-5.21,1.46h0Zm5.09-12.26c-.08-1.07-.57-2.09-1.48-3.06s-2.27-1.44-4.07-1.42c-1.25-.02-2.46.41-3.41,1.23-.99.86-1.69,2.01-1.98,3.29l10.95-.03h0Z"/><path class="cls-3" d="m.02,42.76L6.54,1.02c.08-.51.48-.92.99-1s1.02.16,1.26.62l6.75,12.58,2.69-5.12c.21-.4.62-.64,1.07-.64s.86.25,1.07.64l18.2,34.66H.02Z"/><path class="cls-2" d="m22.56,26.5l-7.02-13.29L.02,42.76l22.54-16.26Z"/><path class="cls-4" d="m38.57,42.76l-5-30.92c-.08-.44-.39-.81-.82-.95s-.9-.02-1.22.3L.02,42.76l17.44,9.78c1.09.61,2.43.61,3.52,0l17.59-9.78h0Z"/><path class="cls-5" d="m33.57,11.84c-.08-.44-.39-.81-.82-.95s-.9-.02-1.22.3l-6.25,6.27-4.92-9.36c-.21-.4-.62-.64-1.07-.64s-.86.25-1.07.64l-2.69,5.12L8.79.64c-.24-.46-.75-.71-1.27-.62s-.91.49-.99,1L.02,42.76h-.02l.02.02.17.08L31.52,11.5c.32-.32.79-.44,1.22-.3s.75.5.82.95l4.95,30.64.05-.03-5-30.92h0ZM.08,42.7L6.54,1.32c.08-.51.48-.92.99-1s1.02.16,1.27.62l6.75,12.58,2.69-5.12c.21-.4.62-.64,1.07-.64s.86.25,1.07.64l4.82,9.16L.08,42.7h0Z"/><path class="cls-6" d="m20.98,52.24c-1.09.61-2.43.61-3.52,0L.06,42.49l-.04.27,17.44,9.78c1.09.61,2.43.61,3.52,0l17.59-9.78-.05-.28-17.54,9.76h0Z"/><path id="b" class="cls-1" d="m33.52,11.85c-.08-.44-.39-.81-.82-.95s-.9-.02-1.21.3l-6.23,6.27-4.9-9.36c-.21-.4-.62-.64-1.06-.64s-.85.25-1.06.64l-2.68,5.12L8.83.65c-.24-.46-.75-.71-1.26-.62s-.91.49-.98,1L.09,42.75l17.38,9.77c1.09.61,2.42.61,3.51,0l17.53-9.77-4.98-30.9h0Z"/></svg>