<svg xmlns="http://www.w3.org/2000/svg" xmlns:xlink="http://www.w3.org/1999/xlink" id="Layer_1" x="0px" y="0px" viewBox="0 0 106.8 40" style="enable-background:new 0 0 106.8 40;" xml:space="preserve">
<style type="text/css">
	.st0{fill:#3C8BD9;}
	.st1{fill:#FABC04;}
	.st2{fill:#34A852;}
	.st3{fill:#E1C025;}
	.st4{fill:#757575;}
</style>
<g>
	<g transform="matrix(.176308 0 0 .176308 7.367521 8.916185)">
		<path class="st0" d="M42.7-22c2.4-6.3,5.7-12.1,10.6-16.8c19.6-19.1,52-14.3,65.3,9.7c10,18.2,20.6,36,30.9,54l51.6,89.8    c14.3,25.1-1.2,56.8-29.6,61.1c-17.4,2.6-33.7-5.4-42.7-21L83.4,76c-0.3-0.6-0.7-1.1-1.1-1.6c-1.6-1.3-2.3-3.2-3.3-4.9L45.6,11.6    c-3.9-6.8-5.7-14.2-5.5-22C40.4-14.4,40.9-18.4,42.7-22"></path>
		<path class="st1" d="M42.7-22c-0.9,3.6-1.7,7.2-1.9,11c-0.3,8.4,1.8,16.2,6,23.5l32.9,56.9c1,1.7,1.8,3.4,2.8,5l-18.1,31.1    l-25.3,43.6c-0.4,0-0.5-0.2-0.6-0.5c-0.1-0.8,0.2-1.5,0.4-2.3c4.1-15,0.7-28.3-9.6-39.7C23,99.7,15,95.8,5.8,94.5    c-12-1.7-22.6,1.4-32.1,8.9c-1.7,1.3-2.8,3.2-4.8,4.2c-0.4,0-0.6-0.2-0.7-0.5l14.3-24.9L42-20.9C42.2-21.3,42.5-21.6,42.7-22"></path>
		<path class="st2" d="M-31.4,107.4l5.7-5.1c24.3-19.2,60.8-5.3,66.1,25.1c1.3,7.3,0.6,14.3-1.6,21.3c-0.1,0.6-0.2,1.1-0.4,1.7    c-0.9,1.6-1.7,3.3-2.7,4.9c-8.9,14.7-22,22-39.2,20.9c-19.7-1.4-35.2-16.2-37.9-35.8c-1.3-9.5,0.6-18.4,5.5-26.6    c1-1.8,2.2-3.4,3.3-5.2C-32.1,108.2-32.3,107.4-31.4,107.4"></path>
		<path class="st1" d="M-31.4,107.4c-0.4,0.4-0.4,1.1-1.1,1.2c-0.1-0.7,0.3-1.1,0.7-1.6L-31.4,107.4"></path>
		<path class="st3" d="M38.4,150.4c-0.4-0.7,0-1.2,0.4-1.7l0.4,0.4L38.4,150.4"></path>
	</g>
	<path class="st4" d="M50.8,3.6c-4.5,0-8.3,3.6-8.3,8.1s3.8,8.1,8.3,8.1c2.4,0,4.2-0.8,5.7-2.3c1.5-1.5,1.9-3.5,1.9-5.2   c0-0.5,0-1-0.1-1.4h-7.5v2.2h5.3c-0.2,1.2-0.6,2.2-1.2,2.8c-0.8,0.8-2,1.6-4.1,1.6c-3.3,0-5.8-2.6-5.8-5.9s2.6-5.9,5.8-5.9   c1.8,0,3.1,0.7,4,1.6l1.6-1.6C55,4.6,53.3,3.6,50.8,3.6z M64.4,9.4c-2.8,0-5.2,2.2-5.2,5.3c0,3,2.3,5.3,5.2,5.3   c2.9,0,5.2-2.2,5.2-5.3S67.2,9.4,64.4,9.4 M64.4,17.9c-1.6,0-2.9-1.3-2.9-3.2s1.4-3.2,2.9-3.2c1.6,0,2.9,1.3,2.9,3.2   C67.3,16.6,65.9,17.9,64.4,17.9 M75.7,9.4c-2.9,0-5.2,2.2-5.2,5.3c0,3,2.3,5.3,5.2,5.3c2.8,0,5.2-2.2,5.2-5.3S78.6,9.4,75.7,9.4    M75.7,17.9c-1.6,0-2.9-1.3-2.9-3.2s1.4-3.2,2.9-3.2c1.6,0,2.9,1.3,2.9,3.2C78.6,16.6,77.3,17.9,75.7,17.9 M86.9,9.4   c-2.6,0-5,2.3-5,5.2c0,2.9,2.4,5.2,5,5.2c1.2,0,2.2-0.6,2.7-1.2h0.1v0.8c0,2-1,3.1-2.8,3.1c-1.4,0-2.2-1-2.6-1.8l-2,0.8   c0.6,1.4,2.1,3.1,4.6,3.1c2.7,0,4.9-1.6,4.9-5.4V9.7h-2.2v0.8h-0.1C89.1,9.9,88.2,9.4,86.9,9.4 M87.1,17.8c-1.6,0-2.9-1.3-2.9-3.2   s1.3-3.2,2.9-3.2c1.6,0,2.8,1.4,2.8,3.2S88.7,17.8,87.1,17.8 M93.6,4.2h2.3v15.5h-2.3V4.2L93.6,4.2z M102,9.4c-2.7,0-5,2.1-5,5.3   c0,3,2.2,5.3,5.2,5.3c2.4,0,3.8-1.5,4.4-2.3l-1.8-1.2c-0.6,0.9-1.4,1.4-2.6,1.4c-1.2,0-2-0.5-2.6-1.6l7.1-2.9l-0.2-0.6   C106.1,11.6,104.7,9.4,102,9.4 M99.3,14.5c-0.1-2,1.6-3.1,2.8-3.1c0.9,0,1.7,0.4,2,1.1L99.3,14.5L99.3,14.5z"></path>
	<path class="st4" d="M57.6,38.3l5.3-14.1h2l5.3,14.1h-2l-1.4-3.8h-5.9l-1.4,3.8C59.6,38.3,57.6,38.3,57.6,38.3z M61.5,32.8h4.7   l-2.3-6.3h-0.1C63.9,26.4,61.5,32.8,61.5,32.8z M72,37.1c-0.9-1-1.3-2.2-1.3-3.6c0-1.4,0.4-2.6,1.3-3.6c0.9-1,2-1.5,3.2-1.5   c0.7,0,1.4,0.2,1.9,0.4c0.6,0.3,1,0.7,1.4,1.2h0.1l-0.1-1.3v-4.4h1.8v14.1h-1.7v-1.3h-0.1c-0.3,0.5-0.8,0.9-1.4,1.2   s-1.2,0.4-1.9,0.4C74,38.6,72.9,38.1,72,37.1 M77.7,36c0.6-0.6,0.9-1.5,0.9-2.5c0-1-0.3-1.8-0.9-2.5c-0.6-0.6-1.3-1-2.2-1   s-1.6,0.3-2.2,1c-0.6,0.6-0.9,1.5-0.9,2.5c0,1,0.3,1.8,0.9,2.5c0.6,0.6,1.3,1,2.2,1C76.4,36.9,77.2,36.6,77.7,36 M88.7,37.7   c-0.7,0.6-1.6,0.9-2.8,0.9c-1,0-1.8-0.2-2.6-0.8c-0.7-0.5-1.2-1.2-1.6-2l1.6-0.7c0.2,0.6,0.6,1,1,1.4c0.4,0.3,1,0.5,1.5,0.5   c0.6,0,1-0.1,1.4-0.4c0.4-0.2,0.6-0.6,0.6-0.9c0-0.6-0.5-1.1-1.4-1.4L84.9,34c-1.9-0.5-2.8-1.4-2.8-2.7c0-0.9,0.4-1.6,1.1-2.1   c0.7-0.5,1.6-0.8,2.7-0.8c0.8,0,1.6,0.2,2.3,0.6c0.7,0.4,1.2,1,1.4,1.6l-1.6,0.7c-0.2-0.4-0.5-0.7-0.9-1c-0.4-0.2-0.9-0.4-1.4-0.4   c-0.5,0-0.9,0.1-1.3,0.4c-0.4,0.2-0.6,0.5-0.6,0.9c0,0.6,0.5,1,1.6,1.2l1.4,0.4c1.9,0.5,2.8,1.4,2.8,2.9   C89.8,36.4,89.4,37.1,88.7,37.7"></path>
</g>
</svg>