<?xml version="1.0" encoding="UTF-8"?><svg id="Layer_1" xmlns="http://www.w3.org/2000/svg" viewBox="0 0 188.63 59.82"><defs><style>.cls-1{fill:#e00097;}</style></defs><path class="cls-1" d="m72.73,17.18c-.97,0-1.86.13-2.67.39-.78.24-1.46.64-2.05,1.21-.56.54-1.02,1.25-1.37,2.11-.33.87-.51,1.9-.55,3.1-.07,1.95-.07,3.9,0,5.85.04,1.21.23,2.25.55,3.1.35.87.8,1.58,1.37,2.15.58.54,1.27.94,2.05,1.21.8.24,1.69.36,2.67.36s1.85-.13,2.67-.39c.82-.28,1.53-.69,2.11-1.23.61-.56,1.09-1.28,1.44-2.15.35-.87.52-1.89.52-3.06v-1.66h-5.67c-.48,0-.72-.24-.72-.73v-.46c0-.49.24-.73.72-.73h6.96c.49,0,.73.24.73.73v2.86c0,1.3-.19,2.5-.58,3.58-.39,1.06-.96,1.99-1.72,2.77-.74.78-1.66,1.39-2.77,1.82-1.1.41-2.33.62-3.71.62s-2.65-.21-3.71-.62c-1.06-.43-1.96-1.03-2.7-1.79-.72-.76-1.27-1.66-1.66-2.7-.37-1.06-.57-2.23-.62-3.51-.04-.97-.07-2-.07-3.09s.02-2.13.07-3.09c.04-1.28.26-2.44.65-3.48.39-1.06.94-1.97,1.66-2.73.74-.76,1.64-1.34,2.7-1.76,1.06-.43,2.29-.65,3.67-.65,1.5,0,2.78.23,3.84.68,1.06.46,1.93,1,2.6,1.64.67.63,1.17,1.29,1.5,1.99.33.69.5,1.27.52,1.72.02.19-.03.36-.16.49-.13.11-.3.16-.52.16h-.72c-.19,0-.34-.04-.42-.13-.09-.11-.17-.28-.26-.52-.17-.49-.42-.97-.73-1.46-.3-.49-.71-.92-1.23-1.3-.52-.39-1.14-.7-1.85-.94-.72-.24-1.56-.36-2.54-.36v-.02Zm15.36,6.47c.78-1.5,2.25-2.25,4.42-2.25h1.21c.48,0,.72.24.72.72v.46c0,.48-.24.72-.72.72h-1.4c-1.3,0-2.33.38-3.09,1.14-.76.76-1.14,1.79-1.14,3.09v10.08c0,.22-.08.39-.23.52-.13.13-.3.2-.52.2h-.52c-.48,0-.72-.24-.72-.72v-15.45c0-.22.07-.39.2-.52.13-.15.3-.23.52-.23h.52c.22,0,.39.08.52.23.15.13.23.3.23.52v1.5h0Zm20.09,14.68c-.48,0-.72-.24-.72-.72v-1.53c-.19.3-.45.61-.78.91-.3.3-.68.58-1.14.81-.46.24-1,.43-1.64.58-.63.17-1.37.26-2.21.26-.78,0-1.53-.12-2.25-.36-.69-.26-1.31-.61-1.85-1.04-.52-.43-.94-.94-1.27-1.53-.3-.58-.46-1.22-.46-1.92,0-.74.15-1.4.46-1.99.33-.58.77-1.09,1.33-1.53.56-.46,1.24-.82,2.02-1.1.8-.3,1.68-.52,2.64-.65l5.14-.72v-1.14c0-1.17-.36-2.08-1.07-2.73-.69-.65-1.81-.98-3.35-.98-1.21,0-2.16.24-2.83.72-.65.46-1.06.95-1.23,1.5-.09.26-.19.44-.33.55-.11.09-.26.13-.46.13h-.46c-.19,0-.37-.07-.52-.2-.13-.15-.2-.33-.2-.52,0-.3.11-.68.33-1.14.22-.46.56-.9,1.04-1.33.49-.43,1.12-.8,1.89-1.1.76-.33,1.68-.49,2.77-.49,1.28,0,2.33.17,3.16.52.84.35,1.51.8,1.99,1.37.48.54.8,1.15.98,1.82.19.67.29,1.33.29,1.99v10.83c0,.48-.24.72-.72.72h-.55,0Zm-6.15-1.57c.74,0,1.43-.12,2.08-.36.67-.26,1.26-.64,1.76-1.14s.88-1.12,1.17-1.89c.28-.76.42-1.65.42-2.67v-1.1l-4.19.58c-3.6.49-5.4,1.64-5.4,3.45,0,.54.12,1.01.36,1.4.26.39.58.71.98.98.39.26.83.45,1.33.58.49.11.99.16,1.5.16h0Zm20.01,1.88c-1.37,0-2.48-.24-3.35-.73-.87-.49-1.57-1.09-2.11-1.82v7.71c0,.48-.24.72-.72.72h-.55c-.48,0-.72-.24-.72-.72v-21.69c0-.48.24-.72.72-.72h.55c.48,0,.72.24.72.72v1.53c.54-.74,1.25-1.34,2.11-1.82.87-.49,1.98-.73,3.35-.73,1.26,0,2.32.23,3.19.68.89.43,1.6,1.02,2.15,1.76.54.72.93,1.54,1.17,2.47.26.91.41,1.84.46,2.8.02.33.03.68.03,1.07s-.01.75-.03,1.07c-.04.96-.2,1.9-.46,2.83-.24.91-.63,1.73-1.17,2.47-.54.72-1.26,1.3-2.15,1.76-.87.43-1.93.65-3.19.65h0Zm-5.46-9.97c-.02.33-.03.75-.03,1.27s.01.94.03,1.27c.02.65.13,1.31.33,1.99.22.65.54,1.24.98,1.76.43.52.98.95,1.64,1.3.65.33,1.43.49,2.34.49.96,0,1.75-.16,2.37-.49.65-.33,1.17-.76,1.56-1.3.41-.56.7-1.2.88-1.92.19-.74.31-1.5.36-2.28.02-.61.02-1.22,0-1.82-.04-.78-.16-1.53-.36-2.25-.17-.72-.47-1.34-.88-1.89-.39-.56-.91-1.01-1.56-1.33-.63-.35-1.42-.52-2.37-.52-.93,0-1.72.17-2.37.52-.65.35-1.2.8-1.64,1.37-.41.54-.73,1.15-.94,1.82-.19.67-.3,1.34-.33,2.02h0Zm18.87-5.05c.58-.76,1.29-1.38,2.11-1.85.82-.48,1.94-.72,3.35-.72,1.11,0,2.07.18,2.89.55.82.37,1.5.88,2.05,1.53.56.65.99,1.42,1.27,2.31.28.89.42,1.85.42,2.89v9.24c0,.48-.24.72-.72.72h-.55c-.48,0-.72-.24-.72-.72v-9.08c0-1.73-.42-3.09-1.27-4.07-.84-1-2.08-1.5-3.71-1.5s-2.81.49-3.74,1.46c-.93.97-1.4,2.34-1.4,4.1v9.08c0,.48-.24.72-.72.72h-.55c-.48,0-.72-.24-.72-.72V15.94c0-.48.24-.72.72-.72h.55c.48,0,.72.24.72.72v7.71h0Zm25.37-8.42c1.26,0,2.41.18,3.45.55s1.93.93,2.67,1.69c.76.74,1.34,1.67,1.76,2.8.43,1.11.67,2.42.72,3.94.04.97.07,1.88.07,2.73s-.02,1.76-.07,2.73c-.11,3.1-.9,5.38-2.37,6.83l2.08,2.93s.04.09.07.13c.02.04.03.12.03.23,0,.17-.07.33-.2.46-.13.13-.28.2-.46.2h-.72c-.24,0-.44-.1-.62-.29-.17-.17-.31-.33-.42-.46l-1.44-1.99c-1.3.63-2.82.94-4.55.94-2.71,0-4.8-.73-6.28-2.18-1.45-1.45-2.22-3.72-2.31-6.8-.04-.97-.07-1.88-.07-2.73s.02-1.76.07-2.73c.04-1.52.27-2.83.68-3.94.43-1.13,1.02-2.06,1.76-2.8.76-.76,1.65-1.32,2.67-1.69,1.04-.37,2.2-.55,3.48-.55h0Zm0,1.95c-.91,0-1.76.14-2.54.42-.78.26-1.46.68-2.05,1.27-.58.58-1.05,1.33-1.4,2.25-.33.91-.51,1.99-.55,3.25-.02.49-.04.94-.07,1.37,0,.41,0,.81,0,1.21,0,.39,0,.8,0,1.23.02.41.04.86.07,1.33.04,1.28.23,2.37.55,3.29.35.89.8,1.63,1.37,2.21.58.58,1.27,1.02,2.05,1.3.78.26,1.63.39,2.56.39s1.79-.13,2.56-.39c.78-.28,1.45-.72,2.02-1.3.58-.58,1.04-1.32,1.37-2.21.35-.91.54-2.01.58-3.29.02-.48.03-.92.03-1.33,0-.43,0-.84,0-1.23,0-.39,0-.79,0-1.21,0-.41-.01-.87-.03-1.37-.04-1.26-.24-2.34-.58-3.25-.33-.91-.78-1.66-1.37-2.25-.58-.58-1.27-1.01-2.05-1.27-.78-.28-1.63-.42-2.54-.42h.01Zm15.88,19.19h11.22c.49,0,.73.24.73.73v.49c0,.48-.24.72-.73.72h-12.55c-.48,0-.72-.24-.72-.72v-21.32c0-.48.24-.72.72-.72h.62c.48,0,.72.24.72.72v20.1h0ZM4.83,45.52l-2.19-1.27L27.07,1.94l2.19,1.27L4.83,45.52Z"/><path class="cls-1" d="m2.14,40.88h48.86v2.53H2.14v-2.53Z"/><path class="cls-1" d="m27.55,56.41L3.11,42.3l1.27-2.19,24.44,14.11-1.27,2.2Zm21.23-36.78L24.34,5.52l1.27-2.19,24.44,14.11-1.27,2.19Z"/><path class="cls-1" d="m4.38,19.62l-1.27-2.19L27.58,3.34l1.27,2.19L4.38,19.62Z"/><path class="cls-1" d="m48.33,45.52L23.9,3.21l2.19-1.27,24.43,42.31-2.19,1.27ZM4.08,15.75h2.53v28.22h-2.53V15.75Zm42.47,0h2.53v28.22h-2.53V15.75Z"/><path class="cls-1" d="m27.12,55.34l-1.11-1.92,21.26-12.27,1.11,1.92-21.26,12.27Z"/><path class="cls-1" d="m52.44,44.8c-1.47,2.55-4.73,3.42-7.28,1.95-2.55-1.47-3.42-4.73-1.95-7.28,1.47-2.55,4.73-3.42,7.28-1.95,2.56,1.46,3.43,4.75,1.95,7.28M9.94,20.25c-1.47,2.55-4.73,3.42-7.28,1.95C.12,20.73-.76,17.48.71,14.93c1.47-2.55,4.73-3.42,7.28-1.95,2.55,1.46,3.42,4.75,1.95,7.28M.73,44.8c-1.46-2.55-.6-5.8,1.95-7.28,2.55-1.46,5.8-.6,7.28,1.95,1.46,2.55.6,5.8-1.95,7.28-2.56,1.46-5.81.6-7.28-1.95m42.5-24.54c-1.46-2.55-.6-5.8,1.95-7.28,2.55-1.46,5.8-.6,7.28,1.95,1.46,2.55.6,5.8-1.95,7.28-2.55,1.47-5.81.59-7.28-1.95m-16.65,39.48c-2.94,0-5.32-2.38-5.32-5.32s2.39-5.32,5.32-5.32,5.32,2.38,5.32,5.32c0,2.94-2.39,5.32-5.32,5.32m0-49.09c-2.94,0-5.32-2.38-5.32-5.32S23.64,0,26.58,0s5.32,2.38,5.32,5.32c0,2.94-2.37,5.32-5.31,5.32,0,0-.01,0-.02,0"/></svg>