<?xml version="1.0" encoding="UTF-8"?><svg id="Layer_1" xmlns="http://www.w3.org/2000/svg" viewBox="0 0 140.17 72.5"><defs><style>.cls-1{fill:#fff;}.cls-2{fill:#32496b;}</style></defs><rect class="cls-2" width="140.17" height="72.5" rx="3.26" ry="3.26"/><path class="cls-1" d="m30.05,29.98c1.13,1.35,1.7,3.4,1.7,6.13v11.67h-5.95v-11.39c0-1.32-.24-2.27-.73-2.88-.49-.6-1.24-.91-2.27-.91-1.24,0-2.23.39-2.98,1.18-.75.79-1.12,1.84-1.12,3.15v10.84h-5.95v-27.79h5.95v11c.68-1,1.56-1.76,2.62-2.27,1.07-.51,2.26-.77,3.57-.77,2.31,0,4.04.68,5.17,2.03Z"/><path class="cls-1" d="m48.92,43.6l-.31,4.34c-.76.11-1.53.16-2.29.16-2.95,0-5.09-.64-6.45-1.93-1.35-1.29-2.03-3.25-2.03-5.87v-7.41h-3.67v-4.45h3.67v-5.68h5.95v5.68h4.85v4.45h-4.85v7.37c0,2.31,1.08,3.47,3.23,3.47.6,0,1.24-.04,1.89-.12Z"/><path class="cls-1" d="m65.14,43.6l-.31,4.34c-.76.11-1.53.16-2.29.16-2.95,0-5.09-.64-6.45-1.93-1.35-1.29-2.03-3.25-2.03-5.87v-7.41h-3.67v-4.45h3.67v-5.68h5.95v5.68h4.85v4.45h-4.85v7.37c0,2.31,1.08,3.47,3.23,3.47.6,0,1.24-.04,1.89-.12Z"/><path class="cls-1" d="m84.49,29.23c1.3.86,2.31,2.05,3.04,3.59.72,1.54,1.08,3.31,1.08,5.3s-.36,3.75-1.08,5.26c-.73,1.51-1.73,2.67-3.02,3.49-1.29.81-2.78,1.22-4.46,1.22-1.31,0-2.5-.27-3.57-.81-1.07-.54-1.89-1.29-2.46-2.27v9.86h-5.95v-26.46h5.87v2.72c.58-1,1.41-1.78,2.48-2.35s2.28-.85,3.63-.85c1.66,0,3.13.43,4.44,1.28Zm-2.94,12.93c.76-.93,1.15-2.28,1.15-4.04s-.38-3.17-1.15-4.16c-.76-.98-1.84-1.48-3.23-1.48s-2.47.48-3.23,1.44c-.76.96-1.14,2.33-1.14,4.12s.38,3.12,1.14,4.08c.76.96,1.84,1.44,3.23,1.44s2.47-.47,3.23-1.4Z"/><path class="cls-1" d="m98.43,28.43v6.31h-6.39v-6.31h6.39Zm0,13.05v6.31h-6.39v-6.31h6.39Z"/><path class="cls-1" d="m100.74,49.48l10.21-31.86,4.45,1.34-10.21,31.86-4.45-1.34Z"/><path class="cls-1" d="m112.76,49.48l10.21-31.86,4.45,1.34-10.21,31.86-4.45-1.34Z"/></svg>