<?xml version="1.0" encoding="UTF-8"?><svg id="Layer_1" xmlns="http://www.w3.org/2000/svg" viewBox="0 0 144.09 66.9"><defs><style>.cls-1{fill:#231f20;}</style></defs><path id="path3139" class="cls-1" d="m14.01,5.95h0c-.73-.74-1.74-1.2-2.86-1.2s-2.12.46-2.84,1.2h-.02c-.72.74-1.17,1.77-1.17,2.9s.45,2.17,1.17,2.9l.02.02c.72.74,1.72,1.19,2.84,1.19s2.13-.45,2.86-1.19v-.02c.74-.73,1.18-1.75,1.18-2.9s-.44-2.17-1.17-2.9c0,0,0,0,0,0Zm-2.86,56.2h0c1.12,0,2.13-.47,2.86-1.2v-.02c.74-.73,1.18-1.76,1.18-2.89s-.44-2.17-1.17-2.91h0c-.73-.75-1.74-1.2-2.86-1.2s-2.12.45-2.84,1.2h-.02c-.72.74-1.17,1.77-1.17,2.91s.45,2.16,1.17,2.89l.02.02c.72.73,1.72,1.2,2.84,1.2h0Zm21.98-12.44h0c1-.27,1.9-.92,2.46-1.91l.07-.14h0c.49-.93.58-2.02.32-2.97-.26-1.02-.91-1.93-1.88-2.5l-.06-.04c-.94-.53-2.02-.64-3-.37-1,.25-1.91.93-2.45,1.91-.56.97-.67,2.09-.41,3.12.28,1.01.92,1.93,1.88,2.5h0c.96.56,2.05.67,3.07.4h0ZM15.29,29.24h0c-1.06-1.07-2.52-1.75-4.14-1.75s-3.07.67-4.13,1.75c-1.05,1.07-1.7,2.55-1.7,4.2s.65,3.13,1.7,4.22c1.06,1.07,2.51,1.74,4.13,1.74s3.08-.67,4.14-1.74c1.06-1.09,1.71-2.57,1.71-4.22s-.65-3.13-1.71-4.2h0Zm-2.33-7h0c2.35.39,4.46,1.54,6.07,3.19h.01c.26.26.51.55.74.83l4.03-2.37c-.54-1.67-.57-3.41-.13-5.04.57-2.19,1.97-4.14,4.06-5.37l.07-.04c2.07-1.19,4.41-1.44,6.53-.85,2.15.59,4.08,2.01,5.29,4.13h0c1.2,2.12,1.44,4.54.87,6.72-.57,2.19-1.97,4.16-4.06,5.38l-.55.33h-.06c-1.93.93-4.05,1.08-6,.56-1.6-.43-3.07-1.34-4.22-2.63l-4.02,2.36c.46,1.24.72,2.59.72,4s-.26,2.77-.72,4.02l4.02,2.36c1.15-1.31,2.62-2.2,4.22-2.63,2.15-.6,4.53-.34,6.61.89l.13.06h0c2.01,1.25,3.36,3.16,3.92,5.32.57,2.17.33,4.59-.87,6.7l-.07.15h0c-1.2,2.03-3.1,3.41-5.2,3.99-2.15.58-4.53.33-6.61-.89v-.02c-2.09-1.23-3.48-3.19-4.06-5.37-.44-1.63-.41-3.37.13-5.03l-4.03-2.36c-.23.29-.48.56-.74.82h-.01c-1.61,1.66-3.72,2.8-6.07,3.18v4.74c1.67.36,3.17,1.21,4.34,2.4h0c1.57,1.61,2.55,3.83,2.55,6.27s-.97,4.64-2.55,6.24v.02h0c-1.58,1.6-3.76,2.59-6.16,2.59s-4.56-.99-6.14-2.59h0v-.02c-1.57-1.6-2.55-3.81-2.55-6.24s.98-4.66,2.55-6.25h0s0-.01,0-.01c1.17-1.19,2.67-2.05,4.34-2.4v-4.74c-2.35-.38-4.45-1.53-6.06-3.17h-.02c-2.01-2.06-3.27-4.89-3.27-8.03s1.26-5.95,3.27-8.01h.02c1.61-1.65,3.71-2.8,6.06-3.19v-4.72c-1.67-.37-3.17-1.22-4.34-2.41h0c-1.57-1.62-2.55-3.83-2.55-6.27s.98-4.65,2.55-6.25h0c1.58-1.61,3.76-2.6,6.14-2.6s4.57.99,6.16,2.6h0s0,0,0,0c1.57,1.6,2.55,3.83,2.55,6.25s-.97,4.65-2.55,6.25h0c-1.17,1.2-2.67,2.05-4.34,2.42,0,0,0,4.72,0,4.72Zm22.62-3.15l-.03-.05c-.56-.95-1.44-1.59-2.42-1.86-1.01-.27-2.1-.16-3.07.41h0c-.97.56-1.62,1.47-1.89,2.5-.27,1.02-.15,2.14.41,3.12l.02.03c.56.97,1.44,1.61,2.44,1.88.99.29,2.1.17,3.06-.4l.05-.03c.94-.57,1.57-1.47,1.83-2.47.27-1.02.16-2.14-.39-3.12h0"/><path id="path3141" class="cls-1" d="m53.46,20.49h4.49v13.96l6.48-7.3h5.39l-7.82,8.45,7.86,10.71h-5.15l-6.76-9.57v9.57h-4.49v-25.83"/><path id="path3143" class="cls-1" d="m75.04,36.82c0,2.38,1.68,5.83,5.73,5.83,2.5,0,4.15-1.33,5.01-3.07.45-.84.65-1.75.72-2.69.03-.91-.14-1.86-.52-2.69-.79-1.81-2.54-3.38-5.25-3.38-3.63,0-5.7,3-5.7,5.97,0,0,0,.03,0,.03Zm15.92,9.5h-4.5v-2.76c-1.2,2.23-3.7,3.35-6.34,3.35-6.04,0-9.57-4.79-9.57-10.19,0-6.04,4.29-10.16,9.57-10.16,3.43,0,5.52,1.85,6.34,3.39v-2.8h4.5v19.16"/><path id="path3145" class="cls-1" d="m96.05,30.68h-2.33v-3.53h2.33v-1.08c0-5.69,4.26-6.04,7.48-6.08v3.52c-1.13,0-2.98,0-2.98,2.69v.94h2.98v3.53h-2.98v15.64h-4.5v-15.64"/><path id="path3147" class="cls-1" d="m106.59,20.49h4.49v13.96l6.48-7.3h5.39l-7.82,8.45,7.86,10.71h-5.15l-6.76-9.57v9.57h-4.49v-25.83"/><path id="path3149" class="cls-1" d="m128.17,36.82c0,2.38,1.68,5.83,5.73,5.83,2.5,0,4.15-1.33,5.01-3.07.45-.84.66-1.75.72-2.69.03-.91-.14-1.86-.52-2.69-.79-1.81-2.54-3.38-5.24-3.38-3.64,0-5.7,3-5.7,5.97,0,0,0,.03,0,.03Zm15.92,9.5h-4.5v-2.76c-1.2,2.23-3.7,3.35-6.34,3.35-6.04,0-9.57-4.79-9.57-10.19,0-6.04,4.29-10.16,9.57-10.16,3.43,0,5.52,1.85,6.34,3.39v-2.8h4.5v19.16"/></svg>