<?xml version="1.0" encoding="UTF-8"?><svg id="Layer_1" xmlns="http://www.w3.org/2000/svg" viewBox="0 0 152.96 59.1"><defs><style>.cls-1{fill:#c1bebe;}.cls-2{fill:#6cab48;}.cls-3{fill:#47474a;}.cls-4{fill:#599536;}</style></defs><path class="cls-4" d="m13.09.16l1.58,2.96c.34.53.74,1.03,1.19,1.48,1.32,1.32,2.58,2.7,3.7,4.18,2.67,3.51,4.47,7.4,5.76,11.62.77,2.58,1.19,5.22,1.22,7.89.13,7.98-2.61,14.84-8.14,20.54-.9.9-1.87,1.73-2.9,2.48-.55,0-.81-.43-1.03-.81-.43-.72-.68-1.51-.81-2.32-.19-.97-.32-1.93-.26-2.93v-.45c-.03-.1-.51-44.42-.32-44.65h0Z"/><path class="cls-2" d="m13.09.06c-.07-.13-.13-.03-.19.03.03.64-.19,1.22-.55,1.77-.39.55-.9.97-1.42,1.42-2.86,2.48-5.12,5.47-6.92,8.82C1.63,16.61.37,21.44.02,26.52c-.16,1.84.58,8.31,1.16,10.17,1.58,4.96,4.41,9.11,8.09,12.71.9.87,1.87,1.67,2.86,2.45.29,0,.32-.26.39-.45.13-.41.22-.83.29-1.26.29-1.61.45-3.22.64-4.83L13.1.06h-.01Z"/><path class="cls-1" d="m14.67,53.27c.07-.74.43-1.35.81-1.96-.39-.16-.68-.48-.9-.84-.19-.32-.35-.72-.48-1.06-.45-1.35-.55-2.77-.68-4.15v-.84c-.16.13-.19,1.22-.19,1.38-.1,1.48-.29,2.93-.58,4.34-.1.58-.16,1.16-.51,1.67,0,.07,0,.13.03.23.58,1.71.74,3.44.84,5.22v.64c0,.77-.03.61.61.87.26.1.55.13.81.32.19,0,.23-.16.23-.29l-.1-1.06v-2.96c-.03-.51.07-1.03.13-1.51h0Z"/><g><path class="cls-3" d="m39.11,39.81v3.07c0,.12,0,.24.02.36.04.36.26.58.59.69.31.08.62.14.93.18.18.02.24.1.26.3.02.69-.04.77-.71.73-1.55-.08-3.11-.1-4.66,0h-.15c-.48.02-.52-.02-.52-.5,0-.08.02-.18.02-.26,0-.15.1-.22.24-.22.32-.04.63-.12.93-.18.42-.1.66-.36.71-.79.06-.46.06-.95.06-1.41l.02-5.41c.01-.32-.16-.62-.44-.77-.37-.2-.75-.37-1.15-.48-.12-.04-.24-.06-.34-.12-.3-.14-.3-.4-.02-.57.1-.06.22-.1.34-.12,1.22-.18,2.43-.48,3.59-.91.24-.08.3-.06.32.18.02.15,0,.32-.02.46-.04.26-.04.52-.04.77,0,.1.02.2.12.26s.2,0,.3-.06c.42-.32.85-.63,1.31-.89.66-.36,1.37-.69,2.14-.79.93-.12,1.73.12,2.44.73.29.26.55.56.77.89.2.3.22.3.48.1.77-.57,1.57-1.07,2.44-1.43.91-.38,1.84-.44,2.76-.12.95.34,1.59,1.01,1.98,1.92.32.73.46,1.48.46,2.26v5.41c0,.36.15.59.5.77.38.15.81.22,1.21.3q.26.06.26.32c-.04.66-.1.71-.75.66-1.62-.09-3.24-.09-4.86,0q-.32.02-.34-.3v-.1q-.02-.55.5-.66l.52-.14c.37-.09.62-.41.63-.79l.06-1.51-.04-3.95c-.02-.35-.09-.7-.22-1.03-.5-1.23-1.61-1.67-2.68-1.55-.81.08-1.51.4-2.18.87-.14.1-.24.22-.22.42.18,1.29.06,2.58.08,3.87v2.8c0,.5.2.75.69.87l.93.2c.14.02.22.08.22.24v.15c-.02.57-.06.59-.63.58-1.61-.08-3.23-.06-4.82,0-.55.02-.59-.04-.57-.59.02-.32.06-.34.36-.4l.66-.12c.59-.12.81-.34.85-.97l.06-1.35-.04-4.05c-.04-.5-.15-.99-.42-1.45-.4-.75-1.03-1.13-1.9-1.17-.87-.06-1.63.26-2.36.66-.5.3-.73.65-.69,1.23v2.94l-.02-.02Zm38,.12v2.84c0,.2.02.4.04.61.02.28.21.51.48.57.35.1.71.16,1.07.18.2.02.24.1.26.26v.14c-.02.71-.1.79-.79.75-1.54-.1-3.07-.08-4.6,0l-.59.02c-.12,0-.15-.06-.18-.14-.06-.28-.06-.57,0-.85.02-.12.1-.15.22-.18.3-.04.55-.1.83-.15.5-.12.69-.32.71-.85l.06-1.69v-4.96c0-.36-.14-.58-.46-.75-.36-.2-.75-.34-1.15-.48-.12-.04-.24-.08-.34-.14-.26-.18-.3-.44-.04-.65.11-.09.26-.15.4-.16,1.29-.2,2.54-.48,3.75-.97.14-.06.2-.02.26.1s.08.26.06.4l-.06.95c0,.12-.06.3.04.34.12.08.2-.1.3-.15.6-.5,1.25-.92,1.96-1.25.63-.3,1.27-.48,2-.44,1.35.08,2.32.77,2.94,1.96.32.63.46,1.31.52,2.02l.06,1.48.02,4.46c.02.34.14.57.48.69.35.12.72.21,1.09.26.32.04.34.1.36.4v.1c-.04.69-.08.71-.77.66-1.5-.08-3.01-.08-4.52,0-.2.02-.4,0-.59.02-.12,0-.2-.02-.22-.14-.04-.26-.08-.52-.02-.81.02-.12.08-.18.22-.2l.93-.15c.32-.08.5-.3.55-.59l.04-.57-.02-4.22c0-.48-.02-.97-.12-1.45-.24-1.03-1.03-1.77-2.1-1.87-.93-.1-1.77.14-2.54.65-.38.24-.55.58-.55,1.01v3.05q0-.06.02-.06l-.03-.04Z"/><path class="cls-1" d="m136.19,34.22c-.22-1.47-.77-2.78-1.72-3.93-.83-1.02-1.89-1.81-3.11-2.3-1.27-.52-2.62-.69-3.99-.73-.57-.02-8.27.1-8.84,0-.14-.02-.24.02-.32.14-.1.15-.2.3-.26.46-.24.55-.24.5.34.58.48.08.95.12,1.41.26.42.14.73.38.83.85.04.22.08,7.32.08,10.63l-.08,2.36c-.02.18-.04.36-.1.52-.08.24-.22.44-.46.55-.27.13-.55.2-.85.22-.55.06-.63.08-.81.69l-.06.22c-.04.26-.02.3.24.3l6.03.06,2.36-.04,1.63-.2c1.86-.34,3.51-1.11,4.92-2.34.81-.71,1.46-1.58,1.94-2.54.57-1.13.81-2.36.87-3.61.1-.71.06-1.43-.06-2.16h0Zm-2.93,2.86c-.08,1.29-.34,2.54-1.01,3.67-.85,1.47-2.06,2.5-3.73,2.86-.73.15-1.45.22-2.21.12-.55-.06-1.07-.12-1.57-.3-.91-.32-1.23-.89-1.25-1.77l-.02-12.16c0-.73.32-.89.85-.91.79-.06,1.59-.04,2.38.04.84.08,1.66.28,2.44.59.58.24,1.12.58,1.59.99,1.09.93,1.82,2.1,2.21,3.47.32,1.11.38,2.24.32,3.37v.03Zm19.69,1.98c0-.12,0-.22-.02-.34-.18-1.11-.77-1.96-1.67-2.6-.58-.42-1.25-.71-1.94-.91-.12-.04-.22-.08-.34-.1.02-.1.08-.12.14-.14.4-.2.79-.42,1.13-.73.63-.52,1.03-1.17,1.25-1.96.12-.42.12-.85.08-1.29-.07-1.05-.61-2.02-1.47-2.62-.93-.69-2.02-.97-3.15-.99-2.18-.04-4.38,0-6.55,0-.63,0-1.25.04-1.9-.06-.12-.02-.3-.06-.38.08-.15.26-.32.52-.38.83-.02.14.02.22.18.24l1.39.2c.55.08.93.38.97.87.04.33.06.67.06,1.01l-.04,3.77-.02,7.46c0,.44-.06.87-.14,1.31-.04.29-.25.52-.52.61-.4.12-.79.24-1.21.24-.23-.02-.45.12-.52.34-.08.18-.15.38-.18.57-.04.24.02.32.26.3.18-.02,6.84.14,8.09.02.75-.08,1.48-.18,2.22-.4,1.27-.4,2.44-.99,3.37-1.98.77-.81,1.21-1.78,1.25-2.9.06-.26.06-.52.06-.81h0Zm-9.78-8.28l.06-1.61c0-.3.12-.44.42-.5.48-.1.97-.06,1.45-.04.48.04.95.1,1.43.24.89.26,1.57.77,1.98,1.61.18.38.28.8.28,1.23.02.57-.02,1.11-.24,1.65-.34.75-.89,1.23-1.67,1.37s-3.03.08-3.37.08c-.3,0-.32-.04-.32-.34v-1.9c-.05-.59-.05-1.18-.02-1.78v-.02Zm6.56,10.85c-.34.91-.97,1.54-1.86,1.87-.48.18-.97.3-1.48.26-.63-.02-1.25,0-1.87-.12-.85-.18-1.23-.99-1.29-1.57-.1-1.03-.04-2.08-.06-2.84v-2.66c0-.32.04-.42.38-.42l1.9.02,1.29.15c.91.2,1.73.55,2.38,1.25.52.57.81,1.25.87,2,.06.71.02,1.39-.24,2.06h-.02Z"/><path class="cls-3" d="m98.48,35.58l.52.08c.57.02,1.23-.18,1.43-.97.11-.38.11-.78,0-1.15-.12,0-.18.1-.24.14-.3.24-.64.38-1.01.42-.73.08-1.45.04-2.16-.22l-.99-.34c-.69-.23-1.42-.32-2.14-.28-1.03.08-2,.42-2.9.91-.97.52-1.65,1.31-1.98,2.38-.18.63-.2,1.27-.12,1.92.2,1.47.97,2.5,2.34,3.05.08.02.14.06.22.08.18.1.2.2.04.34l-.5.34-1.21.75c-.3.18-.34.32-.24.65.12.38.34.71.64.97.28.24.59.43.93.57.22.1.22.15.02.32l-1.15.83c-.38.3-.77.59-1.09.97-.45.49-.64,1.17-.48,1.82.15.7.52,1.34,1.05,1.82.52.49,1.16.83,1.86,1.01,1.13.32,2.3.34,3.45.12,1.65-.3,3.1-1.03,4.24-2.28.79-.83,1.25-1.79,1.29-2.95.09-1.38-.83-2.63-2.18-2.94l-1.09-.2-3.33-.3c-.36-.02-.73-.08-1.03-.26-.38-.24-.48-.71-.24-1.01.18-.22.4-.36.69-.38l.64-.06c1.28-.13,2.47-.68,3.41-1.55.5-.46.86-1.06,1.03-1.72.24-.87.24-1.77.04-2.66-.06-.22-.04-.24.24-.2h0Zm-4.94,10.06c.12.02.24,0,.36,0,.85.04,1.72.1,2.54.32.27.08.53.18.79.3.81.44,1.11,1.21,1.01,2.04-.12.91-.63,1.55-1.41,1.98-.52.3-1.11.42-1.72.48-.22.02-.42,0-.64,0-.71.02-1.39-.06-2.06-.34-.46-.18-.85-.44-1.19-.81-.71-.71-1.03-2,.02-3.05.64-.59,1.37-1.01,2.3-.93Zm2.3-6.29c-.42,1.07-1.35,1.39-2.28,1.25-.85-.12-1.47-.58-1.87-1.35-.52-1.03-.66-2.1-.36-3.21.22-.83.73-1.45,1.61-1.59,1.13-.2,2.21.2,2.78,1.33.3.55.42,1.21.42,2.16-.02.38-.1.91-.3,1.41h0Zm-25.41-1.37c-.18-1.09-.58-2.08-1.33-2.9-1.11-1.23-2.52-1.77-4.12-1.78-1.39-.02-2.7.38-3.87,1.11-1.15.69-2,1.79-2.36,3.09-.34,1.17-.32,2.36-.06,3.55.71,3.19,3.17,4.56,6.11,4.36.87-.06,1.69-.34,2.48-.73,1.17-.55,2.02-1.41,2.6-2.56.46-.95.66-1.96.65-3.11l-.1-1.03h0Zm-2.86,4.48c-.29.93-1.11,1.59-2.08,1.69-.89.12-1.72-.1-2.46-.63-.54-.4-.97-.91-1.27-1.51-.83-1.69-.97-3.47-.55-5.28.14-.56.43-1.07.85-1.47.75-.69,1.61-.85,2.58-.65.93.2,1.63.71,2.21,1.47s.85,1.65,1.01,2.58c.08.46.08.95.1,1.25,0,.97-.08,1.77-.38,2.54h-.01Zm46.94-4.32c-.15-1.17-.58-2.24-1.41-3.13-1.09-1.19-2.5-1.69-4.07-1.72-1.35-.02-2.6.36-3.75,1.03-1.29.77-2.18,1.86-2.52,3.33-.41,1.61-.24,3.31.48,4.8.66,1.41,1.79,2.32,3.29,2.72,1.65.44,3.23.24,4.76-.5,1.33-.65,2.28-1.65,2.82-3.03.32-.81.44-1.67.46-2.68.02-.18-.02-.5-.06-.83h0Zm-2.78,4.06c-.32,1.09-1.01,1.79-2.16,1.96-.85.12-1.65-.08-2.38-.57-.63-.42-1.07-.99-1.39-1.65-.36-.71-.57-1.45-.64-2.22-.12-.95-.12-1.87.1-2.82.04-.19.1-.37.18-.54.57-1.41,1.82-2.06,3.29-1.73.99.22,1.73.77,2.3,1.59.55.81.81,1.69.93,2.66.06.38.08.79.06,1.13,0,.79-.06,1.51-.3,2.22v-.02Z"/></g></svg>