<?xml version="1.0" encoding="UTF-8"?><svg id="Layer_1" xmlns="http://www.w3.org/2000/svg" xmlns:xlink="http://www.w3.org/1999/xlink" viewBox="0 0 200.59 51.02"><defs><style>.cls-1{fill:url(#linear-gradient);}.cls-2{fill:#231f1f;}.cls-3{fill:url(#linear-gradient-2);}.cls-4{fill:url(#radial-gradient);}</style><linearGradient id="linear-gradient" x1="-10300.98" y1="-6231.25" x2="-10249.08" y2="-6261.91" gradientTransform="translate(730.86 483.5) scale(.07)" gradientUnits="userSpaceOnUse"><stop offset="0" stop-color="#8f9ba8"/><stop offset="1" stop-color="#ececed"/></linearGradient><linearGradient id="linear-gradient-2" x1="-10299.81" y1="-6809.19" x2="-10258.06" y2="-6809.19" gradientTransform="translate(730.86 483.5) scale(.07)" gradientUnits="userSpaceOnUse"><stop offset="0" stop-color="#929eaa"/><stop offset="1" stop-color="#dbdde0"/></linearGradient><radialGradient id="radial-gradient" cx="-3643.19" cy="-7128.47" fx="-3643.19" fy="-7128.47" r="55.44" gradientTransform="translate(-77.17 -979.37) rotate(-171.46) scale(.07 .14) skewX(-.19)" gradientUnits="userSpaceOnUse"><stop offset="0" stop-color="#ed352c"/><stop offset="1" stop-color="#a81d22"/></radialGradient></defs><g><path class="cls-1" d="m29.03,24.12l-10.08,3.29-8.77,3.87-2.45.65c-.62.59-1.28,1.2-1.99,1.81-.78.67-1.5,1.28-2.06,1.72-.62.49-1.53,1.4-2,1.98-.69.87-1.24,1.79-1.48,2.5-.42,1.28-.21,2.57.59,3.77,1.04,1.52,3.1,3.08,5.51,4.14,1.23.54,3.29,1.23,4.84,1.62,2.58.66,7.58,1.36,10.33,1.47.56.02,1.3.02,1.33,0,.06-.04.49-.85.98-1.87,1.69-3.45,2.91-6.69,3.57-9.45.4-1.68.71-3.91.91-6.55.05-.74.08-3.21.03-4.05-.07-1.37-.19-2.48-.38-3.57-.03-.16-.04-.3-.02-.31.03-.02.12-.05,1.36-.41l-.25-.59h0s0,0,0,0h0Zm-2.3,1.35c.09,0,.34,2.34.4,3.82.02.31,0,.52,0,.52-.06,0-1.29-.72-2.16-1.27-.76-.48-2.21-1.44-2.44-1.62-.08-.05-.07-.06.56-.27,1.06-.36,3.57-1.17,3.66-1.17Zm-5.13,1.69c.07,0,.24.1.66.36,1.57.98,3.7,2.17,4.62,2.57.28.12.31.08-.34.52-1.39.94-3.12,1.87-5.23,2.81-.37.17-.69.3-.69.3-.02,0,.03-.19.09-.42.51-1.9.8-3.82.82-5.35q0-.76.08-.78s0,0,0,0h0Zm-1.06.4s.02,1.75-.05,2.22c-.14,1.11-.35,2.15-.7,3.31-.08.28-.16.52-.18.53-.03.04-1.07-.98-1.42-1.38-.59-.69-1.06-1.37-1.4-2.04-.18-.34-.45-1.01-.43-1.04.12-.08,4.14-1.64,4.17-1.61h0Zm-4.98,1.96s.02,0,.02,0c.02.02.07.14.11.27.24.66.79,1.64,1.26,2.26.52.69,1.2,1.42,1.76,1.9.18.15.35.3.37.32.05.05.06.04-1.18.51-1.44.55-3.01,1.1-4.81,1.68-.43.14-.86.28-1.29.42-.07.02-.05-.02.15-.33.89-1.39,2.25-4.13,3.01-6.06.13-.34.26-.67.28-.75.03-.11.07-.14.17-.2.05-.02.11-.03.13-.03h0Zm-1.52.63s-.37.83-.75,1.58c-.74,1.44-1.55,2.86-2.63,4.58-.18.3-.36.57-.38.6-.04.05-.05.04-.18-.2-.26-.51-.47-1.17-.59-1.77-.11-.59-.09-1.63.04-2.27.1-.47.09-.46.32-.58.97-.5,4.13-1.97,4.16-1.94h0Zm13.14.53v.32c0,1.7-.18,4.03-.45,5.73-.05.3-.08.54-.09.55,0,0-.22-.06-.48-.14-1.14-.36-2.38-.88-3.5-1.5-.74-.4-1.81-1.07-1.78-1.1,0,0,.33-.18.7-.37,1.49-.78,2.92-1.61,4.17-2.44.46-.31,1.17-.81,1.32-.95l.12-.09h0Zm-18.89,2.25s.02.06-.02.34c-.03.2-.07.56-.08.81-.06,1.11.12,1.93.67,3.06.15.31.27.57.27.58-.05.05-5.1,1.52-6.68,1.96-.47.13-.88.24-.91.25-.05.02-.06,0-.04-.12.18-1.12,1.03-2.58,2.22-3.82.79-.82,1.42-1.3,2.51-1.92.78-.44,1.97-1.1,2.06-1.13,0,0,0,0,.02,0h0Zm11.88,2.13s.19.09.41.22c1.63.94,3.9,1.82,5.83,2.27l.18.04-.24.14c-1.01.56-4.34,1.95-7.75,3.22-.5.18-.98.37-1.07.4-.09.04-.18.06-.18.05s.14-.27.31-.6c.95-1.78,1.91-3.95,2.4-5.46.06-.14.1-.27.11-.28h0Zm-1.21.4s-.05.17-.13.35c-.66,1.61-1.53,3.36-2.64,5.32-.28.5-.52.91-.53.91s-.24-.14-.51-.3c-1.61-.99-3.05-2.21-3.98-3.39l-.14-.17.69-.19c2.48-.68,4.59-1.41,6.69-2.31.3-.12.54-.22.55-.22Zm7.53,2.63s0,0,0,0c0,.18-.38,1.74-.7,2.88-.27.95-.5,1.7-.91,3.02-.18.58-.34,1.06-.35,1.06s-.05,0-.1-.02c-2.26-.41-4.29-.98-6.19-1.74-.53-.21-1.29-.56-1.34-.59-.02-.02.44-.23,1.02-.48,3.47-1.52,7.06-3.24,8.29-3.98.14-.09.26-.14.28-.14h0Zm-17.37.59s-.95,1.41-2.31,3.31c-.47.66-1.02,1.44-1.23,1.73-.21.29-.52.75-.69,1.02l-.32.5-.34-.29c-.4-.34-1.1-1.05-1.42-1.45-.66-.81-1.1-1.68-1.27-2.46-.08-.37-.08-.55,0-.57.11-.03,2.15-.51,4.05-.95,1.06-.24,2.28-.53,2.73-.64.44-.11.8-.19.81-.19h0Zm.97.37l.24.27c1.1,1.23,2.22,2.13,3.57,2.92.24.14.43.26.41.27-.05.04-4.71,1.69-6.86,2.44-1.21.43-2.21.77-2.22.77s-.08-.05-.15-.1l-.14-.1.22-.32c.72-1.04,1.61-2.17,3.57-4.53l1.35-1.62h0Zm6.08,4.35s.34.11.75.27c.99.37,1.77.61,2.83.88,1.29.33,3.17.65,4.27.74.17.02.26.03.23.05-.05.03-1.17.4-2,.66-1.31.41-5.31,1.59-8.57,2.53-.6.18-1.12.32-1.15.33-.08.02-.33-.05-.33-.08,0-.02.18-.25.4-.51,1.1-1.31,2.19-2.77,3.09-4.16.25-.38.46-.69.46-.7h0Zm-1.34.04s-.53.88-1.48,2.37c-.4.63-.85,1.35-1.01,1.6-.15.24-.38.62-.51.84l-.22.39-.11-.03c-.27-.08-2.2-.75-2.71-.96-.63-.25-1.29-.56-1.77-.81-.61-.33-1.37-.82-1.31-.83.02,0,1.06-.29,2.32-.63,3.34-.91,5.19-1.43,6.4-1.81.22-.07.41-.12.42-.11h0Zm9.48,2.22h0c.03.08-1.2,3.5-1.65,4.59-.1.24-.14.3-.19.3-.13,0-1.92-.26-3.01-.42-1.9-.29-5.08-.85-5.88-1.03l-.18-.04,1.13-.26c2.44-.55,3.61-.85,4.8-1.21,1.5-.46,2.99-1.03,4.49-1.73.24-.11.43-.19.49-.2h0Z"/><path class="cls-3" d="m18.64.63c-.17-.02-2.87.95-4.62,1.66-2.35.96-4.18,1.87-5.31,2.67-.42.3-.94.82-1.03,1.03-.03.08-.05.17-.05.26l1.02.97,2.43.78,5.78,1.04,6.61,1.13.07-.57s-.04,0-.06,0l-.87-.14-.18-.31c-.9-1.58-1.89-3.55-2.47-4.87-.45-1.03-.88-2.22-1.11-3.07-.13-.52-.14-.55-.23-.56h0s0,0,0,0h0Zm-.12.39h0s.04.22.07.47c.13,1.07.37,2.09.74,3.21.28.84.28.79-.05.69-.78-.21-4.26-.81-6.78-1.17-.4-.05-.75-.11-.75-.11-.03-.03,1.82-1,2.64-1.38,1.04-.48,3.91-1.68,4.12-1.71Zm-7.34,3.41l.3.1c1.61.55,5.67,1.33,7.91,1.51.25.02.46.05.47.05,0,0-.21.12-.48.25-1.08.54-2.27,1.2-3.09,1.71-.24.15-.46.27-.5.27s-.19-.03-.36-.05l-.3-.05-.76-.75c-1.34-1.3-2.39-2.31-2.8-2.69l-.4-.36Zm-.3.24l1.07,1.34c.59.74,1.18,1.46,1.31,1.62.13.16.24.29.23.3-.03.02-1.55-.27-2.36-.46-.83-.19-1.17-.28-1.68-.44l-.42-.14v-.11c0-.51.66-1.27,1.75-2.05l.1-.07h0Zm9.12,1.83s.07.07.16.27c.26.57,1.07,2.11,1.26,2.41.06.1.17.11-.91-.07-2.58-.42-3.41-.56-3.41-.57,0,0,.08-.06.18-.11.8-.44,1.61-1.01,2.32-1.61.18-.14.34-.28.37-.3,0-.02.02-.02.03-.02h0Z"/><path class="cls-4" d="m7.74,5.88s-.17.27,0,.66c.1.24.39.54.72.85,0,0,3.39,3.31,3.8,3.78,1.87,2.16,2.69,4.3,2.76,7.24.05,1.89-.31,3.55-1.2,5.48-1.58,3.46-4.93,7.27-10.08,11.51l.75-.25c.49-.37,1.15-.75,2.7-1.61,3.59-1.97,7.62-3.77,12.58-5.63,7.13-2.68,18.85-5.82,25.52-6.84l.69-.11-.11-.17c-.61-.94-1.03-1.53-1.53-2.16-1.46-1.81-3.24-3.28-5.41-4.5-2.99-1.67-6.85-2.97-11.74-3.94-.92-.18-2.95-.53-4.59-.78-3.49-.54-5.74-.91-8.23-1.34-.89-.15-2.22-.38-3.11-.57-.46-.1-1.33-.3-2.02-.54-.55-.21-1.34-.43-1.51-1.07h0Zm1.97,1.9s.13.04.29.09c.29.1.66.21,1.1.34.33.09.67.18,1.01.27.46.11.84.22.85.22.05.05.82,2.51,1.08,3.46.1.36.18.66.17.66,0,0-.09-.12-.19-.3-.89-1.57-2.3-3.16-3.93-4.44-.21-.15-.37-.29-.37-.3h0Zm3.75,1.04s.21.02.41.07c1.29.29,3.62.73,5.1.98.25.04.45.08.45.1s-.09.07-.21.13c-.25.13-1.26.73-1.6.96-.85.56-1.61,1.17-2.16,1.72-.22.22-.41.4-.41.4,0,0-.05-.13-.08-.29-.27-1.06-.85-2.63-1.36-3.73-.08-.18-.15-.34-.15-.35,0,.02,0,0,0,0h0Zm6.6,1.26s.12.27.27.85c.28,1.1.41,2.34.37,3.49-.02.32-.03.62-.05.66l-.02.08-.4-.13c-.82-.26-2.14-.65-3.28-.97-.65-.18-1.17-.34-1.17-.35,0-.05.94-.99,1.35-1.35.77-.68,2.86-2.29,2.92-2.27h0Zm.53.08s3.15.52,4.58.79c1.06.21,2.6.53,2.69.56.05.02-.11.11-.62.34-2.01.91-3.5,1.72-4.99,2.71-.39.26-.72.47-.72.47s-.02-.22-.02-.49c0-1.45-.29-2.91-.82-4.14-.05-.12-.1-.24-.09-.24Zm8.1,1.6s-.08.64-.17,1.01c-.27,1.13-1.01,2.82-1.92,4.4-.16.28-.3.51-.32.52-.02,0-.22-.11-.46-.24-.88-.52-1.89-1.01-2.99-1.46-.3-.13-.57-.24-.58-.25-.05-.05,2.4-1.67,3.69-2.45,1.03-.62,2.7-1.55,2.73-1.52h0Zm.58.09c.07,0,1.45.38,2.18.59,1.79.53,3.85,1.29,5.19,1.9l.56.25-.39.09c-3.28.75-6.08,1.62-8.78,2.72-.22.09-.42.17-.43.17s.06-.18.16-.39c.82-1.73,1.34-3.53,1.47-5.07,0-.14.03-.26.05-.26h0Zm-13.8,3.17s1.08.23,1.65.39c.87.24,2.71.86,2.71.91,0,0-.21.18-.45.4-1,.83-1.96,1.71-3.11,2.82-.34.33-.63.59-.65.59s-.02-.05-.02-.11c.18-1.28.14-2.92-.11-4.59-.02-.21-.05-.4-.04-.4Zm22.25.02s-.49.81-.81,1.26c-.46.66-1.13,1.52-2.64,3.43-.8,1.01-1.7,2.14-2,2.52-.3.38-.56.7-.56.7s-.11-.14-.21-.3c-.85-1.28-1.87-2.4-3.08-3.4-.23-.19-.48-.4-.56-.46-.08-.06-.15-.12-.15-.13,0-.02,1.29-.58,2.28-.97,1.72-.7,4.07-1.54,5.83-2.08.92-.29,1.9-.57,1.92-.56h0Zm.59.15s.21.08.43.21c1.85,1.06,3.66,2.42,5.1,3.82.4.4,1.4,1.43,1.39,1.44,0,0-.35.03-.76.06-3.21.24-7.31.92-11.26,1.87-.27.06-.5.11-.52.11s.28-.3.66-.65c2.32-2.23,3.37-3.64,4.62-6.15.18-.37.33-.69.34-.72t0,0h0Zm-16.96,1.74c.11.02,1.1.49,1.84.86.69.34,1.71.89,1.77.94,0,0-.36.2-.81.42-1.43.72-2.66,1.39-3.94,2.17-.37.22-.67.4-.68.4-.03,0-.02-.03.18-.4.69-1.25,1.23-2.74,1.55-4.2.03-.11.06-.19.08-.19h0Zm-.99.18s-.24.96-.4,1.47c-.31.97-.84,2.18-1.35,3.09-.12.21-.3.53-.4.7l-.19.3-.43-.41c-.5-.48-.9-.78-1.42-1.04-.21-.11-.37-.2-.37-.21,0-.06,1.3-1.24,2.3-2.09.72-.62,2.22-1.83,2.25-1.81h0Zm6.06,2.49l.37.24c.85.56,1.86,1.29,2.63,1.94.43.36,1.27,1.11,1.44,1.29l.09.1-.62.18c-3.49.97-6.18,1.83-9.33,2.99-.35.13-.65.24-.67.24-.05,0-.08.04.7-.69,2.01-1.85,3.79-3.89,5.12-5.88l.27-.41h0Zm-1.59.4s-1.03,1.49-1.65,2.32c-.75.99-2.07,2.65-2.99,3.73-.38.45-.71.82-.72.83-.02,0-.03-.11-.03-.28,0-.92-.24-1.9-.65-2.74-.18-.35-.21-.43-.17-.47.14-.13,2.36-1.39,3.76-2.15.94-.5,2.42-1.25,2.45-1.23h0Zm-9.63,2.36s.2.09.4.2c.49.27.92.56,1.31.88.02.02-.18.18-.44.37-.72.52-1.82,1.35-2.46,1.86-.67.53-.69.55-.62.43.5-.77.75-1.2,1.02-1.76.24-.5.47-1.08.64-1.59.06-.22.14-.39.15-.39h0Zm2.57,2.01s.08.06.29.37c.43.65.77,1.52.85,2.22l.02.15-1.04.4c-1.87.72-3.59,1.44-4.75,1.97-.33.15-.9.43-1.27.61-.37.19-.68.34-.68.33s.24-.18.53-.4c2.28-1.65,4.25-3.47,5.73-5.28.16-.19.3-.37.32-.37h.02s0,0,0,0Zm-1.18.29s-.84,1.01-1.43,1.61c-1.47,1.5-2.92,2.67-4.73,3.82-.23.14-.43.27-.46.29-.05.03.02-.05.81-.91.5-.54.88-1,1.32-1.56.29-.37.34-.43.76-.72,1.12-.81,3.7-2.56,3.73-2.53Z"/></g><path class="cls-2" d="m77.79,20.41c-.23,0-.46.02-.69.02-4.66.25-7.8,2.3-9.63,6.3-1.57,3.62-1.4,8.35.02,11.99,1.65,3.56,4.31,5.44,8.75,6.15.94.15,1.57.67,3.39,2.8l2.24,2.62h4.06l-2.7-2.72c-1.49-1.49-2.7-2.79-2.7-2.91s.57-.36,1.26-.58c2.28-.69,4.17-2.45,5.5-5.15,1.07-2.17,1.23-2.84,1.38-5.53.4-8.03-3.83-13.05-10.88-12.99h0Zm3.56,20.99c-1.98.96-4.85,1.15-6.72.46-1.94-.71-3.81-2.72-4.66-5-.94-2.49-.8-7.09.27-9.15,1.72-3.29,4-4.81,7.34-4.81,4.94,0,7.75,3.03,8.12,8.71.29,4.75-1.3,8.31-4.34,9.79h0Zm70.19-14.13c-1.7,0-3.01.69-3.89,2.05l-.69,1.08v-2.8h-2.95v16.78h2.95v-5.36c0-4.9.06-5.48.75-6.82.94-1.84,2.57-2.76,4.14-2.32l1.05.31v-2.91h-1.36Zm-17.33-.16c-.58,0-1.19.08-1.8.21-3.95,1.03-6.17,4.81-6.04,8.7,0,3.26.63,4.88,2.2,6.59,3.22,2.64,6.13,2.85,10.05,1.43.67-.29,1.4-.61,1.4-.61v-2.64l-1.4.72c-3.18,1.38-5.57,1.38-7.49-.25-1.22-1.25-1.76-2.74-2.01-4.44h11.89v-2.26c0-4.61-2.78-7.52-6.82-7.45h0,0Zm-4.81,7.36s.44-2.88,2.07-4.01c.78-.55,1.68-.82,2.57-.82s1.76.29,2.49.84c1.49,1.15,1.74,3.96,1.74,3.96h-8.87v.02h0Zm-71.11-3.03c-3.2-1.94-4.62-3.33-4.44-4.98.5-4.56,6.13-3.93,9.25-2.2l.02-3.07s-1.72-.75-4.2-.79c-3.79-.06-6.24,1.19-7.39,3.72-1.69,3.73-.19,6.55,5.21,9.69,3.03,1.76,4.37,3.29,4.37,4.96,0,3.45-4.16,4.65-8.45,2.49-.88-.44-1.63-.81-1.67-.81-.15.98-.07,3.32-.07,3.32,0,0,1.32.55,3.29.94,4.9.98,9.36-1.32,9.78-5.06.37-3.51-.9-5.34-5.7-8.21h0Zm119.35-4.37c-.58,0-1.19.08-1.82.21-3.94,1.03-6.16,4.81-6.01,8.7,0,3.25.63,4.86,2.2,6.57,3.22,2.64,6.13,2.86,10.07,1.44.67-.29,1.39-.61,1.39-.61v-2.64l-1.4.73c-3.18,1.38-5.58,1.38-7.49-.25-1.23-1.24-1.76-2.72-2.01-4.44h11.87v-2.26c0-4.59-2.78-7.5-6.82-7.43h0s0,0,0,0Zm-4.81,7.36s.44-2.87,2.07-4.02c.78-.56,1.68-.82,2.56-.82s1.76.29,2.49.84c1.49,1.15,1.74,3.98,1.74,3.98h-8.87v.02s0,0,0,0Zm-54.06-2.95c-3.2-1.93-4.61-3.33-4.44-4.98.5-4.56,6.13-3.93,9.25-2.2l.02-3.07s-1.72-.75-4.2-.78c-3.79-.06-6.24,1.19-7.39,3.72-1.68,3.73-.17,6.55,5.21,9.69,3.03,1.76,4.37,3.27,4.37,4.94,0,3.45-4.16,4.67-8.44,2.49-.88-.44-1.63-.8-1.67-.8-.15.98-.07,3.32-.07,3.32,0,0,1.3.53,3.27.94,4.91.98,9.37-1.32,9.79-5.05.36-3.49-.9-5.33-5.69-8.2h0s0,0,0,0Zm76.21-4.25c-1.7,0-3.02.69-3.89,2.05l-.69,1.07v-2.79h-2.95v16.78h2.95v-5.36c0-4.9.06-5.48.75-6.82.94-1.84,2.57-2.76,4.14-2.32l1.05.31v-2.91h-1.36,0Zm-99.66,4.16v-10.69h-2.97v23.67h12.51v-2.8h-9.53v-10.19h0Zm68.77,3.33l-2.45,6.38-2.36-6.41-2.39-7.11h-3.04c1.97,5.59,4.12,11.28,6.28,16.8.94.02,1.88,0,2.82,0l3.31-8.31,3.37-8.48h-2.91s-1.29,3.37-2.62,7.14h0s0,0,0,0Zm-61.92-20.47c.48,0,.88-.15,1.21-.48.32-.33.5-.71.5-1.19s-.17-.88-.5-1.19c-.33-.31-.71-.46-1.19-.46s-.88.15-1.21.48c-.33.33-.48.72-.48,1.19s.15.88.48,1.19c.31.31.71.46,1.19.46h0s0,0,0,0Zm-1.05-2.72c.29-.29.63-.42,1.08-.42.42,0,.76.13,1.05.42.29.29.44.63.44,1.05s-.15.79-.44,1.07c-.29.29-.64.42-1.05.42s-.77-.13-1.05-.42c-.29-.29-.44-.65-.44-1.07s.13-.77.42-1.05Zm.71,1.21h.19c.14,0,.27.13.38.38l.23.52h.36l-.29-.58c-.12-.23-.23-.36-.36-.4.17-.04.3-.1.4-.21.1-.1.13-.23.13-.38,0-.18-.05-.31-.17-.4-.13-.11-.34-.17-.62-.17h-.61v2.15h.31v-.9h.04s0,0,0,0Zm0-1h.27c.19,0,.33.04.4.1.07.06.09.13.09.27,0,.25-.15.36-.44.36h-.33v-.73h0Zm-49.12.81c0-.75-.02-1.3-.04-1.63h.02c.08.39.17.67.25.87l2.86,6.38h.48l2.86-6.44c.08-.18.15-.44.25-.81h.02c-.06.64-.08,1.19-.08,1.63v5.63h.98v-8.37h-1.23l-2.62,5.82c-.1.23-.23.58-.4,1.03h-.04c-.06-.23-.19-.57-.38-.99l-2.57-5.88h-1.3v8.37h.94v-5.61h.02s0,0,0,0Zm9.73.02h.84v5.21h-.84v-5.21Zm.42-1.91c.18,0,.33-.06.44-.18.12-.11.19-.26.19-.44s-.06-.33-.19-.44c-.12-.12-.27-.18-.44-.18s-.32.06-.44.18c-.12.11-.19.27-.19.44,0,.19.06.32.19.44.13.12.27.18.44.18h0Zm6.44,7.24v-.92c-.46.34-.96.52-1.47.52-.61,0-1.11-.21-1.48-.61-.36-.4-.56-.96-.56-1.65s.19-1.3.59-1.74c.38-.42.88-.63,1.49-.63.5,0,.98.15,1.42.46v-.98c-.4-.21-.86-.31-1.38-.31-.96,0-1.7.31-2.26.9-.55.59-.84,1.4-.84,2.37,0,.87.25,1.59.76,2.15.54.57,1.23.86,2.07.86.65-.02,1.19-.15,1.65-.42h0Zm2.41-2.78c0-.69.15-1.24.44-1.63.27-.34.59-.52.98-.52.33,0,.56.06.72.19v-1c-.13-.06-.32-.08-.57-.08-.34,0-.65.12-.92.33-.29.23-.51.57-.65,1.01h-.02v-1.22h-.96v5.97h.96v-3.07h.02Zm5.5,3.18c.9,0,1.63-.29,2.16-.87.54-.57.8-1.34.8-2.3s-.25-1.72-.75-2.28c-.5-.56-1.19-.82-2.09-.82s-1.63.27-2.16.79c-.58.57-.88,1.38-.88,2.41,0,.9.25,1.65.76,2.2.54.58,1.25.86,2.14.86h0s0,0,0,0Zm-1.36-4.87c.36-.38.84-.58,1.44-.58s1.08.19,1.42.58c.34.4.52.98.52,1.74s-.15,1.3-.48,1.69c-.32.4-.8.61-1.44.61s-1.09-.21-1.46-.61c-.36-.4-.54-.96-.54-1.69-.04-.72.15-1.32.54-1.74h0Zm8.52,4.35c.36-.32.56-.72.56-1.23,0-.44-.15-.8-.44-1.09-.23-.23-.59-.44-1.11-.65-.46-.19-.75-.36-.9-.5-.15-.15-.25-.34-.25-.61,0-.25.1-.44.29-.59.19-.15.44-.23.77-.23.52,0,.96.14,1.36.42v-.96c-.39-.19-.81-.29-1.28-.29-.61,0-1.13.17-1.52.5-.4.33-.59.75-.59,1.24,0,.44.13.8.38,1.07.21.23.57.46,1.07.67.48.21.8.4.98.56.17.15.25.34.25.57,0,.56-.38.85-1.13.85-.58,0-1.09-.19-1.55-.57v1.03c.42.25.92.36,1.47.36.71-.04,1.26-.21,1.65-.56h0Zm4.56-5.75c-.9,0-1.63.27-2.16.79-.57.57-.88,1.38-.88,2.41,0,.9.25,1.65.76,2.2.54.58,1.25.86,2.15.86s1.63-.29,2.16-.87c.54-.57.81-1.34.81-2.3s-.25-1.72-.75-2.28c-.52-.56-1.21-.82-2.09-.82h0s0,0,0,0Zm1.86,3.14c0,.73-.15,1.3-.48,1.69-.33.4-.8.61-1.44.61s-1.09-.21-1.46-.61c-.36-.4-.54-.96-.54-1.69,0-.77.19-1.36.58-1.76.36-.38.84-.58,1.44-.58s1.07.19,1.41.58c.31.42.48.99.48,1.76h0,0Zm2.59,2.99h.96v-5.17h1.4v-.8h-1.4v-.92c0-.84.32-1.26,1-1.26.23,0,.46.06.63.15v-.86c-.17-.08-.4-.09-.69-.09-.52,0-.94.15-1.28.48-.4.38-.61.88-.61,1.55v.98h-1.01v.8h1.01v5.15h0Zm3.92-1.63c0,1.17.52,1.76,1.57,1.76.38,0,.67-.06.9-.2v-.82c-.18.13-.38.19-.61.19-.32,0-.55-.08-.69-.25-.14-.17-.21-.46-.21-.86v-3.37h1.52v-.8h-1.52v-1.76c-.33.11-.65.21-.96.31v1.45h-1.03v.8h1.03v3.54h0Zm102.79,11.01c-.33-.31-.71-.46-1.19-.46s-.88.15-1.21.48c-.33.32-.48.72-.48,1.19s.15.88.48,1.19c.33.31.72.46,1.21.46s.88-.15,1.21-.48c.32-.33.49-.71.49-1.19-.02-.48-.19-.88-.52-1.19h0Zm-.15,2.26c-.29.29-.63.42-1.05.42s-.76-.13-1.05-.42c-.29-.29-.44-.65-.44-1.08s.13-.76.42-1.05c.29-.29.63-.42,1.07-.42.42,0,.76.13,1.05.42.29.29.44.64.44,1.05,0,.44-.13.79-.44,1.08Zm-.86-.98c.17-.04.31-.12.4-.21.1-.1.13-.23.13-.39,0-.17-.05-.31-.17-.4-.13-.11-.34-.17-.61-.17h-.61v2.14h.31v-.9h.19c.13,0,.26.13.38.38l.23.52h.36l-.29-.58c-.1-.25-.21-.36-.33-.4h0s0,0,0,0Zm-.21-.19h-.33v-.72h.27c.19,0,.33.03.4.09.08.06.09.13.09.27,0,.25-.15.36-.44.36h0s0,0,0,0ZM24.78,51.02h.16v-1.31h.43v-.16h-1.03v.16h.43v1.31h0Zm.99-.98c0-.13,0-.23,0-.29.01.07.03.12.05.15l.5,1.12h.08l.5-1.13s.02-.08.05-.14c-.01.12-.01.21-.01.28v.99h.17v-1.47h-.21l-.46,1.01s-.05.11-.07.19h-.01s-.03-.09-.07-.17l-.46-1.03h-.24v1.47h.16v-.98h0s0,0,0,0Z"/></svg>