<?xml version="1.0" encoding="UTF-8"?><svg id="Layer_1" xmlns="http://www.w3.org/2000/svg" viewBox="0 0 163.09 60.41"><defs><style>.cls-1{fill-rule:evenodd;}</style></defs><path d="m74.14,41v-15.65h.28l11.27,15.65h3.55v-22.98h-3.94v15.61h-.28l-11.27-15.61h-3.55v22.98h3.94Zm26.25.35c5.2,0,8.39-3.39,8.39-9.06s-3.19-9.06-8.39-9.06-8.39,3.43-8.39,9.06c.04,5.68,3.19,9.06,8.39,9.06Zm0-3.31c-2.76,0-4.34-2.09-4.34-5.75s1.58-5.75,4.34-5.75,4.34,2.13,4.34,5.75-1.58,5.75-4.34,5.75Zm11.98-18.72v4.37h-2.76v3.15h2.76v9.5c0,3.39,1.58,4.73,5.6,4.73.75,0,1.5-.08,2.09-.2v-3.07c-.47.04-.79.08-1.34.08-1.66,0-2.4-.75-2.4-2.48v-8.55h3.74v-3.15h-3.74v-4.37h-3.94Zm10.05,21.68h3.94v-17.42h-3.94v17.42Zm1.97-20.3c1.3,0,2.36-1.06,2.36-2.36s-1.06-2.4-2.36-2.4-2.36,1.06-2.36,2.4,1.06,2.36,2.36,2.36h0Zm12.77,20.65c5.2,0,8.39-3.39,8.39-9.06s-3.19-9.06-8.39-9.06-8.39,3.43-8.39,9.06c0,5.68,3.15,9.06,8.39,9.06Zm0-3.31c-2.76,0-4.34-2.09-4.34-5.75s1.58-5.75,4.34-5.75,4.34,2.13,4.34,5.75c-.04,3.67-1.62,5.75-4.34,5.75Zm10.72,2.96h3.94v-10.13c0-2.56,1.5-4.18,3.82-4.18s3.51,1.34,3.51,3.98v10.33h3.94v-11.27c0-4.18-2.13-6.5-5.99-6.5-2.6,0-4.34,1.18-5.16,3.15h-.28v-2.8h-3.82s.04,17.42.04,17.42Z"/><path class="cls-1" d="m9.81,10.93c1.85,1.5,2.52,1.38,5.99,1.14l32.67-1.97c.71,0,.12-.71-.12-.79l-5.44-3.9c-1.02-.79-2.44-1.73-5.08-1.5L6.23,6.24c-1.14.12-1.38.71-.91,1.14l4.49,3.55Zm1.97,7.61v34.37c0,1.85.91,2.52,3,2.4l35.9-2.09c2.09-.12,2.33-1.38,2.33-2.88V16.21c0-1.5-.59-2.33-1.85-2.21l-37.52,2.21c-1.38.12-1.85.83-1.85,2.33h0Zm35.43,1.85c.24,1.02,0,2.09-1.02,2.21l-1.73.35v25.38c-1.5.79-2.88,1.26-4.06,1.26-1.85,0-2.33-.59-3.7-2.33l-11.31-17.78v17.18l3.59.79s0,2.09-2.88,2.09l-7.96.47c-.24-.47,0-1.62.79-1.85l2.09-.59v-22.7l-2.88-.24c-.24-1.02.35-2.52,1.97-2.64l8.55-.59,11.78,17.97v-15.88l-3-.35c-.24-1.26.71-2.21,1.85-2.33l7.92-.43ZM3.59,3.09L36.5.68c4.02-.35,5.08-.12,7.61,1.73l10.48,7.37c1.73,1.26,2.33,1.62,2.33,3v40.48c0,2.52-.91,4.02-4.14,4.26l-38.19,2.33c-2.44.12-3.59-.24-4.85-1.85l-7.76-10.05c-1.38-1.85-1.97-3.23-1.97-4.85V7.11c0-2.09.95-3.78,3.59-4.02Z"/></svg>