<?xml version="1.0" encoding="UTF-8"?><svg id="Layer_1" xmlns="http://www.w3.org/2000/svg" viewBox="0 0 149.83 41.95"><path d="m47.28,20.19c0,6.71,4.31,11.39,10.28,11.39s10.28-4.68,10.28-11.39-4.31-11.39-10.28-11.39-10.28,4.68-10.28,11.39Zm16.62,0c0,4.8-2.62,7.91-6.34,7.91s-6.34-3.11-6.34-7.91,2.62-7.91,6.34-7.91,6.34,3.11,6.34,7.91Z"/><path d="m78.94,31.57c4.52,0,7.11-3.82,7.11-8.4s-2.59-8.4-7.11-8.4c-2.09,0-3.63.83-4.65,2.03v-1.72h-3.69v21.7h3.69v-7.23c1.02,1.2,2.55,2.03,4.65,2.03h0Zm-4.74-8.86c0-3.05,1.72-4.71,4-4.71,2.68,0,4.12,2.09,4.12,5.17s-1.45,5.17-4.12,5.17c-2.28,0-4-1.69-4-4.68v-.95Z"/><path d="m96.04,31.57c3.23,0,5.79-1.69,6.92-4.52l-3.17-1.2c-.49,1.66-1.94,2.59-3.75,2.59-2.37,0-4.03-1.69-4.31-4.46h11.33v-1.23c0-4.43-2.49-7.97-7.17-7.97s-7.69,3.66-7.69,8.4c0,4.99,3.23,8.4,7.85,8.4h0Zm-.18-13.7c2.34,0,3.45,1.54,3.48,3.32h-7.42c.55-2.19,2.03-3.32,3.94-3.32h0Z"/><path d="m105.83,31.23h3.69v-9.48c0-2.31,1.69-3.54,3.35-3.54,2.03,0,2.83,1.45,2.83,3.45v9.57h3.69v-10.65c0-3.48-2.03-5.82-5.42-5.82-2.09,0-3.54.95-4.46,2.03v-1.72h-3.69v16.16Z"/><path d="m130.22,9.14l-8.37,22.1h3.91l1.88-5.05h9.54l1.91,5.05h3.97l-8.37-22.1h-4.46Zm2.15,4.37l3.51,9.23h-6.96l3.45-9.23Z"/><path d="m149.39,9.2h-3.94v22.1h3.94V9.2Z"/><path d="m38.26,17.25c.93-2.79.61-5.86-.88-8.4-2.24-3.9-6.74-5.9-11.14-4.96-1.96-2.2-4.77-3.46-7.71-3.44-4.49-.01-8.48,2.88-9.86,7.16-2.89.59-5.38,2.4-6.84,4.96C-.42,16.46.09,21.36,3.11,24.7c-.93,2.79-.61,5.86.88,8.4,2.24,3.9,6.74,5.9,11.14,4.96,1.95,2.2,4.77,3.46,7.71,3.44,4.5.01,8.48-2.88,9.87-7.16,2.89-.59,5.38-2.4,6.84-4.96,2.25-3.89,1.74-8.79-1.27-12.12h0Zm-15.42,21.56c-1.8,0-3.54-.63-4.92-1.78.06-.03.17-.09.24-.14l8.17-4.72c.42-.24.67-.68.67-1.16v-11.52l3.45,1.99s.06.05.07.09v9.54c0,4.24-3.44,7.68-7.68,7.69h0Zm-16.52-7.06c-.9-1.56-1.23-3.38-.92-5.15.06.04.17.1.24.14l8.17,4.72c.41.24.93.24,1.34,0l9.98-5.76v3.99s-.02.08-.05.11l-8.26,4.77c-3.68,2.12-8.38.86-10.5-2.81h0Zm-2.15-17.84c.9-1.56,2.31-2.75,4-3.37,0,.07,0,.19,0,.28v9.44c0,.48.25.92.67,1.16l9.98,5.76-3.45,1.99s-.08.03-.12.01l-8.26-4.77c-3.67-2.13-4.93-6.82-2.81-10.5h0Zm28.37,6.6l-9.98-5.76,3.45-1.99s.08-.03.12-.01l8.26,4.77c3.68,2.12,4.94,6.83,2.81,10.51-.9,1.56-2.31,2.75-4,3.37v-9.72c0-.48-.25-.92-.67-1.16h0Zm3.44-5.17c-.06-.04-.17-.1-.24-.14l-8.17-4.72c-.41-.24-.93-.24-1.34,0l-9.98,5.76v-3.99s.02-.08.05-.11l8.26-4.77c3.68-2.12,8.38-.86,10.5,2.82.9,1.55,1.22,3.37.92,5.14h0Zm-21.61,7.11l-3.45-1.99s-.06-.05-.07-.09v-9.54c0-4.25,3.45-7.69,7.7-7.69,1.8,0,3.54.63,4.92,1.78-.06.03-.17.09-.24.14l-8.17,4.72c-.42.24-.67.68-.67,1.16v11.51s0,0,0,0Zm1.88-4.04l4.44-2.57,4.44,2.56v5.13l-4.44,2.56-4.44-2.56v-5.13Z"/></svg>