<?xml version="1.0" encoding="UTF-8"?><svg id="Layer_1" xmlns="http://www.w3.org/2000/svg" viewBox="0 0 172.17 22.38"><defs><style>.cls-1{fill:#c64634;}</style></defs><path class="cls-1" d="m74.49,14.55h11.36l-6-9.69-11.03,17.49h-5.01L77.22,1.37c1.01-1.45,3-1.8,4.45-.79.3.21.55.46.76.75l13.45,21.03h-5.01l-2.36-3.91h-11.49l-2.5-3.9m52.1,3.9V.21h-4.26v20.03c0,.56.23,1.1.63,1.49.41.42.97.65,1.55.65h19.37l2.53-3.91h-19.84m-70.44-3.28c4.14,0,7.49-3.35,7.49-7.49S60.29.21,56.15.21h-18.63v22.14h4.25V4.13h14.11c1.98,0,3.58,1.6,3.58,3.58s-1.6,3.58-3.58,3.58h-12l12.71,11.06h6.18l-8.54-7.17h1.91m-44.79,7.17h12.87c6.11-.16,10.94-5.24,10.78-11.36-.15-5.89-4.89-10.63-10.78-10.78h-12.87C5.25.06.16,4.89,0,11c-.16,6.11,4.67,11.2,10.78,11.36.19,0,.38,0,.57,0m12.58-3.9h-12.29c-3.96-.13-7.06-3.44-6.93-7.4.12-3.78,3.16-6.81,6.93-6.93h12.29c3.96-.13,7.27,2.98,7.4,6.93.13,3.96-2.98,7.27-6.93,7.4-.15,0-.31,0-.46,0m80.83,3.9h13.14l2.49-3.9h-15.33c-3.96.13-7.27-2.98-7.4-6.93-.13-3.96,2.98-7.27,6.93-7.4.15,0,.31,0,.46,0h12.48l2.52-3.91h-15.29c-6.11-.16-11.2,4.67-11.36,10.78-.16,6.11,4.67,11.2,10.78,11.36.19,0,.38,0,.57,0m52.06-3.9c-3.21,0-6.03-2.13-6.9-5.22h18.19l2.5-3.9h-20.7c.87-3.09,3.69-5.22,6.9-5.22h12.49l2.5-3.91h-15.27c-6.11.16-10.94,5.24-10.78,11.36.15,5.89,4.89,10.63,10.78,10.78h13.14l2.5-3.9h-15.35"/></svg>