<?xml version="1.0" encoding="UTF-8"?><svg id="Layer_1" xmlns="http://www.w3.org/2000/svg" viewBox="0 0 171.83 37.49"><defs><style>.cls-1{fill:#203232;}</style></defs><path class="cls-1" d="m14.18,7.58c-3.33,0-5.26,1.51-6.18,2.52-.11-.89-.7-2.04-2.99-2.04H0v5.2h2.04c.34,0,.45.11.45.45v23.79h5.93v-9.56c.92.84,2.68,2.01,5.45,2.01,5.79,0,9.84-4.59,9.84-11.18.03-6.68-3.83-11.18-9.53-11.18m-1.2,17.19c-3.19,0-4.64-3.05-4.64-5.9,0-4.47,2.43-6.07,4.73-6.07,2.8,0,4.7,2.4,4.7,6.01-.03,4.14-2.43,5.96-4.78,5.96"/><path class="cls-1" d="m31.71,23.85v-12.61c0-2.12-1.03-3.16-3.13-3.16h-5.31v5.2h2.04c.34,0,.45.11.45.45v12.55c0,2.15,1.01,3.16,3.13,3.16h5.31v-5.17h-2.04c-.31.03-.45-.11-.45-.42"/><path class="cls-1" d="m47.19,7.58c-3.33,0-5.26,1.51-6.21,2.52-.11-.89-.7-2.04-2.99-2.04h-4.98v5.2h2.04c.34,0,.45.11.45.45v23.79h5.98v-9.56c.92.84,2.71,2.01,5.45,2.01,5.79,0,9.84-4.59,9.84-11.18s-3.86-11.18-9.59-11.18m-1.2,17.19c-3.19,0-4.64-3.05-4.64-5.9,0-4.47,2.43-6.07,4.73-6.07,2.8,0,4.7,2.4,4.7,6.01,0,4.14-2.4,5.96-4.78,5.96"/><path class="cls-1" d="m67.94,7.58c-6.4,0-10.85,4.61-10.85,11.18s4.81,11.18,11.46,11.18c5.23,0,8.42-3.1,8.56-3.22l.25-.22-2.57-4.28-.39.36s-2.38,2.18-5.48,2.18-5.14-1.82-5.68-4.67h14.06l.03-.39c0-.06.14-1.31.14-1.93,0-6.1-3.83-10.2-9.53-10.2m-4.47,8.11c.64-2.1,2.26-3.3,4.47-3.3,1.79,0,3.16,1.37,3.41,3.3h-7.88Z"/><path class="cls-1" d="m99.06,23.85V3.19c0-2.12-1.03-3.16-3.16-3.16h-5.31v5.2h2.04c.34,0,.45.11.45.45v3.75c-.87-.78-2.57-1.82-5.54-1.82-5.76,0-9.79,4.61-9.79,11.18s3.86,11.18,9.56,11.18c3.27,0,5.17-1.51,6.1-2.57.11.92.73,2.1,2.94,2.1h5.14v-5.17h-1.99c-.34-.03-.45-.17-.45-.48m-10.6.92c-2.82,0-4.64-2.35-4.64-6.01s1.9-5.93,4.73-5.93c3.22,0,4.64,2.96,4.64,5.9,0,4.47-2.43,6.04-4.73,6.04"/><path class="cls-1" d="m114.71,7.77c-2.46,0-4.75,1.43-6.1,3.69v-.48c0-1.93-1.06-2.94-3.16-2.94h-5.09v5.2h2.04c.34,0,.45.11.45.45v15.74h5.93v-8.56c0-1.12.14-2.21.42-3.22.89-2.96,3.27-4,5.17-4,.67,0,1.17.08,1.17.08l.5.08v-5.9l-.36-.06s-.5-.11-.98-.11"/><path class="cls-1" d="m124.5,23.85v-12.61c0-2.12-1.03-3.16-3.13-3.16h-4.81v5.2h1.54c.34,0,.45.11.45.45v12.55c0,2.15,1.01,3.16,3.13,3.16h5.31v-5.17h-2.04c-.31.03-.45-.11-.45-.42"/><path class="cls-1" d="m146.9,8.08h-3.16c-1.85,0-2.85.64-3.44,2.21l-3.86,10.79c-.14.39-.25.84-.36,1.29-.11-.42-.25-.89-.39-1.29l-3.86-10.79c-.59-1.59-1.54-2.21-3.44-2.21h-3.36v5.2h.87c.48,0,.62.17.73.45l5.98,15.74h6.68l5.98-15.74c.11-.28.25-.45.73-.45h.92v-5.2h-.03Z"/><path class="cls-1" d="m157.13,7.58c-6.4,0-10.85,4.61-10.85,11.18s4.81,11.18,11.46,11.18c5.23,0,8.42-3.1,8.56-3.22l.25-.22-2.57-4.28-.39.36s-2.38,2.18-5.45,2.18-5.14-1.82-5.68-4.67h14.06l.03-.39c0-.06.11-1.31.11-1.93,0-6.1-3.83-10.2-9.53-10.2m-4.47,8.11c.64-2.1,2.26-3.3,4.47-3.3,1.79,0,3.16,1.37,3.41,3.3h-7.88Z"/><rect class="cls-1" x="26" width="5.28" height="5.56"/><rect class="cls-1" x="118.82" width="5.28" height="5.56"/><polygon class="cls-1" points="166.55 8.08 167.33 8.08 167.33 10.2 167.92 10.2 167.92 8.08 168.7 8.08 168.7 7.58 166.55 7.58 166.55 8.08"/><polygon class="cls-1" points="171.02 7.58 170.44 9.39 169.82 7.58 169.01 7.58 169.01 10.2 169.54 10.2 169.54 8.36 169.57 8.36 170.21 10.2 170.66 10.2 171.3 8.36 171.3 10.2 171.83 10.2 171.83 7.58 171.02 7.58"/></svg>