<?xml version="1.0" encoding="UTF-8"?><svg id="Layer_1" xmlns="http://www.w3.org/2000/svg" viewBox="0 0 189.91 29.04"><defs><style>.cls-1{fill:#f60;}.cls-2{fill:#b7b7b7;}</style></defs><path class="cls-1" d="m25.35,11.78c.74,0,1.35.6,1.35,1.35v14.08c0,.74-.6,1.35-1.35,1.35H1.35C.6,28.55,0,27.95,0,27.21h0V1.66C0,.92.6.32,1.35.32h2.92c.74,0,1.35.6,1.35,1.35v8.84c.04.65.54,1.18,1.18,1.27h2.18c.66-.06,1.21-.6,1.25-1.27V1.66c0-.74.6-1.35,1.35-1.35h2.92c.74,0,1.35.6,1.35,1.35v8.75c0,.69.51,1.28,1.18,1.36h8.34,0Zm-3.84,9.66v-2.76c0-.74-.6-1.35-1.35-1.35h-2.92c-.74,0-1.35.6-1.35,1.35v2.75c0,.74.6,1.35,1.35,1.35h2.92c.74,0,1.35-.6,1.35-1.35h0Zm24.63,7.14l-1.4-6.51c-.17-.87-.39-1.73-.66-2.58-.24-.75-.58-1.38-1-1.9-.43-.51-.99-.9-1.68-1.17-.69-.26-1.6-.4-2.72-.4h-2.93v12.56h-3.19V.37h6.99c1.16,0,2.28.12,3.37.36,1.08.24,2.04.64,2.88,1.19.84.56,1.53,1.31,2.01,2.2.51.91.76,2.03.76,3.37,0,1.02-.12,1.93-.36,2.7-.22.74-.58,1.42-1.08,2.01-.48.56-1.08,1.04-1.79,1.43-.71.39-1.55.7-2.5.94v.08c.93.24,1.68.54,2.23.91.56.37,1,.8,1.34,1.31.33.51.59,1.09.77,1.74.18.66.35,1.41.53,2.25l1.63,7.73h-3.19,0Zm-.78-20.76c0-1.17-.21-2.08-.62-2.72-.39-.63-.96-1.12-1.63-1.43-.68-.31-1.45-.49-2.31-.55-.88-.06-1.77-.09-2.65-.09h-2.38v10.34h1.76c.96,0,1.9-.07,2.85-.21.88-.12,1.73-.4,2.52-.81.74-.39,1.36-.98,1.8-1.69.45-.73.68-1.68.68-2.85h0Zm18.68,20.76v-2.58h-.08c-.27.51-.63.96-1.08,1.33-.45.38-.95.7-1.49.95-.54.25-1.11.44-1.69.57-.56.12-1.13.19-1.71.19-.84,0-1.59-.13-2.23-.39-.62-.24-1.18-.61-1.63-1.1-.45-.5-.8-1.08-1.01-1.72-.23-.67-.35-1.42-.35-2.25,0-.75.15-1.41.44-2s.68-1.1,1.17-1.55c.51-.46,1.07-.85,1.69-1.15.64-.32,1.3-.58,1.99-.78,1.3-.38,2.65-.57,4-.58.33,0,.66,0,.96-.01.31,0,.62-.04.96-.11v-.42c0-.72-.01-1.43-.03-2.15,0-.66-.13-1.31-.36-1.93-.21-.56-.59-1.04-1.08-1.38-.5-.35-1.24-.53-2.2-.53-.58,0-1.09.06-1.55.16-.43.09-.83.26-1.19.51-.34.25-.62.58-.81.96-.21.4-.35.89-.43,1.47h-3.1c.01-.99.22-1.82.63-2.5.39-.67.94-1.25,1.59-1.68.68-.44,1.44-.77,2.23-.95.83-.2,1.69-.3,2.55-.3,2.21,0,3.85.5,4.92,1.5,1.07,1,1.61,2.58,1.61,4.75v13.65h-2.72Zm-1.72-8.83c-.63,0-1.31.07-2.05.21-.72.13-1.41.37-2.07.69-.64.32-1.18.74-1.61,1.27-.43.53-.65,1.18-.65,1.95,0,.83.25,1.51.75,2.04.5.53,1.16.8,1.99.8.49,0,.97-.07,1.42-.23.45-.15.88-.36,1.27-.63.4-.27.76-.59,1.07-.96.32-.37.58-.78.78-1.22.16-.36.29-.69.39-.98.2-.59.31-1.21.33-1.83.01-.32.02-.69.02-1.1h-1.64s0,0,0,0Zm25.47-.7c0,1.28-.13,2.52-.39,3.71-.26,1.2-.7,2.26-1.31,3.2-.61.93-1.43,1.69-2.41,2.23-.99.56-2.23.84-3.7.84-1.37,0-2.52-.21-3.45-.64-.93-.43-1.68-1.02-2.25-1.77-.56-.76-.97-1.65-1.22-2.69-.25-1.1-.38-2.23-.37-3.37V.37h2.77v11.98h.1c.16-.56.42-1.09.78-1.55.34-.45.75-.83,1.22-1.15.47-.32.99-.56,1.54-.72.56-.17,1.15-.25,1.74-.25.93,0,1.75.15,2.45.45.7.3,1.32.71,1.82,1.23.51.52.94,1.12,1.29,1.81.35.7.63,1.43.82,2.18.2.77.34,1.56.43,2.37.1.8.14,1.59.14,2.34Zm-3.19-.07c0-.51-.03-1.02-.07-1.52-.05-.58-.13-1.16-.24-1.73-.11-.59-.27-1.17-.47-1.73-.19-.54-.45-1.04-.78-1.51-.31-.43-.7-.79-1.16-1.06-.45-.28-.98-.41-1.58-.41-.64,0-1.2.15-1.69.44-.5.3-.93.69-1.28,1.16-.36.48-.66,1.02-.9,1.63-.24.61-.43,1.24-.57,1.87-.14.62-.24,1.24-.3,1.87-.06.54-.09,1.09-.09,1.63,0,.75.06,1.53.16,2.35.1.83.32,1.59.63,2.3.31.7.76,1.29,1.34,1.74.58.46,1.35.69,2.31.69.64,0,1.2-.12,1.69-.36.48-.23.9-.56,1.25-.97.35-.4.63-.88.86-1.41s.4-1.08.54-1.65c.13-.57.23-1.15.28-1.71.05-.57.07-1.11.07-1.62Zm22.86.07c0,1.28-.13,2.52-.39,3.71-.26,1.2-.7,2.26-1.31,3.2-.61.93-1.43,1.69-2.41,2.23-.99.56-2.23.84-3.7.84-1.37,0-2.52-.21-3.45-.64-.93-.43-1.68-1.02-2.25-1.77s-.97-1.65-1.22-2.69c-.25-1.1-.38-2.23-.37-3.37V.37h2.77v11.98h.1c.16-.56.42-1.09.78-1.55.34-.45.75-.83,1.22-1.15.47-.32.99-.56,1.54-.72.56-.17,1.15-.25,1.74-.25.93,0,1.75.15,2.45.45.7.3,1.32.71,1.82,1.23.51.52.94,1.12,1.29,1.81.35.7.63,1.43.82,2.18.2.77.34,1.56.43,2.37.1.8.14,1.59.14,2.34Zm-3.19-.07c0-.51-.03-1.02-.07-1.52-.05-.58-.13-1.16-.24-1.73-.11-.59-.27-1.17-.47-1.73-.19-.54-.45-1.04-.78-1.51-.31-.43-.7-.79-1.16-1.06-.45-.28-.98-.41-1.58-.41-.64,0-1.2.15-1.69.44-.5.3-.93.69-1.28,1.16-.36.48-.66,1.02-.9,1.63-.24.61-.43,1.24-.57,1.87-.14.62-.24,1.24-.3,1.87-.06.54-.09,1.09-.09,1.63,0,.75.06,1.53.16,2.35.1.83.32,1.59.63,2.3.31.7.76,1.29,1.34,1.74.58.46,1.35.69,2.31.69.64,0,1.2-.12,1.69-.36.48-.23.9-.56,1.25-.97.35-.4.63-.88.86-1.41.23-.53.41-1.09.54-1.65.13-.57.23-1.15.28-1.71.05-.57.07-1.11.07-1.62Zm8.1-14.94V.37h3.67v3.67h-3.67,0Zm.44,24.54V9.11h2.77v19.46h-2.77Zm13.73-17.13v11.98c0,1.04.25,1.84.76,2.42.51.58,1.32.86,2.42.86.33,0,.66-.03.98-.09.31-.08.62-.17.92-.29v2.5c-.41.07-.82.12-1.23.16-.4.04-.81.06-1.23.06-.92,0-1.71-.09-2.39-.26-.67-.17-1.24-.45-1.69-.85-.45-.39-.79-.91-1.01-1.55-.22-.64-.33-1.43-.33-2.37v-12.56h-3.18v-2.34h3.18v-4.53l2.77-1.76v6.29h5.25v2.34h-5.23,0Z"/><path class="cls-2" d="m159.01,28.65V3.83h-.08l-8.31,24.81h-3.15l-8.29-24.81h-.1v24.81h-2.85V.44h4.79l8,24h.08L157.14.44h4.73v28.21h-2.86Zm18.59,0c-1.32,0-2.48-.2-3.49-.59-.98-.37-1.88-.92-2.66-1.62-.76-.69-1.41-1.51-1.92-2.41-.53-.93-.95-1.92-1.25-2.94-.32-1.06-.55-2.15-.69-3.26-.14-1.11-.21-2.22-.21-3.34,0-1.17.06-2.34.19-3.5.12-1.14.33-2.26.64-3.37.3-1.08.7-2.08,1.21-3.02.49-.91,1.14-1.73,1.92-2.42.77-.69,1.69-1.22,2.74-1.62,1.06-.39,2.29-.59,3.7-.59s2.57.2,3.6.61c.98.38,1.89.94,2.66,1.66.74.7,1.35,1.52,1.84,2.47.48.94.87,1.95,1.15,3.02.28,1.07.48,2.18.59,3.34s.17,2.3.17,3.42c0,1.35-.1,2.71-.27,4.05-.1.77-.24,1.54-.42,2.3-.18.77-.41,1.5-.69,2.18-.27.65-.61,1.28-1.01,1.85-.36.53-.83.97-1.36,1.32l.08.08,5.81-.36v2.74h-12.31Zm6.71-14.19c0-.73-.02-1.54-.07-2.41-.05-.88-.15-1.75-.3-2.61-.15-.86-.38-1.71-.67-2.53-.27-.78-.67-1.52-1.17-2.18-.48-.63-1.09-1.14-1.79-1.52-.7-.38-1.55-.57-2.54-.57-1.04,0-1.93.18-2.67.55-.72.35-1.36.86-1.88,1.47-.53.64-.95,1.36-1.24,2.14-.31.82-.56,1.67-.72,2.53-.17.88-.28,1.76-.33,2.64-.06.89-.08,1.71-.08,2.49s.03,1.52.1,2.37c.07.85.18,1.7.36,2.56.17.85.42,1.68.73,2.47.29.76.7,1.48,1.21,2.12.5.61,1.1,1.1,1.8,1.47.7.37,1.54.55,2.5.55,1.08,0,2-.17,2.75-.52.72-.32,1.36-.8,1.88-1.4.51-.6.91-1.29,1.18-2.03.29-.76.5-1.58.64-2.44.14-.86.23-1.73.26-2.61.03-.89.05-1.74.05-2.55h0Z"/></svg>