<?xml version="1.0" encoding="UTF-8"?><svg id="Layer_1" xmlns="http://www.w3.org/2000/svg" viewBox="0 0 141.55 44.83"><defs><style>.cls-1{fill:#fff;}.cls-2{fill:#a31e11;}.cls-3{fill:#ac2115;}.cls-4{fill:#d72c20;}.cls-5{fill:#636466;}.cls-6{fill:#7a0c00;}</style></defs><path class="cls-5" d="m76.97,13.89c0,1.11-.91,2.11-2.11,2.11-.91,0-1.71.24-2.38.76-.75.48-1.35,1.15-1.83,1.91-.95,1.27-1.43,2.78-1.63,3.34v7.55c0,1.15-.99,2.11-2.19,2.11s-2.11-.95-2.11-2.11v-15.66c0-1.15.95-2.07,2.11-2.07s2.19.91,2.19,2.07v.28c.24-.28.56-.6.83-.79,1.31-.87,3.02-1.59,5.01-1.55,1.19,0,2.11.91,2.11,2.07h0Z"/><path class="cls-5" d="m75.8,21.71c.04-5.4,4.25-9.93,9.7-9.93s9.26,3.85,9.58,9.22v.2c0,.08,0,.28-.04.36-.12.95-.95,1.59-2.07,1.59h-12.64c.2.91.64,1.95,1.35,2.62.83.95,2.42,1.67,3.81,1.79,1.43.12,3.14-.24,4.13-.99.83-.87,2.46-.75,2.98-.12.52.56.91,1.75,0,2.58-1.95,1.79-4.29,2.62-7.11,2.62-5.44-.04-9.66-4.53-9.7-9.93h0Zm4.33-1.95h11.25c-.4-1.59-2.42-3.93-5.88-4.21-3.38.16-5.05,2.58-5.36,4.21Z"/><path class="cls-5" d="m115.32,29.5c0,1.15-.95,2.15-2.15,2.15-1.07,0-1.91-.75-2.11-1.71-1.51,1.03-3.42,1.71-5.4,1.71-5.36,0-9.66-4.53-9.66-9.89s4.29-9.97,9.66-9.97c1.95,0,3.85.64,5.32,1.67v-7.47c0-1.15.95-2.15,2.19-2.15s2.15.99,2.15,2.15v23.52h0Zm-9.66-13.39c-1.43,0-2.74.6-3.73,1.63-.99.99-1.59,2.42-1.59,4.01s.6,2.94,1.59,3.93c.99,1.03,2.3,1.63,3.73,1.63s2.74-.6,3.74-1.63c.99-.99,1.59-2.42,1.59-3.93,0-1.59-.6-3.02-1.59-4.01-.99-1.03-2.26-1.63-3.74-1.63Z"/><path class="cls-5" d="m122.88,6.81c0,1.19-.91,2.19-2.15,2.19s-2.15-.99-2.15-2.19v-.83c0-1.19.95-2.15,2.15-2.15s2.15.95,2.15,2.15v.83h0Zm0,7.19v15.5c0,1.19-.91,2.15-2.15,2.15s-2.15-.95-2.15-2.15v-15.5c0-1.27.95-2.19,2.15-2.19s2.15.91,2.15,2.19Z"/><path class="cls-5" d="m125.61,25.96c.72-.95,2.11-1.07,2.98-.32,1.03.87,2.82,1.79,4.37,1.75,1.07,0,2.07-.36,2.7-.75.56-.48.71-.87.71-1.19,0-.2-.04-.28-.12-.4-.04-.12-.2-.28-.52-.48-.56-.4-1.75-.83-3.18-1.11h-.04c-1.23-.24-2.42-.56-3.46-1.03-1.07-.52-2.03-1.23-2.74-2.3-.44-.72-.68-1.59-.68-2.5,0-1.83,1.03-3.38,2.34-4.37,1.39-.95,3.06-1.47,4.89-1.47,2.74,0,4.69,1.31,5.96,2.19.95.64,1.23,1.95.64,2.94-.64.95-1.95,1.23-2.94.56-1.27-.83-2.38-1.47-3.66-1.47-.99,0-1.87.32-2.38.72-.52.36-.64.72-.64.91,0,.16,0,.2.08.32.04.08.16.24.44.4.52.36,1.55.72,2.9.95l.04.04h.04c1.31.24,2.54.6,3.7,1.15,1.07.48,2.15,1.23,2.82,2.34.48.79.75,1.71.75,2.62,0,1.95-1.07,3.58-2.5,4.61-1.43.99-3.22,1.59-5.17,1.59-3.1-.04-5.48-1.47-7.07-2.74-.87-.72-.99-2.07-.28-2.94h0Z"/><path class="cls-2" d="m50.26,34.57c-2.79,1.46-17.25,7.4-20.33,9.01-3.08,1.61-4.79,1.59-7.22.43s-17.82-7.38-20.59-8.7C.73,34.64,0,34.08,0,33.55v-5.29s20.03-4.36,23.27-5.52c3.23-1.16,4.36-1.2,7.11-.19,2.75,1.01,19.21,3.98,21.93,4.97,0,0,0,4.72,0,5.21,0,.52-.63,1.1-2.05,1.84h0Z"/><path class="cls-4" d="m50.26,29.28c-2.79,1.45-17.25,7.4-20.33,9.01-3.08,1.61-4.79,1.59-7.22.43-2.43-1.16-17.82-7.38-20.59-8.7-2.77-1.32-2.83-2.24-.11-3.3,2.72-1.07,18.03-7.07,21.26-8.23,3.23-1.16,4.36-1.2,7.11-.19,2.75,1.01,17.13,6.73,19.85,7.73,2.72,1,2.83,1.82.03,3.27h0Z"/><path class="cls-2" d="m50.26,25.95c-2.79,1.46-17.25,7.4-20.33,9.01-3.08,1.6-4.79,1.59-7.22.43-2.43-1.16-17.82-7.38-20.59-8.7C.73,26.01,0,25.46,0,24.93v-5.29s20.03-4.36,23.27-5.52c3.23-1.16,4.36-1.2,7.11-.19,2.75,1.01,19.21,3.98,21.93,4.97,0,0,0,4.72,0,5.21,0,.52-.63,1.1-2.05,1.84Z"/><path class="cls-4" d="m50.26,20.66c-2.79,1.46-17.25,7.4-20.33,9.01-3.08,1.6-4.79,1.59-7.22.43-2.43-1.16-17.82-7.38-20.59-8.7-2.77-1.32-2.83-2.24-.11-3.3,2.72-1.07,18.03-7.07,21.26-8.23,3.23-1.16,4.36-1.2,7.11-.19,2.75,1.01,17.13,6.73,19.85,7.73,2.72,1,2.83,1.82.03,3.27h0Z"/><path class="cls-2" d="m50.26,17.01c-2.79,1.46-17.25,7.4-20.33,9.01-3.08,1.6-4.79,1.59-7.22.43-2.43-1.16-17.82-7.38-20.59-8.7C.73,17.07,0,16.51,0,15.99v-5.29s20.03-4.36,23.27-5.52c3.23-1.16,4.36-1.2,7.11-.19,2.75,1.01,19.21,3.98,21.93,4.97,0,0,0,4.72,0,5.21,0,.52-.63,1.1-2.05,1.84h0Z"/><path class="cls-4" d="m50.26,11.72c-2.79,1.46-17.25,7.4-20.33,9.01-3.08,1.6-4.79,1.59-7.22.43S4.89,13.77,2.11,12.45s-2.83-2.24-.11-3.3C4.73,8.08,20.03,2.07,23.27.91c3.23-1.16,4.36-1.2,7.11-.19,2.75,1.01,17.13,6.73,19.85,7.73,2.72,1,2.83,1.82.03,3.27h0Z"/><polygon class="cls-1" points="33.01 6.63 28.48 7.1 27.46 9.54 25.82 6.81 20.59 6.34 24.49 4.93 23.32 2.77 26.98 4.2 30.42 3.07 29.49 5.31 33.01 6.63"/><polygon class="cls-1" points="27.19 18.47 18.73 14.96 30.85 13.1 27.19 18.47"/><ellipse class="cls-1" cx="15.46" cy="10.49" rx="6.48" ry="2.51"/><polygon class="cls-6" points="38.36 7.29 45.54 10.13 38.37 12.96 38.36 7.29"/><polygon class="cls-3" points="30.43 10.43 38.36 7.29 38.37 12.96 37.59 13.26 30.43 10.43"/></svg>