<?xml version="1.0" encoding="UTF-8"?><svg id="Layer_1" xmlns="http://www.w3.org/2000/svg" xmlns:xlink="http://www.w3.org/1999/xlink" viewBox="0 0 127.86 63.25"><defs><style>.cls-1{fill:url(#linear-gradient);}.cls-1,.cls-2{fill-rule:evenodd;}.cls-2{fill:#fff;}</style><linearGradient id="linear-gradient" x1="63.93" y1="-1015.95" x2="63.93" y2="-1079.2" gradientTransform="translate(0 -1015.95) scale(1 -1)" gradientUnits="userSpaceOnUse"><stop offset="0" stop-color="#00b1eb"/><stop offset=".21" stop-color="#009ad9"/><stop offset=".52" stop-color="#007fc4"/><stop offset=".79" stop-color="#006eb8"/><stop offset="1" stop-color="#0069b4"/></linearGradient></defs><g id="Layer_1-2"><polyline class="cls-1" points="0 63.25 64.62 63.25 127.86 0 0 0 0 63.25"/><path class="cls-2" d="m75.88,11.89h-12.59s0,29.92,0,29.92l-10.99-29.93h-10.9l-9.39,25.03c-1-6.31-7.53-8.49-12.66-10.12-3.39-1.09-6.99-2.69-6.96-4.46.03-1.45,1.93-2.8,5.7-2.6,2.53.13,4.77.34,9.21,2.48l4.37-7.61c-4.06-2.06-9.66-3.37-14.26-3.37h-.03c-5.36,0-9.82,1.74-12.59,4.6-1.93,2-2.97,4.53-3.01,7.34-.07,3.86,1.35,6.6,4.32,8.79,2.51,1.84,5.73,3.04,8.56,3.91,3.49,1.08,6.35,2.02,6.31,4.03-.03.73-.3,1.41-.83,1.96-.87.9-2.21,1.24-4.06,1.27-3.56.08-6.21-.48-10.42-2.97l-3.89,7.72c4.2,2.39,9.17,3.79,14.25,3.79h.65c4.42-.09,7.98-1.35,10.83-3.64.16-.13.31-.26.46-.4l-1.26,3.37h11.43l1.92-5.84c2.01.69,4.29,1.07,6.72,1.07s4.59-.36,6.56-1.01l1.85,5.78h18.65v-12.08h4.07c9.83,0,15.64-5.01,15.64-13.39,0-9.34-5.65-13.63-17.68-13.63h0Zm-29.09,25.61c-1.47,0-2.85-.26-4.03-.71l3.99-12.59h.08l3.92,12.62c-1.18.42-2.52.67-3.95.67h0Zm29.83-7.23h-2.77v-10.14h2.77c3.7,0,6.65,1.23,6.65,5s-2.95,5.14-6.65,5.14"/></g></svg>