<?xml version="1.0" encoding="UTF-8"?><svg id="Layer_1" xmlns="http://www.w3.org/2000/svg" viewBox="0 0 83.03 83.03"><defs><style>.cls-1{fill:#f4b223;}.cls-2{fill:#fff;}</style></defs><g id="Layer_2"><g id="Layer_1-2"><rect class="cls-1" x="0" width="83.03" height="83.03" rx="12.24" ry="12.24"/><path class="cls-2" d="m59.25,67.2c0,2.5-1.33,3.72-3.63,3.72-2.59,0-3.77-1.62-3.83-4.01h2.3c.05,1.22.58,1.83,1.53,1.83s1.31-.6,1.31-1.67v-8.05h2.33v8.18Z"/><path class="cls-2" d="m68.59,62.32h-2.33c.05-.76-.53-1.42-1.29-1.47-.05,0-.1,0-.15,0-.65-.08-1.24.38-1.32,1.03,0,.08-.01.15,0,.23,0,.9.63,1.18,2.07,1.67,2.5.83,3.39,1.88,3.39,3.65,0,2.27-1.67,3.57-3.92,3.57-2.68,0-4.08-1.58-4.17-3.82h2.34c-.07.92.62,1.72,1.54,1.79.1,0,.2,0,.31,0,.75.1,1.44-.42,1.54-1.17,0-.05.01-.11.01-.16,0-.83-.63-1.24-2.08-1.73-2.13-.69-3.38-1.67-3.38-3.6s1.4-3.52,3.72-3.52,3.63,1.23,3.73,3.54Z"/><polygon class="cls-2" points="27.58 31.09 11.64 31.09 27.58 8.13 27.58 31.09"/><polygon class="cls-2" points="27.58 31.09 27.58 54.04 43.52 31.09 27.58 31.09"/></g></g></svg>