<?xml version="1.0" encoding="UTF-8"?><svg id="Layer_1" xmlns="http://www.w3.org/2000/svg" viewBox="0 0 156.29 39.54"><defs><style>.cls-1{fill:#ebb12e;}.cls-2{fill:#2eb57d;}.cls-3{fill:#df1e5a;}.cls-4{fill:#36c4ef;}</style></defs><path d="m50,31.14l1.95-4.53c2.11,1.57,4.91,2.39,7.68,2.39,2.05,0,3.34-.79,3.34-1.98-.03-3.34-12.25-.72-12.34-9.1-.03-4.25,3.75-7.52,9.1-7.52,3.18,0,6.36.79,8.63,2.58l-1.83,4.63c-2.08-1.32-4.66-2.27-7.12-2.27-1.67,0-2.77.79-2.77,1.79.03,3.27,12.34,1.48,12.47,9.48,0,4.34-3.68,7.4-8.97,7.4-3.87,0-7.43-.91-10.14-2.87"/><path d="m124.9,24.97c-.98,1.7-2.8,2.87-4.91,2.87-3.12,0-5.64-2.52-5.64-5.64s2.52-5.64,5.64-5.64c2.11,0,3.94,1.16,4.91,2.87l5.38-2.99c-2.01-3.59-5.89-6.04-10.3-6.04-6.52,0-11.81,5.29-11.81,11.81s5.29,11.81,11.81,11.81c4.44,0,8.28-2.42,10.3-6.04l-5.38-2.99Z"/><rect x="71.81" y=".6" width="6.74" height="32.96"/><polygon points="132.93 .6 132.93 33.56 139.66 33.56 139.66 23.68 147.66 33.56 156.29 33.56 146.12 21.82 155.53 10.86 147.28 10.86 139.66 19.96 139.66 .6 132.93 .6"/><path d="m98.58,25.03c-.98,1.61-2.99,2.8-5.26,2.8-3.12,0-5.64-2.52-5.64-5.64s2.52-5.64,5.64-5.64c2.27,0,4.28,1.26,5.26,2.9v5.57Zm0-14.17v2.68c-1.1-1.86-3.84-3.15-6.71-3.15-5.92,0-10.58,5.23-10.58,11.77s4.66,11.84,10.58,11.84c2.87,0,5.6-1.29,6.71-3.15v2.68h6.74V10.86s-6.74,0-6.74,0Z"/><path class="cls-3" d="m8.34,25c0,2.3-1.86,4.16-4.16,4.16S.03,27.3.03,25s1.86-4.16,4.16-4.16h4.16v4.16Z"/><path class="cls-3" d="m10.42,25c0-2.3,1.86-4.16,4.16-4.16s4.16,1.86,4.16,4.16v10.39c0,2.3-1.86,4.16-4.16,4.16s-4.16-1.86-4.16-4.16v-10.39Z"/><path class="cls-4" d="m14.58,8.31c-2.3,0-4.16-1.86-4.16-4.16S12.28,0,14.58,0s4.16,1.86,4.16,4.16v4.16h-4.16Z"/><path class="cls-4" d="m14.58,10.42c2.3,0,4.16,1.86,4.16,4.16s-1.86,4.16-4.16,4.16H4.16c-2.3,0-4.16-1.86-4.16-4.16s1.86-4.16,4.16-4.16h10.42Z"/><path class="cls-2" d="m31.23,14.58c0-2.3,1.86-4.16,4.16-4.16s4.16,1.86,4.16,4.16-1.86,4.16-4.16,4.16h-4.16v-4.16Z"/><path class="cls-2" d="m29.15,14.58c0,2.3-1.86,4.16-4.16,4.16s-4.16-1.86-4.16-4.16V4.16c0-2.3,1.86-4.16,4.16-4.16s4.16,1.86,4.16,4.16v10.42Z"/><path class="cls-1" d="m25,31.23c2.3,0,4.16,1.86,4.16,4.16s-1.86,4.16-4.16,4.16-4.16-1.86-4.16-4.16v-4.16h4.16Z"/><path class="cls-1" d="m25,29.15c-2.3,0-4.16-1.86-4.16-4.16s1.86-4.16,4.16-4.16h10.42c2.3,0,4.16,1.86,4.16,4.16s-1.86,4.16-4.16,4.16h-10.42Z"/></svg>