<?xml version="1.0" encoding="UTF-8"?><svg id="Layer_1" xmlns="http://www.w3.org/2000/svg" viewBox="0 0 173.13 34.01"><defs><style>.cls-1{fill-rule:evenodd;}</style></defs><path d="m53.07,32.76c-2.29-.66-4.19-1.58-5.7-2.76l2.32-5.15c3.16,2.2,6.69,3.29,10.62,3.29,2.04,0,3.61-.33,4.71-1,1.1-.67,1.65-1.59,1.65-2.76,0-1.05-.5-1.87-1.51-2.46-1-.58-2.79-1.16-5.36-1.72-2.88-.58-5.17-1.3-6.89-2.13-1.72-.83-2.97-1.86-3.76-3.08-.79-1.22-1.19-2.73-1.19-4.52,0-1.98.55-3.74,1.65-5.29,1.1-1.54,2.64-2.76,4.62-3.64,1.98-.88,4.27-1.32,6.87-1.32,2.32,0,4.55.34,6.7,1.02,2.15.68,3.86,1.59,5.13,2.74l-2.32,5.15c-3-2.2-6.15-3.29-9.46-3.29-1.89,0-3.37.37-4.45,1.09-1.08.73-1.62,1.72-1.62,2.99,0,.74.21,1.35.63,1.83.42.48,1.11.91,2.09,1.28s2.36.76,4.15,1.16c4.2.93,7.23,2.12,9.07,3.57,1.84,1.45,2.76,3.46,2.76,6.03,0,3.09-1.19,5.53-3.57,7.3-2.38,1.78-5.7,2.67-9.97,2.67-2.47,0-4.85-.34-7.14-1Z"/><path d="m111.41.64v32.7h-6.36V13.95l-7.51,14.01h-4.64l-7.51-13.82v19.2h-6.35V.64h5.7l10.53,19.99L105.8.64h5.61Z"/><path d="m125.55,6.53h-10.25V.64h27.74v5.89h-10.25v26.8h-7.24V6.53Z"/><path d="m146.84.64h15.02c3.56,0,6.33.9,8.3,2.69s2.97,4.3,2.97,7.51-.99,5.72-2.97,7.51-4.75,2.69-8.3,2.69h-7.79v12.29h-7.24V.64Zm14.1,14.93c3.62,0,5.42-1.56,5.42-4.68,0-1.61-.45-2.8-1.34-3.57-.9-.77-2.26-1.16-4.08-1.16h-6.87v9.42h6.87Z"/><g id="layer1"><path class="cls-1" d="m4.1,33.98c-1.24-.1-2.33-.7-3.07-1.61.76.88,1.84,1.5,3.07,1.61Z"/><path class="cls-1" d="m4.1.02c-1.24.11-2.31.73-3.07,1.61C1.77.73,2.87.12,4.1.02Z"/><polygon class="cls-1" points="36.29 4.49 36.25 4.53 6.44 4.53 36.29 4.49"/><polygon class="cls-1" points="4.53 9.04 4.53 29.47 4.5 9.01 4.53 9.04"/><polygon class="cls-1" points="4.53 29.47 38.54 29.47 4.53 29.51 4.53 29.47"/><polygon class="cls-1" points="38.58 29.47 38.54 29.47 38.54 8.6 38.55 8.59 38.58 29.47"/><path class="cls-1" d="m42.04,32.37c-.74.91-1.84,1.51-3.07,1.61,1.24-.11,2.31-.73,3.07-1.61Z"/><path class="cls-1" d="m42.04,1.63c-.76-.88-1.84-1.5-3.07-1.61,1.24.1,2.33.7,3.07,1.61Z"/><path d="m38.97.02c.31.02.61.08.9.17-.28-.08-.59-.15-.9-.17Zm2.38.93h-.01s.06.06.08.07c-.02-.03-.05-.05-.07-.07Zm-.28-.2s-.03-.02-.06-.03c-.07-.05-.14-.09-.22-.12-.12-.07-.24-.14-.36-.19-.02,0-.03-.01-.05-.01-.03-.02-.07-.03-.1-.03.23.09.43.2.63.33.14.08.27.17.4.26.01.01.01.02.02.01-.09-.08-.18-.15-.27-.19h0Zm-2.1,33.23c.31-.02.61-.09.9-.17-.28.09-.59.15-.9.17Zm2.37-.93h.01s.05-.03.07-.07c-.02.01-.05.03-.08.07Zm-.42.27c-.2.12-.41.24-.63.33.03,0,.07-.01.1-.03.01,0,.02-.01.05-.01.12-.06.24-.12.36-.19.08-.03.15-.08.22-.12.02-.01.03-.02.06-.03h0c.09-.06.18-.12.27-.2-.01-.01-.01,0-.02.01-.12.09-.26.18-.4.26ZM2.69.39s-.02.01-.05.01c-.12.06-.24.12-.36.19-.08.03-.15.08-.22.12-.02.01-.03.02-.06.03h0c-.09.06-.18.12-.27.2.01.01.01,0,.02-.01.12-.09.26-.18.4-.26.2-.12.41-.24.63-.33-.03,0-.07.01-.1.03Zm-1.03.63s.05-.03.08-.07h-.01s-.05.03-.07.07ZM3.21.19c.28-.09.59-.15.9-.17-.31.02-.61.09-.9.17Zm-1.05,33.13c-.14-.08-.27-.17-.4-.26-.01-.01-.01-.02-.02-.01.09.08.18.15.27.19h0s.03.03.06.05c.07.05.14.09.22.12.12.07.24.14.36.19.02,0,.03.01.05.01.03.02.07.03.1.03-.23-.09-.43-.2-.63-.33Zm-.43-.27h.01s-.06-.06-.08-.07c.02.03.05.05.07.07Zm1.48.76c.28.08.59.15.9.17-.31-.02-.61-.08-.9-.17Z"/><path class="cls-1" d="m42.86,3.15c-.07-.2-.15-.41-.25-.61-.09-.17-.18-.34-.28-.5-.09-.15-.19-.28-.29-.41-.09-.11-.19-.22-.29-.32-.1-.1-.22-.19-.33-.29-.02-.01-.05-.03-.08-.07-.01.01-.01,0-.02-.01-.12-.09-.26-.18-.4-.26-.2-.12-.41-.24-.63-.33-.14-.06-.27-.11-.42-.16-.28-.08-.59-.15-.9-.17-.15-.01-.31-.02-.46-.02H4.57c-.16,0-.32.01-.46.02-.31.02-.61.09-.9.17-.15.05-.28.1-.42.16-.23.09-.43.2-.63.33-.14.08-.27.17-.4.26-.01.01-.01.02-.02.01-.03.03-.06.06-.08.07-.11.1-.23.19-.33.29-.1.1-.2.2-.29.32-.1.12-.2.26-.29.41-.1.16-.19.33-.28.5-.1.2-.18.41-.25.61-.14.43-.2.87-.2,1.34v25.03c0,.46.07.91.2,1.34.07.2.15.41.25.61.09.17.18.34.28.5.09.15.19.28.29.41.09.11.19.22.29.32.1.1.22.19.33.29.02.01.05.03.08.07.01-.01.01,0,.02.01.12.09.26.18.4.26.2.12.41.24.63.33.14.06.27.11.42.16.28.08.59.15.9.17.15.01.31.02.46.02h33.93c.16,0,.32-.01.46-.02.31-.02.61-.09.9-.17.15-.05.28-.1.42-.16.23-.09.43-.2.63-.33.14-.08.27-.17.4-.26.01-.01.01-.02.02-.01.03-.03.06-.06.08-.07.11-.1.23-.19.33-.29.1-.1.2-.2.29-.32.1-.12.2-.26.29-.41.1-.16.19-.33.28-.5.1-.2.18-.41.25-.61.14-.43.2-.87.2-1.34V4.49c0-.46-.07-.91-.2-1.34Zm-6.57,1.34l-.05.05-15.12,14.3s-.08.07-.11.1c-.05-.05-.1-.09-.15-.15L6.44,4.53l29.85-.05Zm2.24,24.98l-34,.05v-.05l-.03-20.46.03.03,13.08,12.91c.69.73,1.78,1.71,3.31,1.73h.07c1.51,0,2.62-.93,3.29-1.6l14.26-13.49h.01s.03,20.87.03,20.87h-.05Z"/><polygon class="cls-1" points="36.29 4.49 36.25 4.53 6.44 4.53 36.29 4.49"/><polygon class="cls-1" points="4.53 9.04 4.53 29.47 4.5 9.01 4.53 9.04"/><polygon class="cls-1" points="4.53 29.47 38.54 29.47 4.53 29.51 4.53 29.47"/><polygon class="cls-1" points="38.58 29.47 38.54 29.47 38.54 8.6 38.55 8.59 38.58 29.47"/></g></svg>