<?xml version="1.0" encoding="UTF-8"?><svg id="Layer_1" xmlns="http://www.w3.org/2000/svg" viewBox="0 0 207.8 49.09"><defs><style>.cls-1{fill:#29b4e7;}</style></defs><g id="Page-1"><g id="Group"><path id="Path" class="cls-1" d="m42.08,37.42l-10.36-5.99c-1.46-.84-3.32-.34-4.16,1.12-.33.57-.45,1.2-.39,1.82v11.7c0,1.67,1.36,3.03,3.04,3.03s3.03-1.36,3.03-3.03v-6.73l5.81,3.35c1.46.84,3.32.34,4.16-1.12.84-1.46.34-3.32-1.12-4.16"/><path id="Path2" class="cls-1" d="m16.31,24.59c.02-1.08-.55-2.09-1.49-2.63l-10.36-5.98c-.45-.26-.97-.4-1.48-.4-1.06,0-2.05.57-2.58,1.49-.82,1.42-.33,3.24,1.09,4.06l5.97,3.45-5.97,3.45c-.69.4-1.18,1.04-1.39,1.8-.21.77-.1,1.57.3,2.26.53.92,1.52,1.49,2.58,1.49.52,0,1.04-.14,1.49-.4l10.36-5.98c.93-.54,1.5-1.54,1.49-2.61"/><path id="Path3" class="cls-1" d="m6.81,11.73l10.36,5.98c1.21.7,2.7.47,3.65-.46.6-.56.98-1.35.98-2.23V3.04c0-1.68-1.36-3.04-3.03-3.04s-3.04,1.36-3.04,3.04v6.82l-5.89-3.4c-1.46-.84-3.32-.34-4.16,1.11-.84,1.46-.34,3.32,1.12,4.16"/><path id="Combined-Shape" class="cls-1" d="m30.12,25.07c0,.23-.13.55-.3.71l-4.11,4.11c-.16.16-.49.3-.71.3h-1.05c-.23,0-.55-.13-.71-.3l-4.11-4.11c-.16-.17-.3-.49-.3-.71v-1.05c0-.23.13-.55.3-.71l4.11-4.11c.16-.16.49-.3.71-.3h1.05c.23,0,.55.13.71.3l4.11,4.11c.16.16.3.48.3.71v1.05Zm-3.67-.5v-.04c0-.17-.1-.4-.22-.52l-1.21-1.21c-.12-.12-.35-.22-.52-.22h-.04c-.17,0-.4.1-.52.22l-1.21,1.21c-.12.12-.22.35-.22.52v.04c0,.17.1.41.22.52l1.21,1.21c.12.12.36.22.52.22h.04c.17,0,.41-.1.52-.22l1.21-1.21c.12-.12.22-.35.22-.52Z"/><path id="Path4" class="cls-1" d="m31.72,17.72l10.36-5.98c1.46-.84,1.96-2.7,1.12-4.16-.84-1.46-2.7-1.95-4.16-1.11l-5.81,3.35V3.04c0-1.68-1.36-3.04-3.03-3.04s-3.04,1.36-3.04,3.04v11.75c-.06.61.06,1.24.39,1.82.84,1.46,2.7,1.95,4.16,1.11"/><path id="Path5" class="cls-1" d="m19.25,31.08c-.69-.13-1.42-.02-2.08.35l-10.36,5.99c-1.46.84-1.96,2.7-1.12,4.16.84,1.46,2.7,1.96,4.16,1.12l5.89-3.4v6.77c0,1.67,1.36,3.03,3.04,3.03s3.03-1.36,3.03-3.03v-11.99c0-1.51-1.11-2.77-2.55-3"/><path id="Path6" class="cls-1" d="m48.56,17.03c-.84-1.46-2.7-1.96-4.16-1.12l-10.36,5.98c-.99.57-1.54,1.62-1.52,2.69,0,1.06.54,2.1,1.52,2.66l10.36,5.99c1.46.84,3.32.34,4.16-1.12.84-1.46.34-3.32-1.12-4.16l-5.87-3.39,5.87-3.39c1.46-.84,1.96-2.7,1.12-4.16"/><path id="Combined-Shape2" class="cls-1" d="m207.8,23.87h0v.11c0,.56-.47.98-1.05.98h-14.56c.03.34.07.68.14,1.01.67,3.15,3.37,5.5,6.58,5.53h.85c.07,0,.13,0,.2,0,.06,0,.12,0,.19,0,0,0,0,0,.01,0,1.06-.08,2.14-.51,3.09-1.2h0s.1-.07.15-.11c0,0,.02-.01.03-.02.04-.03.08-.07.13-.1.02-.01.03-.03.05-.04.04-.03.07-.06.11-.09.02-.02.05-.04.07-.06.03-.03.05-.05.08-.07.03-.03.06-.05.08-.08.02-.02.04-.04.07-.06.04-.03.07-.06.1-.09.02-.02.04-.04.05-.06l.11-.11.05-.05.11-.12s.03-.03.04-.05c.04-.04.07-.08.11-.12.01-.02.03-.04.04-.05.04-.04.07-.08.1-.12l.05-.07s.06-.07.09-.11.05-.07.07-.1.04-.06.07-.09c.04-.05.07-.1.1-.15.01-.02.02-.03.03-.04.09-.13.17-.26.26-.4,0,0,0,0,0,0,.02-.03.04-.06.06-.09,0-.01.02-.03.03-.04.01-.02.03-.04.04-.05l.04-.04s.03-.03.05-.04c.01-.01.03-.03.04-.04.02-.02.05-.04.07-.05.02-.01.04-.03.06-.04.02,0,.04-.02.06-.03s.04-.01.05-.02c.03,0,.05-.01.07-.02.01,0,.02,0,.04-.01.08-.02.17-.03.26-.03.09,0,.19.01.28.04h0s.07.02.11.04c0,0,.02,0,.03,0,.04.02.07.04.11.06h.02c.49.36.64.98.34,1.49h0c-.04.06-.07.12-.11.17l-.03.04c-1.03,1.57-2.44,2.82-4,3.57-.04.01-.07.03-.1.05,0,0-.01,0-.02,0-.72.34-1.5.57-2.33.67-.02,0-.04,0-.05,0-.07,0-.14.02-.21.02-.04,0-.08,0-.12,0-.05,0-.1,0-.15,0-.1,0-.19,0-.29,0h-.86c-4.9-.04-8.84-4.12-8.84-9.12s3.97-9.19,8.91-9.19c.15,0,.29,0,.44,0,1.72.09,3.31.67,4.63,1.64,0,0,0,0,.01,0,.07.05.15.11.22.16.04.03.07.06.11.09.04.03.07.06.11.08,1.86,1.55,3.11,3.87,3.32,6.56h0Zm-15.47-.97h13.18c-.65-3.18-3.38-5.47-6.54-5.47s-5.92,2.25-6.64,5.47Z"/><path id="Combined-Shape3" class="cls-1" d="m170.58,15.61c.16.16.27.38.3.64,0,.04,0,.07,0,.11v16.2c0,.58-.49,1.06-1.06,1.06s-1.05-.48-1.05-1.06v-2.15c-.4.49-.84.93-1.32,1.31-.01.01-.03.02-.04.04-.04.04-.09.07-.14.1-1.46,1.12-3.22,1.76-5.07,1.76-2.98,0-5.6-1.58-7.16-3.98-.01-.02-.03-.04-.04-.06-.04-.07-.09-.15-.14-.23-.03-.05-.06-.1-.09-.15s-.06-.1-.08-.15c-.04-.07-.09-.15-.13-.23-.01-.03-.02-.05-.04-.08-.58-1.15-.94-2.44-1-3.81,0-.15-.01-.31-.01-.47s0-.31.01-.47c.06-1.37.42-2.66,1-3.82.01-.02.02-.05.04-.07.04-.07.08-.15.13-.23.03-.05.05-.11.08-.15.03-.05.06-.1.09-.15.04-.07.09-.15.14-.23.01-.02.03-.04.04-.06,1.56-2.4,4.18-3.98,7.16-3.98,2.01,0,3.91.74,5.43,2.02.41.35.8.73,1.15,1.16v-2.12s0-.07,0-.11c.03-.26.14-.48.3-.64h0s.04-.04.06-.05c0,0,.01-.01.02-.02.01-.01.03-.02.04-.03s.03-.02.04-.03c0,0,.02,0,.03-.02.02,0,.04-.02.06-.04,0,0,0,0,.01,0,.03-.01.05-.03.08-.04h0c.06-.03.13-.04.19-.06,0,0,.01,0,.02,0,.03,0,.06,0,.09-.01.04,0,.07,0,.11,0,.04,0,.07,0,.11,0,.03,0,.06,0,.09.01,0,0,0,0,.02,0,.07.01.13.03.19.06h0s.05.03.07.04c0,0,.01,0,.02,0,.02.01.04.03.06.04,0,0,.02.01.03.02.01,0,.03.02.04.03s.03.02.04.03c0,0,.01.01.02.02.02.02.04.03.05.05h0Zm-8.38,15.9c3.62,0,6.57-3.16,6.57-7.05s-2.95-7.08-6.57-7.08-6.57,3.17-6.57,7.08c0,.12,0,.24,0,.36,0,.05,0,.1,0,.15,0,.07,0,.14.02.21,0,.06.01.11.02.16,0,.06.01.13.02.19,0,.05.02.09.02.14.01.07.02.14.04.21,0,.04.02.07.02.1.02.08.04.16.05.25,0,.02,0,.04.02.05.75,3.02,3.33,5.23,6.35,5.23Z"/><path id="Path7" class="cls-1" d="m144.06,7.66h-.29s-.07,0-.11,0c-.04,0-.07,0-.11,0-.1,0-.2,0-.3,0-.02,0-.04,0-.06,0-.08,0-.16,0-.24.01h-.04c-.08,0-.16.01-.24.02,0,0-.02,0-.03,0-.09.01-.17.02-.25.04h0c-.53.08-1.01.23-1.44.45,0,0,0,0,0,0-.06.04-.13.07-.19.11-.01,0-.02.01-.04.02-.05.03-.11.06-.16.1-.02.01-.04.03-.06.04-.04.03-.08.06-.13.09-.03.03-.06.05-.09.07-.03.02-.05.04-.08.07-.05.04-.09.08-.14.13,0,0-.02.02-.03.03-.05.06-.11.11-.16.17,0,.01-.02.03-.03.04-.04.05-.09.1-.13.15-.01.02-.03.04-.04.07-.04.04-.07.08-.1.13,0,.02-.02.03-.03.04-.04.05-.07.11-.1.16,0,0,0,.01-.01.02-.29.47-.49,1.03-.62,1.7,0,0,0,.02,0,.03-.02.08-.03.17-.04.26,0,.03,0,.05,0,.08-.01.07-.02.15-.03.23,0,.04,0,.09-.01.14,0,.06-.02.12-.02.19,0,.07,0,.13-.01.2,0,.04,0,.09,0,.14,0,.09,0,.19-.01.29,0,.03,0,.04,0,.07,0,.12,0,.25,0,.37v1.74h-2.2c-.14,0-.27.02-.4.07-.4.15-.68.52-.68.96,0,.41.2.76.52.96.16.1.34.16.55.17h0s2.2,0,2.2,0v15.39s0,.04,0,.06v.04c.01.25.11.47.28.64h0s.05.05.07.07c0,0,0,0,.01,0,.02.02.04.03.06.04,0,0,.02.02.03.02,0,0,.02.01.03.02.17.11.37.17.59.17.04,0,.07,0,.1,0,.21-.02.4-.11.55-.23h0s.04-.04.06-.06c0,0,.01,0,.02-.01.02-.02.03-.04.04-.05.17-.2.26-.45.25-.71v-15.39h2.36s0,0,0,0c.63-.03,1.09-.52,1.07-1.13h0s0-.05,0-.07v-.02c-.02-.23-.12-.45-.28-.61h0s-.04-.04-.06-.06c0,0-.02-.01-.02-.02-.02-.01-.03-.02-.05-.04-.01,0-.03-.02-.04-.03,0,0-.02-.01-.03-.02-.02-.01-.04-.03-.07-.04,0,0-.01,0-.02,0-.03-.01-.05-.03-.08-.04,0,0,0,0-.02,0-.03,0-.05-.02-.08-.03,0,0-.02,0-.03,0-.03,0-.05-.01-.07-.02-.01,0-.03,0-.04,0-.02,0-.04,0-.06,0h-.05s-.03,0-.04,0h-2.4v-1.77c0-.09,0-.18,0-.26,0-.02,0-.05,0-.07,0-.07,0-.15,0-.22,0-.01,0-.03,0-.04,0-.08.01-.17.02-.25.08-.86.27-1.4.46-1.73,0,0,0-.01,0-.02.01-.02.03-.04.04-.07,0-.02.02-.04.04-.05,0,0,.01-.03.02-.04.02-.03.04-.06.07-.08.28-.31.71-.5,1.34-.58,0,0,.01,0,.03,0,.04,0,.07,0,.11,0,.02,0,.04,0,.06,0,.04,0,.07,0,.1,0,.03,0,.05,0,.08,0,.03,0,.06,0,.09,0s.06,0,.09,0h.23s.07,0,.1,0c.04,0,.08,0,.12,0h.29c.59,0,1.08-.49,1.08-1.08s-.49-1.08-1.08-1.08"/><path id="Path8" class="cls-1" d="m149.76,7.69s0,0,0,0c-.02,0-.04-.02-.07-.02,0,0-.02,0-.04-.01-.02,0-.04,0-.05-.01s-.04-.01-.05-.01c-.02,0-.04,0-.06,0-.02,0-.03,0-.05,0-.04,0-.07,0-.11,0-.57,0-1.06.48-1.06,1.05v23.9c0,.58.49,1.06,1.06,1.06.04,0,.07,0,.11,0,0,0,.01,0,.02,0h.09s.01-.02.02-.02c.03,0,.05-.01.08-.02,0,0,0,0,.01,0,.41-.13.71-.47.75-.9,0-.04,0-.07,0-.11V8.66s0-.07,0-.11c-.04-.39-.3-.71-.65-.86"/><path id="Path9" class="cls-1" d="m68.75,28c0-.06,0-.12-.02-.18,0-.04,0-.08-.01-.12,0-.05-.01-.09-.02-.14,0-.04-.02-.09-.03-.14,0-.04-.01-.07-.02-.11-.01-.05-.02-.1-.04-.15,0-.03-.02-.06-.03-.08-.01-.06-.03-.11-.05-.16,0-.02-.01-.04-.02-.06-.02-.06-.04-.12-.07-.18,0,0,0-.02-.01-.04-.03-.06-.06-.13-.09-.19,0,0,0,0,0-.01-.25-.51-.61-.93-1.05-1.29t0,0c-.06-.05-.12-.1-.19-.15,0,0,0,0,0,0,0,0,0,0-.01,0-.04-.03-.08-.06-.11-.08-.54-.38-1.14-.69-2.02-1.02-.01,0-.03,0-.04-.01-.01,0-.03-.01-.04-.02-.49-.19-1.01-.36-1.53-.53h0s0,0,0,0c0,0-.02,0-.03,0-.05-.02-.1-.04-.17-.06-.04,0-.06-.02-.09-.03-.18-.06-.36-.12-.54-.18-.13-.04-.26-.09-.43-.14-.04-.01-.15-.05-.24-.07,0,0,0,0,0,0-.05-.02-.11-.04-.16-.05-.44-.14-.8-.26-1.11-.38-.5-.19-.96-.38-1.34-.62,0,0-.02,0-.02-.01-.51-.33-.86-.73-.95-1.25h0s0-.08,0-.11c0,0,0-.01,0-.02,0-.04,0-.08,0-.13,0-.06,0-.12,0-.18,0-.02,0-.03,0-.04,0-.05,0-.09.01-.14,0-.01,0-.03,0-.04,0-.05.02-.09.03-.14,0,0,0-.01,0-.02.01-.05.03-.1.04-.15h0c.23-.69.77-1.2,1.41-1.55.04-.02.09-.04.13-.07.04-.02.08-.04.12-.06.07-.03.13-.06.2-.09.04-.02.07-.04.11-.05l.21-.08s.08-.03.11-.04c.07-.02.14-.04.21-.06.04-.01.08-.03.13-.04.07-.02.13-.03.19-.05.04,0,.09-.02.13-.03.07-.01.14-.03.2-.04.04,0,.08,0,.11-.02.07,0,.15-.02.23-.02.02,0,.04,0,.06,0,.1,0,.19,0,.29,0,.11,0,.22,0,.33,0h.05c.78.05,1.41.24,1.93.49.04.02.08.04.12.06.02.01.04.03.07.04.05.03.1.05.15.08,0,0,.02,0,.03.01.05.03.11.07.16.1,0,0,0,0,0,0,.06.04.11.07.17.11,0,0,0,0,0,0,.06.04.11.07.16.11.02.02.04.03.06.04.12.09.32.24.49.39.02.01.04.03.05.04.13.11.26.21.37.3.02.02.04.03.05.04,0,0,0,0,.01,0,.01,0,.03.02.04.03.03.02.07.04.1.07.01,0,.03.01.04.02.03.02.06.04.09.05.01,0,.02,0,.04.01.04.02.07.03.1.04,0,0,.01,0,.02,0,.04.01.08.03.12.03h0c.09.02.17.02.26,0,0,0,.02,0,.03,0,.02,0,.05-.01.07-.02,0,0,.01,0,.02-.01,0,0,.02,0,.03,0,.04-.02.07-.04.11-.06,0,0,.01,0,.02,0,.04-.03.08-.05.11-.08h0s.06-.06.08-.09c.02-.02.04-.05.05-.07,0,0,0,0,0-.01.19-.31.08-.71-.25-1.16,0,0,0-.02-.02-.03-.01-.02-.02-.03-.04-.05-.75-.97-2.46-2.03-4.04-2.37,0,0-.02,0-.03,0-.07-.01-.14-.03-.2-.04-.02,0-.04,0-.06,0-.06,0-.11-.02-.17-.02-.02,0-.04,0-.07,0-.05,0-.11,0-.16-.01-.02,0-.04,0-.06,0-.07,0-.15,0-.22,0-.11,0-.23,0-.34,0-.06,0-.12,0-.19,0-.04,0-.1,0-.14,0-.09,0-.17.01-.26.02-.02,0-.05,0-.07,0-.1,0-.19.02-.29.03h-.03c-.1.01-.2.03-.3.04h-.02c-.1.01-.19.03-.29.05,0,0,0,0-.02,0-.2.04-.39.08-.58.13,0,0,0,0,0,0-.09.02-.19.05-.28.07-.09.03-.17.06-.25.08,0,0-.01,0-.02,0-.08.03-.16.06-.24.09,0,0-.02,0-.02,0-.08.03-.15.06-.22.1,0,0-.02,0-.03.01-.07.03-.14.06-.2.09-.02,0-.03.01-.04.02-.07.03-.13.06-.19.1-.02,0-.03.02-.05.03-.06.03-.11.07-.17.1-.02,0-.04.02-.05.03-.07.04-.15.09-.22.14-.08.06-.17.12-.24.18,0,0-.01,0-.01,0-.37.28-.7.57-.96.92,0,.01-.02.03-.03.04-.03.05-.07.09-.1.14-.02.04-.04.07-.07.11-.02.03-.04.05-.05.08-.04.06-.07.11-.1.18,0,0,0,.01-.01.02-.24.47-.37,1.01-.43,1.67,0,0,0,.02,0,.03,0,.11-.01.23-.02.35,0,.09,0,.19,0,.28v.04c.05,1.26.62,2.21,1.66,2.95,0,0,.02.01.03.02.04.03.09.06.13.09.03.02.07.04.1.06,0,0,.02.01.03.02,1.02.65,2.28,1.02,3.32,1.31.51.15.97.28,1.11.32.03,0,.06.02.09.03.63.21,1.11.37,1.5.53.03,0,.06.02.09.03,0,0,.02,0,.04.02.22.09.45.19.66.3.18.09.34.18.5.28.42.26.74.54.96.85,0,0,.01.02.02.03.02.03.04.05.05.08.01.02.02.03.03.05.01.02.03.04.04.07.01.02.02.05.04.07,0,.02.02.04.03.05,0,.03.02.05.03.08,0,.01.01.03.02.05,0,.03.02.06.03.09,0,.01,0,.03.01.04,0,.03.02.07.02.1,0,.01,0,.03,0,.04,0,.04,0,.07.01.11,0,.01,0,.03,0,.04,0,.05,0,.1,0,.15,0,.08,0,.15,0,.23,0,.02,0,.04,0,.07,0,.06-.01.11-.03.17,0,.02,0,.04,0,.05-.03.15-.07.3-.13.45,0,0,0,0,0,.01-.03.07-.06.14-.1.2,0,0,0,.01,0,.02-.07.14-.16.28-.27.41-.05.07-.11.13-.17.19t0,0c-.12.12-.25.23-.39.33,0,0,0,0,0,0-.07.04-.13.09-.2.13,0,0-.02.01-.03.02-.11.07-.24.14-.36.2-.04.02-.09.04-.14.07-.05.02-.1.05-.15.07-.04.02-.08.04-.13.05-.12.04-.23.09-.35.13-.02,0-.04,0-.05.02-.07.02-.14.04-.21.06-.02,0-.04.01-.06.02-.23.06-.46.11-.68.15h-.01c-.11.02-.22.03-.32.04-.04,0-.07,0-.11,0-.04,0-.07,0-.11,0-.08,0-.17,0-.25,0-.16,0-.32,0-.48-.01-.06,0-.12,0-.19,0-.08,0-.17-.01-.25-.02-.08,0-.15-.01-.22-.02-.07,0-.13-.02-.19-.03-.14-.02-.26-.04-.39-.07-.06-.01-.12-.02-.18-.04-.07-.02-.13-.03-.2-.05-.07-.02-.15-.04-.22-.06-.05-.01-.1-.03-.15-.04-.12-.04-.24-.07-.35-.12-.03,0-.05-.02-.08-.03-.26-.1-.51-.2-.75-.33,0,0-.02-.01-.04-.02-.16-.08-.43-.23-.68-.37-.02-.01-.05-.03-.07-.04-.18-.11-.34-.19-.48-.26-.01,0-.02-.01-.03-.02,0,0-.02,0-.02,0-.04-.02-.07-.04-.11-.05-.01,0-.02,0-.03-.01-.09-.04-.18-.06-.26-.07-.03,0-.05,0-.08,0,0,0-.02,0-.03,0-.17,0-.31.06-.45.19-.03.03-.06.05-.08.08,0,0-.01.02-.02.03-.02.02-.03.04-.04.06,0,.01-.02.03-.02.04-.01.02-.03.04-.04.05,0,.01-.01.03-.02.04,0,.02-.02.04-.03.05,0,.01,0,.02-.01.04,0,.02-.01.04-.02.06,0,.01,0,.02,0,.04,0,.02,0,.04-.01.07,0,0,0,.02,0,.03,0,.03,0,.06,0,.08h0s0,.08.01.11v.02s.01.06.02.08c0,.01,0,.03.01.04,0,.02.01.05.03.07,0,.01,0,.02.01.03.06.13.15.27.27.4.13.14.29.28.48.43t0,0c.05.04.11.07.16.11.01,0,.02.02.04.02.15.11.32.21.5.31.04.03.09.05.13.07.04.03.09.05.13.07.05.03.11.06.17.09.04.02.07.04.11.06.09.04.18.09.27.13.01,0,.02.01.04.02.1.05.2.09.3.13.04.02.08.04.13.05,0,0,.02,0,.03,0,.94.37,2.11.62,3.14.66.07,0,.15,0,.23,0h0s.07,0,.1,0h.24s.02,0,.03,0c1.67-.05,3.04-.49,4.21-1.34h0c1.3-.98,2.01-2.36,2.01-3.89,0-.1,0-.19,0-.29,0-.04,0-.07,0-.1"/><path id="Path10" class="cls-1" d="m79.54,15.34h-.01c-2.06,0-4,.84-5.4,2.32v-1.26c0-.58-.45-1.06-1.02-1.06-.04,0-.07,0-.11,0-.25.03-.47.14-.64.3t0,0s-.03.04-.04.05c0,0-.02.01-.02.02-.01.01-.02.03-.03.04,0,.01-.02.03-.03.04,0,0,0,.02-.01.03-.01.02-.03.04-.04.06,0,0,0,0,0,.01-.01.03-.03.05-.04.08-.02.07-.04.13-.06.2,0,0,0,0,0,0,0,.04,0,.07-.01.1,0,.04,0,.07,0,.11v16.46s.04.04.04.04c0,.02,0,.05.02.08,0,0,0,.01,0,.02,0,.02.02.05.04.07.14.26.39.46.68.55h.02s.25,0,.25,0c.04,0,.08,0,.12,0,.03,0,.05-.01.08-.02.01,0,.02,0,.04,0,.04,0,.07-.02.11-.03h0c.19-.07.34-.18.45-.34h.01c.07-.09.11-.17.15-.28,0-.01,0-.02,0-.03t0,0c.02-.05.03-.11.04-.16v-.02s0-9.92,0-9.92c.07-2.96,2.49-5.36,5.39-5.36h0c2.96,0,5.36,2.4,5.36,5.36v9.75s0,.07,0,.11c.02.26.13.48.3.64,0,0,0,0,0,0,.02.02.04.03.05.05,0,0,.01.01.02.02.01.01.03.02.04.03.01.01.03.02.04.03.01,0,.02,0,.03.02.02.01.04.02.06.04,0,0,0,0,.02,0,.02.01.05.03.07.04h0c.06.03.13.04.19.06,0,0,.01,0,.02,0,.03,0,.06,0,.09.01.04,0,.07,0,.11,0,.04,0,.07,0,.11,0,.03,0,.06,0,.09-.01,0,0,.01,0,.02,0,.07-.01.13-.03.2-.06l.08-.04s0,0,.01,0c.02-.01.04-.02.06-.04,0,0,.02-.01.03-.02.01,0,.03-.02.04-.03.01,0,.03-.02.04-.03,0,0,.01,0,.02-.02.02-.02.04-.03.06-.05h0c.17-.17.28-.39.3-.64,0-.04,0-.07,0-.11v-9.75c0-4.12-3.34-7.46-7.46-7.47"/><path id="Combined-Shape4" class="cls-1" d="m98.57,15.3c4.79,0,8.69,4.11,8.69,9.16s-3.9,9.16-8.69,9.16c-.15,0-.3,0-.44-.01-.02,0-.04,0-.06,0-.13,0-.26-.02-.38-.03h-.01c-1.89-.21-3.66-1.07-5.07-2.49-.06-.06-.12-.11-.17-.18,0,0,0,0,0,0-.03-.03-.06-.07-.09-.1-.07-.07-.13-.15-.2-.22-.05-.06-.1-.12-.15-.19-.04-.05-.07-.1-.11-.15-.08-.1-.15-.2-.22-.3l-.03-.04c-.86-1.2-1.42-2.59-1.63-4.07-.02-.14-.04-.27-.05-.41,0-.01,0-.03,0-.05-.01-.13-.02-.25-.03-.38,0-.03,0-.05,0-.08,0-.15-.01-.3-.01-.46s0-.31.01-.46c0-.03,0-.06,0-.08,0-.13.01-.26.03-.38,0-.02,0-.04,0-.05.01-.14.03-.27.05-.41.21-1.47.77-2.86,1.63-4.07,0-.01.01-.03.02-.04.07-.11.15-.21.23-.31.04-.04.07-.09.11-.14.05-.07.11-.13.16-.19.06-.07.12-.14.19-.21.03-.04.07-.07.1-.11,0,0,0,0,0,0,.05-.06.11-.11.16-.16,1.41-1.42,3.18-2.29,5.08-2.5h.01c.12-.01.25-.02.38-.03.02,0,.04,0,.06,0,.15,0,.29-.01.44-.01Zm6.54,8.44h0c-.15-1.6-.81-3.03-1.78-4.14-.04-.05-.08-.1-.13-.15l-.08-.08c-.05-.05-.1-.11-.15-.16-.05-.05-.1-.09-.15-.14-.03-.03-.06-.06-.09-.08-.08-.07-.16-.14-.24-.2,0,0,0,0,0,0-.92-.75-2.03-1.24-3.22-1.37-.01,0-.02,0-.03,0-.09-.01-.18-.02-.27-.02-.02,0-.04,0-.06,0-.11,0-.22,0-.33,0s-.22,0-.33,0c-.02,0-.04,0-.06,0-.09,0-.18,0-.27.02,0,0-.02,0-.03,0-1.19.14-2.3.63-3.22,1.37,0,0,0,0,0,0-.08.07-.16.13-.24.2-.03.03-.06.05-.09.08-.05.05-.1.09-.15.14s-.1.1-.15.15l-.08.08s-.08.09-.12.14c-.97,1.11-1.63,2.55-1.79,4.13h0c0,.11-.02.21-.02.32,0,.02,0,.04,0,.05,0,.12,0,.24,0,.36,0,3.88,2.98,7.05,6.57,7.05s6.57-3.17,6.57-7.05c0-.12,0-.24,0-.36,0-.02,0-.04,0-.05,0-.11-.01-.21-.02-.31Z"/><path id="Path11" class="cls-1" d="m132.79,15.76s-.01-.02-.02-.03c-.11-.13-.25-.24-.41-.3h0s-.04-.02-.06-.03c0,0-.02,0-.03,0-.14-.05-.3-.06-.45-.04h0c-.3.05-.6.23-.76.51h0s-.05.09-.07.13h0s-5.06,13.85-5.06,13.85l-3.97-9.45c-.04-.09-.09-.17-.15-.24-.22-.25-.55-.41-.89-.41-.05,0-.1,0-.15.01h-.02c-.35.06-.68.31-.83.64h0s-3.97,9.45-3.97,9.45l-1.92-5.23-3.17-8.62s-.04-.09-.06-.13t0,0c-.1-.18-.25-.32-.44-.41,0,0,0,0,0,0-.09-.04-.19-.07-.29-.09,0,0-.01,0-.02,0-.05,0-.1,0-.15,0h-.04s-.04,0-.07,0c-.01,0-.03,0-.04,0-.02,0-.04,0-.06,0-.01,0-.03,0-.04,0-.02,0-.04,0-.07.02,0,0-.02,0-.03,0-.02,0-.04.01-.07.03h0c-.18.08-.33.22-.43.37,0,0,0,.01-.01.02v.03c-.09.13-.14.29-.16.44-.02.16,0,.34.07.49l3.67,9.85,2.35,6.32h0c.1.24.24.41.43.49,0,0,.01,0,.02.01s0,0,.02.01c0,0,0,0,0,0,0,0,.01,0,.02.02h0s.08.04.14.04c0,0,0,0,.01,0,.02,0,.04.01.05.02,0,0,.02,0,.03,0,.11.04.18.05.27.05.05,0,.09,0,.14-.01.04,0,.07-.01.11-.03,0,0,.02,0,.03,0,.04,0,.07-.02.11-.04.01,0,.03,0,.04-.02.02-.01.05-.03.07-.04.02-.01.04-.03.06-.04.01,0,.03-.02.04-.03.03-.02.06-.04.09-.07,0,0,0,0,.01-.02.03-.03.06-.06.09-.1,0,0,0,0,0-.01.03-.04.05-.07.07-.11.02-.04.04-.09.06-.14h0s.01-.03.01-.03v-.03s4-9.51,4-9.51l4.02,9.55c.03.1.08.19.15.27,0,.01.02.02.03.04.02.03.04.05.07.08.01,0,.03.02.04.03.02.02.05.04.07.07.01,0,.02.02.04.02.03.02.06.04.09.06h.03s.07.05.11.06c0,0,.02,0,.03,0,.03.01.06.03.1.04.04,0,.09.02.13.03h.13c.05,0,.1,0,.15-.01.01,0,.02,0,.04,0,.04,0,.08-.02.12-.03.01,0,.02,0,.03-.01.04-.01.09-.04.13-.06,0,0,0,0,.01,0,.05-.03.1-.06.14-.09.18-.13.3-.3.39-.52h0s2.48-6.69,2.48-6.69l3.49-9.41c.14-.33.08-.69-.11-.97,0-.02-.02-.04-.04-.05"/><path id="Path12" class="cls-1" d="m188.89,16.05s0-.04,0-.06c0-.01,0-.03,0-.04,0-.02,0-.04-.01-.06,0-.01,0-.03-.01-.04,0-.03-.01-.05-.03-.07,0,0,0-.01,0-.02-.01-.03-.03-.06-.04-.08h0c-.05-.1-.12-.18-.19-.25h0c-.37-.38-.9-.43-1.32-.14-.01,0-.02.02-.04.02-.02.01-.04.03-.05.04-.03.03-.05.05-.08.07,0,0,0,0,0,0l-10.34,10.08V8.66s0-.07,0-.11c-.04-.39-.3-.71-.65-.86,0,0,0,0,0,0-.02,0-.04-.02-.07-.02,0,0-.02,0-.04-.01-.02,0-.04,0-.06-.01-.01,0-.03,0-.05-.01-.02,0-.04,0-.06,0-.02,0-.03,0-.05,0-.04,0-.07,0-.11,0-.58,0-1.06.48-1.06,1.05v23.9c0,.58.48,1.06,1.06,1.06.04,0,.07,0,.11,0,0,0,0,0,.02,0,.03,0,.06,0,.09-.01,0,0,.02,0,.03,0,.03,0,.05-.01.08-.02,0,0,0,0,.01,0,.41-.13.71-.48.75-.9,0-.04,0-.07,0-.11v-4.03l3.48-3.48,6.76,8.16c.04.07.09.13.15.18.01.01.02.02.04.03.02.01.04.03.05.04.02.02.04.03.07.04,0,0,.02.01.03.02.03.01.06.02.09.04,0,0,.02,0,.02,0,.04,0,.07.02.1.03,0,0,.01,0,.02,0,.04,0,.07.01.11.02,0,0,.02,0,.03,0,.04,0,.09,0,.14,0,.07,0,.14,0,.2-.01h0c.12-.02.24-.06.34-.11,0,0,0,0,0,0,.05-.03.1-.06.15-.09h.01c.4-.41.46-.96.17-1.42-.03-.04-.05-.08-.08-.12l-6.87-8.34,6.82-6.59c.18-.19.29-.41.32-.65,0,0,0,0,0-.01v-.07s0-.03,0-.04v-.02s0-.03,0-.05c0-.01,0-.03,0-.04"/></g></g></svg>