<?xml version="1.0" encoding="UTF-8"?><svg id="Layer_1" xmlns="http://www.w3.org/2000/svg" viewBox="0 0 121.48 50.43"><defs><style>.cls-1,.cls-2{fill:#635bff;}.cls-2{fill-rule:evenodd;}</style></defs><path class="cls-2" d="m121.34,26.06c0-8.62-4.17-15.42-12.15-15.42s-12.86,6.8-12.86,15.35c0,10.13,5.72,15.25,13.94,15.25,4.01,0,7.04-.91,9.33-2.19v-6.73c-2.29,1.14-4.92,1.85-8.25,1.85s-6.16-1.14-6.53-5.12h16.46c0-.44.07-2.19.07-3Zm-16.63-3.2c0-3.8,2.32-5.39,4.44-5.39s4.24,1.58,4.24,5.39h-8.69Z"/><path class="cls-2" d="m83.33,10.64c-3.3,0-5.42,1.55-6.6,2.63l-.44-2.09h-7.41v39.25l8.42-1.78.03-9.53c1.21.88,3,2.12,5.96,2.12,6.03,0,11.51-4.85,11.51-15.52-.03-9.76-5.59-15.08-11.48-15.08Zm-2.02,23.2c-1.99,0-3.16-.71-3.97-1.58l-.03-12.49c.88-.98,2.09-1.65,4.01-1.65,3.06,0,5.18,3.43,5.18,7.84s-2.09,7.88-5.18,7.88Z"/><polygon class="cls-2" points="57.31 8.65 65.76 6.83 65.76 0 57.31 1.78 57.31 8.65"/><rect class="cls-1" x="57.31" y="11.21" width="8.45" height="29.46"/><path class="cls-2" d="m48.25,13.7l-.54-2.49h-7.27v29.46h8.42v-19.96c1.99-2.59,5.35-2.12,6.4-1.75v-7.74c-1.08-.4-5.02-1.14-7,2.49Z"/><path class="cls-2" d="m31.42,3.91l-8.21,1.75-.03,26.97c0,4.98,3.74,8.65,8.72,8.65,2.76,0,4.78-.5,5.89-1.11v-6.83c-1.08.44-6.4,1.99-6.4-3v-11.95h6.4v-7.17h-6.4l.03-7.31Z"/><path class="cls-2" d="m8.66,19.76c0-1.31,1.08-1.82,2.86-1.82,2.56,0,5.79.77,8.35,2.15v-7.91c-2.79-1.11-5.55-1.55-8.35-1.55C4.69,10.64.14,14.21.14,20.17c0,9.29,12.79,7.81,12.79,11.82,0,1.55-1.35,2.05-3.23,2.05-2.79,0-6.36-1.14-9.19-2.69v8.01c3.13,1.35,6.3,1.92,9.19,1.92,7,0,11.82-3.47,11.82-9.49-.03-10.03-12.86-8.25-12.86-12.02Z"/></svg>