<?xml version="1.0" encoding="UTF-8"?><svg id="Layer_1" xmlns="http://www.w3.org/2000/svg" xmlns:xlink="http://www.w3.org/1999/xlink" viewBox="0 0 208.06 40.12"><defs><style>.cls-1{fill:url(#linear-gradient);}.cls-2{fill:#1f1f1f;}.cls-3{fill:#3ece8d;}.cls-4{fill:url(#linear-gradient-2);fill-opacity:.2;}</style><linearGradient id="linear-gradient" x1="18.04" y1="320.12" x2="32.44" y2="314.08" gradientTransform="translate(0 342.85) scale(1 -1)" gradientUnits="userSpaceOnUse"><stop offset="0" stop-color="#249261"/><stop offset="1" stop-color="#3ece8d"/></linearGradient><linearGradient id="linear-gradient-2" x1="18.73" y1="335.04" x2="25.3" y2="322.67" gradientTransform="translate(0 342.85) scale(1 -1)" gradientUnits="userSpaceOnUse"><stop offset="0" stop-color="#000"/><stop offset="1" stop-color="#000" stop-opacity="0"/></linearGradient></defs><path class="cls-2" d="m54.26,23.86c.21,2.01,2.04,5.45,7.34,5.45,4.62,0,6.84-2.94,6.84-5.81,0-2.58-1.76-4.7-5.23-5.41l-2.51-.54c-.97-.18-1.61-.72-1.61-1.58,0-1,1-1.76,2.26-1.76,2.01,0,2.76,1.33,2.9,2.37l3.97-.9c-.21-1.9-1.9-5.09-6.91-5.09-3.8,0-6.59,2.62-6.59,5.77,0,2.47,1.54,4.52,4.94,5.27l2.33.54c1.36.29,1.9.93,1.9,1.72,0,.93-.75,1.76-2.33,1.76-2.08,0-3.12-1.29-3.22-2.69l-4.08.9Z"/><path class="cls-2" d="m83.66,28.77h4.55c-.07-.61-.18-1.83-.18-3.19v-14.45h-4.76v10.25c0,2.04-1.22,3.48-3.33,3.48-2.22,0-3.22-1.58-3.22-3.55v-10.18h-4.76v11.15c0,3.84,2.44,6.96,6.7,6.96,1.86,0,3.9-.72,4.87-2.37,0,.72.07,1.54.14,1.9Z"/><path class="cls-2" d="m97.88,35.58v-8.53c.86,1.18,2.65,2.15,5.09,2.15,4.98,0,8.31-3.94,8.31-9.29s-2.97-9.18-8.13-9.18c-2.65,0-4.62,1.18-5.41,2.55v-2.15h-4.62v24.45h4.76Zm8.7-15.63c0,3.16-1.93,4.98-4.37,4.98s-4.4-1.86-4.4-4.98,1.97-4.95,4.4-4.95,4.37,1.83,4.37,4.95Z"/><path class="cls-2" d="m113.97,23.96c0,2.76,2.29,5.31,6.05,5.31,2.61,0,4.3-1.22,5.19-2.62,0,.68.07,1.65.18,2.12h4.37c-.11-.61-.21-1.86-.21-2.8v-8.68c0-3.55-2.08-6.7-7.66-6.7-4.73,0-7.27,3.05-7.56,5.81l4.23.9c.14-1.54,1.29-2.87,3.37-2.87s2.97,1.04,2.97,2.29c0,.61-.32,1.11-1.32,1.25l-4.33.65c-2.94.43-5.26,2.19-5.26,5.34Zm7.05,1.76c-1.54,0-2.29-1-2.29-2.04,0-1.36.97-2.04,2.18-2.22l3.97-.61v.79c0,3.12-1.86,4.09-3.87,4.09Z"/><path class="cls-2" d="m138.97,28.77v-2.15c.93,1.51,2.79,2.58,5.23,2.58,5.01,0,8.31-3.98,8.31-9.32s-2.97-9.21-8.13-9.21c-2.61,0-4.55,1.15-5.34,2.4V2.81h-4.69v25.96h4.62Zm8.77-8.86c0,3.23-1.93,5.02-4.37,5.02s-4.4-1.83-4.4-5.02,2.01-4.98,4.4-4.98,4.37,1.76,4.37,4.98Z"/><path class="cls-2" d="m155.2,23.96c0,2.76,2.29,5.31,6.05,5.31,2.61,0,4.3-1.22,5.19-2.62,0,.68.07,1.65.18,2.12h4.37c-.11-.61-.21-1.86-.21-2.8v-8.68c0-3.55-2.08-6.7-7.66-6.7-4.73,0-7.27,3.05-7.56,5.81l4.23.9c.14-1.54,1.29-2.87,3.37-2.87s2.97,1.04,2.97,2.29c0,.61-.32,1.11-1.33,1.25l-4.33.65c-2.94.43-5.26,2.19-5.26,5.34Zm7.05,1.76c-1.54,0-2.29-1-2.29-2.04,0-1.36.97-2.04,2.18-2.22l3.97-.61v.79c0,3.12-1.86,4.09-3.87,4.09Z"/><path class="cls-2" d="m174.07,23.86c.21,2.01,2.04,5.45,7.34,5.45,4.62,0,6.84-2.94,6.84-5.81,0-2.58-1.75-4.7-5.23-5.41l-2.51-.54c-.97-.18-1.61-.72-1.61-1.58,0-1,1-1.76,2.26-1.76,2.01,0,2.76,1.33,2.9,2.37l3.97-.9c-.22-1.9-1.9-5.09-6.91-5.09-3.8,0-6.59,2.62-6.59,5.77,0,2.47,1.54,4.52,4.94,5.27l2.33.54c1.36.29,1.9.93,1.9,1.72,0,.93-.75,1.76-2.33,1.76-2.08,0-3.12-1.29-3.22-2.69l-4.08.9Z"/><path class="cls-2" d="m195.49,17.94c.11-1.61,1.47-3.48,3.94-3.48,2.72,0,3.87,1.72,3.94,3.48h-7.88Zm8.34,4.59c-.57,1.58-1.79,2.69-4.01,2.69-2.36,0-4.33-1.69-4.44-4.02h12.61c0-.07.07-.79.07-1.47,0-5.66-3.26-9.14-8.7-9.14-4.51,0-8.67,3.66-8.67,9.29,0,5.95,4.26,9.43,9.1,9.43,4.33,0,7.13-2.55,8.02-5.59l-3.97-1.18Z"/><path class="cls-1" d="m22.83,39.46c-1.03,1.29-3.1.58-3.13-1.06l-.36-24.11h16.21c2.94,0,4.57,3.39,2.75,5.69l-15.47,19.48Z"/><path class="cls-4" d="m22.83,39.46c-1.03,1.29-3.1.58-3.13-1.06l-.36-24.11h16.21c2.94,0,4.57,3.39,2.75,5.69l-15.47,19.48Z"/><path class="cls-3" d="m16.24.67c1.03-1.29,3.1-.58,3.13,1.06l.16,24.11H3.52c-2.94,0-4.57-3.39-2.75-5.69L16.24.67Z"/></svg>