<?xml version="1.0" encoding="UTF-8"?><svg id="Layer_1" xmlns="http://www.w3.org/2000/svg" viewBox="0 0 154.72 45.61"><defs><style>.cls-1{fill:#f12f46;}</style></defs><path class="cls-1" d="m23.46,17.18c0,2.58-2.13,4.71-4.71,4.71s-4.71-2.13-4.71-4.71,2.13-4.71,4.71-4.71,4.71,2.13,4.71,4.71Zm-4.71,6.54c-2.58,0-4.71,2.13-4.71,4.71s2.13,4.71,4.71,4.71,4.71-2.13,4.71-4.71-2.13-4.71-4.71-4.71Zm28.43-.91c0,12.62-10.19,22.81-22.81,22.81S1.56,35.43,1.56,22.81,11.75,0,24.37,0s22.81,10.19,22.81,22.81Zm-6.08,0c0-9.27-7.45-16.73-16.73-16.73S7.65,13.53,7.65,22.81s7.45,16.73,16.73,16.73,16.73-7.45,16.73-16.73Zm-11.1.91c-2.58,0-4.71,2.13-4.71,4.71s2.13,4.71,4.71,4.71,4.71-2.13,4.71-4.71-2.13-4.71-4.71-4.71Zm0-11.25c-2.58,0-4.71,2.13-4.71,4.71s2.13,4.71,4.71,4.71,4.71-2.13,4.71-4.71-2.13-4.71-4.71-4.71Zm78.46-3.5c.15,0,.3.15.46.3v4.87c0,.3-.3.46-.46.46h-8.06c-.3,0-.46-.3-.46-.46v-4.71c0-.3.3-.46.46-.46h8.06Zm-.15,6.84h-15.51c-.15,0-.46.15-.46.46l-1.98,7.6-.15.46-2.43-8.06c0-.15-.3-.46-.46-.46h-6.08c-.15,0-.46.15-.46.46l-2.28,7.6-.15.46-.15-.46-.91-3.8-.91-3.8c0-.15-.3-.46-.46-.46h-12.16v-6.54c0-.15-.3-.46-.61-.3l-7.6,2.43c-.3,0-.46.15-.46.46v4.11h-1.98c-.15,0-.46.15-.46.46v5.78c0,.15.15.46.46.46h1.98v7.15c0,5.02,2.74,7.3,7.75,7.3,2.13,0,4.11-.46,5.47-1.22v-6.08c0-.3-.3-.46-.46-.3-.76.3-1.52.46-2.13.46-1.37,0-2.13-.61-2.13-2.13v-5.17h4.41c.15,0,.46-.15.46-.46v-4.87l5.78,19.16c0,.15.3.46.46.46h6.39c.15,0,.46-.15.46-.46l2.74-8.51,1.37,4.41,1.22,4.11c0,.15.3.46.46.46h6.39c.15,0,.46-.15.46-.46l5.78-19.16v19.16c0,.15.15.46.46.46h7.75c.15,0,.46-.15.46-.46v-20.22c0-.15-.15-.46-.3-.46Zm10.19-6.84h-7.75c-.15,0-.46.15-.46.46v26.91c0,.15.15.46.46.46h7.75c.15,0,.46-.15.46-.46V9.27c0-.15-.15-.3-.46-.3Zm10.34,0h-8.06c-.15,0-.46.15-.46.46v4.71c0,.15.15.46.46.46h8.06c.15,0,.46-.15.46-.46v-4.87c0-.15-.15-.3-.46-.3Zm-.15,6.84h-7.75c-.15,0-.46.15-.46.46v19.92c0,.15.15.46.46.46h7.75c.15,0,.46-.15.46-.46v-19.92c0-.15-.15-.46-.46-.46Zm24.48,10.34c0,5.78-4.87,10.8-11.71,10.8s-11.56-5.02-11.56-10.8,4.87-10.8,11.71-10.8,11.56,5.02,11.56,10.8Zm-8.21.15c0-2.13-1.52-3.8-3.35-3.65-1.98,0-3.35,1.67-3.35,3.65s1.52,3.65,3.35,3.65c1.98,0,3.35-1.67,3.35-3.65Z"/></svg>