<?xml version="1.0" encoding="UTF-8"?><svg id="Layer_1" xmlns="http://www.w3.org/2000/svg" viewBox="0 0 170.01 43.49"><defs><style>.cls-1{fill:#4353ff;}</style></defs><path class="cls-1" d="m54.9,16.81c0-3.08-2.96-6.32-8.1-6.32-5.76,0-12.09,4.24-13.06,12.72-.99,8.55,4.31,12.36,9.65,12.36s8.14-2.09,11-4.88c-2.46-3.1-5.64-1.67-6.25-1.35-1.01.56-2.15.84-3.3.8-2.06,0-4.17-.93-4.17-4.79,13.21-1.31,14.22-5.47,14.22-8.54h0Zm-6.55.51c-.08.95-.46,2.58-7.15,3.49,1.41-5.03,4.1-5.41,5.34-5.41.97-.04,1.79.7,1.83,1.67,0,.08,0,.17,0,.25h-.01Zm-22.37.82l-3.07,9.7-2.17-16.83c-4.84,0-7.44,3.46-8.79,7.12l-3.75,9.74-.53-9.63c-.29-4.48-4.37-7.2-7.68-7.2l4,24.35c5.07-.02,7.8-3.46,9.23-7.12l3.17-8.28c.03.34,2.19,15.4,2.19,15.4,5.09,0,7.83-3.23,9.29-6.76l7.13-17.6c-5.02,0-7.66,3.44-9.03,7.12h0Zm47.6-7.71c-3.13,0-5.53,1.71-7.55,4.22v-.02l1.81-14.64c-4.17,0-7.55,3.63-8.2,9.04l-3.13,26.15c2.4,0,4.94-.7,6.31-2.47,1.22,1.58,3.05,2.85,5.76,2.85,7.02,0,11.84-8.19,11.84-15.88-.04-7.01-3.43-9.23-6.82-9.23l-.02-.02Zm-.66,12.57c-.73,4.29-3.11,7.2-5.4,7.2s-3.3-1.03-3.3-1.03c.44-3.76.72-6.06,1.56-8.05.84-1.99,2.84-5.15,4.92-5.15s2.97,2.72,2.23,7.03h0Zm25.01-12h-4.9l.02-.25c.34-3.21,1.09-4.9,3.59-5.18,1.71-.17,2.46-1.06,2.65-2.03l.61-3.4c-9.83-.06-12.94,4.2-13.73,10.71l-.02.15h-.11c-1.6,0-3.36,1.82-3.66,4.12l-.11.84h3.28l-2.76,22.85-.84,4.1c.11,0,.23.02.34.02,4.6-.17,7.55-3.82,8.2-9.13l2.15-17.85h1.54c1.51,0,3.28-1.52,3.59-4.06l.14-.9Zm25.49-.42c-5.66,0-11,4.18-12.64,10.75s.84,14.34,9.17,14.34,13.1-8.09,13.1-14.83c0-6.7-4.51-10.27-9.63-10.27h0Zm2.29,12.21c-.29,2.98-1.6,7.5-5.18,7.5s-3.09-5.28-2.75-7.79c.38-2.68,1.87-6.5,5.09-6.5,2.89,0,3.17,3.44,2.83,6.8h0Zm35.3-4.67l-3.07,9.7c-.08-.76-2.17-16.83-2.17-16.83-4.84,0-7.43,3.46-8.78,7.12l-3.75,9.74c-.02-.7-.53-9.63-.53-9.63-.3-4.48-4.39-7.2-7.71-7.2l3.97,24.35c5.07-.02,7.8-3.46,9.23-7.12l3.16-8.28c.02.34,2.19,15.4,2.19,15.4,5.09,0,7.81-3.23,9.29-6.76l7.13-17.6c-5.01,0-7.66,3.44-9,7.12h.02ZM102.57.14l-4.12,33.39-.84,4.12c.1,0,.23.02.34.02,4.44-.06,7.59-3.97,8.18-8.89l2.38-19.16c.72-5.85-2.75-9.48-5.93-9.48h0Z"/></svg>