<svg id="Layer_2" xmlns="http://www.w3.org/2000/svg" viewBox="0 0 90 90">
  <defs>
    <style>
      .cls-1 {
        fill: none;
      }

      .cls-2 {
        fill: #ec3049;
      }

      .cls-3 {
        fill: #ffcb00;
      }

      .cls-4 {
        fill: #31c1f1;
      }

      .cls-5 {
        fill: #c52842;
      }
    </style>
  </defs>
  <g id="Layer_1-2">
    <g>
      <rect class="cls-1" width="90" height="90" />
      <g>
        <path class="cls-3"
          d="M41.36,17.23L15.96,27.74c-1.41,.59-1.4,2.59,.02,3.15l25.5,10.11c2.24,.89,4.74,.89,6.98,0l25.5-10.11c1.42-.56,1.44-2.57,.02-3.15l-25.4-10.51c-2.32-.96-4.92-.96-7.24,0" />
        <path class="cls-4"
          d="M47.24,46.53v25.26c0,.94,.76,1.7,1.71,1.7,.21,0,.43-.04,.62-.12l28.42-11.03c.65-.26,1.07-.88,1.07-1.58v-25.26c0-.94-.76-1.7-1.71-1.7-.21,0-.43,.04-.62,.12l-28.42,11.03c-.65,.26-1.07,.88-1.07,1.58" />
        <path class="cls-2"
          d="M40.6,47.83l-9.29,4.49-17.8,8.53c-1.13,.54-2.57-.28-2.57-1.53v-23.71c0-.45,.23-.85,.54-1.14,.13-.13,.27-.24,.43-.32,.43-.26,1.03-.32,1.55-.12l27,10.7c1.38,.54,1.49,2.47,.14,3.11" />
        <path class="cls-5"
          d="M40.6,47.83l-8.43,4.07L11.49,34.46c.13-.13,.27-.24,.43-.32,.43-.26,1.03-.32,1.55-.12l27,10.7c1.38,.54,1.49,2.47,.14,3.11" />
      </g>
    </g>
  </g>
</svg>