<svg id="Layer_2" xmlns="http://www.w3.org/2000/svg" viewBox="0 0 90 90">
  <defs>
    <style>
      .cls-1 {
        fill: none;
      }

      .cls-2 {
        fill: #1b1f23;
        fill-rule: evenodd;
      }
    </style>
  </defs>
  <g id="Layer_1-2">
    <g>
      <rect class="cls-1" width="90" height="90" />
      <path class="cls-2"
        d="M44.92,11.78c-18.82,0-34.06,15.24-34.06,34.06,0,15.07,9.75,27.8,23.29,32.31,1.7,.3,2.34-.72,2.34-1.62,0-.81-.04-3.49-.04-6.34-8.56,1.58-10.77-2.09-11.45-4-.38-.98-2.04-4-3.49-4.81-1.19-.64-2.89-2.21-.04-2.26,2.68-.04,4.6,2.47,5.24,3.49,3.07,5.15,7.96,3.7,9.92,2.81,.3-2.21,1.19-3.7,2.17-4.56-7.58-.85-15.5-3.79-15.5-16.82,0-3.7,1.32-6.77,3.49-9.15-.34-.85-1.53-4.34,.34-9.03,0,0,2.85-.89,9.37,3.49,2.72-.77,5.62-1.15,8.51-1.15s5.79,.38,8.51,1.15c6.51-4.43,9.37-3.49,9.37-3.49,1.87,4.68,.68,8.17,.34,9.03,2.17,2.38,3.49,5.41,3.49,9.15,0,13.07-7.96,15.96-15.54,16.82,1.23,1.06,2.3,3.11,2.3,6.3,0,4.56-.04,8.22-.04,9.37,0,.89,.64,1.96,2.34,1.62,13.45-4.51,23.2-17.28,23.2-32.31,0-18.82-15.24-34.06-34.06-34.06Z" />
    </g>
  </g>
</svg>