<svg id="Layer_2" xmlns="http://www.w3.org/2000/svg" viewBox="0 0 90 90">
  <defs>
    <style>
      .cls-1 {
        fill: none;
      }

      .cls-2 {
        fill: #fff;
      }

      .cls-3 {
        fill: #4386fa;
      }

      .cls-4 {
        isolation: isolate;
        opacity: .1;
      }
    </style>
  </defs>
  <g id="Layer_1-2">
    <g>
      <rect class="cls-1" width="90" height="90" />
      <g>
        <path class="cls-3"
          d="M24.42,75.77L8.06,47.45c-.87-1.51-.87-3.38,0-4.89L24.42,14.23c.87-1.51,2.48-2.44,4.23-2.45H61.37c1.74,0,3.34,.94,4.21,2.45l16.35,28.33c.87,1.51,.87,3.38,0,4.89l-16.35,28.33c-.87,1.51-2.48,2.44-4.23,2.45H28.64c-1.74,0-3.35-.94-4.22-2.45h0Z" />
        <path class="cls-4"
          d="M55.22,35.88s4.55,10.9-1.65,17.09-17.48,2.22-17.48,2.22l22.96,23.02h2.33c1.75,0,3.36-.94,4.23-2.45l10.83-18.75-21.21-21.14Z" />
        <path class="cls-2"
          d="M60.58,58.19l-5.01-5.02c-.05-.06-.12-.1-.19-.14,4.63-5.96,3.55-14.54-2.41-19.17-5.96-4.63-14.54-3.55-19.17,2.41-4.63,5.96-3.55,14.54,2.41,19.17,4.94,3.83,11.85,3.83,16.78-.02,.04,.06,.08,.12,.13,.18l5.02,5.02c.31,.31,.81,.31,1.11,0l1.32-1.32c.31-.31,.31-.81,0-1.11Zm-16.01-3.25c-5.68,0-10.28-4.6-10.28-10.28,0-5.68,4.6-10.28,10.28-10.28,5.68,0,10.28,4.6,10.28,10.28h0c0,5.68-4.6,10.28-10.28,10.28Zm-6.57-10.83v4.25c.65,1.15,1.6,2.12,2.75,2.79v-7.06l-2.75,.03Zm5.14-3.52v11.48c.91,.17,1.84,.17,2.75,0v-11.48h-2.75Zm7.95,7.76v-2.52h-2.74v5.29c1.14-.67,2.09-1.63,2.75-2.78h0Z" />
      </g>
    </g>
  </g>
</svg>