<svg id="Layer_2" xmlns="http://www.w3.org/2000/svg" viewBox="0 0 90 90">
  <defs>
    <style>
      .cls-1 {
        fill: none;
      }

      .cls-2 {
        fill: #df34a6;
      }
    </style>
  </defs>
  <g id="Layer_1-2">
    <g>
      <rect class="cls-1" width="90" height="90" />
      <path class="cls-2"
        d="M21.18,23c-3.27-1.92-7.45-.78-9.34,2.54-.32,.57-.56,1.19-.71,1.84-.88,3.73,1.38,7.49,5.04,8.38v18.49c-1.27,.31-2.43,.99-3.33,1.96-2.6,2.77-2.5,7.17,.22,9.82,2.73,2.65,7.05,2.54,9.65-.23l15.74,9.23c-.19,.65-.28,1.31-.28,1.98,0,3.83,3.06,6.93,6.82,6.93,.73,0,1.44-.12,2.14-.35,3.58-1.2,5.53-5.13,4.34-8.78l15.64-9.19c.48,.55,1.05,1.03,1.68,1.39,3.27,1.92,7.45,.78,9.34-2.54,.33-.59,.59-1.22,.74-1.88,.87-3.72-1.39-7.45-5.04-8.33v-18.49c.63-.16,1.23-.4,1.78-.72,3.28-1.91,4.42-6.16,2.54-9.5-.33-.57-.73-1.09-1.2-1.55-2.74-2.65-7.07-2.54-9.67,.25l-15.74-9.24c.19-.65,.29-1.32,.29-2,0-3.83-3.06-6.93-6.82-6.92-.66,0-1.32,.09-1.95,.29-3.6,1.09-5.67,4.94-4.6,8.62l-15.75,9.24c-.45-.48-.96-.9-1.53-1.22Zm28.87,49.31c-1.25-1.39-3.05-2.26-5.05-2.26s-3.68,.81-4.91,2.12l-15.75-9.25,.07-.27h41.19c.04,.16,.07,.31,.12,.46l-15.67,9.21Zm-.15-54.47l15.77,9.27c-.02,.07-.04,.16-.06,.23-.9,3.72,1.32,7.48,4.97,8.39v18.51c-.08,.02-.18,.05-.26,.07L49.71,18.03c.07-.06,.13-.12,.18-.19Zm-6.8,1.84c1.24,.36,2.56,.36,3.8,0l20.61,36.28c-.94,.92-1.61,2.1-1.92,3.39H24.42c-.31-1.28-.98-2.46-1.91-3.38L43.1,19.68Zm-18.78,7.41l15.77-9.25,.19,.19L19.69,54.33l-.27-.07v-18.52c.08-.02,.16-.04,.24-.07,3.62-1.06,5.7-4.9,4.66-8.58Z" />
    </g>
  </g>
</svg>