<svg id="Layer_2" xmlns="http://www.w3.org/2000/svg" viewBox="0 0 90 90">
  <defs>
    <style>
      .cls-1 {
        fill: none;
      }

      .cls-2 {
        fill: #ff7a59;
      }

      .cls-3 {
        fill: #fff;
        fill-rule: evenodd;
      }
    </style>
  </defs>
  <g id="Layer_1-2">
    <g>
      <rect class="cls-1" width="90" height="90" />
      <g>
        <circle class="cls-2" cx="45" cy="45" r="34.06" />
        <path class="cls-3"
          d="M52.44,52.51c-2.54,0-4.61-2.04-4.61-4.56s2.06-4.56,4.61-4.56,4.61,2.04,4.61,4.56-2.06,4.56-4.61,4.56m1.38-13.33v-4.06c1.1-.5,1.81-1.6,1.82-2.81v-.09c0-1.71-1.42-3.12-3.15-3.12h-.1c-1.73,0-3.15,1.4-3.15,3.12v.09c0,1.21,.72,2.31,1.82,2.81v4.06c-1.55,.23-3.02,.87-4.25,1.85l-11.25-8.66c.08-.28,.12-.58,.13-.87,0-1.94-1.59-3.52-3.55-3.53s-3.56,1.57-3.56,3.51,1.59,3.52,3.55,3.52c.61,0,1.22-.17,1.75-.47l11.07,8.52c-2.04,3.04-1.98,7.02,.14,10l-3.37,3.33c-1.52-.48-3.14,.37-3.62,1.89s.37,3.14,1.89,3.62c.29,.09,.59,.14,.89,.13,1.61,0,2.92-1.29,2.92-2.89,0-.28-.05-.56-.13-.83l3.33-3.29c1.57,1.19,3.48,1.83,5.44,1.83,4.96,0,8.98-3.98,8.98-8.89,0-4.44-3.3-8.12-7.61-8.77" />
      </g>
    </g>
  </g>
</svg>