<svg id="Layer_2" xmlns="http://www.w3.org/2000/svg" xmlns:xlink="http://www.w3.org/1999/xlink" viewBox="0 0 90 90">
  <defs>
    <style>
      .cls-1 {
        fill: none;
      }

      .cls-2 {
        clip-path: url(#clippath);
      }

      .cls-3 {
        fill: #00b8e3;
      }

      .cls-4 {
        fill: #008aaa;
      }

      .cls-5 {
        fill: #e3e3e3;
      }

      .cls-6 {
        fill: #e2e2e2;
      }

      .cls-7 {
        fill: #e4e4e4;
      }

      .cls-8 {
        fill: #c2c2c2;
      }

      .cls-9 {
        fill: #cecece;
      }

      .cls-10 {
        fill: #d8d8d8;
      }

      .cls-11 {
        fill: #bfbfbf;
      }

      .cls-12 {
        fill: #d0d0d0;
      }

      .cls-13 {
        fill: #c7c7c7;
      }

      .cls-14 {
        fill: #dedede;
      }

      .cls-15 {
        fill: #ddd;
      }

      .cls-16 {
        fill: #d1d1d1;
      }

      .cls-17 {
        fill: #d3d3d3;
      }

      .cls-18 {
        fill: #d4d4d4;
      }

      .cls-19 {
        fill: #d9d9d9;
      }

      .cls-20 {
        fill: #c5c5c5;
      }

      .cls-21 {
        fill: #c6c6c6;
      }

      .cls-22 {
        fill: #e1e1e1;
      }

      .cls-23 {
        fill: #c8c8c8;
      }

      .cls-24 {
        fill: #d5d5d5;
      }

      .cls-25 {
        fill: #33c6e9;
      }

      .cls-26 {
        fill: #4d4d4d;
      }
    </style>
    <clipPath id="clippath">
      <rect class="cls-1" x="10.94" y="10.94" width="68.12" height="68.12" />
    </clipPath>
  </defs>
  <g id="Layer_1-2">
    <g>
      <rect class="cls-1" width="90" height="90" />
      <g class="cls-2">
        <g>
          <path class="cls-26"
            d="M69.28,31.16c-.18,0-.35-.09-.44-.25l-7.69-13.33c-.1-.16-.27-.25-.45-.25H29.35c-.18,0-.35,.09-.44,.25l-7.98,13.83h0l-7.69,13.33c-.09,.16-.09,.35,0,.51l7.69,13.32,7.98,13.84c.09,.16,.26,.25,.44,.25h31.35c.18,0,.35-.09,.45-.25l7.7-13.32c.09-.16,.26-.25,.44-.25h9.57c.32,0,.57-.26,.57-.57h0V31.74c0-.32-.26-.57-.57-.57h-9.57Z" />
          <path class="cls-1"
            d="M78.85,31.16H21.36c-.18,0-.35,.1-.44,.25h0s-.28,.5-.28,.5l-3.52,6.1-3.89,6.74c-.09,.16-.09,.35,0,.51l.84,1.46,6.85,11.86c.09,.16,.26,.26,.44,.26h57.5c.31,0,.56-.26,.56-.57V31.74c0-.32-.25-.58-.57-.58h0Z" />
          <path class="cls-22" d="M22.66,43.6l-8.59,3.12-.84-1.46c-.09-.16-.09-.35,0-.51l3.89-6.74,5.55,5.59Z" />
          <polygon class="cls-23" points="73.76 46.09 79.43 45.28 79.43 51.85 73.76 46.09" />
          <path class="cls-8" d="M73.76,46.09l5.66,5.76v6.41c0,.31-.25,.57-.56,.57h-6.59l1.49-12.74Z" />
          <polygon class="cls-13" points="73.76 46.09 72.27 58.83 64.35 58.83 61.95 53.05 73.76 46.09" />
          <polygon class="cls-9" points="73.76 46.09 79.43 39.2 79.43 45.28 73.76 46.09" />
          <path class="cls-17" d="M79.43,31.74v7.46l-5.66,6.89-4.27-14.93h9.36c.32,0,.57,.26,.57,.57h0Z" />
          <polygon class="cls-21" points="64.35 58.83 60.17 58.83 59.09 57.28 61.95 53.05 64.35 58.83" />
          <polygon class="cls-24" points="73.76 46.09 58.09 39.47 66.34 31.17 69.5 31.17 73.76 46.09" />
          <path class="cls-12" d="M58.09,39.47l3.86,13.58,11.81-6.96-15.67-6.62Z" />
          <polygon class="cls-11" points="60.17 58.83 59.04 58.83 59.09 57.28 60.17 58.83" />
          <polygon class="cls-19" points="66.34 31.17 58.09 39.47 56.61 32.04 59.79 31.17 66.34 31.17" />
          <path class="cls-18" d="M58.09,39.47l-19.02,4.39,20.02,13.42-1-17.81Z" />
          <path class="cls-12" d="M58.09,39.47l1,17.81,2.86-4.23-3.86-13.59Z" />
          <path class="cls-19" d="M56.61,32.04l-17.53,11.81,19.02-4.39-1.49-7.42Z" />
          <polygon class="cls-10" points="39.08 43.85 30.83 58.83 26.13 58.83 22.66 43.6 39.08 43.85" />
          <path class="cls-6" d="M30.62,31.16l-7.96,12.44-2.03-11.69,.29-.49h0c.09-.16,.26-.26,.44-.26h9.26Z" />
          <path class="cls-10" d="M26.13,58.84h-4.77c-.18,0-.35-.1-.44-.27l-6.85-11.85,8.59-3.12,3.47,15.23Z" />
          <polygon class="cls-7" points="22.66 43.6 17.12 38.01 20.63 31.91 22.66 43.6" />
          <polygon class="cls-14"
            points="47.76 31.17 42.28 31.17 33.88 31.17 39.08 43.85 56.61 32.04 51.32 31.17 47.76 31.17" />
          <polygon class="cls-14" points="31.71 31.17 30.62 31.17 22.66 43.6 39.08 43.85 33.88 31.17 31.71 31.17" />
          <polygon class="cls-20" points="55.27 58.83 58.33 58.83 59.04 58.83 59.09 57.28 55.27 58.83" />
          <polygon class="cls-12" points="59.09 57.28 39.08 43.85 42.68 58.83 47.76 58.83 55.27 58.83 59.09 57.28" />
          <polygon class="cls-16" points="30.83 58.83 31.71 58.83 42.28 58.83 42.68 58.83 39.08 43.85 30.83 58.83" />
          <polygon class="cls-15" points="56.66 31.17 56.61 32.04 59.79 31.17 58.33 31.17 56.66 31.17" />
          <polygon class="cls-5" points="51.32 31.17 56.61 32.04 56.12 31.17 51.32 31.17" />
          <polygon class="cls-6" points="56.12 31.17 56.61 32.04 56.66 31.17 56.12 31.17" />
          <path class="cls-3"
            d="M42.23,31.4l-7.74,13.39c-.04,.07-.06,.14-.06,.22h-5.39l10.61-18.38c.07,.04,.12,.09,.16,.15h.01s2.41,4.19,2.41,4.19c.07,.14,.07,.29,0,.43Z" />
          <path class="cls-25"
            d="M42.22,59.09l-2.39,4.16c-.04,.06-.1,.12-.16,.15l-10.62-18.38h5.4c0,.07,.02,.14,.05,.21,0,0,0,.02,0,.02l7.72,13.38c.08,.14,.08,.31,0,.46Z" />
          <path class="cls-4"
            d="M39.65,26.63l-10.61,18.38h0l-2.66,4.61-2.54-4.41c-.04-.06-.05-.14-.05-.21,0-.08,.02-.15,.06-.22l2.57-4.45,7.82-13.54c.08-.14,.23-.23,.4-.23h4.79c.08,0,.16,.02,.23,.05Z" />
          <path class="cls-3"
            d="M39.65,63.4c-.07,.04-.15,.06-.23,.06h-4.8c-.17,0-.32-.09-.4-.23l-7.15-12.37-.7-1.23,2.66-4.61,10.62,18.38Z" />
          <path class="cls-4"
            d="M60.99,45.01l-10.62,18.39c-.06-.04-.12-.09-.16-.15h0s-2.41-4.18-2.41-4.18c-.07-.13-.07-.29,0-.43l7.72-13.39c.04-.07,.07-.15,.07-.23h5.41Z" />
          <path class="cls-3"
            d="M66.24,45.01c0,.08-.02,.16-.07,.23l-10.39,18c-.08,.13-.23,.21-.39,.21h-4.79c-.08,0-.16-.02-.23-.06l10.61-18.39,2.66-4.61,2.53,4.38c.04,.07,.06,.15,.07,.23Z" />
          <path class="cls-3"
            d="M60.99,45.01h-5.4c0-.08-.02-.16-.07-.23l-7.72-13.38c-.08-.14-.08-.32,0-.46l2.41-4.16c.04-.06,.09-.11,.16-.15l10.61,18.38Z" />
          <path class="cls-25"
            d="M63.65,40.4h0l-2.66,4.61-10.62-18.38c.07-.04,.15-.06,.23-.06h4.79c.16,0,.3,.08,.39,.21l7.87,13.62Z" />
        </g>
      </g>
    </g>
  </g>
</svg>