<svg id="Layer_2" xmlns="http://www.w3.org/2000/svg" viewBox="0 0 90 90">
  <defs>
    <style>
      .cls-1 {
        fill: none;
      }

      .cls-2 {
        fill: #00618a;
      }
    </style>
  </defs>
  <g id="Layer_1-2">
    <g>
      <rect class="cls-1" width="90" height="90" />
      <path class="cls-2"
        d="M78.15,76.75l-1.41-1.37c-1.34-1.78-3.06-3.34-4.87-4.64-1.44-1.03-4.68-2.43-5.28-4.11l-.11-.11c1.02-.12,2.22-.49,3.16-.74,1.58-.42,2.89-.31,4.53-.74,.74-.21,1.57-.42,2.11-.63v-.42c-.54-.85-1.31-1.97-2.21-2.74-2.36-2.01-4.88-4.02-7.54-5.69-1.47-.93-3.26-1.53-4.82-2.32-.52-.27-1.43-.4-1.78-.84-.82-1.04-1.26-2.37-1.89-3.58-1.32-2.55-2.62-5.33-3.79-8.01-.8-1.83-1.32-3.63-2.32-5.27-4.79-7.87-9.94-12.62-17.91-17.28-1.7-.99-3.74-1.38-5.9-1.9-1.16-.07-2.32-.14-3.48-.21-.71-.29-1.44-1.16-2.11-1.58-2.64-1.67-9.42-5.3-11.38-.53-1.24,3.01,1.85,5.95,2.95,7.48,.78,1.07,1.77,2.27,2.32,3.48,.36,.79,.43,1.59,.74,2.42,.77,2.06,1.43,4.31,2.42,6.22,.5,.97,1.05,1.98,1.69,2.85,.39,.53,1.05,.76,1.16,1.58-.65,.91-.69,2.32-1.05,3.48-1.65,5.19-1.03,11.65,1.37,15.49,.73,1.18,2.47,3.71,4.85,2.74,2.08-.85,1.74-3.48,2.34-5.8,.13-.53-.1-.91,.44-1.26v.11c.54,1.26,1.14,2.53,1.77,3.79,1.4,2.26,3.72,4.62,5.83,6.22,1.09,.83,2.12,2.26,3.2,2.74v-.05h.12c-.27-.54-.7-.63-1.05-.97-.82-.81-1.74-1.83-2.42-2.75-1.92-2.61-3.62-5.47-5.16-8.44-.74-1.42-1.38-2.99-2-4.43-.24-.56-.24-1.4-.74-1.69-.68,1.06-1.69,1.91-2.21,3.16-.84,2-.95,4.43-1.26,6.96-.19,.07-.1,.02-.21,.1-1.47-.35-1.98-1.86-2.53-3.16-1.38-3.28-1.64-8.56-.42-12.33,.31-.98,1.73-4.05,1.16-4.95-.27-.9-1.18-1.42-1.69-2.11-.63-.85-1.25-1.97-1.69-2.95-1.13-2.56-1.66-5.42-2.85-8.01-.57-1.24-1.53-2.49-2.32-3.58-.87-1.22-1.85-2.11-2.53-3.58-.24-.52-.57-1.36-.21-1.9,.11-.36,.27-.51,.63-.63,.61-.47,2.31,.16,2.95,.42,1.69,.7,3.1,1.35,4.53,2.3,.69,.46,1.38,1.02,2.21,1.56h.95c1.48,0,3.15,.13,4.53,.55,2.45,.74,4.65,1.91,6.64,3.17,6.07,3.84,11.04,9.3,14.44,15.81,.55,1.05,.78,2.05,1.26,3.16,.97,2.24,2.2,4.55,3.16,6.75,.96,2.19,1.9,4.4,3.27,6.22,.72,.96,3.48,1.47,4.74,2,.88,.37,2.33,.76,3.16,1.26,1.59,.96,3.14,2.11,4.64,3.16,.75,.53,3.05,1.68,3.16,2.63-3.71-.1-6.54,.24-8.96,1.26-.69,.29-1.79,.3-1.9,1.16,.38,.4,.44,.99,.74,1.48,.58,.93,1.55,2.19,2.42,2.85,.95,.72,1.93,1.49,2.95,2.11,1.81,1.11,3.84,1.74,5.59,2.85,1.03,.65,2.14,1.48,3.14,2.21,.5,.36,.48,.93,1.56,1.16v-.1c-.54-.43-.51-1.02-.82-1.47ZM26.32,23.11c-.77-.01-1.36,.08-1.9,.21v.08h.11c.37,.54,1.02,1.26,1.48,1.91l1.05,2.22,.1-.1c.65-.46,.95-1.19,.95-2.32-.26-.27-.3-.62-.53-.95-.3-.44-.89-.68-1.26-1.05Z" />
    </g>
  </g>
</svg>