<svg id="Layer_2" xmlns="http://www.w3.org/2000/svg" viewBox="0 0 90 90">
  <defs>
    <style>
      .cls-1 {
        fill: none;
      }

      .cls-2 {
        fill: #32648d;
      }
    </style>
  </defs>
  <g id="Layer_1-2">
    <g>
      <rect class="cls-1" width="90" height="90" />
      <g>
        <circle cx="73.25" cy="53.28" r="0" />
        <path class="cls-2"
          d="M64.84,52.74h0s0,.01,0,.01c-.41,.15-.75,.21-1.04,.34-.29,.12-.53,.33-.67,.6h0c-.18,.33-.33,.91-.28,1.9,.12,.09,.26,.15,.4,.2h.01c.48,.15,1.28,.25,2.18,.23,1.79-.02,3.99-.44,5.16-.99,1.01-.48,1.87-1.06,2.64-1.75-3.91,.82-6.11,.6-7.46,.03-.35-.15-.66-.34-.93-.57Z" />
        <polygon class="cls-2" points="60.84 22.72 60.86 22.75 60.88 22.77 60.84 22.72" />
        <path class="cls-2"
          d="M45.9,65.72c0-.07,0-.14,0-.22,0-.03,0-.05,0-.08v.29Zm-2.99-12.53c-.16-.08-.36-.14-.56-.17h0s-.06,0-.06,0c-.15,.01-.36,.07-.78,.53-.98,1.11-1.32,1.8-2.12,2.45-.81,.65-1.85,.99-3.94,1.43-.66,.14-1.04,.29-1.29,.41,.08,.07,.07,.09,.2,.15,.31,.17,.7,.32,1.02,.4,.9,.23,2.37,.49,3.91,.23,1.54-.27,3.14-1.01,4.5-2.95,.24-.33,.26-.83,.07-1.36-.19-.53-.62-.99-.93-1.12ZM54.37,15.2l-.16,.03c.05-.01,.11-.02,.17-.03,0,0,0,0,0,0Zm7.9,15.32c-1.9,.03-2.97,.52-3.53,1.17-.79,.92-.87,2.54-.37,4.53,.49,2,1.5,4.23,2.46,6.08,.48,.93,.94,1.76,1.31,2.44,.37,.68,.65,1.16,.82,1.58,.15,.38,.33,.72,.5,1.03,.74-1.58,.87-3.12,.79-4.73-.1-2-.56-4.04-.49-6.1,.08-2.42,.55-3.99,.59-5.86-.62-.09-1.34-.14-2.07-.14Zm.35,1.44v.02s0,.02,0,.03c0,.13-.04,.26-.1,.36h0c-.09,.16-.19,.3-.31,.42-.28,.31-.65,.53-1.07,.6h-.01c-.06,.01-.13,.01-.2,.01-.36,0-.69-.11-.96-.31h0c-.14-.09-.26-.2-.36-.33h0c-.09-.1-.15-.22-.18-.36h0s0-.03,0-.05c0-.12,.05-.24,.12-.32,.09-.11,.2-.19,.32-.25h0c.27-.16,.63-.27,1.04-.33,.15-.02,.31-.03,.45-.04h0s.14,0,.14,0c.18,0,.35,.03,.51,.06,.15,.03,.28,.09,.39,.16,.11,.07,.18,.18,.21,.31h0Zm-31.59,11.07c0-.51,.04-1.01,.11-1.5v.05c.28-2.1,.32-4.06,.29-5.61-.03-1.51-.14-2.51-.14-3.14v-.05h0s0-.03,0-.03h0v-.02c0-3.36,.59-6.58,1.66-9.57,.79-2.11,1.96-4.25,3.71-5.99-1.72-.57-4.78-1.45-8.09-1.61-.32-.02-.69-.03-1.06-.03h0c-.35,0-.71,.01-1.06,.03-2.83,.16-5.51,1-7.42,3.05-1.92,2.05-3.18,5.42-2.91,11,.05,1.06,.51,4.01,1.29,7.53,.78,3.51,1.88,7.65,3.2,11.3,1.33,3.65,2.93,6.83,4.46,8.34,.77,.75,1.44,1.06,2.04,1.03,.61-.03,1.34-.38,2.23-1.47,1.76-2.14,3.42-4.03,5.13-5.87l-.06,.06c-2.07-1.83-3.37-4.51-3.37-7.5Z" />
        <path class="cls-2"
          d="M46.13,15.39h0c-3.32,0-5.69,1.02-7.5,2.53-1.86,1.57-3.11,3.72-3.93,5.92-.97,2.61-1.31,5.14-1.44,6.85l.04-.02c1-.57,2.32-1.14,3.72-1.46,1.41-.33,2.92-.43,4.3,.11s2.51,1.81,2.92,3.73c1.97,9.24-.61,12.68-1.57,15.28-.3,.75-.62,1.71-.88,2.68l-.05,.19c.12-.03,.24-.06,.36-.07,.67-.06,1.2,.17,1.51,.31,.96,.4,1.62,1.25,1.97,2.21,.09,.25,.16,.53,.2,.81,.04,.1,.06,.21,.06,.33v.03c-.05,1.42-.07,3.09-.07,4.76,0,1.98,.04,3.96,.11,5.93,.07,1.49,.16,2.82,.28,3.86,.12,1.06,.29,1.86,.4,2.14,.36,.91,.88,2.1,1.83,2.91,.95,.81,2.31,1.35,4.79,.81,2.15-.47,3.48-1.12,4.37-2.05,.89-.93,1.42-2.23,1.75-4.22,.51-2.98,1.53-11.62,1.65-13.25-.06-1.23,.12-2.17,.51-2.89,.4-.74,1.02-1.19,1.55-1.43,.27-.12,.52-.2,.72-.26-.25-.36-.47-.66-.71-.95l.03,.03c-.74-.9-1.36-1.93-1.84-3.04l-.03-.08c-.29-.59-.53-1.04-.78-1.48l.06,.11c-.37-.68-.84-1.53-1.34-2.49-.99-1.92-2.06-4.24-2.62-6.5-.56-2.26-.64-4.6,.79-6.25,1.26-1.46,3.48-2.07,6.8-1.73-.1-.3-.16-.54-.32-.94-.81-1.9-1.78-3.54-2.94-5.03-2.82-3.64-7.37-7.24-14.41-7.36,0,0-.31,0-.31,0Zm-2.2,42.85v.1h0v-.1Z" />
        <polygon class="cls-2" points="33.23 32.99 33.23 32.99 33.24 32.98 33.23 32.99" />
        <polygon class="cls-2" points="37.4 31.07 37.43 31.07 37.45 31.06 37.4 31.07" />
        <path class="cls-2"
          d="M40.91,47.66c1.14-3.11,3.38-5.37,1.49-14.21-.31-1.45-.92-2.03-1.76-2.36-.41-.15-.88-.24-1.38-.24h-.09c-.6,0-1.19,.08-1.75,.22-1.19,.3-2.24,.73-3.22,1.27-.37,.2-.68,.41-.98,.65l-.05,.05c.02,.41,.1,1.42,.13,2.9,.03,1.62,0,3.68-.32,5.91-.67,4.85,2.81,8.87,6.9,8.88,.24-1,.63-2.01,1.02-3.07Zm-2.42-14.1h0c-.13-.14-.24-.29-.33-.46h0c-.07-.13-.12-.28-.12-.43,0-.03,0-.06,0-.09h0c.04-.3,.29-.46,.53-.55,.22-.07,.47-.12,.74-.12,.04,0,.08,0,.12,0h0c.15-.01,.31,0,.47,.03,.43,.06,.81,.18,1.1,.35,.14,.08,.27,.18,.37,.3h0c.1,.11,.15,.26,.15,.42,0,.02,0,.05,0,.07h0c-.03,.17-.11,.32-.21,.43-.12,.14-.25,.26-.39,.37h0c-.29,.21-.65,.34-1.04,.34-.08,0-.15,0-.23-.01h0c-.47-.08-.87-.31-1.18-.64Z" />
        <path class="cls-2"
          d="M34.15,32.37s.04-.02,.06-.03c0,0,0,0,0,0l-.07,.03Zm28.21-10.78c1.23,1.58,2.29,3.37,3.11,5.29l.06,.16c.31,.75,.52,1.38,.63,1.87,.06,.25,.1,.45,.11,.67,0,.11,.01,.22-.03,.41,0,0-.01,.03-.02,.04,.09,2.49-.53,4.17-.6,6.54-.06,1.72,.38,3.74,.49,5.95,.1,2.07-.14,4.35-1.48,6.58,.11,.14,.21,.27,.32,.41,3.52-5.61,6.05-11.81,7.4-17.09,.72-2.85,1.11-5.43,1.14-7.47,.03-2.04-.35-3.53-.83-4.14-3.76-4.87-8.85-6.11-13.12-6.14h0s-.41,0-.41,0c-1.65,.03-3.24,.22-4.77,.55,3.49,1.57,6.12,3.98,7.98,6.38Z" />
        <path
          d="M46.59,11.67h-.03c-3.3-.06-6.14,.75-8.43,2.11-2.25-.79-6.93-2.16-11.86-1.88-3.43,.19-7.18,1.25-9.95,4.21-2.77,2.97-4.23,7.56-3.92,13.8,.09,1.72,.57,4.53,1.37,8.17,.81,3.64,1.94,7.9,3.35,11.78,1.41,3.89,2.95,7.38,5.37,9.75,1.21,1.19,2.87,2.19,4.82,2.11,1.37-.06,2.61-.67,3.69-1.57,.52,.7,1.08,1,1.59,1.28,.64,.35,1.26,.6,1.9,.75,1.16,.29,3.14,.68,5.46,.28,.79-.13,1.62-.39,2.45-.77,.03,.94,.07,1.85,.1,2.78,.12,2.94,.19,5.66,1.06,8.04,.14,.39,.53,2.39,2.04,4.16,1.51,1.77,4.48,2.88,7.86,2.14,2.38-.52,5.41-1.45,7.43-4.35,1.99-2.87,2.89-6.98,3.07-13.65,.05-.36,.1-.67,.15-.95l.47,.04h.06c2.54,.12,5.3-.25,7.61-1.33,2.04-.96,3.58-1.92,4.71-3.64,.28-.43,.59-.94,.67-1.82,.09-.89-.42-2.27-1.25-2.91-1.67-1.28-2.72-.79-3.84-.56-1,.24-2.16,.38-3.35,.41h-.02c3.24-5.53,5.57-11.4,6.89-16.59,.79-3.07,1.23-5.89,1.26-8.36,.04-2.47-.16-4.66-1.63-6.55-4.57-5.91-11-7.55-15.98-7.61-.15,0-.31,0-.46,0h0c-2.71,.01-5.31,.42-7.78,1.15l-.12,.04c-1.42-.27-3.08-.44-4.77-.47Zm6.72,1.81c1.74-.43,3.74-.69,5.79-.71h.02c4.71-.06,10.71,1.28,15.03,6.86,.97,1.25,1.26,3.09,1.23,5.35-.04,2.26-.45,4.96-1.2,7.92-1.46,5.73-4.23,12.42-8.12,18.41,.13,.09,.28,.18,.43,.24h.01c.81,.35,2.67,.64,6.36-.13,.93-.2,1.61-.33,2.32,.21,.32,.27,.52,.68,.52,1.13,0,.03,0,.06,0,.09h0c-.04,.36-.17,.68-.37,.95-.72,1.09-2.13,2.12-3.93,2.97-1.6,.75-3.9,1.15-5.93,1.17-1.02,.01-1.96-.07-2.76-.32l-.05-.02c-.31,3.01-1.02,8.95-1.48,11.66-.37,2.19-1.02,3.92-2.25,5.22-1.23,1.3-2.98,2.08-5.33,2.59-2.91,.63-5.03-.05-6.4-1.21-1.37-1.16-1.99-2.71-2.37-3.65-.26-.65-.39-1.5-.52-2.63s-.22-2.51-.29-4.07c-.06-1.58-.1-3.45-.1-5.32,0-.62,0-1.23,.01-1.84-1.17,1.09-2.65,1.86-4.3,2.15h-.05c-1.93,.34-3.66,.01-4.69-.25-.55-.14-1.02-.33-1.47-.58-.47-.26-.92-.55-1.22-1.12-.12-.22-.19-.48-.19-.76,0-.11,.01-.22,.03-.32,.1-.38,.32-.7,.61-.93h0c.56-.46,1.29-.72,2.4-.95,2.02-.42,2.72-.71,3.15-1.05,.36-.3,.78-.89,1.5-1.77,0-.03,0-.07,0-.11h0c-1.37-.05-2.65-.42-3.77-1.05l.04,.02c-.42,.45-2.57,2.75-5.19,5.94-1.1,1.33-2.32,2.1-3.6,2.15s-2.44-.6-3.43-1.57c-1.97-1.94-3.54-5.27-4.92-9.04-1.37-3.77-2.48-7.97-3.27-11.54-.79-3.58-1.26-6.46-1.33-7.85-.3-5.91,1.07-9.89,3.41-12.4,2.34-2.51,5.56-3.46,8.69-3.64,5.62-.33,10.96,1.66,12.04,2.08,2.08-1.43,4.77-2.32,8.11-2.26,1.69,.03,3.31,.25,4.86,.65l-.14-.03,.06-.03c.54-.2,1.23-.41,1.94-.58l.12-.03Z" />
      </g>
    </g>
  </g>
</svg>