<svg id="Layer_2" xmlns="http://www.w3.org/2000/svg" viewBox="0 0 90 90">
  <defs>
    <style>
      .cls-1 {
        fill: none;
      }

      .cls-2 {
        fill: #f60;
      }
    </style>
  </defs>
  <g id="Layer_1-2">
    <g>
      <rect class="cls-1" width="90" height="90" />
      <path class="cls-2"
        d="M74.54,38.19h-21.41c-1.07,0-1.95-.87-1.95-1.95V13.93c0-1.65-1.34-2.99-2.99-2.99h-7.64c-1.65,0-2.99,1.34-2.99,2.99v22.17c0,1.15-.93,2.09-2.08,2.09l-7.01,.03c-1.16,0-2.1-.94-2.1-2.09l.04-22.2c0-1.65-1.34-3-2.99-3h-7.64c-1.65,0-2.99,1.34-2.99,2.99v62.47c0,1.47,1.19,2.66,2.66,2.66h59.09c1.47,0,2.66-1.19,2.66-2.66V40.84c0-1.47-1.19-2.66-2.66-2.66Zm-10.04,23.45c0,1.92-1.56,3.48-3.48,3.48h-6.04c-1.92,0-3.48-1.56-3.48-3.48v-6.04c0-1.92,1.56-3.48,3.48-3.48h6.04c1.92,0,3.48,1.56,3.48,3.48v6.04h0Z" />
    </g>
  </g>
</svg>