<svg id="Layer_2" xmlns="http://www.w3.org/2000/svg" viewBox="0 0 90 90">
  <defs>
    <style>
      .cls-1 {
        fill: none;
      }

      .cls-2 {
        fill: #fff;
      }

      .cls-3 {
        fill: #912626;
      }

      .cls-4 {
        fill: #9a2928;
      }

      .cls-5 {
        fill: #c6302b;
      }

      .cls-6 {
        fill: #621b1c;
      }
    </style>
  </defs>
  <g id="Layer_1-2">
    <g>
      <rect class="cls-1" width="90" height="90" />
      <g>
        <path class="cls-3"
          d="M76.37,60.71c-3.63,1.89-22.45,9.63-26.46,11.72-4.01,2.09-6.23,2.07-9.4,.56-3.17-1.51-23.19-9.6-26.8-11.33-1.8-.86-2.75-1.59-2.75-2.28v-6.88s26.08-5.68,30.28-7.19c4.21-1.51,5.67-1.56,9.25-.25,3.58,1.31,25,5.18,28.54,6.47v6.78c0,.68-.82,1.43-2.67,2.39" />
        <path class="cls-5"
          d="M76.37,53.87c-3.63,1.89-22.45,9.63-26.46,11.72-4.01,2.09-6.23,2.07-9.4,.56-3.17-1.51-23.19-9.6-26.8-11.33-3.61-1.72-3.68-2.91-.14-4.3,3.54-1.39,23.46-9.2,27.67-10.71,4.21-1.51,5.67-1.56,9.25-.25,3.58,1.31,22.29,8.76,25.83,10.06,3.54,1.3,3.68,2.37,.04,4.26" />
        <path class="cls-3"
          d="M76.37,49.57c-3.63,1.89-22.45,9.63-26.46,11.72-4.01,2.09-6.23,2.07-9.4,.56-3.17-1.51-23.19-9.6-26.8-11.33-1.8-.86-2.75-1.59-2.75-2.28v-6.88s26.08-5.68,30.28-7.19c4.21-1.51,5.67-1.57,9.25-.25,3.58,1.31,25,5.18,28.54,6.47v6.78c0,.68-.82,1.43-2.67,2.39" />
        <path class="cls-5"
          d="M76.37,42.73c-3.63,1.89-22.45,9.63-26.46,11.72-4.01,2.09-6.23,2.07-9.4,.56-3.17-1.51-23.19-9.6-26.8-11.33-3.61-1.72-3.68-2.91-.14-4.3,3.54-1.39,23.46-9.2,27.67-10.71,4.21-1.51,5.67-1.56,9.25-.25,3.58,1.31,22.29,8.76,25.83,10.06,3.54,1.3,3.68,2.37,.04,4.26" />
        <path class="cls-3"
          d="M76.37,38.03c-3.63,1.89-22.45,9.63-26.46,11.72-4.01,2.09-6.23,2.07-9.4,.56-3.17-1.51-23.19-9.6-26.8-11.33-1.8-.86-2.75-1.59-2.75-2.28v-6.88s26.08-5.68,30.28-7.19c4.21-1.51,5.67-1.56,9.25-.25,3.58,1.31,25,5.18,28.54,6.47v6.78c0,.68-.82,1.43-2.67,2.39" />
        <path class="cls-5"
          d="M76.37,31.19c-3.63,1.89-22.45,9.63-26.46,11.72-4.01,2.09-6.23,2.07-9.4,.56-3.17-1.51-23.19-9.6-26.8-11.33-3.61-1.72-3.68-2.91-.14-4.3,3.54-1.39,23.46-9.2,27.67-10.71,4.21-1.51,5.67-1.56,9.25-.25,3.58,1.31,22.29,8.76,25.83,10.06,3.54,1.3,3.68,2.37,.04,4.26" />
        <path class="cls-2"
          d="M53.32,24.49l-5.85,.61-1.31,3.15-2.12-3.52-6.76-.61,5.04-1.82-1.51-2.79,4.72,1.85,4.45-1.46-1.2,2.89,4.54,1.7m-7.51,15.3l-10.92-4.53,15.65-2.4-4.73,6.93m-15.15-13.54c4.62,0,8.37,1.45,8.37,3.24s-3.75,3.24-8.37,3.24-8.37-1.45-8.37-3.24,3.75-3.24,8.37-3.24" />
        <path class="cls-6" d="M60.24,25.35l9.26,3.66-9.26,3.66v-7.32" />
        <path class="cls-4" d="M49.99,29.41l10.25-4.05v7.32s-1,.39-1,.39l-9.25-3.66" />
      </g>
    </g>
  </g>
</svg>