<svg id="Layer_2" xmlns="http://www.w3.org/2000/svg" viewBox="0 0 90 90">
  <defs>
    <style>
      .cls-1 {
        fill: none;
      }

      .cls-2,
      .cls-3 {
        fill: #fff;
      }

      .cls-4 {
        fill: #52bd94;
      }

      .cls-4,
      .cls-3 {
        fill-rule: evenodd;
      }
    </style>
  </defs>
  <g id="Layer_1-2">
    <g>
      <rect class="cls-1" width="90" height="90" />
      <g id="eaa5b143-4b71-4e3c-99a7-b287de4c90a0">
        <path class="cls-4"
          d="M79.06,45c0,18.81-15.25,34.06-34.06,34.06S10.94,63.81,10.94,45c0-18.81,15.25-34.06,34.06-34.06h0c18.81,0,34.06,15.25,34.06,34.06Z" />
        <rect class="cls-2" x="41.01" y="38.65" width="20.92" height="3.63" rx=".67" ry=".67" />
        <rect class="cls-2" x="28.06" y="47.72" width="20.92" height="3.63" rx=".67" ry=".67" />
        <path class="cls-3"
          d="M30.58,41.14c.35,.09,.72-.11,.82-.46,2.24-7.03,9.47-11.2,16.68-9.61,.35,.07,.69-.14,.78-.49l.59-2.2c.1-.36-.12-.73-.48-.83,0,0-.02,0-.03,0-9.11-2.06-18.28,3.24-21.04,12.17-.1,.36,.1,.73,.45,.83,0,0,.01,0,.02,0l2.2,.59Z" />
        <path class="cls-3"
          d="M59.42,48.86c-.35-.09-.72,.11-.82,.46-2.24,7.03-9.47,11.2-16.68,9.61-.35-.07-.69,.14-.78,.49l-.59,2.2c-.1,.36,.12,.73,.48,.83,0,0,.02,0,.03,0,9.11,2.06,18.28-3.24,21.04-12.17,.1-.36-.1-.73-.45-.83,0,0-.01,0-.02,0l-2.2-.59Z" />
        <circle class="cls-2" cx="55.34" cy="32.68" r="1.99" />
        <circle class="cls-2" cx="34.66" cy="57.32" r="1.99" />
      </g>
    </g>
  </g>
</svg>