<svg id="Layer_2" xmlns="http://www.w3.org/2000/svg" viewBox="0 0 90 90">
  <defs>
    <style>
      .cls-1 {
        fill: none;
      }

      .cls-2 {
        fill: #ebb12e;
      }

      .cls-3 {
        fill: #2eb57d;
      }

      .cls-4 {
        fill: #df1e5a;
      }

      .cls-5 {
        fill: #36c4ef;
      }
    </style>
  </defs>
  <g id="Layer_1-2">
    <g>
      <rect class="cls-1" width="90" height="90" />
      <g>
        <g>
          <path class="cls-4"
            d="M25.25,53.99c0,3.94-3.22,7.16-7.16,7.16s-7.16-3.22-7.16-7.16,3.22-7.16,7.16-7.16h7.16v7.16Z" />
          <path class="cls-4"
            d="M28.86,53.99c0-3.94,3.22-7.16,7.16-7.16s7.16,3.22,7.16,7.16v17.92c0,3.94-3.22,7.16-7.16,7.16s-7.16-3.22-7.16-7.16c0,0,0-17.92,0-17.92Z" />
        </g>
        <g>
          <path class="cls-5"
            d="M36.01,25.25c-3.94,0-7.16-3.22-7.16-7.16s3.22-7.16,7.16-7.16,7.16,3.22,7.16,7.16v7.16h-7.16Z" />
          <path class="cls-5"
            d="M36.01,28.86c3.94,0,7.16,3.22,7.16,7.16s-3.22,7.16-7.16,7.16H18.1c-3.94,0-7.16-3.22-7.16-7.16s3.22-7.16,7.16-7.16h17.92Z" />
        </g>
        <g>
          <path class="cls-3"
            d="M64.75,36.01c0-3.94,3.22-7.16,7.16-7.16s7.16,3.22,7.16,7.16-3.22,7.16-7.16,7.16h-7.16v-7.16Z" />
          <path class="cls-3"
            d="M61.14,36.01c0,3.94-3.22,7.16-7.16,7.16s-7.16-3.22-7.16-7.16V18.1c0-3.94,3.22-7.16,7.16-7.16s7.16,3.22,7.16,7.16v17.92Z" />
        </g>
        <g>
          <path class="cls-2"
            d="M53.99,64.75c3.94,0,7.16,3.22,7.16,7.16s-3.22,7.16-7.16,7.16-7.16-3.22-7.16-7.16v-7.16h7.16Z" />
          <path class="cls-2"
            d="M53.99,61.14c-3.94,0-7.16-3.22-7.16-7.16s3.22-7.16,7.16-7.16h17.92c3.94,0,7.16,3.22,7.16,7.16s-3.22,7.16-7.16,7.16h-17.92Z" />
        </g>
      </g>
    </g>
  </g>
</svg>