<svg id="Layer_2" xmlns="http://www.w3.org/2000/svg" viewBox="0 0 90 90">
  <defs>
    <style>
      .cls-1 {
        fill: none;
      }

      .cls-2 {
        fill: #29b4e7;
      }
    </style>
  </defs>
  <g id="Layer_1-2">
    <g>
      <rect class="cls-1" width="90" height="90" />
      <path class="cls-2"
        d="M21.44,27.23l13.84,8.3c1.58,.95,3.6,.68,4.88-.64,.84-.81,1.31-1.93,1.31-3.09V15.16c.06-1.48-.7-2.88-1.98-3.64-1.28-.76-2.87-.76-4.14,0-1.28,.76-2.04,2.16-1.98,3.64v9.47l-7.86-4.71c-.94-.56-2.06-.71-3.11-.43-1.05,.28-1.93,1-2.45,1.96-1.12,2.02-.47,4.55,1.49,5.77m33.27,8.3l13.84-8.3c1.96-1.22,2.62-3.76,1.49-5.77-1.04-1.94-3.46-2.67-5.4-1.63-.05,.03-.1,.06-.15,.09l-7.77,4.65V15.14c.08-2.24-1.67-4.12-3.9-4.2-2.24-.08-4.12,1.67-4.2,3.9,0,.1,0,.2,0,.29V31.45c-.08,.87,.1,1.75,.53,2.52,.51,.96,1.4,1.67,2.45,1.96,1.05,.29,2.18,.14,3.11-.43m-12.31,9.46c.01-.27,.11-.53,.29-.72l1.62-1.68c.19-.18,.44-.28,.7-.3h.06c.26,.02,.51,.12,.7,.3l1.62,1.68c.18,.2,.28,.46,.29,.72v.06c-.01,.27-.11,.52-.29,.73l-1.62,1.68c-.19,.18-.44,.29-.7,.3h-.06c-.26-.01-.51-.12-.7-.3l-1.62-1.68c-.17-.2-.28-.46-.29-.73v-.06Zm-4.9-.69v1.45c.02,.36,.16,.71,.4,.99l5.49,5.7c.26,.24,.6,.39,.95,.41h1.4c.36-.02,.69-.17,.95-.41l5.49-5.7c.24-.28,.38-.62,.4-.99v-1.45c-.02-.36-.16-.71-.4-.99l-5.49-5.7c-.26-.24-.6-.39-.95-.41h-1.4c-.36,.02-.69,.17-.95,.41l-5.49,5.71c-.24,.28-.38,.63-.4,.99m-23.22-3.95l7.84,4.7-7.84,4.7c-1.96,1.22-2.61,3.76-1.49,5.77,.51,.96,1.4,1.67,2.45,1.96,1.05,.29,2.17,.14,3.11-.42l13.84-8.3c1.28-.81,2.02-2.21,2.02-3.72,0-1.5-.76-2.9-2.02-3.72l-13.84-8.3c-.94-.56-2.06-.71-3.11-.43-1.05,.28-1.93,1-2.45,1.96-1.12,2.02-.47,4.55,1.49,5.77m41.5,4.73c-.02,1.51,.75,2.91,2.03,3.7l13.83,8.3c.94,.56,2.06,.71,3.11,.42,1.05-.29,1.93-1,2.45-1.96,1.13-2.01,.47-4.56-1.49-5.77l-7.83-4.7,7.84-4.7c1.96-1.22,2.61-3.76,1.49-5.77-.51-.96-1.4-1.67-2.45-1.96-1.05-.29-2.17-.14-3.11,.43l-13.83,8.3c-1.29,.79-2.07,2.21-2.03,3.73m-17.72,8.99c-.96-.18-1.95,0-2.78,.49l-13.84,8.3c-1.96,1.22-2.61,3.76-1.49,5.77,.51,.96,1.4,1.67,2.45,1.96,1.05,.29,2.17,.14,3.11-.42l7.86-4.71v9.4c-.09,2.24,1.65,4.12,3.89,4.21,2.24,.09,4.12-1.65,4.21-3.89,0-.11,0-.21,0-.32v-16.65c.03-2.03-1.41-3.79-3.41-4.15m30.5,8.81l-13.84-8.3c-.94-.56-2.06-.71-3.11-.42-1.05,.29-1.93,1-2.45,1.96-.43,.77-.61,1.65-.53,2.52v16.23c-.09,2.24,1.65,4.12,3.89,4.21,2.24,.09,4.12-1.65,4.21-3.89,0-.11,0-.21,0-.32v-9.33l7.75,4.65c.94,.56,2.06,.71,3.11,.43,1.05-.28,1.93-1,2.45-1.96,1.12-2.02,.47-4.55-1.49-5.77" />
    </g>
  </g>
</svg>