<?xml version="1.0" encoding="utf-8"?>
<!-- Generator: Adobe Illustrator 27.2.0, SVG Export Plug-In . SVG Version: 6.00 Build 0)  -->
<svg version="1.1" id="Layer_1" xmlns="http://www.w3.org/2000/svg" xmlns:xlink="http://www.w3.org/1999/xlink" x="0px" y="0px"
	 viewBox="0 0 20 20" style="enable-background:new 0 0 20 20;" xml:space="preserve">
<style type="text/css">
	.st0{fill:#F5DE19;}
</style>
<g id="_x36_a9c1784">
	<path id="d7964be5" class="st0" d="M11.9,12.2c0.2,0.4,0.5,0.7,0.9,1c0.4,0.2,0.9,0.4,1.3,0.4c0.9,0,1.5-0.5,1.5-1.1
		c0-0.7-0.6-1-1.7-1.5l-0.6-0.2c-1.6-0.7-2.7-1.5-2.7-3.3c0-1.6,1.3-2.9,3.3-2.9c0.7,0,1.3,0.1,1.9,0.4c0.6,0.3,1,0.8,1.3,1.3
		l-1.8,1.1c-0.1-0.3-0.3-0.5-0.6-0.7c-0.3-0.2-0.6-0.3-0.9-0.2c-0.1,0-0.3,0-0.4,0c-0.1,0-0.3,0.1-0.4,0.2c-0.1,0.1-0.2,0.2-0.2,0.3
		C13,7.1,13,7.3,13,7.4c0,0.7,0.4,0.9,1.4,1.3L15,9c1.9,0.8,3,1.6,3,3.4c0,2-1.6,3-3.8,3c-0.8,0.1-1.7-0.1-2.4-0.5
		c-0.7-0.4-1.3-1-1.7-1.7L11.9,12.2z M3.9,12.4c0.4,0.6,0.7,1.1,1.5,1.1c0.7,0,1.2-0.3,1.2-1.4V4.7h2.3v7.5c0,2.3-1.4,3.3-3.4,3.3
		c-0.7,0-1.4-0.1-2-0.5c-0.6-0.4-1.1-0.9-1.4-1.5L3.9,12.4z"/>
</g>
</svg>
