<?xml version="1.0" encoding="utf-8"?>
<!-- Generator: Adobe Illustrator 27.2.0, SVG Export Plug-In . SVG Version: 6.00 Build 0)  -->
<svg version="1.1" id="Layer_1" xmlns="http://www.w3.org/2000/svg" xmlns:xlink="http://www.w3.org/1999/xlink" x="0px" y="0px"
	 viewBox="0 0 20 20" style="enable-background:new 0 0 20 20;" xml:space="preserve">
<style type="text/css">
	.st0{fill:#5B9DB5;}
</style>
<g id="_x32_1b4b45a">
	<g id="_x38_e645f14">
		<path class="st0" d="M10,2C5.9,2,6.2,3.8,6.2,3.8v1.8H10v0.6H4.6C4.6,6.2,2,5.9,2,10c0,4.1,2.3,4,2.3,4h1.3V12
			c0,0-0.1-2.3,2.2-2.3h3.9c0,0,2.2,0,2.2-2.1V4.1C13.9,4.1,14.3,2,10,2L10,2z M7.8,3.2c0.1,0,0.3,0,0.4,0.1
			c0.1,0.1,0.2,0.2,0.3,0.3c0.1,0.1,0.1,0.3,0,0.4c0,0.1-0.1,0.3-0.2,0.4S8.1,4.6,8,4.6c-0.1,0-0.3,0-0.4,0c-0.1,0-0.2-0.1-0.3-0.2
			C7.2,4.2,7.2,4.1,7.2,4v0c0-0.2,0.1-0.4,0.2-0.5C7.5,3.3,7.7,3.2,7.8,3.2L7.8,3.2z"/>
		<path class="st0" d="M10.1,18c4.1,0,3.8-1.8,3.8-1.8v-1.8H10v-0.6h5.4c0,0,2.6,0.3,2.6-3.8c0-4.1-2.3-4-2.3-4h-1.3v1.9
			c0,0,0.1,2.3-2.2,2.3H8.3c0,0-2.2,0-2.2,2.1v3.5C6.1,15.9,5.8,18,10.1,18L10.1,18L10.1,18z M12.2,16.8c-0.1,0-0.3,0-0.4-0.1
			c-0.1-0.1-0.2-0.2-0.3-0.3c-0.1-0.1-0.1-0.3,0-0.4c0-0.1,0.1-0.3,0.2-0.4c0.1-0.1,0.2-0.2,0.4-0.2c0.1,0,0.3,0,0.4,0
			c0.1,0,0.2,0.1,0.3,0.2c0.1,0.1,0.1,0.2,0.1,0.4v0c0,0.2-0.1,0.4-0.2,0.5C12.6,16.7,12.4,16.8,12.2,16.8L12.2,16.8z"/>
	</g>
</g>
</svg>
