<?xml version="1.0" encoding="UTF-8"?><svg id="Layer_1" xmlns="http://www.w3.org/2000/svg" viewBox="0 0 50 50"><defs><style>.cls-1{fill:#003dff;}</style></defs><path class="cls-1" d="m25,3.02C12.99,3.02,3.21,12.7,3.03,24.66c-.18,12.15,9.68,22.22,21.84,22.29,3.75.02,7.37-.9,10.58-2.64.31-.17.36-.6.1-.84l-2.06-1.82c-.42-.37-1.01-.48-1.53-.26-2.24.95-4.68,1.44-7.19,1.41-9.82-.12-17.76-8.29-17.6-18.11.15-9.7,8.09-17.54,17.82-17.54h17.82v31.68l-10.11-8.99c-.33-.29-.83-.23-1.09.12-1.62,2.15-4.27,3.49-7.2,3.28-4.07-.28-7.38-3.56-7.68-7.63-.36-4.86,3.48-8.93,8.27-8.93,4.32,0,7.89,3.33,8.26,7.56.03.38.2.73.49.98l2.63,2.33c.3.26.77.1.85-.29.19-1.02.26-2.07.18-3.16-.42-6.19-5.43-11.16-11.62-11.54-7.09-.44-13.03,5.11-13.21,12.07-.18,6.78,5.37,12.62,12.15,12.77,2.83.06,5.45-.83,7.58-2.37l13.21,11.71c.57.5,1.46.1,1.46-.66V3.85c0-.46-.37-.83-.83-.83h-21.14Z"/></svg>