<?xml version="1.0" encoding="UTF-8"?><svg id="Layer_1" xmlns="http://www.w3.org/2000/svg" viewBox="0 0 50 50"><defs><style>.cls-1{fill:#b77e9d;}.cls-2{fill:#c17b9e;}.cls-3{fill:#cab3c0;}.cls-4{fill:#724263;}.cls-5{fill:#512843;}</style></defs><path class="cls-4" d="m37.33,10.76l3.94-1.01.03.04.1,23.77-.13.13-.81.03-3.08-.48-.05-.12V10.76m-22.77,24.58h.01s10.39,3.02,10.39,3.02l.03.02.05.04v9.05s-.05.04-.05.04l-10.43-5.07v-7.1"/><path class="cls-3" d="m37.33,33.12l-12.32,2.95-6.18-1.49-4.26.76,10.43,3.04,16.1-4.36.17-.33-3.94-.57"/><path class="cls-5" d="m35.43,14.05l-.1-.11-10.22-2.97-.11.04-.1-.05-16.08,4.64-.09.11.13.07,3.68.54.13-.04,12.32-2.95,6.18,1.49,4.26-.76"/><path class="cls-1" d="m12.67,38.63l-3.94.95v-.02s-.16-23.68-.16-23.68l.16-.18,3.94.57v22.36"/><path class="cls-4" d="m17.98,29.45l7.02.82.05-.08.03-10.98-.08-.09-7.02.82v9.5"/><path class="cls-2" d="m32.02,29.45l-7.02.82v-11.15l7.02.82v9.5m3.41-15.39l-10.43-3.04V1.89l10.43,5.07v7.1"/><path class="cls-4" d="m25,1.89L5.45,11.33v26.73l3.28,1.52V15.7l16.27-4.69V1.89"/><path class="cls-1" d="m41.27,9.74v23.94l-16.27,4.69v9.12l19.55-9.44V11.33l-3.28-1.58"/></svg>