<?xml version="1.0" encoding="UTF-8"?><svg id="Layer_1" xmlns="http://www.w3.org/2000/svg" viewBox="0 0 50 50"><defs><style>.cls-1{fill:#fff;}.cls-2{fill:#d86613;}</style></defs><g id="layer1"><rect id="rect6798" class="cls-2" x="4" y="4" width="42" height="42"/><path class="cls-1" d="m37.89,38.94h-6.89c-.21,0-.4-.12-.49-.31l-9.89-20.38h-3.97c-.3,0-.54-.24-.54-.54v-6.11c0-.3.24-.54.54-.54h8.52c.21,0,.4.12.49.31l9.9,20.42h2.33c.3,0,.54.24.54.54v6.07c0,.3-.24.54-.54.54Zm-6.56-1.08h6.01v-4.99h-2.13c-.21,0-.4-.12-.49-.31l-9.9-20.41h-7.63v5.02h3.76c.21,0,.4.12.49.31l9.89,20.38Z"/><path class="cls-1" d="m19.43,38.89h-7.2c-.19,0-.36-.1-.46-.25-.1-.16-.11-.35-.03-.52l7.51-15.9c.09-.19.28-.31.49-.31h0c.21,0,.4.12.49.31l3.59,7.4c.07.15.07.32,0,.46l-3.9,8.5c-.09.19-.28.32-.49.32Zm-6.35-1.08h6l3.65-7.95-2.99-6.15-6.66,14.1Z"/></g></svg>