<?xml version="1.0" encoding="UTF-8"?><svg id="Layer_1" xmlns="http://www.w3.org/2000/svg" xmlns:xlink="http://www.w3.org/1999/xlink" viewBox="0 0 50 50"><defs><style>.cls-1{fill:url(#linear-gradient);}.cls-2{fill:#fff;}</style><linearGradient id="linear-gradient" x1="-5371.61" y1="-2386.65" x2="-5354.21" y2="-2404.05" gradientTransform="translate(-8151.13 -18280.4) rotate(-90) scale(3.41 -3.41)" gradientUnits="userSpaceOnUse"><stop offset="0" stop-color="#bd0816"/><stop offset="1" stop-color="#ff5252"/></linearGradient></defs><g id="Reference"><rect id="Red_Gradient" class="cls-1" x="4" y="4" width="42" height="42"/><g id="Icon_Test"><rect class="cls-2" x="34.53" y="30.37" width="1.12" height="9.47" transform="translate(-14.54 35.09) rotate(-45)"/><rect class="cls-2" x="14.71" y="10.03" width="1.12" height="10.49" transform="translate(-6.33 15.27) rotate(-45)"/><rect class="cls-2" x="12.43" y="34.27" width="5.54" height="1.12" transform="translate(-20.18 20.95) rotate(-45)"/><rect class="cls-2" x="32.03" y="14.67" width="5.54" height="1.12" transform="translate(-.57 29.07) rotate(-45)"/><path class="cls-2" d="m37.86,24.45c-.1-2.51-.94-4.93-2.41-6.97l-.91.66c1.33,1.84,2.1,4.03,2.2,6.31h-1.12v1.12h1.12c-.09,2.28-.86,4.49-2.2,6.34l.91.65c1.48-2.04,2.32-4.48,2.41-7h1.12v-1.12h-1.12Z"/><path class="cls-2" d="m18.12,15.49c1.85-1.34,4.04-2.1,6.32-2.2v1.08h1.12v-1.08c2.28.1,4.48.86,6.32,2.2l.68-.91c-2.04-1.48-4.48-2.32-7-2.41v-1.16h-1.12v1.16c-2.52.1-4.96.94-7,2.41l.68.91Z"/><path class="cls-2" d="m31.88,34.56c-1.85,1.34-4.04,2.1-6.32,2.2v-1.12h-1.12v1.12c-2.28-.1-4.48-.86-6.32-2.2l-.68.91c2.04,1.48,4.48,2.32,7,2.41v1.12h1.12v-1.12c2.52-.1,4.96-.94,7-2.41l-.68-.91Z"/><path class="cls-2" d="m14.56,32.56l.91-.66c-1.34-1.85-2.11-4.06-2.2-6.34h1.12v-1.12h-1.12c.1-2.27.87-4.46,2.2-6.31l-.91-.66c-1.47,2.04-2.31,4.46-2.41,6.97h-1.12v1.12h1.12c.09,2.52.93,4.96,2.41,7Z"/><path class="cls-2" d="m27.74,17.58c-.77-.64-1.74-.98-2.74-.97h0c-2.16,0-3.92,1.53-3.92,3.41v2.75h-1.12c-.31,0-.56.25-.56.56v7.84c0,.15.06.29.16.4.11.1.25.16.4.16h10.08c.31,0,.56-.25.56-.56v-7.84c0-.15-.06-.29-.16-.39-.1-.11-.25-.17-.4-.17h-1.12v-2.74c-.01-.95-.44-1.85-1.18-2.45Zm-5.54,2.44c0-1.27,1.26-2.29,2.8-2.29h0c.73-.01,1.45.24,2.02.7.49.39.78.97.79,1.6v2.74h-5.6v-2.75Zm7.27,5.55h-1.68v1.12h1.68v1.12h-1.68v1.12h1.68v1.68h-8.96v-6.72h8.96v1.68Z"/><path class="cls-2" d="m24.44,27.95v1.55h1.12v-1.55c.85-.31,1.29-1.25.98-2.1s-1.25-1.29-2.1-.98-1.29,1.25-.98,2.1c.17.46.53.82.98.98Zm.56-2.14c.33,0,.61.27.61.6s-.27.61-.6.61-.61-.27-.61-.6c0,0,0-.01,0-.02,0-.33.27-.59.6-.59Z"/></g></g></svg>