<svg version="1.1" id="Layer_1" xmlns="http://www.w3.org/2000/svg" xmlns:xlink="http://www.w3.org/1999/xlink" x="0px" y="0px"
	 width="100%" viewBox="0 0 1328 550" enable-background="new 0 0 1328 550" xml:space="preserve">
<path fill="#FFFFFF" opacity="1.000000" stroke="none" 
	d="
M421.000000,551.000000 
	C281.016632,551.000000 141.033264,551.000000 1.024946,551.000000 
	C1.024946,367.705078 1.024946,184.410156 1.024946,1.057614 
	C443.575684,1.057614 886.151367,1.057614 1328.863525,1.057614 
	C1328.863525,184.220474 1328.863525,367.441071 1328.863525,551.000000 
	C1111.305420,551.000000 893.610657,551.000000 675.542603,550.537964 
	C673.556641,536.390198 672.987793,522.480957 670.114807,509.065155 
	C664.057739,480.780396 651.872925,454.629395 639.682129,428.562286 
	C639.026550,427.160431 638.467896,425.713287 637.375244,423.132385 
	C640.245178,424.679871 641.961121,425.593933 643.666931,426.526672 
	C657.062866,433.851776 668.016785,444.081696 677.047546,456.172546 
	C686.101685,468.294647 694.269409,481.075775 702.974487,493.463470 
	C705.472595,497.018463 708.486755,500.210846 711.264343,503.569458 
	C711.822449,503.249542 712.380554,502.929626 712.938599,502.609741 
	C710.196533,495.007019 707.812073,487.250397 704.622498,479.840240 
	C700.553101,470.386108 695.554138,461.332611 691.469543,451.884308 
	C687.072937,441.714081 684.406433,431.057678 685.723022,419.824371 
	C686.430725,413.785767 690.044250,410.797485 696.232117,411.053223 
	C716.845154,411.905151 732.590088,420.949402 743.792603,438.497955 
	C755.159241,456.303558 760.080017,476.155518 764.082703,496.474884 
	C766.481323,508.651947 769.537170,520.699524 772.297668,532.805359 
	C772.854614,532.875610 773.411621,532.945862 773.968628,533.016113 
	C775.158325,531.638184 776.942810,530.446960 777.443115,528.852661 
	C781.239807,516.755859 783.309814,504.275665 779.255737,492.020569 
	C772.061768,470.273804 764.229065,448.731750 756.318420,427.231049 
	C751.644897,414.528687 746.308533,402.070190 741.210266,389.352356 
	C749.558411,389.611664 756.490295,391.717682 763.173645,396.728363 
	C785.863831,413.739624 808.984558,430.157776 824.871216,454.397583 
	C834.082886,468.452728 843.302490,482.502930 852.455139,496.596436 
	C855.688171,501.574707 857.570801,503.095703 862.844177,503.839661 
	C859.714966,496.833374 857.173218,489.971863 853.716736,483.607086 
	C839.197937,456.872314 824.244568,430.373047 809.785461,403.606567 
	C803.144897,391.313690 797.519104,378.515259 795.661804,364.302856 
	C795.991699,363.999298 796.119629,363.873474 796.631592,363.743774 
	C810.219910,367.029175 821.626892,373.120361 831.068542,383.296082 
	C837.902893,390.661713 845.894104,396.953857 853.369446,403.724762 
	C853.948059,403.350555 854.526733,402.976349 855.105347,402.602142 
	C852.298340,396.532898 849.829041,390.277588 846.610413,384.435150 
	C840.839966,373.960632 834.618713,363.734467 828.771545,353.222931 
	C829.079956,352.919342 829.202698,352.797272 829.662598,352.758606 
	C841.163696,359.184906 851.797791,366.095825 860.728638,375.608978 
	C881.586609,397.826721 902.771362,419.739197 923.962830,441.640717 
	C926.616394,444.383209 930.108765,446.313934 933.212524,448.620789 
	C931.253540,439.312561 927.963928,431.347137 922.318909,424.060272 
	C906.025146,403.027924 890.254089,381.584778 874.561523,360.095673 
	C869.249817,352.821930 865.783447,344.562378 865.134521,335.149109 
	C875.170044,333.939362 884.145630,336.757660 892.638000,341.169128 
	C898.524963,344.227234 903.986328,348.097748 909.823975,351.261902 
	C911.539795,352.191895 913.891602,351.948395 915.951965,352.242737 
	C916.047852,351.730194 916.143677,351.217621 916.239563,350.705048 
	C915.596252,349.976166 914.953003,349.247284 914.572021,348.315369 
	C915.000183,347.966400 915.166199,347.820465 915.662720,347.774139 
	C921.686401,351.165619 927.379700,354.457458 933.072937,357.749298 
	C933.476990,357.119171 933.881042,356.489075 934.285095,355.858948 
	C911.284119,337.154663 885.185852,322.117371 865.085571,298.489227 
	C867.769531,297.859009 869.986511,296.731232 872.054871,296.958069 
	C880.940857,297.932343 890.364014,297.767975 898.520874,300.851013 
	C915.725769,307.353912 932.221985,315.718262 949.093689,323.125854 
	C953.581970,325.096405 958.377502,326.367310 963.050293,328.166504 
	C963.253540,328.317749 963.438477,328.261963 963.623413,328.206177 
	C963.396423,328.160095 963.169373,328.114044 963.064819,327.730164 
	C960.672974,324.758179 958.158752,322.123993 955.473877,319.311005 
	C957.219849,318.375427 958.705200,317.579559 959.115723,317.359589 
	C949.114258,307.374664 939.139038,297.415955 929.163818,287.457214 
	C929.680237,286.766479 930.196655,286.075745 930.713074,285.384979 
	C934.933594,287.102142 939.321350,288.497528 943.347168,290.589539 
	C966.329224,302.532227 986.959656,318.036682 1007.764404,333.288330 
	C1010.465515,335.268433 1013.962952,336.162231 1017.091553,337.559143 
	C1017.336731,337.104065 1017.581848,336.648987 1017.826965,336.193909 
	C1015.020386,333.668915 1012.213745,331.143890 1009.597168,328.424011 
	C1009.909241,328.094666 1010.031189,327.960266 1010.537476,327.862976 
	C1013.135864,328.313660 1015.349854,328.727203 1017.563904,329.140747 
	C992.490845,307.409943 966.524231,287.424286 945.852722,261.776184 
	C946.057556,261.201233 946.262390,260.626251 946.467224,260.051270 
	C963.975830,263.388214 981.484497,266.725189 999.318115,270.124084 
	C999.640686,269.514343 1000.219055,268.421143 1000.947266,267.044678 
	C996.489319,264.756500 992.413757,262.664581 988.338196,260.572662 
	C988.470337,260.284393 988.602539,259.996124 988.734680,259.707855 
	C991.905334,260.045685 995.075928,260.383514 998.246582,260.721344 
	C998.471680,260.315277 998.696777,259.909210 998.921875,259.503113 
	C996.375122,257.588898 994.023499,255.309952 991.247253,253.824493 
	C980.111206,247.865860 968.845764,242.148987 957.622986,236.352783 
	C955.143311,235.072128 952.642517,233.832520 950.151428,232.574005 
	C950.272278,232.285889 950.393066,231.997772 950.513855,231.709671 
	C958.202148,233.526825 965.890442,235.343979 973.578735,237.161133 
	C973.929260,236.688751 974.279846,236.216370 974.630371,235.743988 
	C971.367249,233.274109 968.104126,230.804214 964.011169,227.706253 
	C967.916199,226.328049 969.939331,225.614044 972.541382,224.695694 
	C967.143005,221.104828 962.432251,217.991714 957.743103,214.846237 
	C953.171265,211.779419 948.621521,208.679581 942.948486,204.840622 
	C1014.281921,194.447937 1061.558960,152.159958 1098.941650,95.758980 
	C1096.598267,93.113503 1094.962524,92.782280 1092.839111,95.202759 
	C1089.988403,98.452339 1086.842285,101.454231 1083.706665,104.440399 
	C1066.284912,121.031548 1048.342285,137.036850 1025.233887,145.318405 
	C1016.678406,148.384537 1007.501160,149.716202 998.607422,151.838882 
	C998.351929,151.265503 998.096375,150.692123 997.840820,150.118744 
	C1023.073303,124.748230 1043.803589,96.174828 1059.668335,63.951199 
	C1056.031372,65.642899 1052.593384,67.548569 1049.611816,70.007668 
	C1040.490845,77.530518 1031.692261,85.447693 1022.501709,92.881973 
	C1001.702454,109.706757 979.801025,124.776390 953.696533,132.256546 
	C945.471008,134.613556 936.901672,135.770691 928.489685,137.476990 
	C928.544861,135.555161 928.913330,135.017487 929.366455,134.564468 
	C957.895264,106.043274 975.978333,70.861679 992.680542,34.847321 
	C994.112915,31.758875 993.754333,27.839878 994.227600,24.306679 
	C993.668884,24.191351 993.110107,24.076021 992.551331,23.960693 
	C991.959473,24.711710 991.355591,25.453588 990.777527,26.215103 
	C978.096008,42.920792 965.669617,59.828091 952.664368,76.277756 
	C940.641174,91.485085 926.730530,104.905205 911.294250,116.682930 
	C909.916138,117.734390 908.243774,118.400208 906.708069,119.245125 
	C925.906982,92.257240 942.152405,64.126663 953.932129,33.514339 
	C954.557556,31.889048 954.012878,29.813496 954.012878,27.947542 
	C951.748413,28.893564 950.830322,30.002851 949.932556,31.128355 
	C941.211731,42.061779 932.784119,53.245464 923.706665,63.874195 
	C910.672607,79.135765 896.124207,92.778191 878.340393,102.518532 
	C878.083496,102.146416 877.969849,102.005272 877.941956,101.535408 
	C884.365417,92.646599 891.021545,84.301071 896.967896,75.477234 
	C906.375061,61.518059 913.714722,46.563942 916.265503,29.436310 
	C912.697021,32.202003 909.182556,35.027203 906.463318,38.478825 
	C885.503052,65.084091 861.082397,88.095116 834.318481,108.732262 
	C829.230530,112.655457 823.928162,113.582344 818.035522,110.894424 
	C818.029785,110.400269 817.949768,110.133331 817.929077,109.557419 
	C822.817810,102.025887 827.844299,94.974747 832.311584,87.585518 
	C844.080627,68.118561 855.614868,48.509495 867.219421,28.943287 
	C868.680725,26.479486 869.814941,23.952019 866.395264,21.517920 
	C856.777466,33.459019 847.340088,45.291451 837.776062,57.020546 
	C826.172180,71.251289 813.999390,84.899170 797.869751,94.298096 
	C792.157532,97.626678 788.468628,97.171471 783.213806,92.303848 
	C790.175781,80.568512 797.168213,68.781906 805.107300,55.399609 
	C802.104736,56.092716 800.020386,56.125423 798.449951,57.040367 
	C796.030640,58.449917 794.073364,60.628788 791.727539,62.192398 
	C783.420715,67.729317 775.032166,73.143677 766.674622,78.604477 
	C766.330933,78.187576 765.987244,77.770676 765.643555,77.353775 
	C766.698486,75.750175 767.764038,74.153419 768.806824,72.541924 
	C780.988220,53.715794 793.219116,34.921059 805.248901,15.998507 
	C806.252319,14.420208 805.894165,11.976279 806.087280,10.539558 
	C795.686157,20.267731 785.564575,29.648287 775.543518,39.134987 
	C767.816833,46.449554 760.506470,54.232822 752.470703,61.183060 
	C745.659058,67.074486 737.822815,71.529846 728.371704,72.319580 
	C728.242737,72.203171 727.976685,71.979782 727.953735,71.614090 
	C736.571106,51.834614 747.525146,33.441944 753.477905,12.692177 
	C748.823547,17.670845 744.722961,22.996788 741.089050,28.624062 
	C734.904480,38.201130 727.754272,46.873337 718.661255,53.802940 
	C708.412842,61.613018 696.938171,66.066620 683.923462,65.953217 
	C683.955139,65.969261 684.015137,66.007240 684.001099,65.646866 
	C691.814758,49.464405 701.706665,34.610012 706.118103,16.804319 
	C703.743530,17.668444 701.694702,18.913446 700.107361,20.594299 
	C693.274902,27.829014 687.257202,36.004314 679.685730,42.333221 
	C665.326233,54.336182 648.504211,58.735641 629.914307,54.966217 
	C633.879578,46.324497 637.738831,37.913830 641.751343,29.273361 
	C641.854126,28.789391 641.803650,28.535217 641.753174,28.281038 
	C641.460449,28.477081 641.167664,28.673130 640.531494,28.923674 
	C636.148743,31.612810 632.107361,34.244392 628.070435,36.882725 
	C619.516846,42.472855 610.643188,47.159363 600.198120,48.230640 
	C592.576660,49.012318 589.800842,46.931152 589.828125,39.115963 
	C589.837708,36.369484 590.589111,33.537922 591.472656,30.903097 
	C592.737061,27.132414 594.655762,23.576580 595.848755,19.788456 
	C596.414246,17.992989 595.945862,15.871941 595.945862,13.898394 
	C595.444397,13.854788 594.942993,13.811181 594.441528,13.767575 
	C585.408020,26.518654 576.308411,39.223667 567.378235,52.046684 
	C564.399597,56.323685 560.435974,58.257858 555.264526,58.848713 
	C556.246521,48.357502 560.502686,38.453346 556.909851,27.181896 
	C546.280029,42.595188 536.357849,57.772060 516.188843,62.938229 
	C517.553162,49.570385 518.857056,36.793999 520.160950,24.017611 
	C518.081787,26.872843 516.925720,30.166716 515.567078,33.374847 
	C515.015686,34.676994 514.118835,35.871494 513.206482,36.971802 
	C512.191284,38.196140 510.577118,39.064087 509.923950,40.423607 
	C507.339508,45.803062 505.505280,51.594818 502.493866,56.703773 
	C498.934052,62.742981 492.911713,62.682621 489.645966,56.605854 
	C487.410828,52.446857 486.661591,47.514763 484.910309,43.061096 
	C483.787811,40.206425 482.050842,37.593369 480.200134,34.147324 
	C478.374878,38.920769 477.263031,42.313591 475.783234,45.537537 
	C474.691467,47.916088 472.504303,49.918945 471.887482,52.362415 
	C470.522491,57.769325 469.839355,63.348358 468.855194,68.988884 
	C448.051117,69.018898 428.002380,72.000099 408.218292,76.722061 
	C372.315002,85.291283 338.305023,99.000587 305.312744,115.336929 
	C245.866287,144.772217 191.556458,182.142670 138.966232,222.315720 
	C103.656364,249.288483 72.534760,280.868042 39.498947,310.338928 
	C37.550369,312.077209 35.047852,316.157623 35.780235,317.417511 
	C38.717583,322.470490 33.753563,322.669922 32.130791,324.848877 
	C30.874165,326.536194 29.574881,328.191711 28.294563,329.861389 
	C28.783319,330.432220 29.272078,331.003021 29.760834,331.573822 
	C32.448814,330.548981 35.351757,329.885925 37.788464,328.438171 
	C49.938381,321.219238 62.373032,314.380249 73.959152,306.330444 
	C107.432869,283.073608 140.496216,259.227051 173.832596,235.771072 
	C184.712463,228.115814 195.913483,220.914398 207.060776,213.648331 
	C207.719543,213.218933 209.444229,209.970169 210.011505,213.934952 
	C209.138596,215.140732 208.458206,216.111298 208.089661,217.188553 
	C203.554398,230.444977 201.227615,243.796478 202.672195,258.064026 
	C203.648361,267.705017 205.492554,276.965088 209.010468,285.752014 
	C217.314636,306.493896 231.594070,322.776611 249.295334,336.034515 
	C257.892548,342.473633 267.102783,348.094269 275.604675,354.169983 
	C246.412521,349.495300 217.468872,349.315887 188.518448,351.468140 
	C156.961380,353.814178 125.434166,356.120850 93.745628,355.123260 
	C79.343552,354.669861 65.279701,352.627655 51.500053,348.454285 
	C42.037388,345.588379 32.542156,342.829926 23.061478,340.023468 
	C22.741625,340.400391 22.421772,340.777313 22.101921,341.154205 
	C24.873308,343.416779 27.644697,345.679352 31.284456,348.650879 
	C28.213566,348.941864 26.661642,349.088928 23.808104,349.359344 
	C25.442760,351.679657 26.238855,353.658447 27.700169,354.730225 
	C32.792725,358.465271 38.155144,361.829437 43.343323,365.437622 
	C58.653000,376.084991 75.668800,381.583771 94.248558,382.102112 
	C120.542229,382.835693 146.841400,383.370728 173.137848,384.006165 
	C186.285675,384.323853 199.454376,384.323273 212.572754,385.130798 
	C222.102371,385.717377 231.564896,387.393494 241.900253,388.689514 
	C240.756638,391.802216 240.376602,393.970093 239.265503,395.656219 
	C235.333481,401.623230 231.591309,407.802612 226.961639,413.202209 
	C219.934036,421.398560 212.197021,428.984528 204.818024,436.882690 
	C201.910950,439.994354 197.833847,442.628601 199.385010,448.022827 
	C205.938690,443.500244 212.320023,439.096649 218.983276,434.942993 
	C219.470184,435.338043 219.675171,435.483124 219.684799,435.905914 
	C215.104568,440.501099 210.487091,444.614166 206.435379,449.224426 
	C204.481781,451.447327 203.593567,454.606537 202.222931,457.341766 
	C202.716263,457.652252 203.209595,457.962738 203.702942,458.273193 
	C206.990219,455.556305 210.304932,452.871826 213.560242,450.117096 
	C233.127090,433.559326 253.089294,417.542206 276.438995,406.474731 
	C285.987122,401.949066 295.924957,398.426361 306.723450,397.204834 
	C302.923004,419.257355 288.681458,436.205566 281.102417,456.437714 
	C283.864624,453.948456 286.626862,451.459167 289.610046,449.326904 
	C290.005493,449.902832 290.179993,450.121735 290.365356,450.507996 
	C290.376190,450.675354 290.386261,451.010590 290.145386,451.268921 
	C286.642914,456.609009 281.934082,461.146301 283.813171,468.676117 
	C288.811676,465.729248 290.911896,460.572540 294.527893,456.342804 
	C297.781189,452.553619 300.644440,448.868500 303.718567,445.368591 
	C316.115875,431.254486 329.558044,418.411316 347.603912,411.729340 
	C357.819824,407.946594 368.069550,407.643463 378.018463,412.988464 
	C381.156830,414.674591 382.828278,417.016724 382.034088,420.675232 
	C380.076508,429.692932 376.981567,438.115936 371.104645,445.516418 
	C364.074371,454.369324 357.507202,463.594360 350.873383,472.755188 
	C348.902130,475.477295 347.382111,478.526123 345.655334,481.425232 
	C345.987946,481.708344 346.320557,481.991486 346.653137,482.274597 
	C350.370514,479.521515 354.087860,476.768402 357.805237,474.015320 
	C357.947754,474.272766 358.090271,474.530182 358.232819,474.787598 
	C355.227448,480.277771 352.222076,485.767975 349.216705,491.258148 
	C349.749115,491.669403 350.281525,492.080658 350.813934,492.491913 
	C374.837036,472.124817 394.993378,446.780884 425.466553,433.017914 
	C424.880035,447.718719 424.931702,461.578003 423.524353,475.287476 
	C422.823212,482.117462 427.159332,486.892853 428.200806,493.126556 
	C437.445862,475.149445 446.690887,457.172333 455.935913,439.195190 
	C456.768402,439.453278 457.600891,439.711365 458.433380,439.969452 
	C458.198364,441.752533 458.269318,443.643738 457.682922,445.302612 
	C447.060181,475.353180 436.322235,505.363037 425.708282,535.416687 
	C423.903168,540.527893 422.557800,545.801453 421.000000,551.000000 
M927.652344,357.859406 
	C924.252991,356.249481 920.853577,354.639557 917.454163,353.029633 
	C917.172058,354.503662 917.335449,355.228363 917.786194,355.548950 
	C923.704651,359.758575 929.592468,364.020844 935.681274,367.972015 
	C936.717346,368.644348 938.658752,367.921783 940.181885,367.843658 
	C940.272949,367.345093 940.364075,366.846558 940.455139,366.347992 
	C936.406250,363.626160 932.357300,360.904327 927.652344,357.859406 
M854.515686,404.371735 
	C854.515686,404.371735 854.448364,404.430298 854.515686,404.371735 
M712.480652,504.519073 
	C712.480652,504.519073 712.558594,504.428162 712.480652,504.519073 
z"/>
<path fill="#393737" opacity="1.000000" stroke="none" 
	d="
M289.389069,448.969879 
	C286.626862,451.459167 283.864624,453.948456 281.102417,456.437714 
	C288.681458,436.205566 302.923004,419.257355 306.723450,397.204834 
	C295.924957,398.426361 285.987122,401.949066 276.438995,406.474731 
	C253.089294,417.542206 233.127090,433.559326 213.560242,450.117096 
	C210.304932,452.871826 206.990219,455.556305 203.702942,458.273193 
	C203.209595,457.962738 202.716263,457.652252 202.222931,457.341766 
	C203.593567,454.606537 204.481781,451.447327 206.435379,449.224426 
	C210.487091,444.614166 215.104568,440.501099 219.905685,435.776276 
	C220.601242,434.964752 220.880554,434.560516 221.423233,434.058624 
	C221.676926,433.701630 221.667267,433.442352 221.657593,433.183044 
	C221.306015,433.323761 220.954437,433.464508 220.325043,433.668396 
	C219.598602,434.052063 219.149979,434.372528 218.701370,434.693024 
	C212.320023,439.096649 205.938690,443.500244 199.385010,448.022827 
	C197.833847,442.628601 201.910950,439.994354 204.818024,436.882690 
	C212.197021,428.984528 219.934036,421.398560 226.961639,413.202209 
	C231.591309,407.802612 235.333481,401.623230 239.265503,395.656219 
	C240.376602,393.970093 240.756638,391.802216 241.900253,388.689514 
	C231.564896,387.393494 222.102371,385.717377 212.572754,385.130798 
	C199.454376,384.323273 186.285675,384.323853 173.137848,384.006165 
	C146.841400,383.370728 120.542229,382.835693 94.248558,382.102112 
	C75.668800,381.583771 58.653000,376.084991 43.343323,365.437622 
	C38.155144,361.829437 32.792725,358.465271 27.700169,354.730225 
	C26.238855,353.658447 25.442760,351.679657 23.808104,349.359344 
	C26.661642,349.088928 28.213566,348.941864 31.284456,348.650879 
	C27.644697,345.679352 24.873308,343.416779 22.101921,341.154205 
	C22.421772,340.777313 22.741625,340.400391 23.061478,340.023468 
	C32.542156,342.829926 42.037388,345.588379 51.500053,348.454285 
	C65.279701,352.627655 79.343552,354.669861 93.745628,355.123260 
	C125.434166,356.120850 156.961380,353.814178 188.518448,351.468140 
	C217.468872,349.315887 246.412521,349.495300 275.770569,354.442291 
	C278.082886,354.871460 279.899689,354.829102 281.498047,355.399170 
	C294.623566,360.080841 307.490387,365.629395 320.846344,369.496948 
	C361.647034,381.311737 403.069916,391.038055 445.390656,394.666107 
	C502.728668,399.581543 560.132202,400.227875 617.102905,389.048676 
	C659.841797,380.662109 701.553955,369.103058 741.219360,350.912201 
	C785.103638,330.786469 824.584106,304.346222 857.011719,268.183838 
	C868.306519,255.588165 877.914246,241.852951 882.302490,224.879593 
	C882.807129,224.183609 883.039978,223.626694 883.190918,223.086273 
	C883.109131,223.102753 883.184631,223.251617 883.487061,223.093445 
	C889.197510,214.877090 894.605530,206.818939 900.633484,197.836929 
	C893.975464,195.455612 887.528931,193.149918 881.061279,190.474503 
	C880.671448,188.419312 880.302734,186.733856 879.981689,184.659058 
	C878.097595,173.882858 872.177429,166.666595 862.860107,161.802490 
	C821.713623,140.321991 778.999756,122.876068 733.606812,111.165245 
	C730.064575,110.211861 726.930176,109.230667 723.730286,108.564560 
	C713.177368,106.367851 702.600830,104.285141 691.645996,102.039963 
	C684.131592,100.784637 677.004456,99.648003 670.578857,98.623245 
	C672.164001,103.156868 673.506958,106.997841 674.657166,110.887405 
	C674.464417,110.935997 674.069824,110.887978 673.899109,110.593811 
	C657.695862,100.760727 640.496582,93.751556 621.848633,93.272400 
	C597.677673,92.651337 573.316284,91.030624 549.340332,96.081604 
	C537.720703,98.529488 525.901245,100.667671 515.637451,108.066711 
	C502.439575,113.799515 489.169708,118.737747 479.002563,128.690674 
	C479.194641,127.529503 479.355316,126.731583 479.620331,125.969963 
	C482.106812,118.823723 488.689026,115.964935 494.596344,112.063416 
	C502.872681,107.506897 510.796600,102.918221 518.720520,98.329536 
	C518.516113,97.722603 518.311707,97.115669 518.107300,96.508736 
	C512.790466,97.079468 507.473572,97.650200 501.897217,97.876595 
	C500.007050,97.355789 498.344604,96.882462 496.750946,97.052696 
	C488.544830,97.929283 480.358368,98.988228 472.161377,99.951889 
	C448.165863,102.772842 424.491852,107.190018 401.185516,113.647408 
	C397.885040,114.561852 396.654266,115.830612 396.645203,118.985382 
	C395.928802,118.975128 395.519714,118.956413 395.006775,118.541946 
	C393.736298,117.765846 392.573151,117.066948 391.402435,117.054054 
	C378.581879,116.912895 367.606781,121.154366 359.009949,130.596375 
	C355.596954,129.336014 351.670837,126.881187 348.955719,127.843437 
	C336.127075,132.389984 323.629639,137.871185 310.654053,143.058334 
	C286.937500,155.070969 263.457977,166.813141 240.284546,179.131088 
	C230.922546,184.107513 222.622879,190.751892 217.292130,200.854034 
	C218.500290,200.913361 219.313293,200.953293 220.055023,201.330994 
	C216.772171,205.695618 213.560547,209.722458 210.348938,213.749298 
	C209.444229,209.970169 207.719543,213.218933 207.060776,213.648331 
	C195.913483,220.914398 184.712463,228.115814 173.832596,235.771072 
	C140.496216,259.227051 107.432869,283.073608 73.959152,306.330444 
	C62.373032,314.380249 49.938381,321.219238 37.788464,328.438171 
	C35.351757,329.885925 32.448814,330.548981 29.760834,331.573822 
	C29.272078,331.003021 28.783319,330.432220 28.294563,329.861389 
	C29.574881,328.191711 30.874165,326.536194 32.130791,324.848877 
	C33.753563,322.669922 38.717583,322.470490 35.780235,317.417511 
	C35.047852,316.157623 37.550369,312.077209 39.498947,310.338928 
	C72.534760,280.868042 103.656364,249.288483 138.966232,222.315720 
	C191.556458,182.142670 245.866287,144.772217 305.312744,115.336929 
	C338.305023,99.000587 372.315002,85.291283 408.218292,76.722061 
	C428.002380,72.000099 448.051117,69.018898 468.855194,68.988884 
	C469.839355,63.348358 470.522491,57.769325 471.887482,52.362415 
	C472.504303,49.918945 474.691467,47.916088 475.783234,45.537537 
	C477.263031,42.313591 478.374878,38.920769 480.200134,34.147324 
	C482.050842,37.593369 483.787811,40.206425 484.910309,43.061096 
	C486.661591,47.514763 487.410828,52.446857 489.645966,56.605854 
	C492.911713,62.682621 498.934052,62.742981 502.493866,56.703773 
	C505.505280,51.594818 507.339508,45.803062 509.923950,40.423607 
	C510.577118,39.064087 512.191284,38.196140 513.206482,36.971802 
	C514.118835,35.871494 515.015686,34.676994 515.567078,33.374847 
	C516.925720,30.166716 518.081787,26.872843 520.160950,24.017611 
	C518.857056,36.793999 517.553162,49.570385 516.188843,62.938229 
	C536.357849,57.772060 546.280029,42.595188 556.909851,27.181896 
	C560.502686,38.453346 556.246521,48.357502 555.264526,58.848713 
	C560.435974,58.257858 564.399597,56.323685 567.378235,52.046684 
	C576.308411,39.223667 585.408020,26.518654 594.441528,13.767575 
	C594.942993,13.811181 595.444397,13.854788 595.945862,13.898394 
	C595.945862,15.871941 596.414246,17.992989 595.848755,19.788456 
	C594.655762,23.576580 592.737061,27.132414 591.472656,30.903097 
	C590.589111,33.537922 589.837708,36.369484 589.828125,39.115963 
	C589.800842,46.931152 592.576660,49.012318 600.198120,48.230640 
	C610.643188,47.159363 619.516846,42.472855 628.070435,36.882725 
	C632.107361,34.244392 636.148743,31.612810 640.705322,29.090069 
	C641.222595,29.201965 641.598083,29.503160 641.598083,29.503159 
	C637.738831,37.913830 633.879578,46.324497 629.914307,54.966217 
	C648.504211,58.735641 665.326233,54.336182 679.685730,42.333221 
	C687.257202,36.004314 693.274902,27.829014 700.107361,20.594299 
	C701.694702,18.913446 703.743530,17.668444 706.118103,16.804319 
	C701.706665,34.610012 691.814758,49.464405 683.809448,65.738861 
	C683.743713,66.331825 683.855591,66.472412 683.967407,66.613007 
	C683.942200,66.387733 683.916992,66.162453 683.891846,65.937164 
	C696.938171,66.066620 708.412842,61.613018 718.661255,53.802940 
	C727.754272,46.873337 734.904480,38.201130 741.089050,28.624062 
	C744.722961,22.996788 748.823547,17.670845 753.477905,12.692177 
	C747.525146,33.441944 736.571106,51.834614 727.745728,71.672264 
	C727.873962,72.209419 728.187317,72.322708 728.500610,72.435989 
	C737.822815,71.529846 745.659058,67.074486 752.470703,61.183060 
	C760.506470,54.232822 767.816833,46.449554 775.543518,39.134987 
	C785.564575,29.648287 795.686157,20.267731 806.087280,10.539558 
	C805.894165,11.976279 806.252319,14.420208 805.248901,15.998507 
	C793.219116,34.921059 780.988220,53.715794 768.806824,72.541924 
	C767.764038,74.153419 766.698486,75.750175 765.643555,77.353775 
	C765.987244,77.770676 766.330933,78.187576 766.674622,78.604477 
	C775.032166,73.143677 783.420715,67.729317 791.727539,62.192398 
	C794.073364,60.628788 796.030640,58.449917 798.449951,57.040367 
	C800.020386,56.125423 802.104736,56.092716 805.107300,55.399609 
	C797.168213,68.781906 790.175781,80.568512 783.213806,92.303848 
	C788.468628,97.171471 792.157532,97.626678 797.869751,94.298096 
	C813.999390,84.899170 826.172180,71.251289 837.776062,57.020546 
	C847.340088,45.291451 856.777466,33.459019 866.395264,21.517920 
	C869.814941,23.952019 868.680725,26.479486 867.219421,28.943287 
	C855.614868,48.509495 844.080627,68.118561 832.311584,87.585518 
	C827.844299,94.974747 822.817810,102.025887 817.622437,109.734528 
	C814.593079,109.977608 811.987610,109.717293 808.807129,109.399521 
	C807.673950,112.274902 806.439148,115.408356 804.875488,119.376183 
	C811.270081,118.121063 817.248047,120.846733 822.814819,117.367661 
	C820.957153,114.941589 819.487976,113.022942 818.018860,111.104294 
	C823.928162,113.582344 829.230530,112.655457 834.318481,108.732262 
	C861.082397,88.095116 885.503052,65.084091 906.463318,38.478825 
	C909.182556,35.027203 912.697021,32.202003 916.265503,29.436310 
	C913.714722,46.563942 906.375061,61.518059 896.967896,75.477234 
	C891.021545,84.301071 884.365417,92.646599 877.666321,101.662399 
	C877.285095,102.410820 877.265259,102.703522 877.245361,102.996231 
	C877.658142,102.913979 878.070862,102.831741 878.483643,102.749512 
	C896.124207,92.778191 910.672607,79.135765 923.706665,63.874195 
	C932.784119,53.245464 941.211731,42.061779 949.932556,31.128355 
	C950.830322,30.002851 951.748413,28.893564 954.012878,27.947542 
	C954.012878,29.813496 954.557556,31.889048 953.932129,33.514339 
	C942.152405,64.126663 925.906982,92.257240 906.708069,119.245125 
	C908.243774,118.400208 909.916138,117.734390 911.294250,116.682930 
	C926.730530,104.905205 940.641174,91.485085 952.664368,76.277756 
	C965.669617,59.828091 978.096008,42.920792 990.777527,26.215103 
	C991.355591,25.453588 991.959473,24.711710 992.551331,23.960693 
	C993.110107,24.076021 993.668884,24.191351 994.227600,24.306679 
	C993.754333,27.839878 994.112915,31.758875 992.680542,34.847321 
	C975.978333,70.861679 957.895264,106.043274 929.366455,134.564468 
	C928.913330,135.017487 928.544861,135.555161 928.489685,137.476990 
	C936.901672,135.770691 945.471008,134.613556 953.696533,132.256546 
	C979.801025,124.776390 1001.702454,109.706757 1022.501709,92.881973 
	C1031.692261,85.447693 1040.490845,77.530518 1049.611816,70.007668 
	C1052.593384,67.548569 1056.031372,65.642899 1059.668335,63.951199 
	C1043.803589,96.174828 1023.073303,124.748230 997.840820,150.118744 
	C998.096375,150.692123 998.351929,151.265503 998.607422,151.838882 
	C1007.501160,149.716202 1016.678406,148.384537 1025.233887,145.318405 
	C1048.342285,137.036850 1066.284912,121.031548 1083.706665,104.440399 
	C1086.842285,101.454231 1089.988403,98.452339 1092.839111,95.202759 
	C1094.962524,92.782280 1096.598267,93.113503 1098.941650,95.758980 
	C1061.558960,152.159958 1014.281921,194.447937 942.948486,204.840622 
	C948.621521,208.679581 953.171265,211.779419 957.743103,214.846237 
	C962.432251,217.991714 967.143005,221.104828 972.541382,224.695694 
	C969.939331,225.614044 967.916199,226.328049 964.011169,227.706253 
	C968.104126,230.804214 971.367249,233.274109 974.630371,235.743988 
	C974.279846,236.216370 973.929260,236.688751 973.578735,237.161133 
	C965.890442,235.343979 958.202148,233.526825 950.513855,231.709671 
	C950.393066,231.997772 950.272278,232.285889 950.151428,232.574005 
	C952.642517,233.832520 955.143311,235.072128 957.622986,236.352783 
	C968.845764,242.148987 980.111206,247.865860 991.247253,253.824493 
	C994.023499,255.309952 996.375122,257.588898 998.921875,259.503113 
	C998.696777,259.909210 998.471680,260.315277 998.246582,260.721344 
	C995.075928,260.383514 991.905334,260.045685 988.734680,259.707855 
	C988.602539,259.996124 988.470337,260.284393 988.338196,260.572662 
	C992.413757,262.664581 996.489319,264.756500 1000.947266,267.044678 
	C1000.219055,268.421143 999.640686,269.514343 999.318115,270.124084 
	C981.484497,266.725189 963.975830,263.388214 946.467224,260.051270 
	C946.262390,260.626251 946.057556,261.201233 945.852722,261.776184 
	C966.524231,287.424286 992.490845,307.409943 1017.563904,329.140747 
	C1015.349854,328.727203 1013.135864,328.313660 1010.352539,327.596069 
	C1009.002075,327.292023 1008.220886,327.292023 1006.864868,327.292023 
	C1008.086426,327.929596 1008.746765,328.274231 1009.407104,328.618896 
	C1012.213745,331.143890 1015.020386,333.668915 1017.826965,336.193909 
	C1017.581848,336.648987 1017.336731,337.104065 1017.091553,337.559143 
	C1013.962952,336.162231 1010.465515,335.268433 1007.764404,333.288330 
	C986.959656,318.036682 966.329224,302.532227 943.347168,290.589539 
	C939.321350,288.497528 934.933594,287.102142 930.713074,285.384979 
	C930.196655,286.075745 929.680237,286.766479 929.163818,287.457214 
	C939.139038,297.415955 949.114258,307.374664 959.115723,317.359589 
	C958.705200,317.579559 957.219849,318.375427 955.473877,319.311005 
	C958.158752,322.123993 960.672974,324.758179 963.086792,327.702698 
	C962.986389,328.013031 963.031921,327.959442 963.031921,327.959473 
	C958.377502,326.367310 953.581970,325.096405 949.093689,323.125854 
	C932.221985,315.718262 915.725769,307.353912 898.520874,300.851013 
	C890.364014,297.767975 880.940857,297.932343 872.054871,296.958069 
	C869.986511,296.731232 867.769531,297.859009 865.085571,298.489227 
	C885.185852,322.117371 911.284119,337.154663 934.285095,355.858948 
	C933.881042,356.489075 933.476990,357.119171 933.072937,357.749298 
	C927.379700,354.457458 921.686401,351.165619 915.533630,347.544800 
	C914.744995,347.115662 914.415833,347.015503 913.930481,346.631378 
	C913.205505,346.300385 912.636780,346.253357 911.394592,346.150635 
	C912.486450,347.004822 912.992432,347.400665 913.606628,347.944855 
	C913.878662,348.283142 914.076965,348.424866 914.309753,348.518372 
	C914.953003,349.247284 915.596252,349.976166 916.239563,350.705048 
	C916.143677,351.217621 916.047852,351.730194 915.951965,352.242737 
	C913.891602,351.948395 911.539795,352.191895 909.823975,351.261902 
	C903.986328,348.097748 898.524963,344.227234 892.638000,341.169128 
	C884.145630,336.757660 875.170044,333.939362 865.134521,335.149109 
	C865.783447,344.562378 869.249817,352.821930 874.561523,360.095673 
	C890.254089,381.584778 906.025146,403.027924 922.318909,424.060272 
	C927.963928,431.347137 931.253540,439.312561 933.212524,448.620789 
	C930.108765,446.313934 926.616394,444.383209 923.962830,441.640717 
	C902.771362,419.739197 881.586609,397.826721 860.728638,375.608978 
	C851.797791,366.095825 841.163696,359.184906 829.497925,352.521667 
	C828.726562,352.231567 828.457275,352.261719 828.187927,352.291870 
	C828.320557,352.662750 828.453247,353.033630 828.585938,353.404480 
	C834.618713,363.734467 840.839966,373.960632 846.610413,384.435150 
	C849.829041,390.277588 852.298340,396.532898 855.105347,402.602142 
	C854.526733,402.976349 853.948059,403.350555 853.369446,403.724762 
	C845.894104,396.953857 837.902893,390.661713 831.068542,383.296082 
	C821.626892,373.120361 810.219910,367.029175 796.505005,363.554352 
	C795.816101,363.739380 795.638000,364.110016 795.459839,364.480652 
	C797.519104,378.515259 803.144897,391.313690 809.785461,403.606567 
	C824.244568,430.373047 839.197937,456.872314 853.716736,483.607086 
	C857.173218,489.971863 859.714966,496.833374 862.844177,503.839661 
	C857.570801,503.095703 855.688171,501.574707 852.455139,496.596436 
	C843.302490,482.502930 834.082886,468.452728 824.871216,454.397583 
	C808.984558,430.157776 785.863831,413.739624 763.173645,396.728363 
	C756.490295,391.717682 749.558411,389.611664 741.210266,389.352356 
	C746.308533,402.070190 751.644897,414.528687 756.318420,427.231049 
	C764.229065,448.731750 772.061768,470.273804 779.255737,492.020569 
	C783.309814,504.275665 781.239807,516.755859 777.443115,528.852661 
	C776.942810,530.446960 775.158325,531.638184 773.968628,533.016113 
	C773.411621,532.945862 772.854614,532.875610 772.297668,532.805359 
	C769.537170,520.699524 766.481323,508.651947 764.082703,496.474884 
	C760.080017,476.155518 755.159241,456.303558 743.792603,438.497955 
	C732.590088,420.949402 716.845154,411.905151 696.232117,411.053223 
	C690.044250,410.797485 686.430725,413.785767 685.723022,419.824371 
	C684.406433,431.057678 687.072937,441.714081 691.469543,451.884308 
	C695.554138,461.332611 700.553101,470.386108 704.622498,479.840240 
	C707.812073,487.250397 710.196533,495.007019 712.938599,502.609741 
	C712.380554,502.929626 711.822449,503.249542 711.264343,503.569458 
	C708.486755,500.210846 705.472595,497.018463 702.974487,493.463470 
	C694.269409,481.075775 686.101685,468.294647 677.047546,456.172546 
	C668.016785,444.081696 657.062866,433.851776 643.666931,426.526672 
	C641.961121,425.593933 640.245178,424.679871 637.375244,423.132385 
	C638.467896,425.713287 639.026550,427.160431 639.682129,428.562286 
	C651.872925,454.629395 664.057739,480.780396 670.114807,509.065155 
	C672.987793,522.480957 673.556641,536.390198 675.084717,550.537964 
	C671.638733,551.000000 668.277405,551.000000 664.412476,550.580322 
	C663.613464,547.680420 663.305054,545.201538 663.024658,542.719543 
	C659.450317,511.082428 648.729492,482.316193 628.403381,457.523163 
	C622.893616,450.802551 617.285278,444.030029 608.970459,439.408356 
	C610.260315,469.847229 607.449829,499.229340 599.971619,528.120667 
	C597.996582,535.751099 595.991394,543.373779 594.000000,551.000000 
	C588.977905,551.000000 583.955811,551.000000 578.566772,550.611267 
	C583.501831,520.646790 587.126099,490.889832 585.657166,460.799225 
	C585.318970,453.871063 582.968445,446.834778 580.441589,440.272736 
	C577.385193,432.335358 570.572021,430.088898 562.457825,431.169189 
	C559.326294,431.586121 556.173889,431.942566 553.020386,432.074768 
	C548.700623,432.255859 545.866577,433.643372 545.857727,438.631470 
	C545.823547,457.935730 545.539490,477.240295 545.620667,496.543610 
	C545.654663,504.640900 546.367126,512.735352 546.771118,520.831116 
	C544.513855,517.596313 542.924927,514.280640 542.031128,510.787079 
	C539.229736,499.836823 536.059387,488.924957 534.200928,477.802856 
	C531.589172,462.173370 524.420227,448.957550 514.964783,436.691162 
	C511.799652,432.585022 506.138458,431.781647 504.114044,434.906738 
	C499.778625,441.599274 495.104401,448.085327 491.020416,454.925507 
	C471.929626,486.900177 452.992249,518.966492 434.000000,551.000000 
	C429.975464,551.000000 425.950897,551.000000 421.463196,551.000000 
	C422.557800,545.801453 423.903168,540.527893 425.708282,535.416687 
	C436.322235,505.363037 447.060181,475.353180 457.682922,445.302612 
	C458.269318,443.643738 458.198364,441.752533 458.433380,439.969452 
	C457.600891,439.711365 456.768402,439.453278 455.935913,439.195190 
	C446.690887,457.172333 437.445862,475.149445 428.200806,493.126556 
	C427.159332,486.892853 422.823212,482.117462 423.524353,475.287476 
	C424.931702,461.578003 424.880035,447.718719 425.466553,433.017914 
	C394.993378,446.780884 374.837036,472.124817 350.813934,492.491913 
	C350.281525,492.080658 349.749115,491.669403 349.216705,491.258148 
	C352.222076,485.767975 355.227448,480.277771 358.232819,474.787598 
	C358.090271,474.530182 357.947754,474.272766 357.805237,474.015320 
	C354.087860,476.768402 350.370514,479.521515 346.653137,482.274597 
	C346.320557,481.991486 345.987946,481.708344 345.655334,481.425232 
	C347.382111,478.526123 348.902130,475.477295 350.873383,472.755188 
	C357.507202,463.594360 364.074371,454.369324 371.104645,445.516418 
	C376.981567,438.115936 380.076508,429.692932 382.034088,420.675232 
	C382.828278,417.016724 381.156830,414.674591 378.018463,412.988464 
	C368.069550,407.643463 357.819824,407.946594 347.603912,411.729340 
	C329.558044,418.411316 316.115875,431.254486 303.718567,445.368591 
	C300.644440,448.868500 297.781189,452.553619 294.469849,455.939758 
	C294.257751,454.311401 294.396759,452.896851 294.559509,451.240692 
	C292.969818,451.153046 291.678040,451.081818 290.386261,451.010590 
	C290.386261,451.010590 290.376190,450.675354 290.607513,450.345276 
	C291.127502,449.510376 291.416199,449.005524 291.912994,448.204468 
	C291.984619,447.518158 291.848145,447.128082 291.711639,446.738007 
	C291.376495,447.061157 291.041382,447.384338 290.475616,447.776367 
	C289.959686,448.220123 289.674377,448.595001 289.389069,448.969879 
M359.858368,473.226746 
	C359.707733,472.881348 359.557098,472.535950 359.406464,472.190552 
	C359.213806,472.404510 359.021149,472.618469 358.143921,473.110382 
	C358.140045,473.470917 358.136200,473.831421 358.132324,474.191956 
	C358.592255,474.030914 359.052216,473.869843 359.858368,473.226746 
z"/>
<path fill="#FEFEFE" opacity="1.000000" stroke="none" 
	d="
M434.468689,551.000000 
	C452.992249,518.966492 471.929626,486.900177 491.020416,454.925507 
	C495.104401,448.085327 499.778625,441.599274 504.114044,434.906738 
	C506.138458,431.781647 511.799652,432.585022 514.964783,436.691162 
	C524.420227,448.957550 531.589172,462.173370 534.200928,477.802856 
	C536.059387,488.924957 539.229736,499.836823 542.031128,510.787079 
	C542.924927,514.280640 544.513855,517.596313 546.771118,520.831116 
	C546.367126,512.735352 545.654663,504.640900 545.620667,496.543610 
	C545.539490,477.240295 545.823547,457.935730 545.857727,438.631470 
	C545.866577,433.643372 548.700623,432.255859 553.020386,432.074768 
	C556.173889,431.942566 559.326294,431.586121 562.457825,431.169189 
	C570.572021,430.088898 577.385193,432.335358 580.441589,440.272736 
	C582.968445,446.834778 585.318970,453.871063 585.657166,460.799225 
	C587.126099,490.889832 583.501831,520.646790 578.099915,550.611267 
	C530.312439,551.000000 482.624878,551.000000 434.468689,551.000000 
z"/>
<path fill="#FEFEFE" opacity="1.000000" stroke="none" 
	d="
M594.468628,551.000000 
	C595.991394,543.373779 597.996582,535.751099 599.971619,528.120667 
	C607.449829,499.229340 610.260315,469.847229 608.970459,439.408356 
	C617.285278,444.030029 622.893616,450.802551 628.403381,457.523163 
	C648.729492,482.316193 659.450317,511.082428 663.024658,542.719543 
	C663.305054,545.201538 663.613464,547.680420 663.954468,550.580322 
	C640.979126,551.000000 617.958191,551.000000 594.468628,551.000000 
z"/>
<path fill="#C2E4F8" opacity="1.000000" stroke="none" 
	d="
M210.011505,213.934937 
	C213.560547,209.722458 216.772171,205.695618 220.436707,201.368011 
	C223.193069,200.213638 225.676224,199.667603 227.765228,198.446991 
	C233.351273,195.183136 238.720184,191.550308 244.260941,188.205811 
	C264.325958,176.094116 285.060120,165.308105 306.964935,157.317627 
	C306.987671,172.460724 306.749695,187.124817 307.102295,201.774704 
	C307.276672,209.018692 307.794159,216.410431 309.433960,223.437195 
	C318.402649,261.869019 335.983917,295.296783 366.079803,321.794952 
	C386.277802,339.578430 407.874939,354.912262 432.540588,365.787842 
	C452.994080,374.806152 474.190552,381.354736 496.553528,382.843109 
	C512.454590,383.901398 528.452759,384.159851 544.387390,383.821960 
	C554.916992,383.598724 565.600830,382.568024 575.882507,380.352875 
	C600.152954,375.123962 623.372925,366.648468 645.058899,354.413513 
	C662.020142,344.844208 677.739380,333.573761 691.731689,319.881714 
	C704.171326,307.709045 715.140381,294.429901 722.898010,278.869141 
	C728.883179,266.863678 734.286438,254.506439 739.023621,241.956543 
	C744.599915,227.183640 748.055054,211.786240 747.998413,195.864700 
	C747.955566,183.829224 747.998718,171.746567 746.955444,159.776260 
	C746.113159,150.112488 743.705750,140.585144 742.384094,130.995392 
	C777.475403,140.990356 810.827393,154.449142 843.311157,170.137817 
	C853.632996,175.122971 863.913208,180.198639 874.325195,184.988022 
	C875.875916,185.701324 878.048889,185.061966 879.933960,185.048386 
	C880.302734,186.733856 880.671448,188.419312 881.084900,190.888458 
	C881.423279,193.289429 881.897461,194.897522 881.980530,196.525589 
	C882.434875,205.431564 882.793274,214.342438 883.184631,223.251617 
	C883.184631,223.251617 883.109131,223.102753 882.894897,223.201691 
	C882.464050,223.873322 882.247437,224.445984 882.030762,225.018646 
	C877.914246,241.852951 868.306519,255.588165 857.011719,268.183838 
	C824.584106,304.346222 785.103638,330.786469 741.219360,350.912201 
	C701.553955,369.103058 659.841797,380.662109 617.102905,389.048676 
	C560.132202,400.227875 502.728668,399.581543 445.390656,394.666107 
	C403.069916,391.038055 361.647034,381.311737 320.846344,369.496948 
	C307.490387,365.629395 294.623566,360.080841 281.498047,355.399170 
	C279.899689,354.829102 278.082886,354.871460 276.201416,354.357727 
	C267.102783,348.094269 257.892548,342.473633 249.295334,336.034515 
	C231.594070,322.776611 217.314636,306.493896 209.010468,285.752014 
	C205.492554,276.965088 203.648361,267.705017 202.672195,258.064026 
	C201.227615,243.796478 203.554398,230.444977 208.089661,217.188553 
	C208.458206,216.111298 209.138596,215.140732 210.011505,213.934937 
z"/>
<path fill="#A5C0CF" opacity="1.000000" stroke="none" 
	d="
M818.035522,110.894417 
	C819.487976,113.022942 820.957153,114.941589 822.814819,117.367661 
	C817.248047,120.846733 811.270081,118.121063 804.875488,119.376183 
	C806.439148,115.408356 807.673950,112.274902 808.807129,109.399521 
	C811.987610,109.717293 814.593079,109.977608 817.505249,110.060822 
	C817.949768,110.133331 818.029785,110.400269 818.035522,110.894417 
z"/>
<path fill="#373131" opacity="1.000000" stroke="none" 
	d="
M290.145386,451.268921 
	C291.678040,451.081818 292.969818,451.153046 294.559509,451.240692 
	C294.396759,452.896851 294.257751,454.311401 294.176758,456.129028 
	C290.911896,460.572540 288.811676,465.729248 283.813171,468.676117 
	C281.934082,461.146301 286.642914,456.609009 290.145386,451.268921 
z"/>
<path fill="#3C3B3B" opacity="1.000000" stroke="none" 
	d="
M927.980347,358.020935 
	C932.357300,360.904327 936.406250,363.626160 940.455139,366.347992 
	C940.364075,366.846558 940.272949,367.345093 940.181885,367.843658 
	C938.658752,367.921783 936.717346,368.644348 935.681274,367.972015 
	C929.592468,364.020844 923.704651,359.758575 917.786194,355.548950 
	C917.335449,355.228363 917.172058,354.503662 917.454163,353.029633 
	C920.853577,354.639557 924.252991,356.249481 927.980347,358.020935 
z"/>
<path fill="#393737" opacity="1.000000" stroke="none" 
	d="
M854.482056,404.401001 
	C854.448364,404.430298 854.515686,404.371735 854.482056,404.401001 
z"/>
<path fill="#393737" opacity="1.000000" stroke="none" 
	d="
M712.519653,504.473633 
	C712.558594,504.428162 712.480652,504.519073 712.519653,504.473633 
z"/>
<path fill="#393737" opacity="1.000000" stroke="none" 
	d="
M962.964355,328.040497 
	C963.169373,328.114044 963.396423,328.160095 963.623413,328.206177 
	C963.438477,328.261963 963.253540,328.317749 963.050293,328.166473 
	C963.031921,327.959442 962.986389,328.013031 962.964355,328.040497 
z"/>
<path fill="#393737" opacity="1.000000" stroke="none" 
	d="
M641.048706,29.035572 
	C641.167664,28.673130 641.460449,28.477081 641.753174,28.281038 
	C641.803650,28.535217 641.854126,28.789391 641.751343,29.273361 
	C641.598083,29.503160 641.222595,29.201965 641.048706,29.035572 
z"/>
<path fill="#F7F9FB" opacity="1.000000" stroke="none" 
	d="
M494.243958,112.031250 
	C488.689026,115.964935 482.106812,118.823723 479.620331,125.969963 
	C479.355316,126.731583 479.194641,127.529503 478.785339,129.019165 
	C478.204010,132.008881 477.922485,134.312103 477.422272,136.566818 
	C476.186615,142.136276 477.305267,146.461456 482.738190,149.478928 
	C486.046692,151.316498 488.760559,154.194748 491.869110,156.427963 
	C500.346924,162.518631 508.321899,169.464737 520.103699,173.184631 
	C515.430298,156.875488 511.037018,141.543961 506.643738,126.212440 
	C508.023193,127.235603 508.880341,128.532013 509.580231,129.908401 
	C514.107849,138.812057 518.572510,147.747818 523.118774,156.641876 
	C525.169617,160.654160 527.701599,164.160126 532.919250,164.598770 
	C533.608582,149.920425 534.283630,135.547821 534.958618,121.175232 
	C535.201172,121.145584 535.443665,121.115936 535.686157,121.086288 
	C540.099243,134.207336 544.512329,147.328400 548.925415,160.449448 
	C549.784790,161.059326 550.644104,161.669189 551.503418,162.279053 
	C552.332886,160.440186 553.181946,158.609863 553.987366,156.760544 
	C555.316345,153.709106 556.667480,150.665894 557.920410,147.583115 
	C562.077881,137.353424 566.195679,127.107613 570.328735,116.867989 
	C570.562073,116.928932 570.795349,116.989876 571.028687,117.050819 
	C571.700195,133.233612 572.371704,149.416397 573.080444,166.496429 
	C585.621643,155.762589 592.120544,141.559601 602.120117,128.634323 
	C597.344849,145.888123 592.904236,161.932617 588.463684,177.977112 
	C588.936401,178.226166 589.409119,178.475235 589.881836,178.724304 
	C602.798096,170.230850 615.714355,161.737396 628.630615,153.243927 
	C628.988403,153.557465 629.346191,153.870987 629.704041,154.184509 
	C620.743652,167.495865 611.783325,180.807205 602.526550,194.558868 
	C604.203918,194.857315 604.582092,195.054108 604.846313,194.953049 
	C618.619507,189.685013 632.452332,184.557449 646.051270,178.870804 
	C647.582458,178.230499 648.291321,174.452499 648.463867,172.063263 
	C648.637451,169.660004 647.370728,167.188965 647.245117,164.721649 
	C646.655518,153.139069 645.860046,154.704620 655.418335,151.772751 
	C657.804626,151.040802 660.312744,150.609848 662.577881,149.614853 
	C663.941589,149.015823 665.557739,147.809479 666.012512,146.509430 
	C669.794250,135.698746 673.331787,124.802620 677.219971,114.171494 
	C677.840027,115.314171 678.183167,116.217651 678.397339,117.504074 
	C675.596497,126.450928 673.023621,135.047546 670.211182,143.565063 
	C668.795776,147.851593 668.674316,152.004517 671.952393,155.212982 
	C676.142273,159.313904 676.104858,163.961273 674.643921,169.130615 
	C670.871094,170.509018 667.444885,171.785721 663.708252,173.021423 
	C662.695129,173.344452 661.992554,173.708496 661.203369,174.045166 
	C661.116821,174.017776 661.070129,174.193268 660.736633,174.235870 
	C656.904541,178.163223 653.406006,182.048004 649.627075,186.111084 
	C643.438843,193.916214 637.530945,201.543030 631.397766,209.497437 
	C630.806641,210.786484 630.440796,211.747971 629.977966,212.964157 
	C637.030273,213.645828 643.601746,214.281021 650.909973,214.987427 
	C638.350281,219.831833 624.596130,217.997742 613.953247,226.791138 
	C638.216431,232.578140 660.141602,243.052658 680.961792,256.086639 
	C680.136719,258.436646 679.466797,260.426605 678.469604,262.294739 
	C670.146851,257.425140 662.151367,252.677322 653.929016,247.670319 
	C653.042786,247.261536 652.383362,247.111969 651.698364,246.899841 
	C651.672791,246.837280 651.537903,246.829025 651.261597,246.545868 
	C636.625610,241.480484 621.871277,243.650757 606.920471,243.691635 
	C618.950684,255.212738 631.275391,266.077850 640.922485,279.556091 
	C639.299622,279.388184 637.942261,278.880127 636.606079,278.321411 
	C626.161865,273.954620 615.776184,269.439545 605.243958,265.296967 
	C602.426453,264.188812 599.165039,264.209137 594.752258,263.490784 
	C602.372375,278.296112 612.694153,289.376434 617.368286,303.747559 
	C604.481567,293.963409 591.594910,284.179260 578.708191,274.395111 
	C578.355408,274.672668 578.002563,274.950226 577.649719,275.227783 
	C581.184875,289.950897 584.719971,304.674011 588.255127,319.397095 
	C580.536438,306.973450 576.329712,292.609192 565.025574,281.067566 
	C563.652527,299.085480 562.389160,315.664307 561.024536,333.571594 
	C554.302917,315.785187 552.613708,297.647461 543.026733,281.067413 
	C536.951843,297.157013 531.356506,311.976501 525.296997,328.025543 
	C526.023254,310.536346 526.689270,294.498840 527.355347,278.461365 
	C526.654663,278.163300 525.953979,277.865234 525.253357,277.567169 
	C515.113159,291.725983 504.972961,305.884796 494.832794,320.043610 
	C494.624786,319.907959 494.416779,319.772308 494.208771,319.636627 
	C497.092468,306.382690 499.976166,293.128723 503.018066,279.581848 
	C503.708893,276.880463 504.241516,274.471954 505.057739,270.781097 
	C502.749451,272.043335 501.797424,272.322327 501.179626,272.937134 
	C486.804840,287.242340 475.164276,303.363098 468.564392,322.746460 
	C467.783051,325.041260 467.658112,327.559570 467.219604,330.322632 
	C469.470886,333.792786 471.731415,336.914612 473.763153,340.302460 
	C471.504883,340.113586 469.376556,339.909149 467.465302,339.154724 
	C462.558228,337.217804 457.747467,335.036804 452.841980,332.709015 
	C452.513885,332.292633 452.242035,332.120544 451.976044,331.982758 
	C451.981873,332.017059 452.051361,332.013123 452.035889,331.659393 
	C449.751801,327.425812 447.483215,323.545929 445.173828,319.303162 
	C442.769684,313.267487 440.406372,307.594727 438.016479,301.558716 
	C435.246582,293.820526 432.144043,287.019379 422.486206,286.979645 
	C414.068512,286.945007 405.593933,286.545837 402.851593,275.649963 
	C402.952332,271.351501 402.591797,267.461731 403.167175,263.715698 
	C403.567139,261.111420 404.577148,257.470123 406.483337,256.426239 
	C414.175598,252.213776 416.066528,245.685608 416.180939,237.676865 
	C416.417908,221.091370 414.970428,204.330658 420.620056,188.203171 
	C420.927094,187.326675 420.107666,186.055573 420.210083,184.848724 
	C419.817871,181.142044 419.514954,177.353058 418.130524,174.012268 
	C415.741180,168.246490 412.679688,162.759232 410.049133,156.862610 
	C411.094421,156.058014 411.990845,155.545898 413.044189,155.343750 
	C416.861023,161.268600 420.520905,166.883484 424.397888,172.831421 
	C430.111786,164.884308 435.203674,157.780762 440.319336,150.694397 
	C444.167084,145.364365 445.701874,139.454987 445.306549,132.888458 
	C444.798065,124.442200 448.561005,120.011482 456.976807,120.092010 
	C464.966461,120.168465 471.901215,118.089294 477.979736,112.979912 
	C477.996826,113.001144 477.969574,112.956139 478.267944,112.943359 
	C478.865082,112.683456 479.163818,112.436340 479.754242,112.142334 
	C480.585327,111.861191 481.124756,111.626923 482.131592,111.548988 
	C486.480682,111.813957 490.362335,111.922600 494.243958,112.031250 
M443.012756,206.145462 
	C443.221436,199.292496 436.528076,198.871460 433.052551,194.407928 
	C432.472321,196.460678 432.166168,197.543732 431.419922,199.272629 
	C430.920227,201.202255 430.040314,203.120453 429.981781,205.063354 
	C429.561218,219.029480 429.251587,233.000061 429.116974,246.971237 
	C429.107239,247.980576 430.565552,249.544342 431.667023,249.937363 
	C439.441956,252.711380 444.202087,258.383514 447.617310,265.574280 
	C448.229462,266.863159 449.558624,267.811523 450.731995,269.111298 
	C449.486053,270.859985 447.124634,273.059357 446.160828,275.757874 
	C444.125000,281.458008 440.632874,287.850250 441.683777,293.180725 
	C443.687408,303.343903 450.455353,311.553253 459.387451,319.250916 
	C462.425903,311.665771 466.791138,304.920654 467.343811,297.876404 
	C467.691437,293.445343 469.297211,290.771362 471.436157,288.010406 
	C477.245300,280.511902 483.748932,273.540436 489.372894,265.914368 
	C491.897156,262.491425 492.979218,258.004913 494.720673,253.532135 
	C494.337433,253.638321 493.954193,253.744492 492.824860,253.856247 
	C481.163483,257.627197 469.502106,261.398163 457.840729,265.169098 
	C457.787048,264.965485 457.733398,264.761841 457.679718,264.558197 
	C469.914642,256.826599 482.149567,249.095001 495.545715,240.629578 
	C479.435059,232.325912 462.620697,238.754013 447.418213,233.133804 
	C453.600616,231.370117 459.409271,229.713058 465.977753,227.985779 
	C468.318848,227.524200 470.659973,227.062622 474.521698,226.301239 
	C464.121918,217.990921 454.763367,210.685913 443.012756,206.145462 
M445.503174,157.636932 
	C445.503174,157.636932 445.467438,157.635559 444.958893,158.116013 
	C441.802216,167.723343 438.606842,177.318420 435.550964,186.957703 
	C435.258087,187.881470 435.462341,189.399521 436.065002,190.101395 
	C440.865417,195.691757 445.976349,201.229095 453.454437,202.873077 
	C467.041504,205.860092 480.659851,203.337051 494.606995,202.119186 
	C483.197052,190.008377 468.766022,181.940338 456.344910,171.316376 
	C464.374237,173.865906 472.238007,176.773727 480.188293,179.421677 
	C488.246735,182.105667 496.390717,184.532822 505.984100,187.538269 
	C504.629822,184.080780 504.159668,181.814606 502.968903,180.029007 
	C498.360413,173.118301 493.927765,166.023697 488.636047,159.657181 
	C484.698120,154.919388 479.536743,151.198486 474.283691,146.621490 
	C467.663818,144.021957 460.855316,144.485031 454.596588,147.045624 
	C451.540375,148.295990 449.494476,152.015732 446.373749,154.998764 
	C446.090454,155.868973 445.807159,156.739197 445.503174,157.636932 
M476.651245,214.958984 
	C473.556122,214.340927 470.460999,213.722855 467.365875,213.104797 
	C467.229309,213.627060 467.092743,214.149307 466.956146,214.671570 
	C474.080139,219.273697 481.844849,222.141907 491.017273,222.211380 
	C490.353394,220.379150 489.469208,218.382156 488.030060,217.828995 
	C484.656860,216.532471 481.017822,215.927429 476.651245,214.958984 
M577.602356,273.652954 
	C577.602356,273.652954 577.469788,273.557800 577.469788,273.557800 
	C577.469788,273.557800 577.485962,273.790680 577.602356,273.652954 
z"/>
<path fill="#3F88AD" opacity="1.000000" stroke="none" 
	d="
M676.943115,113.932297 
	C673.331787,124.802620 669.794250,135.698746 666.012512,146.509430 
	C665.557739,147.809479 663.941589,149.015823 662.577881,149.614853 
	C660.312744,150.609848 657.804626,151.040802 655.418335,151.772751 
	C645.860046,154.704620 646.655518,153.139069 647.245117,164.721649 
	C647.370728,167.188965 648.637451,169.660004 648.463867,172.063263 
	C648.291321,174.452499 647.582458,178.230499 646.051270,178.870804 
	C632.452332,184.557449 618.619507,189.685013 604.846313,194.953049 
	C604.582092,195.054108 604.203918,194.857315 602.526550,194.558868 
	C611.783325,180.807205 620.743652,167.495865 629.704041,154.184509 
	C629.346191,153.870987 628.988403,153.557465 628.630615,153.243927 
	C615.714355,161.737396 602.798096,170.230850 589.881836,178.724304 
	C589.409119,178.475235 588.936401,178.226166 588.463684,177.977112 
	C592.904236,161.932617 597.344849,145.888123 602.120117,128.634323 
	C592.120544,141.559601 585.621643,155.762589 573.080444,166.496429 
	C572.371704,149.416397 571.700195,133.233612 571.028687,117.050819 
	C570.795349,116.989876 570.562073,116.928932 570.328735,116.867989 
	C566.195679,127.107613 562.077881,137.353424 557.920410,147.583115 
	C556.667480,150.665894 555.316345,153.709106 553.987366,156.760544 
	C553.181946,158.609863 552.332886,160.440186 551.503418,162.279053 
	C550.644104,161.669189 549.784790,161.059326 548.925415,160.449448 
	C544.512329,147.328400 540.099243,134.207336 535.686157,121.086288 
	C535.443665,121.115936 535.201172,121.145584 534.958618,121.175232 
	C534.283630,135.547821 533.608582,149.920425 532.919250,164.598770 
	C527.701599,164.160126 525.169617,160.654160 523.118774,156.641876 
	C518.572510,147.747818 514.107849,138.812057 509.580231,129.908401 
	C508.880341,128.532013 508.023193,127.235603 506.643738,126.212440 
	C511.037018,141.543961 515.430298,156.875488 520.103699,173.184631 
	C508.321899,169.464737 500.346924,162.518631 491.869110,156.427963 
	C488.760559,154.194748 486.046692,151.316498 482.738190,149.478928 
	C477.305267,146.461456 476.186615,142.136276 477.422272,136.566818 
	C477.922485,134.312103 478.204010,132.008881 478.802307,129.399246 
	C489.169708,118.737747 502.439575,113.799515 515.927979,108.366219 
	C522.723572,108.751312 528.863464,108.911736 535.004333,108.995735 
	C579.816040,109.608734 624.723206,106.891327 669.390991,112.856194 
	C670.837219,113.049324 672.505188,111.581512 674.069824,110.887970 
	C674.069824,110.887978 674.464417,110.935997 674.774902,111.191269 
	C675.704651,112.275124 676.323914,113.103706 676.943115,113.932297 
z"/>
<path fill="#91A6B3" opacity="1.000000" stroke="none" 
	d="
M879.981689,184.659058 
	C878.048889,185.061966 875.875916,185.701324 874.325195,184.988022 
	C863.913208,180.198639 853.632996,175.122971 843.311157,170.137817 
	C810.827393,154.449142 777.475403,140.990356 742.053955,130.827606 
	C737.225647,129.394302 733.118896,128.126892 729.297668,126.604813 
	C732.556824,126.350143 735.530396,126.350143 738.836731,126.350143 
	C737.173096,121.183716 735.578857,116.232742 733.984619,111.281769 
	C778.999756,122.876068 821.713623,140.321991 862.860107,161.802490 
	C872.177429,166.666595 878.097595,173.882858 879.981689,184.659058 
z"/>
<path fill="#346780" opacity="1.000000" stroke="none" 
	d="
M673.899109,110.593811 
	C672.505188,111.581512 670.837219,113.049324 669.390991,112.856194 
	C624.723206,106.891327 579.816040,109.608734 535.004333,108.995735 
	C528.863464,108.911736 522.723572,108.751312 516.292725,108.326759 
	C525.901245,100.667671 537.720703,98.529488 549.340332,96.081604 
	C573.316284,91.030624 597.677673,92.651337 621.848633,93.272400 
	C640.496582,93.751556 657.695862,100.760727 673.899109,110.593811 
z"/>
<path fill="#376982" opacity="1.000000" stroke="none" 
	d="
M481.664154,111.392654 
	C481.124756,111.626923 480.585327,111.861191 479.451416,112.146057 
	C478.561127,112.449821 478.265350,112.702988 477.969574,112.956146 
	C477.969574,112.956139 477.996826,113.001144 477.556152,112.969604 
	C462.732391,115.131233 448.363312,117.422173 433.961823,119.486771 
	C422.350159,121.151421 410.699310,122.542740 398.918365,123.742752 
	C398.164764,121.945770 397.558594,120.461342 396.952454,118.976913 
	C396.654266,115.830612 397.885040,114.561852 401.185516,113.647408 
	C424.491852,107.190018 448.165863,102.772842 472.161377,99.951889 
	C480.358368,98.988228 488.544830,97.929283 496.750946,97.052696 
	C498.344604,96.882462 500.007050,97.355789 501.649780,98.128250 
	C494.297577,101.844620 486.758850,104.689651 481.664154,111.392654 
z"/>
<path fill="#8CA3B1" opacity="1.000000" stroke="none" 
	d="
M306.947754,156.832779 
	C285.060120,165.308105 264.325958,176.094116 244.260941,188.205811 
	C238.720184,191.550308 233.351273,195.183136 227.765228,198.446991 
	C225.676224,199.667603 223.193069,200.213638 220.507965,201.030243 
	C219.313293,200.953293 218.500290,200.913361 217.292130,200.854034 
	C222.622879,190.751892 230.922546,184.107513 240.284546,179.131088 
	C263.457977,166.813141 286.937500,155.070969 310.649292,143.511963 
	C311.004456,145.910202 310.606689,148.010010 311.140259,149.837967 
	C311.513000,151.114899 313.160278,152.019791 313.994690,153.349823 
	C311.483307,154.683441 309.215515,155.758102 306.947754,156.832779 
z"/>
<path fill="#9EACB4" opacity="1.000000" stroke="none" 
	d="
M733.606812,111.165253 
	C735.578857,116.232742 737.173096,121.183716 738.836731,126.350143 
	C735.530396,126.350143 732.556824,126.350143 728.916321,126.599586 
	C717.161804,124.151573 706.074097,121.454109 695.176636,118.480423 
	C697.837158,112.111610 694.125244,107.303413 692.033325,102.158653 
	C702.600830,104.285141 713.177368,106.367851 723.730286,108.564560 
	C726.930176,109.230667 730.064575,110.211861 733.606812,111.165253 
z"/>
<path fill="#99A7AF" opacity="1.000000" stroke="none" 
	d="
M314.238281,153.090851 
	C313.160278,152.019791 311.513000,151.114899 311.140259,149.837967 
	C310.606689,148.010010 311.004456,145.910202 311.009338,143.472839 
	C323.629639,137.871185 336.127075,132.389984 348.955719,127.843437 
	C351.670837,126.881187 355.596954,129.336014 358.872498,130.883331 
	C358.251801,132.696594 357.723724,133.842957 357.089111,135.317108 
	C355.343109,137.421906 353.703583,139.198914 351.680725,140.994659 
	C338.944366,145.039215 326.591309,149.065033 314.238281,153.090851 
z"/>
<path fill="#356781" opacity="1.000000" stroke="none" 
	d="
M357.195618,134.989319 
	C357.723724,133.842957 358.251801,132.696594 358.917297,131.263275 
	C367.606781,121.154366 378.581879,116.912895 391.402435,117.054054 
	C392.573151,117.066948 393.736298,117.765846 394.960663,118.995560 
	C394.974579,122.260612 394.930817,124.676308 394.522400,127.110512 
	C384.480225,130.083847 374.856537,133.240341 365.086578,135.848877 
	C362.702698,136.485352 359.838806,135.324051 357.195618,134.989319 
z"/>
<path fill="#A8A9AA" opacity="1.000000" stroke="none" 
	d="
M691.645996,102.039963 
	C694.125244,107.303413 697.837158,112.111610 694.806946,118.534973 
	C693.751831,118.917496 693.256653,118.969231 692.418030,119.020386 
	C689.069458,116.650719 686.064331,114.281639 682.721924,111.646683 
	C681.991394,112.859467 681.349182,113.925713 680.507446,115.171173 
	C679.713989,115.940643 679.120178,116.530899 678.526367,117.121147 
	C678.183167,116.217651 677.840027,115.314171 677.219971,114.171486 
	C676.323914,113.103706 675.704651,112.275124 674.967651,111.142685 
	C673.506958,106.997841 672.164001,103.156868 670.578857,98.623245 
	C677.004456,99.648003 684.131592,100.784637 691.645996,102.039963 
z"/>
<path fill="#FCFCFC" opacity="1.000000" stroke="none" 
	d="
M883.487061,223.093445 
	C882.793274,214.342438 882.434875,205.431564 881.980530,196.525589 
	C881.897461,194.897522 881.423279,193.289429 881.105957,191.258179 
	C887.528931,193.149918 893.975464,195.455612 900.633484,197.836929 
	C894.605530,206.818939 889.197510,214.877090 883.487061,223.093445 
z"/>
<path fill="#ADB0B1" opacity="1.000000" stroke="none" 
	d="
M482.131592,111.548981 
	C486.758850,104.689651 494.297577,101.844620 501.909241,98.472580 
	C507.473572,97.650200 512.790466,97.079468 518.107300,96.508736 
	C518.311707,97.115669 518.516113,97.722603 518.720520,98.329536 
	C510.796600,102.918221 502.872681,107.506897 494.596344,112.063416 
	C490.362335,111.922600 486.480682,111.813957 482.131592,111.548981 
z"/>
<path fill="#414C51" opacity="1.000000" stroke="none" 
	d="
M394.887024,127.091995 
	C394.930817,124.676308 394.974579,122.260612 395.064484,119.391312 
	C395.519714,118.956413 395.928802,118.975128 396.645203,118.985382 
	C397.558594,120.461342 398.164764,121.945770 398.903687,124.048737 
	C399.067322,125.074944 399.098145,125.482605 399.073303,126.350319 
	C401.269043,135.877563 403.520447,144.944763 405.384277,154.008881 
	C403.712463,154.011749 402.428253,154.017715 400.970032,153.693100 
	C398.826385,144.605682 396.856720,135.848831 394.887024,127.091995 
z"/>
<path fill="#FFFFFF" opacity="1.000000" stroke="none" 
	d="
M1009.597168,328.424011 
	C1008.746765,328.274231 1008.086426,327.929596 1006.864868,327.292023 
	C1008.220886,327.292023 1009.002075,327.292023 1009.968140,327.558960 
	C1010.031189,327.960266 1009.909241,328.094666 1009.597168,328.424011 
z"/>
<path fill="#FCFCFC" opacity="1.000000" stroke="none" 
	d="
M882.302490,224.879593 
	C882.247437,224.445984 882.464050,223.873322 882.976685,223.185211 
	C883.039978,223.626694 882.807129,224.183609 882.302490,224.879593 
z"/>
<path fill="#FFFFFF" opacity="1.000000" stroke="none" 
	d="
M289.610046,449.326904 
	C289.674377,448.595001 289.959686,448.220123 290.717957,447.983917 
	C291.362213,448.248596 291.533539,448.374634 291.704865,448.500671 
	C291.416199,449.005524 291.127502,449.510376 290.596680,450.177948 
	C290.179993,450.121735 290.005493,449.902832 289.610046,449.326904 
z"/>
<path fill="#FFFFFF" opacity="1.000000" stroke="none" 
	d="
M221.159866,434.156311 
	C220.880554,434.560516 220.601242,434.964752 220.101059,435.498596 
	C219.675171,435.483124 219.470184,435.338043 218.983276,434.942993 
	C219.149979,434.372528 219.598602,434.052063 220.463882,433.806580 
	C220.880554,433.881622 221.159866,434.156311 221.159866,434.156311 
z"/>
<path fill="#FFFFFF" opacity="1.000000" stroke="none" 
	d="
M913.498352,347.796509 
	C912.992432,347.400665 912.486450,347.004822 911.394592,346.150635 
	C912.636780,346.253357 913.205505,346.300385 913.766235,346.840210 
	C913.671631,347.487549 913.584961,347.642029 913.498352,347.796509 
z"/>
<path fill="#FFFFFF" opacity="1.000000" stroke="none" 
	d="
M290.948547,447.915039 
	C291.041382,447.384338 291.376495,447.061157 291.711639,446.738007 
	C291.848145,447.128082 291.984619,447.518158 291.912994,448.204468 
	C291.533539,448.374634 291.362213,448.248596 290.948547,447.915039 
z"/>
<path fill="#FFFFFF" opacity="1.000000" stroke="none" 
	d="
M358.828491,472.832397 
	C359.021149,472.618469 359.213806,472.404510 359.406464,472.190552 
	C359.557098,472.535950 359.707733,472.881348 359.524384,473.240845 
	C359.069794,473.114105 358.949158,472.973267 358.828491,472.832397 
z"/>
<path fill="#FFFFFF" opacity="1.000000" stroke="none" 
	d="
M220.741699,433.743439 
	C220.954437,433.464508 221.306015,433.323761 221.657593,433.183044 
	C221.667267,433.442352 221.676926,433.701630 221.423233,434.058624 
	C221.159866,434.156311 220.880554,433.881622 220.741699,433.743439 
z"/>
<path fill="#FFFFFF" opacity="1.000000" stroke="none" 
	d="
M359.351257,473.481873 
	C359.052216,473.869843 358.592255,474.030914 358.132324,474.191956 
	C358.136200,473.831421 358.140045,473.470917 358.486206,472.971375 
	C358.949158,472.973267 359.069794,473.114105 359.351257,473.481873 
z"/>
<path fill="#FFFFFF" opacity="1.000000" stroke="none" 
	d="
M795.661865,364.302856 
	C795.638000,364.110016 795.816101,363.739380 796.120850,363.558197 
	C796.119629,363.873474 795.991699,363.999298 795.661865,364.302856 
z"/>
<path fill="#FFFFFF" opacity="1.000000" stroke="none" 
	d="
M828.771484,353.222961 
	C828.453247,353.033630 828.320557,352.662750 828.187927,352.291870 
	C828.457275,352.261719 828.726562,352.231567 829.160645,352.438324 
	C829.202698,352.797272 829.079956,352.919342 828.771484,353.222961 
z"/>
<path fill="#FFFFFF" opacity="1.000000" stroke="none" 
	d="
M913.922485,347.124207 
	C914.415833,347.015503 914.744995,347.115662 915.203125,347.445190 
	C915.166199,347.820465 915.000183,347.966400 914.572021,348.315338 
	C914.076965,348.424866 913.878662,348.283142 913.606628,347.944855 
	C913.584961,347.642029 913.671631,347.487549 913.922485,347.124207 
z"/>
<path fill="#FFFFFF" opacity="1.000000" stroke="none" 
	d="
M878.340393,102.518524 
	C878.070862,102.831741 877.658142,102.913979 877.245361,102.996231 
	C877.265259,102.703522 877.285095,102.410820 877.580566,101.991119 
	C877.969849,102.005272 878.083496,102.146416 878.340393,102.518524 
z"/>
<path fill="#FFFFFF" opacity="1.000000" stroke="none" 
	d="
M728.371704,72.319580 
	C728.187317,72.322708 727.873962,72.209419 727.768677,72.037956 
	C727.976685,71.979782 728.242737,72.203171 728.371704,72.319580 
z"/>
<path fill="#FFFFFF" opacity="1.000000" stroke="none" 
	d="
M683.923462,65.953217 
	C683.916992,66.162453 683.942200,66.387733 683.967407,66.613007 
	C683.855591,66.472412 683.743713,66.331825 683.823486,66.099236 
	C684.015137,66.007240 683.955139,65.969261 683.923462,65.953217 
z"/>
<path fill="#D6EDF9" opacity="1.000000" stroke="none" 
	d="
M692.761475,119.020966 
	C693.256653,118.969231 693.751831,118.917496 694.616699,118.811203 
	C706.074097,121.454109 717.161804,124.151573 728.630798,126.854256 
	C733.118896,128.126892 737.225647,129.394302 741.662537,130.829483 
	C743.705750,140.585144 746.113159,150.112488 746.955444,159.776260 
	C747.998718,171.746567 747.955566,183.829224 747.998413,195.864700 
	C748.055054,211.786240 744.599915,227.183640 739.023621,241.956543 
	C734.286438,254.506439 728.883179,266.863678 722.898010,278.869141 
	C715.140381,294.429901 704.171326,307.709045 691.731689,319.881714 
	C677.739380,333.573761 662.020142,344.844208 645.058899,354.413513 
	C623.372925,366.648468 600.152954,375.123962 575.882507,380.352875 
	C565.600830,382.568024 554.916992,383.598724 544.387390,383.821960 
	C528.452759,384.159851 512.454590,383.901398 496.553528,382.843109 
	C474.190552,381.354736 452.994080,374.806152 432.540588,365.787842 
	C407.874939,354.912262 386.277802,339.578430 366.079803,321.794952 
	C335.983917,295.296783 318.402649,261.869019 309.433960,223.437195 
	C307.794159,216.410431 307.276672,209.018692 307.102295,201.774704 
	C306.749695,187.124817 306.987671,172.460724 306.964935,157.317627 
	C309.215515,155.758102 311.483307,154.683441 313.994690,153.349823 
	C326.591309,149.065033 338.944366,145.039215 351.634094,141.383316 
	C345.908020,161.334671 347.119568,181.559937 349.992279,201.074493 
	C354.333466,230.564453 366.838104,257.372803 384.936371,281.196381 
	C399.992554,301.015594 417.827057,317.810333 440.825287,328.286865 
	C444.392822,329.911957 448.300812,330.789734 452.051361,332.013123 
	C452.051361,332.013123 451.981873,332.017059 452.035217,332.218933 
	C452.323517,332.651367 452.593414,332.828888 452.898224,332.953339 
	C457.747467,335.036804 462.558228,337.217804 467.465302,339.154724 
	C469.376556,339.909149 471.504883,340.113586 474.055695,340.463257 
	C480.288940,343.248077 485.800293,348.077271 491.747467,348.692383 
	C517.451294,351.350830 543.265442,351.476196 568.688599,345.769226 
	C610.322754,336.423248 643.984619,314.577606 669.403992,280.268250 
	C672.435242,276.176971 674.527710,271.390228 677.422607,266.891968 
	C678.125549,265.377625 678.461243,263.897095 678.796875,262.416565 
	C679.466797,260.426605 680.136719,258.436646 681.363403,256.161346 
	C684.583008,257.066895 685.838623,255.675400 686.806885,253.382996 
	C689.844055,246.192230 693.313477,239.163956 695.982910,231.842117 
	C701.741150,216.047958 706.175537,199.903412 707.030396,182.561615 
	C707.421326,173.409332 707.956177,164.656525 707.890991,155.908203 
	C707.858521,151.552078 706.726562,147.204147 706.067505,142.477753 
	C701.615906,134.408981 697.188660,126.714966 692.761475,119.020966 
z"/>
<path fill="#4089AF" opacity="1.000000" stroke="none" 
	d="
M677.055298,266.925812 
	C674.527710,271.390228 672.435242,276.176971 669.403992,280.268250 
	C643.984619,314.577606 610.322754,336.423248 568.688599,345.769226 
	C543.265442,351.476196 517.451294,351.350830 491.747467,348.692383 
	C485.800293,348.077271 480.288940,343.248077 474.284515,340.197205 
	C471.731415,336.914612 469.470886,333.792786 467.490723,330.142090 
	C470.902679,324.950256 474.221283,320.400726 477.129425,315.602448 
	C484.764221,303.005432 491.662384,289.899078 502.859863,279.874756 
	C499.976166,293.128723 497.092468,306.382690 494.208771,319.636627 
	C494.416779,319.772308 494.624786,319.907959 494.832794,320.043610 
	C504.972961,305.884796 515.113159,291.725983 525.253357,277.567169 
	C525.953979,277.865234 526.654663,278.163300 527.355347,278.461365 
	C526.689270,294.498840 526.023254,310.536346 525.296997,328.025543 
	C531.356506,311.976501 536.951843,297.157013 543.026733,281.067413 
	C552.613708,297.647461 554.302917,315.785187 561.024536,333.571594 
	C562.389160,315.664307 563.652527,299.085480 565.025574,281.067566 
	C576.329712,292.609192 580.536438,306.973450 588.255127,319.397095 
	C584.719971,304.674011 581.184875,289.950897 577.649719,275.227783 
	C578.002563,274.950226 578.355408,274.672668 578.708191,274.395111 
	C591.594910,284.179260 604.481567,293.963409 617.368286,303.747559 
	C612.694153,289.376434 602.372375,278.296112 594.752258,263.490784 
	C599.165039,264.209137 602.426453,264.188812 605.243958,265.296967 
	C615.776184,269.439545 626.161865,273.954620 636.606079,278.321411 
	C637.942261,278.880127 639.299622,279.388184 640.922485,279.556091 
	C631.275391,266.077850 618.950684,255.212738 606.920471,243.691635 
	C621.871277,243.650757 636.625610,241.480484 650.783630,246.629608 
	C645.972961,246.996521 641.363953,246.996521 636.755005,246.996521 
	C649.187866,256.154510 663.176270,261.426056 677.055298,266.925812 
z"/>
<path fill="#3D85AB" opacity="1.000000" stroke="none" 
	d="
M452.035889,331.659393 
	C448.300812,330.789734 444.392822,329.911957 440.825287,328.286865 
	C417.827057,317.810333 399.992554,301.015594 384.936371,281.196381 
	C366.838104,257.372803 354.333466,230.564453 349.992279,201.074493 
	C347.119568,181.559937 345.908020,161.334671 352.017426,141.364578 
	C353.703583,139.198914 355.343109,137.421906 357.089111,135.317108 
	C359.838806,135.324051 362.702698,136.485352 365.086578,135.848877 
	C374.856537,133.240341 384.480225,130.083847 394.522400,127.110512 
	C396.856720,135.848831 398.826385,144.605682 401.062439,154.031891 
	C404.670654,162.047867 408.138000,169.340942 411.304321,176.762436 
	C413.027283,180.800858 415.527466,183.732727 419.812622,184.968155 
	C420.107666,186.055573 420.927094,187.326675 420.620056,188.203171 
	C414.970428,204.330658 416.417908,221.091370 416.180939,237.676865 
	C416.066528,245.685608 414.175598,252.213776 406.483337,256.426239 
	C404.577148,257.470123 403.567139,261.111420 403.167175,263.715698 
	C402.591797,267.461731 402.952332,271.351501 402.552307,275.469971 
	C401.299744,275.263123 400.408264,274.766266 399.339691,274.170685 
	C398.312042,285.073425 406.836884,296.541748 416.972168,297.799133 
	C421.896118,298.410004 426.205841,299.856232 430.114258,303.341370 
	C434.365173,310.078369 438.463135,316.506134 442.906769,323.476044 
	C444.039917,321.605347 444.627258,320.635712 445.214630,319.666046 
	C447.483215,323.545929 449.751801,327.425812 452.035889,331.659393 
z"/>
<path fill="#3E86AB" opacity="1.000000" stroke="none" 
	d="
M706.926636,182.962967 
	C706.175537,199.903412 701.741150,216.047958 695.982910,231.842117 
	C693.313477,239.163956 689.844055,246.192230 686.806885,253.382996 
	C685.838623,255.675400 684.583008,257.066895 681.518555,255.801300 
	C660.141602,243.052658 638.216431,232.578140 613.953247,226.791138 
	C624.596130,217.997742 638.350281,219.831833 650.909973,214.987427 
	C643.601746,214.281021 637.030273,213.645828 629.977966,212.964157 
	C630.440796,211.747971 630.806641,210.786484 631.647705,209.646912 
	C633.457458,209.713409 635.516052,210.633957 636.015747,210.098831 
	C641.507996,204.217453 646.757385,198.109360 652.333862,191.831635 
	C653.523315,189.561203 654.451477,187.521881 655.133789,186.022644 
	C658.416931,185.580063 661.215149,185.202850 664.363159,184.808014 
	C666.223022,184.129349 667.823608,183.620178 669.227539,182.781616 
	C676.078430,178.689484 677.518860,175.160629 674.990540,169.028946 
	C676.104858,163.961273 676.142273,159.313904 671.952393,155.212982 
	C668.674316,152.004517 668.795776,147.851593 670.211182,143.565063 
	C673.023621,135.047546 675.596497,126.450928 678.397339,117.504074 
	C679.120178,116.530899 679.713989,115.940643 680.579468,115.549934 
	C682.014771,118.036949 682.662048,120.884422 684.430908,122.515633 
	C692.404053,129.868408 697.704163,138.770432 701.028748,149.376678 
	C702.025818,157.457916 702.874390,165.158829 704.100952,172.799026 
	C704.654907,176.249283 705.961487,179.578720 706.926636,182.962967 
z"/>
<path fill="#4289AB" opacity="1.000000" stroke="none" 
	d="
M465.217896,228.056000 
	C459.409271,229.713058 453.600616,231.370117 447.418213,233.133804 
	C462.620697,238.754013 479.435059,232.325912 495.545715,240.629578 
	C482.149567,249.095001 469.914642,256.826599 457.679718,264.558197 
	C457.733398,264.761841 457.787048,264.965485 457.840729,265.169098 
	C469.502106,261.398163 481.163483,257.627197 493.484131,253.897980 
	C494.334167,253.960144 494.524963,253.980591 494.715759,254.001038 
	C492.979218,258.004913 491.897156,262.491425 489.372894,265.914368 
	C483.748932,273.540436 477.245300,280.511902 471.436157,288.010406 
	C469.297211,290.771362 467.691437,293.445343 467.343811,297.876404 
	C466.791138,304.920654 462.425903,311.665771 459.387451,319.250916 
	C450.455353,311.553253 443.687408,303.343903 441.683777,293.180725 
	C440.632874,287.850250 444.125000,281.458008 446.160828,275.757874 
	C447.124634,273.059357 449.486053,270.859985 450.731995,269.111298 
	C449.558624,267.811523 448.229462,266.863159 447.617310,265.574280 
	C444.202087,258.383514 439.441956,252.711380 431.667023,249.937363 
	C430.565552,249.544342 429.107239,247.980576 429.116974,246.971237 
	C429.251587,233.000061 429.561218,219.029480 429.981781,205.063354 
	C430.040314,203.120453 430.920227,201.202255 431.694000,199.347794 
	C432.623932,201.302765 433.279755,203.182571 433.994110,205.399933 
	C442.546906,215.821945 451.872009,224.746277 465.217896,228.056000 
M456.482788,266.588348 
	C456.482788,266.588348 456.416229,266.476898 456.482788,266.588348 
z"/>
<path fill="#418AAE" opacity="1.000000" stroke="none" 
	d="
M474.920288,147.024689 
	C479.536743,151.198486 484.698120,154.919388 488.636047,159.657181 
	C493.927765,166.023697 498.360413,173.118301 502.968903,180.029007 
	C504.159668,181.814606 504.629822,184.080780 505.984100,187.538269 
	C496.390717,184.532822 488.246735,182.105667 480.188293,179.421677 
	C472.238007,176.773727 464.374237,173.865906 456.344910,171.316376 
	C468.766022,181.940338 483.197052,190.008377 494.606995,202.119186 
	C480.659851,203.337051 467.041504,205.860092 453.454437,202.873077 
	C445.976349,201.229095 440.865417,195.691757 436.065002,190.101395 
	C435.462341,189.399521 435.258087,187.881470 435.550964,186.957703 
	C438.606842,177.318420 441.802216,167.723343 445.410217,158.260681 
	C444.993591,162.376266 444.125641,166.347183 443.246307,170.370041 
	C446.454987,171.896515 447.466522,170.195145 448.202057,167.599426 
	C450.211945,160.506577 454.901398,157.126602 462.359680,156.874146 
	C470.839813,156.587097 472.225037,155.235657 474.920288,147.024689 
z"/>
<path fill="#3F87AC" opacity="1.000000" stroke="none" 
	d="
M399.128967,125.890259 
	C399.098145,125.482605 399.067322,125.074944 399.051147,124.361298 
	C410.699310,122.542740 422.350159,121.151421 433.961823,119.486771 
	C448.363312,117.422173 462.732391,115.131233 477.539062,112.948372 
	C471.901215,118.089294 464.966461,120.168465 456.976807,120.092010 
	C448.561005,120.011482 444.798065,124.442200 445.306549,132.888458 
	C445.701874,139.454987 444.167084,145.364365 440.319336,150.694397 
	C435.203674,157.780762 430.111786,164.884308 424.397888,172.831421 
	C420.520905,166.883484 416.861023,161.268600 413.043243,154.973740 
	C410.538452,148.171066 408.476562,141.917053 405.738586,135.974548 
	C404.075195,132.364395 401.367523,129.235397 399.128967,125.890259 
z"/>
<path fill="#45484B" opacity="1.000000" stroke="none" 
	d="
M429.961334,303.032166 
	C426.205841,299.856232 421.896118,298.410004 416.972168,297.799133 
	C406.836884,296.541748 398.312042,285.073425 399.339691,274.170685 
	C400.408264,274.766266 401.299744,275.263123 402.490540,275.940033 
	C405.593933,286.545837 414.068512,286.945007 422.486206,286.979645 
	C432.144043,287.019379 435.246582,293.820526 437.794067,301.837891 
	C435.052612,302.664276 432.506989,302.848206 429.961334,303.032166 
z"/>
<path fill="#4A5358" opacity="1.000000" stroke="none" 
	d="
M503.018066,279.581848 
	C491.662384,289.899078 484.764221,303.005432 477.129425,315.602448 
	C474.221283,320.400726 470.902679,324.950256 467.500000,329.793701 
	C467.658112,327.559570 467.783051,325.041260 468.564392,322.746460 
	C475.164276,303.363098 486.804840,287.242340 501.179626,272.937134 
	C501.797424,272.322327 502.749451,272.043335 505.057739,270.781097 
	C504.241516,274.471954 503.708893,276.880463 503.018066,279.581848 
z"/>
<path fill="#3C4B52" opacity="1.000000" stroke="none" 
	d="
M474.601990,146.823090 
	C472.225037,155.235657 470.839813,156.587097 462.359680,156.874146 
	C454.901398,157.126602 450.211945,160.506577 448.202057,167.599426 
	C447.466522,170.195145 446.454987,171.896515 443.246307,170.370041 
	C444.125641,166.347183 444.993591,162.376266 445.664490,158.020447 
	C445.467438,157.635559 445.503174,157.636932 445.916504,157.638580 
	C446.550293,156.632736 446.770782,155.625244 446.991272,154.617767 
	C449.494476,152.015732 451.540375,148.295990 454.596588,147.045624 
	C460.855316,144.485031 467.663818,144.021957 474.601990,146.823090 
z"/>
<path fill="#424445" opacity="1.000000" stroke="none" 
	d="
M465.597839,228.020889 
	C451.872009,224.746277 442.546906,215.821945 434.386292,205.432739 
	C437.515778,205.729904 440.311584,206.331833 443.107391,206.933762 
	C454.763367,210.685913 464.121918,217.990921 474.521698,226.301239 
	C470.659973,227.062622 468.318848,227.524200 465.597839,228.020889 
z"/>
<path fill="#41474B" opacity="1.000000" stroke="none" 
	d="
M677.422607,266.891968 
	C663.176270,261.426056 649.187866,256.154510 636.755005,246.996521 
	C641.363953,246.996521 645.972961,246.996521 651.059937,246.912781 
	C651.537903,246.829025 651.672791,246.837280 651.917236,247.180573 
	C652.826355,247.659073 653.491089,247.794296 654.155823,247.929520 
	C662.151367,252.677322 670.146851,257.425140 678.469604,262.294739 
	C678.461243,263.897095 678.125549,265.377625 677.422607,266.891968 
z"/>
<path fill="#404345" opacity="1.000000" stroke="none" 
	d="
M420.210083,184.848724 
	C415.527466,183.732727 413.027283,180.800858 411.304321,176.762436 
	C408.138000,169.340942 404.670654,162.047867 401.236389,154.362457 
	C402.428253,154.017715 403.712463,154.011749 405.536469,154.333298 
	C407.350891,155.492233 408.625580,156.323669 409.900238,157.155106 
	C412.679688,162.759232 415.741180,168.246490 418.130524,174.012268 
	C419.514954,177.353058 419.817871,181.142044 420.210083,184.848724 
z"/>
<path fill="#D4DDE1" opacity="1.000000" stroke="none" 
	d="
M410.049133,156.862610 
	C408.625580,156.323669 407.350891,155.492233 405.924042,154.336380 
	C403.520447,144.944763 401.269043,135.877563 399.073303,126.350311 
	C401.367523,129.235397 404.075195,132.364395 405.738586,135.974548 
	C408.476562,141.917053 410.538452,148.171066 412.886292,154.663788 
	C411.990845,155.545898 411.094421,156.058014 410.049133,156.862610 
z"/>
<path fill="#434A4F" opacity="1.000000" stroke="none" 
	d="
M652.072632,192.062744 
	C646.757385,198.109360 641.507996,204.217453 636.015747,210.098831 
	C635.516052,210.633957 633.457458,209.713409 631.872925,209.319351 
	C637.530945,201.543030 643.438843,193.916214 649.880493,186.295364 
	C650.888062,188.244522 648.364746,191.050476 652.072632,192.062744 
z"/>
<path fill="#3E4244" opacity="1.000000" stroke="none" 
	d="
M674.643921,169.130615 
	C677.518860,175.160629 676.078430,178.689484 669.227539,182.781616 
	C667.823608,183.620178 666.223022,184.129349 664.185059,184.537109 
	C662.451904,183.259949 661.246704,182.236069 659.787170,180.996063 
	C661.278564,179.645935 662.429626,178.603882 663.622803,177.523697 
	C662.667297,176.277069 661.868713,175.235168 661.070129,174.193268 
	C661.070129,174.193268 661.116821,174.017776 661.512634,174.059937 
	C662.611877,173.755539 663.315308,173.408981 664.018738,173.062439 
	C667.444885,171.785721 670.871094,170.509018 674.643921,169.130615 
z"/>
<path fill="#495257" opacity="1.000000" stroke="none" 
	d="
M430.114258,303.341370 
	C432.506989,302.848206 435.052612,302.664276 437.820648,302.201172 
	C440.406372,307.594727 442.769684,313.267487 445.173828,319.303162 
	C444.627258,320.635712 444.039917,321.605347 442.906769,323.476044 
	C438.463135,316.506134 434.365173,310.078369 430.114258,303.341370 
z"/>
<path fill="#5FA1BF" opacity="1.000000" stroke="none" 
	d="
M477.068848,215.000732 
	C481.017822,215.927429 484.656860,216.532471 488.030060,217.828995 
	C489.469208,218.382156 490.353394,220.379150 491.017273,222.211380 
	C481.844849,222.141907 474.080139,219.273697 466.956146,214.671570 
	C467.092743,214.149307 467.229309,213.627060 467.365875,213.104797 
	C470.460999,213.722855 473.556122,214.340927 477.068848,215.000732 
z"/>
<path fill="#4B575D" opacity="1.000000" stroke="none" 
	d="
M660.736633,174.235870 
	C661.868713,175.235168 662.667297,176.277069 663.622803,177.523697 
	C662.429626,178.603882 661.278564,179.645935 659.787170,180.996063 
	C661.246704,182.236069 662.451904,183.259949 663.835205,184.554749 
	C661.215149,185.202850 658.416931,185.580063 655.133789,186.022644 
	C654.451477,187.521881 653.523315,189.561203 652.333862,191.831635 
	C648.364746,191.050476 650.888062,188.244522 650.160828,186.117050 
	C653.406006,182.048004 656.904541,178.163223 660.736633,174.235870 
z"/>
<path fill="#6F7172" opacity="1.000000" stroke="none" 
	d="
M443.060059,206.539612 
	C440.311584,206.331833 437.515778,205.729904 434.327759,205.095184 
	C433.279755,203.182571 432.623932,201.302765 431.914062,199.024872 
	C432.166168,197.543732 432.472321,196.460678 433.052551,194.407928 
	C436.528076,198.871460 443.221436,199.292496 443.060059,206.539612 
z"/>
<path fill="#4B575D" opacity="1.000000" stroke="none" 
	d="
M663.708252,173.021423 
	C663.315308,173.408981 662.611877,173.755539 661.599243,174.087326 
	C661.992554,173.708496 662.695129,173.344452 663.708252,173.021423 
z"/>
<path fill="#418AAE" opacity="1.000000" stroke="none" 
	d="
M446.682495,154.808258 
	C446.770782,155.625244 446.550293,156.632736 445.926819,157.624817 
	C445.807159,156.739197 446.090454,155.868973 446.682495,154.808258 
z"/>
<path fill="#4089AF" opacity="1.000000" stroke="none" 
	d="
M653.929016,247.670319 
	C653.491089,247.794296 652.826355,247.659073 651.942749,247.243134 
	C652.383362,247.111969 653.042786,247.261536 653.929016,247.670319 
z"/>
<path fill="#3D85AB" opacity="1.000000" stroke="none" 
	d="
M452.841980,332.709015 
	C452.593414,332.828888 452.323517,332.651367 452.029388,332.184631 
	C452.242035,332.120544 452.513885,332.292633 452.841980,332.709015 
z"/>
<path fill="#4089AF" opacity="1.000000" stroke="none" 
	d="
M577.544189,273.721802 
	C577.485962,273.790680 577.469788,273.557800 577.469788,273.557800 
	C577.469788,273.557800 577.602356,273.652954 577.544189,273.721802 
z"/>
<path fill="#4389AC" opacity="1.000000" stroke="none" 
	d="
M494.718201,253.766586 
	C494.524963,253.980591 494.334167,253.960144 493.857178,253.895187 
	C493.954193,253.744492 494.337433,253.638321 494.718201,253.766586 
z"/>
<path fill="#3F87AC" opacity="1.000000" stroke="none" 
	d="
M478.267944,112.943359 
	C478.265350,112.702988 478.561127,112.449821 479.159729,112.192932 
	C479.163818,112.436340 478.865082,112.683456 478.267944,112.943359 
z"/>
<path fill="#3F4447" opacity="1.000000" stroke="none" 
	d="
M701.034424,148.971588 
	C697.704163,138.770432 692.404053,129.868408 684.430908,122.515633 
	C682.662048,120.884422 682.014771,118.036949 680.779053,115.370720 
	C681.349182,113.925713 681.991394,112.859467 682.721924,111.646683 
	C686.064331,114.281639 689.069458,116.650719 692.418030,119.020386 
	C697.188660,126.714966 701.615906,134.408981 705.834351,142.773590 
	C701.869751,143.438126 702.351379,146.951843 701.034424,148.971588 
z"/>
<path fill="#42555F" opacity="1.000000" stroke="none" 
	d="
M701.028748,149.376678 
	C702.351379,146.951843 701.869751,143.438126 705.858765,143.148346 
	C706.726562,147.204147 707.858521,151.552078 707.890991,155.908203 
	C707.956177,164.656525 707.421326,173.409332 707.030396,182.561615 
	C705.961487,179.578720 704.654907,176.249283 704.100952,172.799026 
	C702.874390,165.158829 702.025818,157.457916 701.028748,149.376678 
z"/>
<path fill="#4389AC" opacity="1.000000" stroke="none" 
	d="
M456.449524,266.532623 
	C456.416229,266.476898 456.482788,266.588348 456.449524,266.532623 
z"/>
</svg>