<?xml version="1.0" encoding="UTF-8"?><svg id="Layer_1" xmlns="http://www.w3.org/2000/svg" viewBox="0 0 50 50"><defs><style>.cls-1{fill:#fff;}.cls-2{fill:#32496b;}</style></defs><rect class="cls-2" x="4" y="3.96" width="42" height="42.07" rx="3.26" ry="3.26"/><path class="cls-1" d="m14.85,21.33c.56.67.84,1.67.84,3.02v5.74h-2.93v-5.61c0-.65-.12-1.12-.36-1.42-.24-.3-.61-.45-1.12-.45-.61,0-1.1.19-1.47.58-.37.39-.55.91-.55,1.55v5.34h-2.93v-13.68h2.93v5.41c.34-.49.77-.86,1.29-1.12.52-.25,1.11-.38,1.76-.38,1.14,0,1.99.33,2.54,1Z"/><path class="cls-1" d="m24.14,28.04l-.15,2.13c-.38.05-.75.08-1.13.08-1.45,0-2.51-.32-3.17-.95-.67-.63-1-1.6-1-2.89v-3.65h-1.8v-2.19h1.8v-2.79h2.93v2.79h2.39v2.19h-2.39v3.63c0,1.14.53,1.71,1.59,1.71.3,0,.61-.02.93-.06Z"/><path class="cls-1" d="m32.12,28.04l-.15,2.13c-.38.05-.75.08-1.13.08-1.45,0-2.51-.32-3.17-.95-.67-.63-1-1.6-1-2.89v-3.65h-1.8v-2.19h1.8v-2.79h2.93v2.79h2.39v2.19h-2.39v3.63c0,1.14.53,1.71,1.59,1.71.3,0,.61-.02.93-.06Z"/><path class="cls-1" d="m41.64,20.96c.64.42,1.14,1.01,1.49,1.77.36.76.53,1.63.53,2.61s-.18,1.85-.53,2.59c-.36.74-.85,1.32-1.48,1.72-.63.4-1.37.6-2.19.6-.65,0-1.23-.13-1.76-.4-.52-.27-.93-.64-1.21-1.12v4.85h-2.93v-13.02h2.89v1.34c.28-.49.69-.88,1.22-1.15s1.12-.42,1.78-.42c.81,0,1.54.21,2.18.63Zm-1.45,6.36c.38-.46.56-1.12.56-1.99s-.19-1.56-.56-2.05c-.37-.48-.9-.73-1.59-.73s-1.22.24-1.59.71c-.38.47-.56,1.15-.56,2.03s.19,1.54.56,2.01c.37.47.9.71,1.59.71s1.22-.23,1.59-.69Z"/></svg>