<?xml version="1.0" encoding="utf-8"?>
<!-- Generator: Adobe Illustrator 21.1.0, SVG Export Plug-In . SVG Version: 6.00 Build 0)  -->
<svg version="1.1" id="Layer_1" xmlns="http://www.w3.org/2000/svg" xmlns:xlink="http://www.w3.org/1999/xlink" x="0px" y="0px"
	 viewBox="0 0 50 50" style="enable-background:new 0 0 50 50;" xml:space="preserve">
<style type="text/css">
	.st0{clip-path:url(#SVGID_2_);}
	.st1{clip-path:url(#SVGID_4_);}
	.st2{clip-path:url(#SVGID_6_);}
	.st3{clip-path:url(#SVGID_8_);}
</style>
<g>
	<g>
		<defs>
			<polygon id="SVGID_1_" points="25,19.6 12.2,10.6 12.2,13.2 25,22.2 37.8,13.2 37.8,10.6 			"/>
		</defs>
		<clipPath id="SVGID_2_">
			<use xlink:href="#SVGID_1_"  style="overflow:visible;"/>
		</clipPath>
		<g class="st0">
			<defs>
				<rect id="SVGID_3_" x="10.1" y="8.9" width="29.9" height="21.3"/>
			</defs>
			<clipPath id="SVGID_4_">
				<use xlink:href="#SVGID_3_"  style="overflow:visible;"/>
			</clipPath>
			<rect x="1.5" y="-0.1" class="st1" width="46.9" height="32.9"/>
		</g>
	</g>
	<g>
		<defs>
			<path id="SVGID_5_" d="M37.8,11v15.5c-4.2,1-8.5,1.5-12.8,1.5s-8.6-0.5-12.8-1.5V11H37.8z M39.9,8.9H10.1v19.3
				c4.7,1.3,9.8,2,14.9,2s10.2-0.7,14.9-2V8.9z"/>
		</defs>
		<clipPath id="SVGID_6_">
			<use xlink:href="#SVGID_5_"  style="overflow:visible;"/>
		</clipPath>
		<g class="st2">
			<defs>
				<rect id="SVGID_7_" x="10.1" y="8.9" width="29.9" height="21.3"/>
			</defs>
			<clipPath id="SVGID_8_">
				<use xlink:href="#SVGID_7_"  style="overflow:visible;"/>
			</clipPath>
			<rect x="-0.6" y="-1.8" class="st3" width="51.2" height="42.6"/>
		</g>
	</g>
	<g>
		<path d="M10.5,41.1v-9.3h1.4v9.3H10.5z"/>
		<path d="M21.1,41.1v-6.2l-2.1,4.5h-1l-2.2-4.5v6.2h-1.4v-9.3h1.4l2.7,5.8l2.7-5.8h1.4v9.3H21.1z"/>
		<path d="M30.2,41.1l-0.6-1.9h-3.7l-0.6,1.9h-1.5l3.4-9.3h1.1l3.4,9.3H30.2z M27.8,33.9L26.3,38h2.9L27.8,33.9z"/>
		<path d="M36.6,37.4h-2.1v3.7h-1.4v-9.3h3.5c1.8,0,3,1.2,3,2.8C39.5,36.3,38.4,37.4,36.6,37.4z M36.5,33.1h-2v3.1h2
			c1,0,1.6-0.6,1.6-1.6C38.1,33.6,37.5,33.1,36.5,33.1z"/>
	</g>
</g>
</svg>
