<?xml version="1.0" encoding="UTF-8"?><svg id="Layer_1" xmlns="http://www.w3.org/2000/svg" xmlns:xlink="http://www.w3.org/1999/xlink" viewBox="0 0 50 50"><defs><style>.cls-1{fill:url(#linear-gradient);}.cls-1,.cls-2,.cls-3{fill-rule:evenodd;}.cls-4{fill:url(#linear-gradient-3);}.cls-5{fill:url(#linear-gradient-4);}.cls-6{fill:url(#linear-gradient-6);}.cls-7{fill:url(#linear-gradient-7);}.cls-8{fill:url(#linear-gradient-5);}.cls-2{fill:url(#linear-gradient-8);}.cls-3{fill:url(#linear-gradient-2);}</style><linearGradient id="linear-gradient" x1="-79.74" y1="543.04" x2="-80.6" y2="542.41" gradientTransform="translate(1903.75 12422.5) scale(23.39 -22.86)" gradientUnits="userSpaceOnUse"><stop offset="0" stop-color="#ffdb00"/><stop offset=".8" stop-color="#faa213"/></linearGradient><linearGradient id="linear-gradient-2" x1="-79.56" y1="548" x2="-80.88" y2="547.39" gradientTransform="translate(1854.44 16112.33) scale(22.81 -29.37)" gradientUnits="userSpaceOnUse"><stop offset=".04" stop-color="#ef5eb6"/><stop offset=".8" stop-color="#a070cb"/></linearGradient><linearGradient id="linear-gradient-3" x1="-40.75" y1="329.81" x2="-41.76" y2="328.84" gradientTransform="translate(105.88 734.61) scale(2.2 -2.2)" xlink:href="#linear-gradient"/><linearGradient id="linear-gradient-4" x1="-40.7" y1="326.95" x2="-41.44" y2="326.03" gradientTransform="translate(106.98 750.09) scale(2.2 -2.2)" xlink:href="#linear-gradient"/><linearGradient id="linear-gradient-5" x1="-39.55" y1="329.25" x2="-40.52" y2="328.25" gradientTransform="translate(112.31 738.02) scale(2.2 -2.2)" xlink:href="#linear-gradient"/><linearGradient id="linear-gradient-6" x1="-39.57" y1="327.92" x2="-40.49" y2="326.87" gradientTransform="translate(112.54 745.28) scale(2.2 -2.2)" xlink:href="#linear-gradient"/><linearGradient id="linear-gradient-7" x1="-66.63" y1="471.13" x2="-67.55" y2="470.07" gradientTransform="translate(385.13 2607.92) scale(5.5 -5.5)" gradientUnits="userSpaceOnUse"><stop offset=".04" stop-color="#ffdb00"/><stop offset=".8" stop-color="#faa213"/></linearGradient><linearGradient id="linear-gradient-8" x1="-51.19" y1="442.04" x2="-52.49" y2="441.49" gradientTransform="translate(183.33 1934.01) scale(3.02 -4.28)" gradientUnits="userSpaceOnUse"><stop offset=".04" stop-color="#ffde3f"/><stop offset=".8" stop-color="#faa213"/></linearGradient></defs><path class="cls-1" d="m33.51,36.08c5.5-3.76,8.2-11.44,6.06-19.32-2.06-7.32-10.85-13.22-21.01-10.39-4.21,1.19-7.93,2.94-9.66,5.44,1.63-2.96,6.29-6.27,11.49-7.32,11.35-2.28,19.18,4.36,20.89,12.04,1.57,7.48-1.49,15.18-7.77,19.54Z"/><path class="cls-3" d="m33.51,36.08h-.1c-.66.42-1.35.8-2.06,1.12-1.38.59-2.67,1.39-3.8,2.38-1.12.69-1.99,1.72-2.47,2.94-.09.26-.14.53-.14.8-.03.25,0,.5.07.74.05.17.11.34.2.49.1.18.24.35.39.49l.17.13c.24.16.5.27.79.32h.28c.22.02.44.02.66,0-.22,0-.74.13-1.19.18l-.74.1c-.32.06-.63.09-.95.11-10.3,1-15.85-9.53-8.93-15.42l.22-.18c1.01-.79,2.99-1.96,4.36-3.03l.38-.31.73-.64c.59-.56,1.12-1.19,1.57-1.88.08-.14.15-.28.24-.41s.17-.31.24-.46c.14-.31.26-.62.36-.94.18-.64.27-1.3.27-1.96.02-1.63-.37-3.25-1.15-4.68-.07-.14-.15-.27-.24-.39-1.97-2.76-5.28-4.23-8.65-3.84h-.83c-3.48.42-4.53,1.95-4.84,1.51-.04-.08-.04-.17,0-.25,0-.03,0-.07,0-.1.1-.36.26-.71.49-1.01v-.07c1.06-1.44,2.36-2.68,3.85-3.66,1.77-1.21,3.72-2.12,5.78-2.71,5.26-1.54,10.94-.44,15.25,2.94.21.15.42.31.62.48,2.16,1.8,3.83,4.13,4.85,6.76.15.39.27.77.38,1.16,2.14,7.88-.56,15.56-6.06,19.27Z"/><circle class="cls-4" cx="15.05" cy="10.16" r="1.54"/><circle class="cls-5" cx="16.59" cy="31.86" r="1.54"/><circle class="cls-8" cx="24.06" cy="14.94" r="1.54"/><circle class="cls-6" cx="24.38" cy="25.12" r="1.54"/><circle class="cls-7" cx="15.61" cy="20.2" r="3.85"/><path class="cls-2" d="m29.09,45.32c-.53.15-1.08.26-1.63.31h-.98c-.28-.06-.55-.17-.79-.32l-.17-.13c-.16-.14-.29-.31-.39-.49-.08-.16-.15-.32-.2-.49-.08-.27-.1-.55-.06-.83,0-.27.05-.54.14-.8.48-1.22,1.35-2.26,2.47-2.94-1.27,1.04-1.75,2.76-1.21,4.3.55,1.01,1.67,1.57,2.8,1.39Z"/></svg>