<?xml version="1.0" encoding="UTF-8"?><svg id="Layer_1" xmlns="http://www.w3.org/2000/svg" viewBox="0 0 50 50"><defs><style>.cls-1{fill:#7b7a7b;}.cls-1,.cls-2,.cls-3,.cls-4,.cls-5{fill-rule:evenodd;}.cls-2{fill:#94bbcd;}.cls-3{fill:#04a2e2;}.cls-4{fill:#241c24;}.cls-5{fill:#eaeaea;}</style></defs><g id="svgg"><path id="path0" class="cls-3" d="m23.16,2.54s-.3.05-.67.07c-.37.02-.67.05-.68.07,0,.02-.14.04-.28.04s-.27.02-.27.04-.18.05-.41.07c-.22.02-.41.05-.41.07s-.07.04-.16.04-.16.02-.16.04-.15.05-.34.07c-.19.02-.34.05-.34.07s-.07.04-.16.04-.15.02-.14.04c.01.02-.1.05-.25.07-.15.02-.27.05-.27.07s-.05.04-.11.04-.11.02-.11.04-.1.05-.23.07c-.13.02-.26.05-.31.07-.2.1-.41.18-.5.18-.05,0-.09.02-.09.05s-.05.05-.11.05-.11.02-.11.05-.05.05-.1.05c-.06,0-.16.03-.23.07-.07.04-.16.07-.19.07s-.06.02-.06.04-.07.05-.16.07c-.09.02-.16.05-.16.07s-.05.04-.11.04-.11.02-.11.04-.07.05-.16.07c-.09.02-.16.05-.16.07s-.03.04-.07.04-.07.02-.07.04-.06.05-.14.07c-.08.02-.19.07-.26.11-.07.05-.17.1-.23.11-.06.02-.16.07-.21.11-.05.05-.16.1-.24.12-.08.02-.14.05-.14.07s-.03.04-.07.04-.07.02-.07.05-.03.05-.07.05c-.07,0-.29.12-.34.18-.01.02-.07.04-.14.06-.06.02-.14.07-.18.12-.04.04-.13.09-.19.11-.07.02-.15.07-.18.11-.03.04-.1.09-.16.11-.06.02-.1.05-.1.07s-.03.04-.06.04-.09.03-.12.07-.09.07-.14.07-.09.04-.11.09c-.02.05-.08.1-.14.11s-.11.05-.11.07-.03.04-.06.04-.11.05-.18.11c-.07.06-.13.11-.15.11-.03,0-.09.05-.22.17-.03.03-.08.06-.1.06s-.08.05-.14.11c-.06.06-.14.11-.18.11s-.06.02-.04.05c.02.02,0,.05-.02.05s-.09.05-.15.11c-.06.06-.15.12-.2.14-.05.02-.11.07-.12.12-.02.05-.04.09-.06.09-.17,0-2.67,2.5-2.67,2.67,0,.02-.04.04-.09.06-.05.02-.1.07-.12.12-.02.05-.08.14-.14.2-.06.06-.11.13-.11.15s-.02.03-.05.02c-.02-.02-.05,0-.05.04s-.05.12-.11.18c-.06.06-.11.12-.11.14s-.03.06-.06.1c-.12.14-.17.2-.17.22,0,.01-.05.08-.11.15-.06.07-.11.15-.11.18s-.02.06-.04.06-.06.05-.07.11-.07.12-.11.14c-.05.01-.09.06-.09.11s-.03.11-.07.14-.07.08-.07.12-.02.06-.04.06-.06.05-.07.1c-.02.06-.07.13-.11.16-.04.03-.09.11-.11.18-.02.07-.07.15-.11.19-.04.04-.1.12-.12.18-.02.06-.05.12-.06.14-.06.05-.18.27-.18.34,0,.04-.02.07-.05.07s-.05.03-.05.07-.02.07-.04.07-.06.06-.07.14c-.02.08-.07.19-.12.24-.05.05-.1.14-.11.21-.02.06-.07.17-.11.23-.05.07-.1.18-.11.26-.02.08-.05.14-.07.14s-.04.03-.04.07-.02.07-.04.07-.06.07-.07.16c-.02.09-.05.16-.07.16s-.04.05-.04.11-.02.11-.04.11-.06.07-.07.16c-.02.09-.05.16-.07.16s-.04.03-.04.06-.03.12-.07.19c-.04.07-.07.18-.07.23,0,.06-.02.1-.05.1s-.05.05-.05.11-.02.11-.05.11-.05.04-.05.09c0,.09-.08.3-.18.5-.02.04-.05.18-.07.31-.02.13-.05.23-.07.23s-.04.05-.04.11-.02.11-.04.11-.05.12-.07.27c-.02.15-.05.26-.07.25-.02-.01-.04.05-.04.14s-.02.16-.04.16-.06.15-.07.34c-.02.19-.05.34-.07.34s-.04.07-.04.16-.02.16-.04.16-.05.18-.07.41c-.02.22-.05.41-.07.41s-.04.12-.04.27-.02.27-.04.28c-.02,0-.06.32-.07.68-.02.37-.05.67-.07.67s-.04.84-.04,1.88.02,1.88.04,1.88.05.3.07.67c.02.37.05.67.07.68.02,0,.04.13.04.26s.02.24.04.24.05.18.07.41c.02.22.05.41.07.41s.04.07.04.16.02.16.04.16.05.15.07.34c.02.19.05.34.07.34s.04.07.04.16.02.16.04.16.06.12.07.27c.02.15.05.27.07.27s.04.05.04.11.02.11.04.11.06.1.07.23c.02.12.05.24.07.25.02.01.04.08.04.14s.02.11.04.11.06.09.07.2c.02.11.05.2.07.2s.04.05.04.11.02.11.04.11.05.08.07.18c.02.1.05.18.07.18s.04.03.04.06.03.12.07.19c.04.07.07.17.07.21,0,.04.02.08.05.08s.05.04.05.09.02.1.04.11c.02.01.06.09.07.16.02.07.05.14.07.14s.04.04.04.09.02.09.05.09.05.02.05.05c0,.06.36.82.41.85.02.01.05.08.06.15.02.07.05.12.07.12s.04.04.04.09.02.09.04.09.05.05.07.1c.01.06.06.14.11.19.04.05.12.17.16.26.04.09.1.17.12.17s.05.06.07.12c.01.07.06.17.11.22.05.05.1.14.12.19s.05.1.07.1.04.03.04.07.02.07.04.07.06.05.07.1c.02.06.07.13.12.17.05.04.08.09.08.11,0,.04.15.24.28.39.04.05.08.1.08.13s.04.08.08.13c.04.04.12.14.17.21.05.07.12.15.15.19.03.03.06.07.06.09s.07.1.16.18c.09.08.16.17.16.2s.08.13.18.23.18.19.18.21c0,.03.14.19.28.33.03.03.08.08.11.11.03.03.08.08.11.11.03.03.08.08.11.11.03.03.08.08.11.11.03.03.11.12.17.2.13.18.24.28.5.49.11.09.21.18.24.22.03.03.08.08.11.11.03.03.08.08.11.11.03.03.08.08.11.11.03.03.11.11.18.18.06.07.13.12.16.12s.13.09.25.2c.12.11.23.2.25.2s.1.06.17.14c.07.07.16.14.2.14s.08.04.1.09c.02.05.06.1.1.11.04.01.14.08.21.14.07.06.15.11.18.11s.09.05.13.11c.05.06.12.11.16.11s.09.03.11.07.08.09.14.11c.06.02.11.06.11.09s.04.05.09.05.1.03.11.07c.01.04.07.07.11.07s.1.03.11.07.07.09.13.11c.11.05.27.14.31.18.01.01.1.06.19.11.09.05.17.1.17.12s.03.04.06.04.13.05.22.11c.09.06.22.12.28.14.07.02.12.05.12.07s.03.04.07.04.07.02.07.05.04.05.08.05.15.05.25.11c.09.06.18.11.2.11.05,0,.36.15.38.18.01.02.09.04.17.06.08.02.15.05.15.07s.03.04.07.04.07.02.07.04.09.06.2.07c.11.02.2.05.2.07s.03.04.07.04.07.02.07.04.08.05.18.07c.1.02.18.05.18.07s.04.04.09.04.1.02.11.04.12.06.23.07c.11.02.2.05.2.07s.05.04.11.04.11.02.11.04.08.06.18.07c.1.02.19.05.21.07.01.02.07.04.13.04s.12.02.13.04c.01.02.13.05.25.07.12.02.23.05.23.07s.06.04.14.04.14.02.14.04.12.06.27.07c.15.02.27.05.27.07s.07.04.16.04.17.02.18.04c.01.02.17.05.34.07.17.02.32.05.32.07s.07.04.16.04.2.02.24.04c.05.02.28.06.52.07.24.02.43.05.43.07s.12.04.26.04.29.02.32.06c.04.04.63.06,2.63.06s2.58-.01,2.63-.06c.03-.03.17-.06.32-.06s.27-.02.28-.04c.01-.02.23-.05.48-.07.25-.02.46-.05.48-.07.01-.02.1-.04.2-.04s.19-.02.2-.04c.01-.02.17-.06.34-.07.17-.02.33-.05.34-.07.01-.02.08-.04.16-.04s.13-.02.13-.04.12-.05.27-.07c.15-.02.28-.05.3-.07.01-.02.09-.04.16-.04s.13-.02.13-.04.1-.06.23-.07.23-.05.23-.07.06-.04.14-.04.14-.02.14-.04.09-.05.2-.07c.11-.02.2-.05.2-.07s.05-.04.11-.04.11-.02.11-.05.05-.05.1-.05c.06,0,.16-.03.23-.07.07-.04.16-.07.19-.07s.06-.02.06-.04.08-.05.18-.07c.1-.02.18-.05.18-.07s.04-.04.09-.04.09-.02.09-.04.08-.05.18-.07c.1-.02.18-.05.18-.07s.03-.04.07-.04.07-.02.07-.04.07-.05.16-.07c.09-.02.16-.04.16-.06,0-.03.33-.19.39-.19.01,0,.08-.04.15-.09.07-.05.18-.1.24-.12.07-.02.12-.05.12-.07s.03-.04.07-.04.07-.02.07-.04.06-.05.14-.07c.08-.01.18-.07.24-.12.05-.05.15-.1.2-.12s.1-.04.1-.07.03-.04.06-.04.09-.03.12-.07c.03-.04.09-.07.14-.07s.08-.02.08-.05.03-.05.07-.05.07-.02.07-.04.05-.06.1-.07c.06-.02.13-.07.17-.11.04-.04.11-.09.17-.11.06-.02.1-.05.1-.07s.03-.04.07-.04.07-.02.07-.04.05-.06.1-.07c.06-.02.13-.07.17-.11.04-.04.11-.09.17-.11.05-.02.11-.07.13-.12.02-.05.05-.09.09-.09s.12-.05.19-.11c.07-.06.15-.11.16-.11.02,0,.08-.05.14-.11.06-.06.15-.12.2-.14.05-.02.11-.07.12-.12s.07-.1.13-.12.18-.12.29-.23c.11-.11.21-.2.24-.2s.22-.17.43-.37c.21-.21.52-.51.69-.67.45-.44,1.16-1.2,1.19-1.26.01-.03.1-.14.21-.24.1-.1.2-.23.22-.28s.07-.11.12-.13.1-.07.12-.12c.02-.05.08-.14.14-.2.06-.06.11-.12.11-.14,0-.02.05-.09.11-.16.06-.07.11-.16.11-.19s.04-.07.09-.09c.05-.02.1-.07.12-.13.02-.05.07-.13.11-.17.04-.04.09-.11.11-.17.02-.06.05-.1.07-.1s.04-.03.04-.07.02-.07.04-.07.06-.05.07-.1c.02-.06.07-.13.11-.17.04-.04.09-.11.11-.17.02-.06.05-.1.07-.1s.04-.03.04-.07.02-.07.05-.07.05-.04.05-.08.03-.11.07-.14c.04-.03.07-.08.07-.12s.02-.06.04-.06.05-.05.07-.1.07-.15.12-.2c.05-.06.11-.16.12-.24.02-.08.05-.14.07-.14s.04-.03.04-.07.02-.07.04-.07.05-.05.07-.12c.02-.07.07-.18.12-.24.05-.07.09-.13.09-.15,0-.06.16-.39.19-.39.02,0,.05-.07.06-.16.02-.09.05-.16.07-.16s.04-.03.04-.07.02-.07.04-.07.06-.08.07-.18c.02-.1.05-.18.07-.18s.04-.04.04-.09.02-.09.04-.09.05-.08.07-.18c.02-.1.05-.18.07-.18s.04-.03.04-.06.03-.12.07-.19c.04-.07.07-.18.07-.23,0-.06.02-.1.05-.1s.05-.05.05-.11.02-.11.04-.11.06-.09.07-.2c.02-.11.05-.2.07-.2s.04-.06.04-.14.02-.14.04-.14.06-.1.07-.23.05-.23.07-.23.04-.06.04-.13.02-.14.04-.16c.02-.01.06-.15.07-.3.02-.15.05-.27.07-.27s.04-.06.04-.13.02-.14.04-.16c.02-.01.05-.17.07-.34.02-.17.05-.33.07-.34.02-.01.04-.11.04-.2s.02-.19.04-.2c.02-.01.06-.23.07-.48.02-.25.05-.46.07-.48.02-.01.04-.14.04-.28s.02-.28.06-.32c.04-.04.06-.63.06-2.63s-.01-2.58-.06-2.63c-.03-.03-.06-.17-.06-.32s-.02-.26-.04-.26-.05-.2-.07-.43c-.02-.24-.05-.47-.07-.52-.02-.05-.04-.15-.04-.24s-.02-.16-.04-.16-.05-.14-.07-.32c-.02-.17-.05-.33-.07-.34-.02-.01-.04-.1-.04-.18s-.02-.16-.04-.16-.05-.12-.07-.27c-.02-.15-.05-.27-.07-.27s-.04-.06-.04-.14-.02-.14-.04-.14-.06-.1-.07-.23c-.02-.12-.05-.24-.07-.25-.02-.01-.04-.07-.04-.13s-.02-.12-.04-.13c-.02-.01-.05-.11-.07-.21-.02-.1-.05-.18-.07-.18s-.04-.05-.04-.11-.02-.11-.04-.11-.05-.09-.07-.2c-.02-.11-.05-.21-.07-.23s-.04-.07-.04-.11-.02-.09-.04-.09-.05-.08-.07-.18c-.02-.1-.05-.18-.07-.18s-.04-.03-.04-.07-.02-.07-.04-.07-.05-.09-.07-.2c-.02-.11-.05-.2-.07-.2s-.04-.03-.04-.07-.02-.07-.04-.07-.06-.07-.07-.15c-.02-.08-.05-.16-.06-.17-.03-.03-.18-.34-.18-.38,0-.02-.05-.1-.11-.2-.06-.09-.11-.2-.11-.25s-.02-.08-.05-.08-.05-.03-.05-.07-.02-.07-.04-.07-.05-.05-.07-.12c-.02-.07-.08-.19-.14-.28-.06-.09-.11-.19-.11-.22s-.02-.06-.04-.06-.08-.08-.12-.17c-.05-.09-.1-.18-.11-.19-.04-.04-.13-.2-.18-.31-.02-.06-.08-.11-.11-.13s-.07-.07-.07-.11-.03-.1-.07-.11c-.04-.01-.07-.06-.07-.11s-.02-.09-.05-.09-.07-.05-.09-.11c-.02-.06-.07-.13-.11-.14s-.07-.06-.07-.11-.05-.12-.11-.16c-.06-.05-.11-.11-.11-.13s-.05-.11-.11-.18c-.06-.07-.12-.17-.14-.21-.01-.04-.06-.09-.11-.1-.05-.02-.09-.06-.09-.1s-.06-.13-.14-.2c-.07-.07-.14-.15-.14-.17s-.09-.13-.2-.25c-.11-.12-.2-.23-.2-.25s-.06-.09-.12-.16c-.07-.06-.15-.14-.18-.18-.03-.03-.08-.08-.11-.11-.03-.03-.08-.08-.11-.11-.03-.03-.08-.08-.11-.11-.03-.03-.13-.14-.22-.24-.21-.26-.32-.36-.49-.5-.14-.11-.17-.14-.31-.28-.03-.03-.08-.08-.11-.11-.03-.03-.08-.08-.11-.11-.03-.03-.08-.08-.11-.11-.03-.03-.08-.08-.11-.11-.08-.09-.19-.17-.22-.17-.02,0-.11-.08-.21-.18s-.2-.18-.23-.18-.11-.07-.2-.16c-.08-.09-.16-.16-.18-.16s-.06-.03-.09-.06c-.03-.03-.12-.1-.19-.15-.07-.05-.16-.13-.21-.17-.04-.04-.1-.08-.13-.08s-.08-.04-.13-.08c-.14-.14-.34-.28-.39-.28-.02,0-.07-.04-.11-.08-.04-.05-.12-.1-.17-.12-.06-.02-.1-.05-.1-.07s-.03-.04-.07-.04-.07-.02-.07-.04-.04-.06-.1-.07-.14-.07-.19-.12c-.05-.05-.15-.1-.22-.11-.07-.01-.12-.04-.12-.07s-.08-.08-.17-.12c-.09-.04-.21-.11-.26-.16-.05-.04-.14-.09-.19-.11-.06-.01-.1-.04-.1-.07s-.04-.04-.09-.04-.09-.02-.09-.04-.06-.05-.12-.07c-.07-.02-.13-.05-.15-.06-.03-.05-.79-.41-.85-.41-.03,0-.05-.02-.05-.05s-.04-.05-.09-.05-.09-.02-.09-.04-.06-.06-.14-.07c-.07-.02-.15-.05-.16-.07-.01-.02-.07-.04-.11-.04s-.09-.02-.09-.05-.04-.05-.08-.05c-.04,0-.14-.03-.21-.07-.07-.04-.16-.07-.19-.07s-.06-.02-.06-.04-.08-.05-.18-.07c-.1-.02-.18-.05-.18-.07s-.05-.04-.11-.04-.11-.02-.11-.04-.09-.05-.2-.07c-.11-.02-.2-.05-.2-.07s-.05-.04-.11-.04-.12-.02-.14-.04c-.01-.02-.13-.05-.25-.07-.12-.02-.23-.05-.23-.07s-.05-.04-.11-.04-.11-.02-.11-.04-.12-.05-.27-.07c-.15-.02-.27-.05-.27-.07s-.07-.04-.16-.04-.16-.02-.16-.04-.15-.06-.34-.07c-.19-.02-.34-.05-.34-.07s-.07-.04-.16-.04-.16-.02-.16-.04-.18-.06-.41-.07c-.22-.02-.41-.05-.41-.07s-.11-.04-.24-.04-.25-.02-.26-.04c0-.02-.32-.06-.68-.07-.37-.02-.67-.05-.67-.07s-.84-.04-1.88-.04-1.88.02-1.88.04m3.07,3.06c.81.06,1.58.14,2.01.22,1.09.2,1.35.26,2.19.49,3.44.94,6.79,3.1,9.33,6,.65.74,2.1,2.78,2.1,2.95,0,0,.1.19.22.4.77,1.34,1.46,3.13,1.88,4.85.06.25.09.41.21.99.06.29.16,1.04.24,1.67.08.65.08,3.04,0,3.68-.58,4.84-2.38,8.66-5.63,11.91s-7.08,5.06-11.91,5.63c-.64.08-3.04.08-3.68,0-.63-.07-1.38-.18-1.67-.24-.12-.02-.34-.07-.47-.09-1.76-.35-3.89-1.14-5.37-1.99-.21-.12-.39-.22-.4-.22s-.26-.15-.56-.34c-3.51-2.2-6.24-5.46-7.78-9.31-.53-1.33-.82-2.39-1.13-4.09-.32-1.82-.32-4.42,0-6.24.44-2.47,1.18-4.56,2.34-6.58,3.68-6.4,10.81-10.24,18.09-9.72"/><path id="path1" class="cls-4" d="m16.87,24.78v4.35h2.05c1.3,0,2.14-.02,2.29-.05.93-.19,1.45-.47,1.96-1.06.77-.9,1.16-2.63.93-4.08-.08-.51-.18-.97-.23-1.06-.02-.04-.04-.1-.04-.13,0-.19-.48-.99-.79-1.31-.2-.21-.66-.58-.72-.58-.01,0-.13-.05-.26-.11-.5-.23-.75-.26-3.05-.28l-2.14-.02v4.35m11.37-4.3c-.05.04-.12.18-.21.42-.03.09-.08.22-.11.29-.03.07-.08.21-.11.29-.03.09-.08.22-.11.29s-.09.23-.13.34c-.09.24-.16.39-.21.52-.02.05-.09.23-.16.41-.06.17-.14.38-.18.45-.03.07-.08.21-.12.29-.03.09-.08.22-.11.29-.03.07-.08.21-.11.29-.03.09-.08.22-.11.29-.03.07-.08.21-.11.29-.03.09-.08.22-.11.29s-.09.23-.13.34c-.04.11-.1.24-.12.29-.11.27-.54,1.38-.54,1.4,0,.01-.04.11-.09.22-.05.11-.11.26-.14.35-.03.09-.08.22-.11.29-.03.07-.09.24-.14.36-.04.12-.09.25-.11.27-.02.02-.05.11-.06.19l-.03.15h1.77l.07-.16c.04-.09.1-.26.14-.37.04-.11.09-.25.11-.3.02-.05.09-.24.16-.43.21-.58.22-.61.26-.67.05-.06,3.4-.08,3.49-.02.03.02.07.1.11.19.03.09.08.22.11.29.03.07.08.21.11.29.03.09.08.22.11.29.03.07.08.21.11.29.03.09.07.2.1.25s.06.15.08.21l.04.12h1.85l-.06-.17c-.06-.16-.3-.78-.39-.98-.02-.05-.12-.3-.23-.57-.1-.26-.2-.52-.23-.57-.02-.05-.12-.3-.23-.57-.1-.26-.2-.52-.23-.57-.02-.05-.12-.3-.23-.57-.1-.26-.2-.52-.23-.57-.02-.05-.12-.3-.23-.57-.1-.26-.2-.52-.23-.57-.02-.05-.12-.3-.23-.57-.1-.26-.2-.52-.23-.57-.02-.05-.12-.3-.23-.57-.25-.64-.26-.66-.4-.99l-.12-.29h-.88c-.48-.02-.9,0-.93.01m6.34,0s-.03,1.97-.03,4.34v4.31h.85s.85-.02.85-.02v-1.61s.02-1.61.02-1.61l.99-.03c1.86-.06,2.21-.12,2.83-.51.41-.26.76-.72.96-1.26.12-.32.12-1.62,0-1.93-.29-.79-.83-1.32-1.57-1.55-.38-.12-4.79-.23-4.9-.12m-25.1.12s-.02,1.96,0,4.28v4.23s3.05.01,3.05.01h3.04s0-.69,0-.69v-.7h-2.18s-2.18-.02-2.18-.02v-3.58s-.02-3.58-.02-3.58h-.84c-.63,0-.84.01-.86.06m11.58,1.42c.72.28,1.05.73,1.24,1.68.06.32.06,1.89,0,2.21-.3,1.52-.78,1.83-2.77,1.8h-.93s-.01-2.92-.01-2.92v-2.91s1.11.02,1.11.02c.99.02,1.15.03,1.36.11m17.57-.02c1.01.45,1.03,1.78.03,2.26-.2.09-1.14.18-1.84.16h-.54s-.01-1.27-.01-1.27v-1.26s1.08.02,1.08.02c.93.02,1.12.03,1.28.1m-9.34.92c.08.22.16.44.18.49.09.22.18.48.3.79.07.19.14.38.16.43.21.53.36.96.36,1.04s-2.32.1-2.37.03c-.01-.02.02-.17.08-.33.06-.16.19-.52.3-.81.1-.29.21-.56.23-.61s.09-.23.15-.41c.36-1,.39-1.07.43-1.04.02.01.1.2.18.42"/><path id="path2" class="cls-5" d="m23.63,5.65s-.31.04-.59.06c-.43.04-.8.09-1.54.2-.1.02-.25.05-.34.07-.09.02-.32.07-.52.12-.2.04-.41.09-.47.11s-.25.07-.41.11c-2.59.7-5.41,2.21-7.41,3.98-.87.76-1.3,1.19-2.06,2.06-1.44,1.64-2.79,3.94-3.52,6.01-.19.53-.37,1.08-.45,1.4-.04.16-.1.34-.11.41s-.07.28-.11.47c-.04.2-.09.43-.11.52-.05.2-.12.64-.19,1.08-.21,1.51-.23,4.05-.04,5.27.2,1.24.25,1.49.49,2.51.06.25.35,1.21.41,1.33.02.05.07.19.11.32s.11.29.14.37c.03.08.06.15.06.17s.07.18.16.37c.09.19.16.36.16.38,0,.08.79,1.58,1.02,1.96.06.09.11.18.11.2s.05.09.11.17c.06.08.11.17.11.2s.02.06.03.06c.02,0,.11.14.21.29.22.33,1,1.39,1.2,1.6.08.09.23.26.33.39.26.32,1.47,1.51,1.89,1.87.72.61,2.27,1.76,2.38,1.76.01,0,.09.05.16.1.08.06.18.12.23.15.05.03.33.18.61.34.56.31,1.2.62,1.97.94.05.02.16.07.25.11.19.08,1.27.44,1.65.55.15.04.32.09.38.11.1.03.46.12.93.23,2.37.55,5.44.57,7.96.07.59-.12.7-.14,1.15-.26.7-.19,1.28-.37,1.56-.48.05-.02.29-.11.54-.21,4.9-1.84,9.19-6.13,11.03-11.03.09-.25.19-.49.21-.54.12-.28.3-.86.48-1.56.12-.45.14-.56.26-1.15.5-2.51.48-5.59-.07-7.96-.11-.46-.2-.82-.23-.93-.02-.06-.07-.24-.11-.38-.11-.38-.47-1.46-.55-1.65-.04-.09-.09-.2-.11-.25-.32-.77-.63-1.41-.94-1.97-.16-.29-.31-.56-.34-.61-.03-.05-.09-.15-.15-.23-.06-.08-.1-.15-.1-.16,0-.11-1.14-1.66-1.76-2.38-.36-.42-1.56-1.63-1.87-1.89-.13-.11-.3-.26-.39-.33-.22-.19-1.27-.98-1.6-1.2-.15-.1-.28-.19-.29-.21,0-.02-.04-.03-.06-.03s-.12-.05-.2-.11c-.08-.06-.16-.11-.17-.11s-.1-.05-.2-.11c-.38-.24-1.88-1.02-1.96-1.02-.02,0-.19-.07-.38-.16-.19-.09-.35-.16-.37-.16s-.09-.03-.17-.06c-.08-.04-.24-.1-.37-.14s-.27-.09-.32-.11c-.13-.05-1.09-.35-1.33-.41-.85-.21-1.13-.27-1.7-.36-1.37-.23-1.95-.27-3.44-.26-.65,0-1.22.01-1.27.02m-2.46,14.79c.44.06.58.09,1.06.31.74.32,1.54,1.34,1.74,2.21.03.12.07.27.09.32.42,1.11.07,3.63-.65,4.56-.2.27-.64.7-.7.7-.03,0-.06.02-.06.04,0,.05-.68.38-.93.45-.1.03-.26.07-.36.1-.12.04-.87.06-2.36.07l-2.18.02v-4.4c0-2.42.01-4.42.03-4.44.05-.05,3.87,0,4.31.05m8.88-.05s.07.08.1.15c.13.29.2.45.2.48,0,.02.05.15.11.28.06.13.11.25.11.28s.02.08.04.12c.08.15.18.41.18.45,0,.02.05.15.11.28.06.13.11.25.11.28s.02.08.04.12c.08.15.18.41.18.45,0,.02.05.15.11.28.06.13.11.25.11.28s.02.08.04.12c.08.15.18.41.18.45,0,.02.05.15.11.28.06.13.11.25.11.28s.02.08.04.12c.08.15.18.41.18.45,0,.02.05.15.11.28.06.13.11.26.11.29s.02.08.04.1.07.14.12.27c.04.12.13.33.19.46.06.13.11.25.11.27s.04.12.09.22c.05.1.1.25.12.32.01.07.04.14.07.14s.04.03.04.07c0,.06.02.12.22.57.05.12.11.27.12.34s.05.14.08.16c.21.13-.02.17-.98.17h-.97l-.21-.53c-.11-.29-.28-.73-.38-.98l-.17-.45h-1.72s-1.72-.02-1.72-.02l-.08.22c-.04.12-.09.26-.11.31-.11.26-.27.73-.27.76,0,.02-.03.11-.07.2-.09.21-.14.33-.17.42-.03.08-1.86.13-1.94.05-.02-.02.04-.24.15-.49.02-.05.12-.3.22-.57s.2-.52.22-.57c.02-.05.06-.16.1-.25.03-.09.08-.22.11-.29.03-.07.08-.21.11-.29.03-.09.08-.22.11-.29.06-.14.19-.48.25-.63.09-.24.2-.51.25-.63.03-.08.12-.31.2-.52.08-.21.17-.44.2-.52.03-.08.09-.21.12-.3.03-.09.08-.22.11-.29.03-.07.08-.21.11-.29.03-.09.08-.22.11-.29.06-.14.19-.48.25-.63.07-.19.2-.5.25-.63.03-.07.15-.39.27-.7.27-.69.15-.63,1.2-.63.48,0,.9.01.93.03m8.45.01c1.11.08,1.47.22,1.99.74.56.56.71.99.71,1.97,0,1.38-.54,2.17-1.8,2.64-.21.08-.88.13-1.95.14l-1.14.02v1.64s-.02,1.64-.02,1.64h-1.81v-4.36c-.02-2.4-.01-4.39,0-4.42.03-.07,3.1-.08,4.02,0m-27.28,3.66v3.62h2.2s2.2.02,2.2.02v1.49h-3.09c-2.44.02-3.1.01-3.13-.03-.04-.07-.05-8.53,0-8.64.02-.06.15-.07.93-.07h.9v3.62m7.46.74v2.88h.76c1.79,0,2.36-.26,2.65-1.2.05-.15.11-.33.13-.41.07-.19.07-2.3,0-2.49-.03-.07-.09-.26-.14-.42s-.1-.28-.12-.28-.03-.03-.03-.06c0-.12-.41-.52-.64-.63-.41-.19-.53-.21-1.58-.24l-1.03-.03v2.88m17.63-1.67v1.21l1.03-.03c1.03-.03,1.15-.05,1.49-.23.53-.29.67-1.15.27-1.66-.13-.16-.22-.23-.58-.41-.04-.02-.56-.05-1.14-.07l-1.06-.03v1.21m-7.26-.39c-.03.07-.08.22-.13.35-.04.12-.09.27-.11.32-.02.05-.07.19-.11.32-.04.12-.09.27-.11.32s-.09.24-.16.43c-.11.31-.21.56-.3.79-.02.05-.06.16-.08.24l-.05.15h2.25l-.05-.12c-.13-.31-.16-.41-.22-.55-.03-.09-.07-.2-.09-.25-.02-.05-.07-.19-.11-.32-.04-.12-.1-.29-.13-.36-.03-.07-.08-.21-.11-.29-.03-.09-.07-.2-.09-.25-.02-.05-.07-.19-.11-.32-.04-.12-.09-.26-.12-.3-.02-.04-.04-.11-.04-.14,0-.12-.07-.11-.12.01"/><path id="path3" class="cls-1" d="m16.85,20.45s-.02,2.01-.01,4.4v4.34s1.48.01,1.48.01c.81,0,1.71,0,2.01-.03.42-.03.1-.04-1.46-.05h-2v-8.7l2.14.03c1.17.01,2.21.04,2.29.05l.16.02-.14-.05c-.22-.08-4.44-.11-4.48-.03m11.34,0c-.07.09-.11.22-.06.19.02-.02.04-.05.04-.09,0-.1.11-.12,1-.12h.86l.11.24c.06.13.11.22.11.2,0-.06-.15-.42-.2-.45-.09-.06-1.82-.04-1.87.02m6.3,0c-.07.19-.03,8.6.04,8.68.11.11,1.74.1,1.74-.01,0-.02-.39-.02-.86-.02h-.86s.01-4.32.01-4.32v-4.33s1.98,0,1.98,0c1.08,0,2.15.01,2.37.03.3.02.37.02.25-.02-.32-.09-4.64-.11-4.67-.02m-25.05.08s-.02,1.98-.01,4.33v4.27h6.16v-1.45h-2.18s-2.18-.02-2.18-.02v-3.58s-.02-3.58-.02-3.58h-.87c-.67-.02-.88-.01-.89.03m1.75,3.57v3.58s2.19.01,2.19.01h2.18v1.41h-3.04s-3.04-.02-3.04-.02v-4.23c-.02-2.32-.01-4.25,0-4.28.02-.04.23-.06.86-.06h.84v3.58m10.4-3.54c.06.02.15.04.2.04h.09s-.09-.04-.09-.04c-.05-.02-.14-.04-.2-.04h-.11s.11.04.11.04m17.92.02c.6.2,1.16.68,1.38,1.18.25.55.22.51.19.36-.13-.63-1.01-1.5-1.61-1.58-.13-.02-.13-.02.03.04m-17.61.05s.4.21.45.2c.04,0-.11-.08-.29-.16-.09-.04-.16-.06-.16-.04m6.13.16c-.02.05-.02.11,0,.12s.04-.02.05-.07c.02-.05.02-.11,0-.12s-.04.02-.05.07m-5.63.06s.09.08.19.15c.51.35,1.25,1.39,1.25,1.74,0,.04.02.08.05.1.15.09-.27-.77-.56-1.17-.26-.35-.94-.95-.94-.82m7.89.17c.02.06.05.12.07.15s.02-.02,0-.1c-.06-.16-.11-.2-.06-.04m-2.38.06c-.03.07-.04.14-.03.15s.04-.03.07-.1c.03-.07.04-.14.03-.15s-.04.03-.07.1m2.49.18c0,.06.29.75.3.73.02-.02-.25-.71-.29-.75-.01-.01-.02,0-.02.02m-2.66.28c-.05.14-.09.27-.08.28.01.01.04-.04.07-.11.03-.07.07-.19.1-.26.03-.07.04-.14.03-.15-.01-.01-.07.09-.12.23m-9.13,3.24v2.9s1,.01,1,.01c.54,0,1.05,0,1.12-.02.07-.02-.36-.03-.97-.02l-1.11.02v-2.9c.02-1.59,0-2.9-.01-2.9s-.03,1.31-.02,2.9m1.56-2.86c.33.02.66.05.72.06.11.02.11.02.04-.02-.05-.03-.34-.06-.72-.07h-.64s.6.02.6.02m7.34.21c-.05.14-.09.27-.08.28.01.01.03-.02.05-.06.02-.05.06-.16.1-.26.04-.09.06-.18.05-.19s-.07.09-.12.23m10.4-.21c.67.04,1,.16,1.2.44.17.23.23.29.13.12-.26-.44-.58-.57-1.34-.59h-.57s.57.03.57.03m-16.66.2c.41.19.66.47.86.96.06.15.11.23.11.19,0-.38-.78-1.25-1.13-1.25-.04,0,.03.05.16.11m9.49.04c.02.06.05.12.07.15s.02-.02,0-.1c-.06-.16-.11-.2-.06-.04m10.39.97c0,.44.01.74.03.69.04-.14.04-1.3,0-1.4-.02-.04-.03.28-.03.71m-10.28-.73c0,.06.29.75.3.73.02-.02-.25-.71-.29-.75-.01-.01-.02,0-.02.02m-1.81.18c-.15.39-.36.99-.34,1,0,0,.08-.16.16-.38.23-.64.24-.65.27-.61.02.02.07.13.11.25.04.12.09.21.1.2.02-.02-.16-.49-.21-.55-.02-.02-.06.01-.09.09m10.29.22c.04.22.06.26.06.09,0-.07-.02-.16-.05-.2-.03-.05-.04-.02-.02.11m-12.09.03c-.03.08-.04.15-.03.16,0,0,.04-.05.07-.13.03-.08.04-.15.03-.16,0,0-.04.05-.07.13m-3.3.15s.03.17.07.34c.04.17.09.41.11.55l.04.25-.02-.29c-.02-.3-.13-.8-.17-.85-.01-.01-.03,0-.03,0m3.21.08s-.04.14-.09.27c-.05.13-.07.22-.05.19.06-.07.2-.44.17-.47-.01-.01-.02-.01-.02,0m2.22.08s.02.1.04.14c.04.06.04.06.04,0,0-.04-.02-.1-.04-.14-.04-.06-.04-.06-.04,0m1.83.15c.02.06.05.12.07.15s.02-.02,0-.1c-.06-.16-.11-.2-.06-.04m8.15.09c-.05.27-.25.57-.48.71-.11.07-.19.13-.16.13.22,0,.71-.64.68-.89-.01-.11-.02-.11-.05.05m-17.1.14c.09.64.11.69.08.32-.01-.2-.04-.39-.07-.43-.03-.05-.03-.01-.02.11m7.21-.11c.21.57.32.85.34.84,0,0-.04-.16-.1-.33-.06-.17-.13-.36-.14-.41-.01-.06-.04-.12-.07-.13-.03-.02-.04,0-.02.03m1.85.11c0,.06.29.75.3.73.02-.02-.25-.71-.29-.75-.01-.01-.02,0-.02.02m-2.69.2c-.02.05-.02.11,0,.12s.04-.02.05-.07c.02-.05.02-.11,0-.12s-.04.02-.05.07m-1.82.27c-.03.08-.04.14-.03.14.03,0,.12-.23.09-.26-.01-.01-.04.04-.07.12m1.74-.06s-.03.1-.05.17q-.03.13.04-.02c.06-.13.06-.26,0-.16m12.51.13c-.1.41-.58,1.05-.95,1.27-.11.06-.2.13-.2.14,0,.06.36-.2.6-.43.27-.26.66-.93.61-1.05-.01-.04-.04,0-.06.07m-14.37.2c-.02.05-.02.11,0,.12s.04-.02.05-.07c.02-.05.02-.11,0-.12s-.04.02-.05.07m11.55.03l-.34.06.34-.02c.19-.01.36-.04.38-.07.03-.03.03-.04,0-.04-.02,0-.2.03-.38.07m-15.85.47c0,.29,0,.4.02.26,0-.14,0-.38,0-.52,0-.14-.02-.03-.02.26m5.91-.1c-.08.22-.19.53-.25.69-.14.39-.21.37,1.11.37h1.17v-.1c0-.08-.02-.08-.03-.02-.03.1-2.27.12-2.27.02,0-.06.02-.11.29-.87.09-.25.15-.46.15-.46,0,0-.08.16-.16.38m1.54-.3s.02.1.04.14c.04.06.04.06.04,0,0-.04-.02-.1-.04-.14-.04-.06-.04-.06-.04,0m1.83.06c.02.06.05.12.07.15.02.02.02-.02,0-.1-.06-.16-.11-.2-.06-.04m4.67-.04s.35.03.73.02h.7s-.73-.04-.73-.04c-.4-.01-.72,0-.7.01m-12.14.46c0,.27,0,.38.02.24,0-.14,0-.37,0-.5,0-.13-.02-.01-.02.26m2.38-.27c-.03.07-.04.14-.03.15.01.01.04-.03.07-.1.03-.07.04-.14.03-.15-.01-.01-.04.03-.07.1m3.37.11c.05.16.21.49.18.38-.03-.15-.14-.43-.18-.46-.02-.02-.02.02,0,.08m1.83-.02c0,.06.29.75.3.73.02-.02-.25-.71-.29-.75-.01-.01-.02,0-.02.02m-5.37.37c-.05.14-.09.27-.08.28.01.01.04-.04.07-.11.03-.07.07-.19.1-.26.03-.07.04-.14.03-.15-.01-.01-.07.09-.12.23m3.77.24c.02.06.05.14.07.18.03.05.03.03.01-.05-.02-.06-.05-.14-.07-.18-.03-.05-.03-.03-.01.05m-4,.34c-.05.14-.09.27-.08.28.01.01.03-.02.05-.06.02-.05.06-.16.1-.26.04-.09.06-.18.05-.19s-.07.09-.12.23m-3.87.12c-.02.18-.04.37-.05.42-.02.07-.01.08.02.02.05-.07.12-.77.08-.77-.01,0-.04.15-.05.33m9.81-.18c.02.06.05.12.07.15.02.02.02-.02,0-.1-.06-.16-.11-.2-.06-.04m7.61-.01s-.15.07-.24.09c-.1.03-.16.06-.15.07.03.03.43-.11.5-.17.06-.05-.03-.05-.11,0m-15.62.27c-.02.15-.02.29,0,.3s.04-.1.05-.25c.02-.15.02-.29,0-.3s-.04.1-.05.25m14.83-.06s-.39.04-.75.06l-.66.04.72-.02c.61-.02,1.4-.1.9-.1-.07,0-.18,0-.23.02m-6.71.04c0,.06.29.75.3.73.02-.02-.25-.71-.29-.75-.01-.01-.02,0-.02.02m-6.28.41c-.05.14-.09.26-.08.27,0,0,.06-.1.12-.23.06-.14.09-.26.08-.27-.01-.01-.07.09-.12.23m-1.95.18c-.03.11-.04.22-.03.23.02.02.05-.06.1-.29.04-.22,0-.18-.06.06m-1.89.21c-.06.15-.08.26-.06.23.05-.06.2-.47.18-.49-.01-.01-.06.11-.12.26m10.45.08c.05.15.11.2.08.06-.01-.06-.04-.13-.07-.14-.03-.02-.03.01-.01.08m-8.68.11c-.02.06-.08.22-.14.34-.06.13-.1.24-.09.25.03.03.24-.43.28-.6.02-.06.02-.11,0-.11s-.04.05-.06.12m1.8.1c-.02.07-.1.27-.17.44-.07.17-.1.3-.08.27.05-.06.33-.8.31-.82-.01-.01-.04.04-.06.11m-3.8.15c-.05.07-.08.13-.06.13.05,0,.21-.22.18-.25-.01-.01-.06.04-.12.12m10.8-.11c0,.06.29.75.3.73.02-.02-.25-.71-.29-.75-.01-.01-.02,0-.02.02m-5.29.27s-.04.08-.03.1c.02.02.04,0,.06-.05.04-.1,3.4-.12,3.49-.02.04.04.05.04.05,0,0-.13-3.46-.17-3.57-.04m-5.74.09s-.12.1-.21.14c-.09.04-.15.09-.14.1.02.02.48-.25.48-.29,0-.04-.08-.01-.13.05m5.62.16c-.02.05-.02.11,0,.12s.04-.02.05-.07c.02-.05.02-.11,0-.12s-.04.02-.05.07m-6.24.14l-.09.04h.09s.12-.01.16-.04c.09-.06-.02-.06-.16,0m10.07.14c.03.08.06.13.07.12.02-.02-.06-.26-.09-.26-.01,0,0,.06.03.14m-3.94.05c-.03.08-.04.15-.03.16,0,0,.04-.05.07-.13.03-.08.04-.15.03-.16,0,0-.04.05-.07.13m-3.89.16c-.26.33-.56.59-.82.72-.21.11-.29.18-.14.12.29-.11.99-.72,1.14-1.01.08-.15.03-.11-.18.16m9.74-.11c.05.15.11.2.08.06-.01-.06-.04-.13-.07-.14-.03-.02-.03.01-.01.08m-1.83.13s.02.1.04.14c.04.06.04.06.04,0,0-.04-.02-.1-.04-.14-.04-.06-.04-.06-.04,0m-5.96.13c-.03.08-.04.14-.03.14.03,0,.12-.23.09-.26-.01-.01-.04.04-.07.12m7.9-.01s.05.16.11.29c.06.13.15.36.2.5l.1.26h-.95c-.88-.03-1.06-.01-.88.06.11.04,1.75.03,1.82-.01.07-.04.07-.04-.18-.66-.18-.46-.22-.53-.22-.44m-1.8.24c.03.08.06.13.07.12.02-.02-.06-.26-.09-.26-.01,0,0,.06.03.14m-6.29.21c-.05.14-.09.27-.08.28.01.01.04-.04.07-.11.03-.07.07-.19.1-.26.03-.07.04-.14.03-.15-.01-.01-.07.09-.12.23m1.89-.14c-.05.13-.06.23-.02.19.03-.03.11-.31.08-.31-.01,0-.04.05-.06.12m4.48.16s.02.1.04.14c.04.06.04.06.04,0,0-.04-.02-.1-.04-.14-.04-.06-.04-.06-.04,0m-4.64.33l-.09.24h-.89s-.89.02-.89.02l.03-.15c.04-.18-.01-.15-.07.05-.05.19-.05.19.92.19.93,0,.92,0,1.03-.32.11-.31.08-.34-.04-.03m4.79.04c.03.08.06.13.07.12.02-.02-.06-.26-.09-.26-.01,0,0,.06.03.14m-9.81.05c-.08.02-.14.05-.13.06.02.02.35-.06.35-.09,0-.03-.04-.02-.22.03m-.55.13l-.11.04h.11c.06,0,.17-.02.25-.04l.14-.03h-.14c-.07,0-.19.01-.25.03"/><path id="path4" class="cls-2" d="m24.13,5.57c-.21.02.17.03.88.03.86,0,1.12,0,.84-.03-.48-.04-1.21-.04-1.72,0m-1.22.09l-.23.03h.25c.14,0,.37-.01.52-.03l.27-.03h-.29c-.16,0-.4.01-.52.03m3.66,0c.15.02.38.03.52.03h.25s-.23-.04-.23-.04c-.12-.02-.36-.03-.52-.03h-.29s.27.04.27.04m-4.45.09c-.41.05-.41.1,0,.06.39-.04.67-.1.43-.1-.07,0-.27.02-.42.04m5.37,0c.06.02.26.05.43.06.17.01.27.01.2,0-.06-.02-.26-.05-.43-.06-.17-.01-.27-.01-.2,0m-6.13.14l-.14.03h.16c.09,0,.21-.01.27-.03.16-.05-.09-.05-.29,0m7.01,0c.07.02.2.03.27.03h.14l-.14-.03c-.07-.02-.2-.03-.27-.03h-.14l.14.03m-7.48.09c-.28.05-.3.1-.03.06.22-.03.45-.11.29-.11-.04,0-.16.02-.27.04m8,0c.06.02.28.07.47.12.2.04.41.1.47.12.17.06.43.1.4.07-.04-.04-1-.28-1.26-.31-.14-.02-.17-.02-.09.01m-8.54.14l-.11.04h.11c.06,0,.15-.01.2-.04l.09-.04h-.09s-.14.02-.2.04m-.58.15c-.18.05-.32.1-.31.12.02.02.5-.1.68-.17.17-.07-.04-.04-.37.06m11,.2c.27.09.54.17.59.2.33.14.68.23.52.14-.11-.07-1.45-.5-1.53-.49-.04,0,.15.07.42.16m-11.89.08c-.66.22-1.36.49-1.3.51.03,0,.1,0,.15-.04.11-.06.78-.3,1.31-.48.32-.11.43-.15.34-.15-.02,0-.24.07-.49.15m13.11.34s.08.05.14.07.27.1.46.19c.19.09.36.15.39.14.04-.01-.92-.44-.99-.44-.01,0-.02.02,0,.04m-14.71.27c-3.7,1.72-6.37,3.96-8.49,7.11-.66.98-1.8,3.15-1.71,3.24.01.01.04-.03.06-.09.56-1.47,1.95-3.7,3.15-5.05.76-.87,1.19-1.3,2.06-2.06.89-.78,2.09-1.62,3.27-2.28.62-.35,1.69-.86,1.79-.86.02,0,.05-.02.07-.05.04-.06-.02-.05-.2.03m15.84.22c.1.07.18.09.14.03-.01-.02-.07-.05-.13-.07-.1-.02-.1-.02-.01.04m.21.09s.22.12.46.24c.51.26.9.47,1.13.62.09.06.18.11.2.11s.09.05.17.11c.08.06.17.11.2.11s.06.02.06.03c0,.02.14.11.29.21.33.22,1.39,1,1.6,1.2.09.08.26.23.39.33.32.26,1.51,1.47,1.87,1.89.61.72,1.76,2.27,1.76,2.38,0,.01.05.09.1.16.06.08.12.18.15.23.03.05.18.33.34.61.31.56.58,1.12.94,1.97.02.05.05.13.07.18.02.05.04.08.05.06.06-.06-.61-1.51-1.03-2.25-.12-.21-.22-.39-.22-.4s-.15-.26-.34-.56c-1.6-2.56-3.76-4.7-6.36-6.3-.68-.42-1.97-1.09-1.84-.96M6.8,18.15c-.25.65-.43,1.21-.4,1.24,0,0,.06-.12.12-.29.13-.4.3-.87.44-1.22.06-.16.11-.29.09-.31-.01-.01-.12.25-.25.58m36.36-.12s.11.35.22.68c.21.63.31.96.36,1.18.02.07.04.11.05.08.03-.09-.4-1.45-.58-1.84-.05-.1-.07-.14-.06-.09m-36.9,1.78c-.06.21-.09.38-.08.4.01.01.04-.04.05-.11s.06-.23.1-.34c.04-.12.06-.24.05-.27,0-.03-.06.12-.12.32m37.56.28s.03.17.06.29c.03.12.08.3.1.4.02.1.04.15.05.12.01-.03-.01-.21-.06-.38-.09-.37-.15-.54-.15-.43m-37.72.34c-.02.09-.02.18,0,.19s.04-.05.05-.14c.02-.09.02-.18,0-.19s-.04.05-.05.14m10.76-.04s.9.03,2.02.03,1.96-.01,1.86-.03c-.24-.04-3.85-.05-3.88,0m11.33,0s-.06.04-.06.07c0,.03.02.03.06,0,.05-.04.33-.05.99-.04.51,0,.9,0,.87-.02-.06-.04-1.78-.04-1.87,0m6.3,0s-.03.05-.03.08c0,.03.01.03.04,0,.03-.04.47-.06,1.86-.07h1.83s-1.83-.02-1.83-.02c-1.01,0-1.85,0-1.86.02m3.82.05c.07.01.17.01.23,0,.06-.01,0-.02-.12-.02-.12,0-.17,0-.1.02m-28.91.08c-.04.11-.03,8.58,0,8.64.03.04.68.05,3.13.05h3.09s.01-.73.01-.73c0-.4,0-.74-.02-.76-.02-.02-.04.29-.04.7v.73h-6.15v-8.63h.89c.49,0,.89-.02.89-.03,0-.08-1.8-.04-1.83.04m11.95-.03c.06.02.15.04.2.04.07,0,.07,0-.02-.04-.06-.02-.15-.04-.2-.04-.07,0-.07,0,.02.04m17.72-.03s.1.03.2.04c.13.02.15.02.09-.01-.09-.04-.33-.06-.29-.03m-33.07.35c-.07.35-.07.43-.03.36.05-.08.12-.5.08-.5-.01,0-.03.06-.05.14m24.26.09c.03.08.06.13.07.12.02-.02-.06-.26-.09-.26-.01,0,0,.06.03.14m10.21.25c.14.14.26.25.27.25s-.09-.11-.22-.25c-.14-.14-.26-.25-.27-.25s.09.11.22.25m3.59.02c.01.11.04.29.07.41.02.11.06.31.09.43l.04.23-.02-.25c-.03-.3-.11-.75-.16-.9-.03-.08-.03-.06-.02.09m-38.2.31c-.02.13-.02.25-.01.26.03.03.09-.37.06-.44-.01-.03-.04.05-.05.18m-.09.49c-.05.35-.07.71-.03.6.04-.13.11-.77.08-.77-.01,0-.03.08-.05.17m12.88-.02s-.02,1.34,0,2.9v2.85s.02-2.88.02-2.88v-2.88s.47-.01.47-.01h.46s-.46-.02-.46-.02c-.34,0-.47,0-.49.05m12.06.08c.03.08.06.13.07.12.02-.02-.06-.26-.09-.26-.01,0,0,.06.03.14m5.86-.1c.16,0,.4,0,.54,0,.14,0,.01-.02-.28-.02-.3,0-.41,0-.26.02m-16.5.04c.08.01.21.01.29,0,.08,0,.01-.02-.15-.02s-.23,0-.15.02m17.72,0c.08.01.21.01.29,0,.08,0,.01-.02-.15-.02s-.23,0-.15.02m-1.5,1.19v1.2s.72.01.72.01c.4,0,.85,0,.99-.02.17-.02-.11-.03-.71-.02l-.98.02v-1.19s-.03-1.19-.03-1.19v1.2m4.82-.93s.02.13.04.18c.05.12.05,0,0-.16-.03-.09-.04-.1-.04-.02m3.18.36c.01.2.04.49.07.66.08.51.06,3-.03,3.79-.04.38-.07.7-.06.72.01.01.04-.09.05-.24.02-.15.05-.45.08-.67.07-.57.07-3.04,0-3.68-.08-.74-.15-1.04-.12-.57m-22.77-.28s.07.07.15.15l.15.13-.13-.15c-.12-.14-.16-.17-.16-.13m-15.89.8c-.02.24-.03.47-.02.52.01.05.04-.11.05-.35.02-.24.03-.47.02-.52-.01-.05-.04.11-.05.35m35.56.02c0,.17,0,.24.02.15,0-.09,0-.24,0-.32-.01-.08-.02,0-.02.17m-14.08-.13c-.02.07-.04.13-.03.14.01.01.04-.04.07-.12.06-.17.02-.19-.04-.02m4.03.15c.03.08.06.13.07.12.02-.02-.06-.26-.09-.26-.01,0,0,.06.03.14m-9,.25s.02.12.05.15c.03.05.04.03.02-.07-.04-.17-.06-.2-.06-.09m-16.61,1.07c-.02.38-.01.93.01,1.23.04.51.04.46.05-.69,0-1.38-.01-1.57-.06-.54m16.71-.49c0,.1,0,.13.02.08.01-.06.01-.14,0-.18-.01-.04-.02,0-.02.1m1.9.14c0,.15,0,.2.02.12.01-.08,0-.2,0-.27-.01-.07-.02,0-.02.15m4.29.16c-.03.08-.04.15-.03.16,0,0,.04-.05.07-.13.03-.08.04-.15.03-.16,0,0-.04.05-.07.13m3.17,0c.03.08.06.13.07.12.02-.02-.06-.26-.09-.26-.01,0,0,.06.03.14m-9.3.52c0,.35,0,.48.02.3,0-.18,0-.47,0-.63,0-.17-.02-.02-.02.33m1.9.05c0,.22,0,.32.02.22s0-.29,0-.41c0-.12-.02-.03-.02.19m16.26.24l-.25.26.26-.25c.14-.14.26-.25.26-.26,0-.03-.04,0-.27.25m-10.42.07c.02.06.05.12.07.15.02.02.02-.02,0-.1-.06-.16-.11-.2-.06-.04m2.02.26c.03.08.06.13.07.12.02-.02-.06-.26-.09-.26-.01,0,0,.06.03.14m-7.9.16c0,.15,0,.2.02.12.01-.08,0-.2,0-.27-.01-.07-.02,0-.02.15m-1.9.05c0,.1,0,.13.02.08.01-.06.01-.14,0-.18-.01-.04-.02,0-.02.1m6.28.06c.32,0,.84,0,1.15,0,.32,0,.06-.01-.58-.01s-.89,0-.58.01m8.85.19l-1.11.02v1.63c-.02,1.23-.04,1.63-.08,1.66-.04.03-.04.03.01.02.06-.02.07-.25.08-1.65v-1.63s1.11,0,1.11,0c.6,0,1.14-.02,1.19-.04l.09-.04h-.09s-.59.02-1.2.04m-15.21.25s-.03.11-.02.15c0,.04.02.02.04-.06.04-.14.03-.21-.02-.09m1.88.07s-.02.11-.03.16c-.02.08-.02.08.03,0,.03-.04.04-.12.03-.16-.02-.07-.02-.07-.03,0m-18.44.4c0,.16.01.4.03.52l.04.23v-.25c0-.14-.01-.37-.03-.52l-.03-.27v.29m20.15-.11c-.02.07-.04.13-.03.14.01.01.04-.04.07-.12.06-.17.02-.19-.04-.02m6.72-.02c.02.06.05.12.07.15.02.02.02-.02,0-.1-.06-.16-.11-.2-.06-.04m-3.39.75c1.55.01,1.72.02,1.77.09.03.04.06.06.06.03,0-.15-.1-.15-1.83-.14h-1.72s1.72.02,1.72.02m-23.36.49c.01.17.04.37.06.43.02.06.02-.03,0-.2-.01-.17-.04-.37-.06-.43-.02-.06-.02.03,0,.2m27.2-.1c.02.06.05.12.07.15.02.02.02-.02,0-.1-.06-.16-.11-.2-.06-.04m-12.46.03c-.23.05,0,.05.27,0,.18-.03.19-.04.05-.04-.09,0-.23.02-.32.03m6.6.37c-.03.08-.04.15-.03.16,0,0,.04-.05.07-.13.03-.08.04-.15.03-.16,0,0-.04.05-.07.13m17.11.06c-.02.12-.06.37-.1.55-.07.34-.08.58-.02.35.08-.29.19-1.01.17-1.07-.01-.03-.04.04-.05.17m-21.2.21l-.27.28.28-.27c.26-.25.3-.3.27-.3,0,0-.13.13-.28.28m-17.14.1c0,.07.02.2.03.27l.03.14v-.14c0-.07-.02-.2-.03-.27l-.03-.14v.14m21.02.25c-.03.08-.04.14-.03.14.03,0,.12-.23.09-.26-.01-.01-.04.04-.07.12m-20.91.36c.03.26.28,1.22.31,1.26.03.03-.01-.23-.07-.4-.02-.06-.07-.28-.12-.47-.1-.47-.17-.66-.13-.38m16-.07c-.11.05-.12.06-.02.04.06-.01.13-.05.16-.07.06-.05.03-.05-.13.03m2.81.16c-.02.09.04.17.09.12.01-.01,0-.03-.02-.03s-.04-.04-.02-.09c.01-.05.01-.09,0-.09s-.03.04-.05.09m8.76,0s0,.07-.03.09c-.05.04-.05.04,0,.03.08-.02.12-.17.05-.17-.03,0-.04.02-.02.05m-12.58.07c.07.01.17.01.23,0,.06-.01,0-.02-.12-.02-.12,0-.17,0-.1.02m23.03.06c-.01.06-.03.16-.05.23-.02.12-.22.87-.3,1.15-.03.1-.04.18-.03.2.01.01.04-.03.05-.11.02-.07.06-.21.09-.31.12-.36.3-1.16.28-1.21-.01-.03-.03,0-.05.06m-23.68-.01c.11,0,.27,0,.36,0,.09,0,0-.02-.19-.02-.2,0-.27,0-.17.02m-14,1.15c0,.08.43,1.41.49,1.53.09.16,0-.18-.14-.52-.02-.05-.11-.31-.2-.59-.09-.27-.16-.46-.16-.42m37.16.79c-.06.16-.09.31-.08.32.01.01.07-.11.12-.28.06-.16.09-.31.08-.32-.01-.01-.07.11-.12.28m-.16.45c-.25.75-.72,1.81-1.31,2.91-.11.21-.16.33-.11.27.31-.39,1.57-3.15,1.47-3.25-.01-.01-.03.02-.05.06m-36.45.4c0,.07.43,1.03.44.99,0-.03-.06-.2-.14-.39-.09-.19-.17-.39-.19-.46-.03-.1-.11-.21-.11-.14m.48,1.14c.01.06.04.11.07.13.06.04.05-.04-.03-.14-.06-.08-.06-.08-.04.01m.11.21c0,.07.68,1.34.98,1.82,1.08,1.75,2.3,3.19,3.91,4.6.74.65,2.78,2.1,2.95,2.1,0,0,.19.1.4.22.73.42,2.19,1.09,2.25,1.03.01-.01-.02-.04-.06-.05-.05-.02-.13-.05-.18-.07-.85-.36-1.4-.63-1.97-.94-.29-.16-.56-.31-.61-.34-.05-.03-.15-.09-.23-.15-.08-.06-.15-.1-.16-.1-.11,0-1.66-1.14-2.38-1.76-.42-.36-1.63-1.56-1.89-1.87-.11-.13-.26-.3-.33-.39-.19-.22-.98-1.27-1.2-1.6-.1-.15-.19-.28-.21-.29-.02,0-.03-.04-.03-.06s-.05-.12-.11-.2c-.06-.08-.11-.16-.11-.17s-.05-.1-.11-.2c-.15-.23-.36-.62-.62-1.13-.22-.44-.27-.51-.27-.44m34.06,1.98c-1.58,2.51-3.65,4.57-6.16,6.16-.4.25-.6.41-.25.2,2.65-1.6,5.01-3.95,6.61-6.61.21-.35.05-.15-.2.25m-7,6.66c-.94.52-2.12,1.05-2.89,1.31-.05.02-.08.04-.06.05.09.09,2.84-1.16,3.25-1.47.17-.13.11-.11-.29.12m-16.36,1.23c.4.18,1.76.61,1.84.58.03-.01,0-.03-.08-.05-.22-.05-.54-.16-1.18-.36-.76-.25-.8-.26-.59-.16m12.98.25c-.14.05-.25.1-.24.11.02.02.62-.17.62-.2,0-.03-.12,0-.37.08m-.55.18c-.25.08-.99.27-1.19.31-.19.03-.31.09-.18.09.04,0,.34-.07.67-.16.33-.09.67-.18.76-.2.16-.04.24-.09.14-.09-.04,0-.13.02-.2.05m-10.44.22c.17.07.74.19.8.17.03-.01-.02-.04-.12-.05-.1-.02-.28-.06-.4-.1-.25-.07-.43-.08-.27-.02m.97.22c.15.05.6.13.9.16l.25.02-.23-.04c-.12-.02-.32-.06-.43-.09-.31-.07-.64-.1-.5-.05m7.5.03c-.16.03-.4.07-.52.09-.12.02-.2.04-.17.05.06.02.78-.09,1.07-.17.24-.06-.05-.04-.38.02m-6.15.2c.82.16,3.48.22,4.41.1.22-.03.53-.07.67-.08.14-.02.25-.04.24-.05-.01-.01-.34.01-.72.06-.79.09-3.28.11-3.79.03-.4-.06-1.1-.11-.81-.05"/></g></svg>