<svg version="1.0" xmlns="http://www.w3.org/2000/svg" width="356" height="400" viewBox="0 0 267 300"><path d="M136.3 13.2 114 26.3l3.2 5.8c1.8 3.2 3.9 6.7 4.8 8l1.7 2.2 12.2-7.3c6.8-3.9 12.4-7 12.6-6.8.1.1-1 7.3-2.6 15.8-1.5 8.5-2.8 16.2-2.9 17.1 0 1.3 2 2 8.7 3.2 4.8.9 8.8 1.5 9 1.4.1-.2 1.5-7.6 3.1-16.5 2.7-14.8 3.6-18.3 4.5-17.1 10.8 13.7 17.3 20.9 18.5 20.4 2.1-.8 13.1-9.9 12.9-10.7-.5-1.7-32.9-40.7-34.3-41.2-3.9-1.5-8.2.3-29.1 12.6zM83 43c-8 .4-17.1.8-20.2.9-4.4.1-6.3.6-8.4 2.4-2.5 2.2-3 4.1-7.1 26.8-2.4 13.4-4.2 24.8-4 25.3.2.6 3.2 1.6 6.8 2.3 11.3 2.1 10.2 3.2 12.9-12.7 1.3-7.7 2.6-14 2.9-14 .3 0 5.3 5.4 11 12s10.7 12 11.2 12c.9 0 12.3-9.8 12.7-10.9.1-.4-4.5-6.2-10.3-12.9C84.7 67.6 80 61.9 80 61.7c0-.2 6.4-.7 14.2-1.1 7.8-.3 14.4-.8 14.6-1.1.2-.2.1-4.2-.3-8.9l-.7-8.6-5.2.2c-2.8.1-11.6.5-19.6.8zM197.1 66.6c-1.8 4.2-2.9 7.9-2.6 8.3.3.3 6 2.8 12.6 5.6 6.6 2.7 12 5.4 11.9 6 0 .5-6 4.3-13.2 8.3-7.2 4-13.4 7.5-13.7 7.8-.7.7 7.1 15.4 8.2 15.4.5 0 6.9-3.4 14.3-7.5s13.8-7.5 14.2-7.5c.5 0-.2 5.9-1.5 13.2-1.3 7.2-2.2 13.7-1.9 14.3.4 1.1 16.3 4.3 17 3.4.1-.2 2.2-11.4 4.5-24.9 4.3-25 4.4-28 1-30.6C246.2 77 202.8 59 201.4 59c-.6 0-2.6 3.4-4.3 7.6zM143.6 90.8c-1.5.3-35.3 19.6-43.3 24.8l-2.2 1.4 4.7 7.9 4.6 8 3.1-1.8c1.6-1 6.9-4.1 11.6-7 4.8-2.8 9.1-5.1 9.6-5.1s-.3 7.5-1.9 16.6c-1.6 9.1-2.7 16.9-2.4 17.1.8.8 16.7 3.5 17.3 2.9.2-.2 1.7-7.7 3.3-16.6 1.6-8.9 3.1-16.4 3.3-16.6.3-.3 4.6 4.5 9.7 10.5l9.2 11.1 6.6-5.7c3.7-3.1 6.7-6 6.7-6.4 0-1-28.5-35.7-31.7-38.5-2.5-2.3-5.3-3.2-8.2-2.6zM20.8 124.1C2.7 140.1 0 143 0 147c0 1.5 22.7 44.1 24.5 45.8.5.5 10.4-4.5 13.6-6.9 2-1.5 2-1.6-4.6-13.8-3.7-6.7-6.5-12.4-6.3-12.7.3-.2 7 .7 14.9 2.1 7.9 1.4 15.1 2.5 16 2.5 1.2 0 1.9-1.9 3.1-8.3.8-4.5 1.3-8.4 1.2-8.6-.2-.2-7.3-1.6-15.9-3.1-8.6-1.5-15.8-3-16.1-3.2-.3-.3 4.3-4.7 10.1-9.9 5.8-5.1 10.5-9.5 10.5-9.8-.1-.3-2.7-3.5-5.9-7l-5.7-6.3-18.6 16.3zM234.5 148c-3.8 2.2-7 4.3-7 4.7 0 .5 2.9 6.1 6.4 12.6 3.4 6.5 6.1 12 5.8 12.3-.2.3-7.5-.8-16.2-2.4-10.7-2-15.8-2.6-16-1.8-.3.6-1.1 4.6-1.8 8.8l-1.4 7.7 5.1 1c2.8.6 9.4 1.7 14.6 2.6 14.9 2.5 14.7 1.8 2.6 12.4-5.9 5.1-10.6 9.7-10.4 10.2.4 1.2 10.2 12.8 10.8 12.8 1.2.1 37.6-32.4 38.8-34.6.8-1.4 1.2-3.5 1-4.7-.6-2.8-23.7-45.6-24.6-45.6-.4.1-3.8 1.9-7.7 4zM105.7 187.9c-12 7.1-21.8 13.3-21.8 13.7 0 1.2 8.2 15.4 8.8 15.4.2 0 5.8-3.2 12.4-7.1 6.6-4 12.1-7 12.3-6.8.3.2-.9 8-2.5 17.3s-2.8 16.9-2.7 17.1c.2.1 4.2.8 9.1 1.6 8.6 1.5 8.8 1.5 9.2-.5.3-1.2 1.6-8.8 3-17.1 1.5-8.2 2.8-15.1 2.9-15.2.2-.2 4.4 4.7 9.5 10.7 10.4 12.5 9.2 12.2 18 4.2l5.5-4.9-16.3-19.6c-8.9-10.8-17.1-20.1-18.1-20.7-4.2-2.3-7.6-.9-29.3 11.9zM23.7 208.7c-.4 3.2-1.2 14.7-1.9 25.6l-1.2 19.8 2.5 2.4c1.8 1.7 8.3 4.1 24.6 8.9C60 269 70.6 272 71.3 272c1.7 0 6.3-14.8 5.1-16-.5-.5-6.7-2.5-13.7-4.6-7-2-12.4-4-12-4.5.4-.4 6.4-4.6 13.3-9.4 6.9-4.8 12.4-9.1 12.3-9.5-.1-.5-2.3-3.8-4.9-7.4l-4.6-6.6-4.6 3.3c-11 7.9-21.1 14.7-21.7 14.7-.4 0-.4-6.2 0-13.8l.7-13.9-6.2-.6c-11.2-1.2-10.7-1.4-11.3 5zM174.1 239.4c-3.5 2.5-6.5 4.7-6.8 5-.3.3 3.6 6.4 8.6 13.7 5.1 7.2 9 13.3 8.8 13.6-.3.2-6.5 0-13.8-.6-10.2-.8-13.5-.7-14.1.2-.4.7-.8 4.7-.8 8.9v7.8h2.8c1.5 0 11.7.7 22.7 1.5 25.6 1.9 24 2 27.4-1.2 2.4-2.4 3.9-6.5 9.5-25.4 3.6-12.5 6.6-22.9 6.6-23.2 0-.6-13.3-4.7-15.3-4.7-1.5 0-2.3 2.2-7.4 19.7-1 3.5-2.1 6.3-2.4 6.3-.3 0-4.5-5.8-9.5-13-4.9-7.1-9.1-13-9.5-13-.3 0-3.3 2-6.8 4.4zM105 267.9c-12.2 6.4-11.4 24.4 1.4 30.2 5.3 2.4 9 2.4 14.3-.2 5.8-2.8 9.3-8.7 9.3-15.6 0-12.4-13.8-20.4-25-14.4z"/></svg>