<?xml version="1.0" encoding="UTF-8"?><svg id="Layer_1" xmlns="http://www.w3.org/2000/svg" viewBox="0 0 50 50"><defs><style>.cls-1{fill:#fff;}.cls-1,.cls-2{fill-rule:evenodd;}</style></defs><path class="cls-2" d="m25.1,3.72c3.93,0,7.87-.06,11.8.02,3.54.07,6.42,1.47,8.28,4.62.97,1.64,1.3,3.45,1.31,5.32.02,7.73.05,15.46-.02,23.2-.03,3.6-1.5,6.52-4.73,8.37-1.62.93-3.4,1.24-5.23,1.25-7.73.02-15.46.04-23.2-.02-3.15-.03-5.84-1.2-7.77-3.82-1.03-1.41-1.57-3-1.72-4.73-.07-.76-.1-1.53-.1-2.29,0-7.43-.05-14.86.03-22.3.04-3.83,1.67-6.84,5.21-8.61,1.55-.78,3.23-1,4.95-1,3.73-.01,7.47,0,11.2,0,0,0,0,0,0,.01Zm-8,34.68h5.41v-8.65c.9.43,1.74.96,2.66,1.24,3.51,1.06,7.28-.48,9.26-3.73,1.46-2.39,1.81-5.02,1.53-7.75-.23-2.18-.97-4.17-2.43-5.86-2.65-3.05-8.13-3.85-11.28-.36-.05.06-.12.11-.19.17-.41-.99-.69-1.34-1.37-1.54-.46-.13-.95-.2-1.42-.21-1.4-.03-2.8,0-4.2,0h-.61v5.39c.66,0,1.29,0,1.92,0q.73,0,.73.71c0,6.63,0,13.27,0,19.9,0,.21,0,.43,0,.7Z"/><path class="cls-1" d="m17.1,38.4v-.7c0-6.63,0-13.27,0-19.9q0-.71-.73-.71c-.63,0-1.26,0-1.92,0v-5.39h.61c1.4,0,2.8-.02,4.2,0,.48,0,.97.08,1.42.21.69.2.96.55,1.37,1.54.07-.06.13-.11.19-.17,3.15-3.49,8.64-2.7,11.28.36,1.46,1.69,2.2,3.67,2.43,5.86.28,2.73-.07,5.36-1.53,7.75-1.98,3.24-5.76,4.79-9.26,3.73-.92-.28-1.77-.82-2.66-1.24v8.65c-1.83,0-3.59,0-5.41,0Zm14.04-17.35c0-.94-.16-2.01-.67-2.99-.79-1.5-2.02-2.32-3.75-2.27-1.71.04-2.99.84-3.66,2.4-.84,1.94-.84,3.93.05,5.86.7,1.52,1.91,2.39,3.62,2.38,1.74,0,3.02-.83,3.8-2.38.45-.9.6-1.86.61-3.01Z"/><path class="cls-2" d="m31.14,21.05c-.01,1.15-.15,2.12-.61,3.01-.79,1.55-2.07,2.38-3.8,2.38-1.71,0-2.92-.86-3.62-2.38-.89-1.93-.89-3.92-.05-5.86.67-1.57,1.95-2.36,3.66-2.4,1.73-.04,2.96.77,3.75,2.27.51.98.67,2.05.67,2.99Z"/></svg>