<?xml version="1.0" encoding="UTF-8"?><svg id="Layer_1" xmlns="http://www.w3.org/2000/svg" viewBox="0 0 50 50"><defs><style>.cls-1{fill:none;}.cls-2{fill:#f60;}</style></defs><path class="cls-2" d="m38.54,19.08h-12.07c-.61,0-1.1-.49-1.1-1.1V5.4c0-.93-.76-1.69-1.69-1.69h-4.31c-.93,0-1.69.76-1.69,1.69v12.51c0,.65-.52,1.18-1.17,1.18l-3.96.02c-.65,0-1.19-.53-1.18-1.18l.02-12.52c0-.93-.75-1.69-1.69-1.69h-4.31c-.93,0-1.69.76-1.69,1.69v35.23c0,.83.67,1.5,1.5,1.5h33.33c.83,0,1.5-.67,1.5-1.5v-20.05c0-.83-.67-1.5-1.5-1.5Zm-5.66,13.23c0,1.08-.88,1.96-1.96,1.96h-3.41c-1.08,0-1.96-.88-1.96-1.96v-3.41c0-1.08.88-1.96,1.96-1.96h3.41c1.08,0,1.96.88,1.96,1.96v3.41h0Z"/><rect class="cls-1" x="3.72" y="3.72" width="42.57" height="42.57"/></svg>