<?xml version="1.0" encoding="UTF-8"?><svg id="Layer_1" xmlns="http://www.w3.org/2000/svg" viewBox="0 0 50 50"><defs><style>.cls-1{fill:#f4b223;}.cls-2{fill:#fff;}</style></defs><g id="Layer_2"><g id="Layer_1-2"><rect class="cls-1" x="4" y="4" width="42" height="42" rx="6.19" ry="6.19"/><path class="cls-2" d="m33.97,37.99c0,1.26-.67,1.88-1.84,1.88-1.31,0-1.91-.82-1.94-2.03h1.16c.03.62.29.93.78.93s.66-.3.66-.84v-4.07h1.18v4.14Z"/><path class="cls-2" d="m38.69,35.52h-1.18c.03-.39-.27-.72-.65-.75-.02,0-.05,0-.07,0-.33-.04-.63.19-.67.52,0,.04,0,.08,0,.12,0,.46.32.6,1.05.84,1.26.42,1.72.95,1.72,1.85,0,1.15-.84,1.8-1.98,1.8-1.36,0-2.07-.8-2.11-1.93h1.18c-.04.46.31.87.78.9.05,0,.1,0,.15,0,.38.05.73-.21.78-.59,0-.03,0-.05,0-.08,0-.42-.32-.63-1.05-.87-1.08-.35-1.71-.84-1.71-1.82s.71-1.78,1.88-1.78,1.84.62,1.89,1.79Z"/><polygon class="cls-2" points="17.95 19.73 9.89 19.73 17.95 8.11 17.95 19.73"/><polygon class="cls-2" points="17.95 19.73 17.95 31.34 26.01 19.73 17.95 19.73"/></g></g></svg>