<?xml version="1.0" encoding="UTF-8"?><svg id="Layer_1" xmlns="http://www.w3.org/2000/svg" viewBox="0 0 50 50"><defs><style>.cls-1{fill-rule:evenodd;}</style></defs><path d="m6.73,12.63c-.73-.21-1.34-.51-1.82-.88l.74-1.64c1.01.7,2.14,1.05,3.39,1.05.65,0,1.15-.11,1.5-.32.35-.21.53-.51.53-.88,0-.34-.16-.6-.48-.79-.32-.19-.89-.37-1.71-.55-.92-.19-1.65-.41-2.2-.68s-.95-.59-1.2-.99c-.25-.39-.38-.87-.38-1.44,0-.63.18-1.2.53-1.69.35-.49.84-.88,1.47-1.16.63-.28,1.36-.42,2.19-.42.74,0,1.45.11,2.14.33.69.22,1.23.51,1.64.87l-.74,1.64c-.96-.7-1.97-1.05-3.02-1.05-.6,0-1.08.12-1.42.35-.34.23-.52.55-.52.96,0,.24.07.43.2.58.13.15.36.29.67.41s.75.24,1.33.37c1.34.3,2.31.68,2.9,1.14.59.46.88,1.11.88,1.93,0,.99-.38,1.77-1.14,2.33s-1.82.85-3.19.85c-.79,0-1.55-.11-2.28-.32Z"/><path d="m25.37,2.37v10.45h-2.03v-6.19l-2.4,4.48h-1.48l-2.4-4.42v6.13h-2.03V2.37h1.82l3.36,6.39,3.36-6.39h1.79Z"/><path d="m29.89,4.25h-3.28v-1.88h8.86v1.88h-3.28v8.57h-2.31V4.25Z"/><path d="m36.69,2.37h4.8c1.14,0,2.02.29,2.65.86s.95,1.37.95,2.4-.32,1.83-.95,2.4-1.52.86-2.65.86h-2.49v3.93h-2.31V2.37Zm4.51,4.77c1.16,0,1.73-.5,1.73-1.5,0-.51-.14-.89-.43-1.14-.29-.25-.72-.37-1.3-.37h-2.19v3.01h2.19Z"/><g id="layer1"><path class="cls-1" d="m8.73,47.74c-1.15-.1-2.18-.66-2.87-1.5.71.82,1.71,1.4,2.87,1.5Z"/><path class="cls-1" d="m8.73,16.06c-1.15.11-2.16.68-2.87,1.5.69-.85,1.71-1.41,2.87-1.5Z"/><polygon class="cls-1" points="38.77 20.23 38.73 20.27 10.91 20.27 38.77 20.23"/><polygon class="cls-1" points="9.14 24.48 9.14 43.53 9.1 24.45 9.14 24.48"/><polygon class="cls-1" points="9.14 43.53 40.86 43.53 9.14 43.58 9.14 43.53"/><polygon class="cls-1" points="40.91 43.53 40.86 43.53 40.86 24.07 40.87 24.05 40.91 43.53"/><path class="cls-1" d="m44.13,46.24c-.69.85-1.71,1.41-2.87,1.5,1.15-.11,2.16-.68,2.87-1.5Z"/><path class="cls-1" d="m44.13,17.56c-.71-.82-1.71-1.4-2.87-1.5,1.15.1,2.18.66,2.87,1.5Z"/><path d="m41.27,16.06c.29.02.57.07.84.16-.26-.07-.55-.14-.84-.16Zm2.22.87h-.01s.05.05.07.06c-.02-.03-.04-.04-.06-.06Zm-.26-.19s-.03-.02-.05-.03c-.06-.04-.13-.08-.2-.12-.12-.06-.22-.13-.34-.18-.02,0-.03-.01-.04-.01-.03-.02-.06-.03-.1-.03.21.08.4.19.59.31.13.07.25.16.37.24.01.01.01.02.02.01-.08-.07-.17-.14-.25-.18h0Zm-1.96,31.01c.29-.02.57-.08.84-.16-.26.08-.55.14-.84.16Zm2.21-.87h.01s.04-.03.06-.06c-.02.01-.04.03-.07.06Zm-.39.25c-.19.12-.38.22-.59.31.03,0,.06-.01.1-.03.01,0,.02-.01.04-.01.12-.05.22-.12.34-.18.07-.03.14-.07.2-.12.02-.01.03-.02.05-.03h0c.08-.05.17-.12.25-.19-.01-.01-.01,0-.02.01-.12.08-.24.17-.37.24ZM7.41,16.4s-.02.01-.04.01c-.12.05-.22.12-.34.18-.07.03-.14.07-.2.12-.02.01-.03.02-.05.03h0c-.08.05-.17.12-.25.19.01.01.01,0,.02-.01.12-.08.24-.17.37-.24.19-.12.38-.22.59-.31-.03,0-.06.01-.1.03Zm-.96.59s.04-.03.07-.06h-.01s-.04.03-.06.06Zm1.45-.77c.26-.08.55-.14.84-.16-.29.02-.57.08-.84.16Zm-.98,30.91c-.13-.07-.25-.16-.37-.24-.01-.01-.01-.02-.02-.01.08.07.17.14.25.18h0s.03.03.05.04c.06.04.13.08.2.12.12.06.22.13.34.18.02,0,.03.01.04.01.03.02.06.03.1.03-.21-.08-.4-.19-.59-.31Zm-.4-.25h.01s-.05-.05-.07-.06c.02.03.04.04.06.06Zm1.39.71c.26.07.55.14.84.16-.29-.02-.57-.07-.84-.16Z"/><path class="cls-1" d="m44.9,18.98c-.06-.19-.14-.38-.23-.57-.08-.16-.17-.32-.26-.47-.08-.14-.18-.26-.27-.38-.08-.11-.18-.2-.27-.3-.1-.1-.2-.18-.31-.27-.02-.01-.04-.03-.07-.06-.01.01-.01,0-.02-.01-.12-.08-.24-.17-.37-.24-.19-.12-.38-.22-.59-.31-.13-.05-.25-.11-.39-.15-.26-.07-.55-.14-.84-.16-.14-.01-.29-.02-.43-.02H9.17c-.15,0-.3.01-.43.02-.29.02-.57.08-.84.16-.14.04-.26.1-.39.15-.21.08-.4.19-.59.31-.13.07-.25.16-.37.24-.01.01-.01.02-.02.01-.03.03-.05.05-.07.06-.11.1-.21.18-.31.27-.1.1-.19.19-.27.3-.1.12-.19.24-.27.38-.1.15-.18.31-.26.47-.1.19-.17.38-.23.57-.13.4-.19.81-.19,1.25v23.35c0,.43.06.85.19,1.25.06.19.14.38.23.57.08.16.17.32.26.47.08.14.18.26.27.38.08.11.18.2.27.3.1.1.2.18.31.27.02.01.04.03.07.06.01-.01.01,0,.02.01.12.08.24.17.37.24.19.12.38.22.59.31.13.05.25.11.39.15.26.07.55.14.84.16.14.01.29.02.43.02h31.66c.15,0,.3-.01.43-.02.29-.02.57-.08.84-.16.14-.04.26-.1.39-.15.21-.08.4-.19.59-.31.13-.07.25-.16.37-.24.01-.01.01-.02.02-.01.03-.03.05-.05.07-.06.11-.1.21-.18.31-.27.1-.1.19-.19.27-.3.1-.12.19-.24.27-.38.1-.15.18-.31.26-.47.1-.19.17-.38.23-.57.13-.4.19-.81.19-1.25v-23.35c0-.43-.06-.85-.19-1.25Zm-6.13,1.25l-.04.04-14.11,13.35s-.07.06-.11.1c-.04-.04-.1-.08-.14-.14l-13.46-13.3,27.86-.04Zm2.09,23.31l-31.73.04v-.04l-.03-19.09.03.03,12.2,12.05c.65.68,1.66,1.6,3.09,1.62h.06c1.41,0,2.44-.87,3.07-1.49l13.3-12.59h.01s.03,19.47.03,19.47h-.04Z"/><polygon class="cls-1" points="38.77 20.23 38.73 20.27 10.91 20.27 38.77 20.23"/><polygon class="cls-1" points="9.14 24.48 9.14 43.53 9.1 24.45 9.14 24.48"/><polygon class="cls-1" points="9.14 43.53 40.86 43.53 9.14 43.58 9.14 43.53"/><polygon class="cls-1" points="40.91 43.53 40.86 43.53 40.86 24.07 40.87 24.05 40.91 43.53"/></g></svg>