<?xml version="1.0" encoding="UTF-8"?><svg id="Layer_1" xmlns="http://www.w3.org/2000/svg" viewBox="0 0 50 50"><path d="m41.04,3.5H8.96c-3.01,0-5.46,2.45-5.46,5.46v32.08c0,3.01,2.45,5.46,5.46,5.46h32.08c3.01,0,5.46-2.45,5.46-5.46V8.96c0-3.01-2.45-5.46-5.46-5.46Zm-7.69,31.19v4.95h-2.52v-12.09h2.52v4.62h3.28v-4.62h2.52v12.09h-2.52v-4.95h-3.28Zm-17.83.18c-.33-.1-.63-.18-.9-.25-.97-.26-1.73-.46-2.55-1.07-.97-.73-1.46-1.91-1.27-3.1.2-1.25,1.1-2.25,2.4-2.69,2.01-.67,3.84.31,4.53.76l-1.38,2.11c-.3-.2-1.36-.81-2.35-.48-.41.14-.66.38-.71.7-.04.26.07.51.29.68.42.31.8.42,1.7.66.28.07.59.16.95.26,1.3.38,1.95,1.18,2.27,1.79.38.72.49,1.58.31,2.36-.42,1.82-2.05,3.04-4.04,3.04-1.52,0-3-.58-4.05-1.6l1.76-1.81c.58.57,1.42.89,2.29.89,1.24,0,1.53-.83,1.59-1.09,0-.04.19-.86-.84-1.16h0Zm-1.38-12.7v-2.9l5.15-2.92-5.15-2.92v-2.9l8.33,4.72v2.19l-8.33,4.72Zm11.24,12.7c-.33-.1-.63-.18-.9-.25-.97-.26-1.73-.46-2.55-1.07-.97-.73-1.46-1.91-1.27-3.1.2-1.25,1.1-2.25,2.4-2.69,2.01-.67,3.84.31,4.53.76l-1.38,2.11c-.3-.2-1.36-.81-2.35-.48-.41.14-.66.38-.71.7-.04.26.07.51.29.68.42.31.8.42,1.7.66.28.07.59.16.95.26,1.3.38,1.95,1.18,2.27,1.79.38.72.49,1.58.31,2.36-.42,1.82-2.05,3.04-4.04,3.04-1.52,0-3-.58-4.05-1.6l1.76-1.81c.58.57,1.42.89,2.29.89,1.24,0,1.53-.83,1.59-1.09,0-.04.19-.86-.84-1.16Zm-2.92-12.66v-2.52h13.44v2.52h-13.44Z"/></svg>