<?xml version="1.0" encoding="UTF-8"?><svg id="Layer_1" xmlns="http://www.w3.org/2000/svg" viewBox="0 0 50 50"><defs><style>.cls-1{fill:#fff;}.cls-2{fill:#4353ff;}</style></defs><circle class="cls-2" cx="25" cy="25" r="22.5"/><path class="cls-1" d="m31.61,22.33l-2.04,6.43c0-.49-1.41-11.15-1.41-11.15-3.23,0-4.95,2.29-5.85,4.73l-2.49,6.44c0-.46-.35-6.38-.35-6.38-.25-2.65-2.44-4.7-5.1-4.77l2.64,16.14c3.37,0,5.2-2.29,6.15-4.73l2.11-5.48c0,.22,1.41,10.21,1.41,10.21,2.83,0,5.34-1.84,6.19-4.54l4.78-11.62c-3.37,0-5.15,2.29-6.05,4.73h.01Z"/></svg>